<svg width="13" height="14" viewBox="0 0 13 14" fill="none" xmlns="http://www.w3.org/2000/svg">
<path d="M2.74854 8.16699H10.4152V7.16699H2.74854V8.16699ZM2.74854 6.16699H10.4152V5.16699H2.74854V6.16699ZM2.74854 4.16699H10.4152V3.16699H2.74854V4.16699ZM1.4537 10.667C1.11692 10.667 0.831869 10.5503 0.598535 10.317C0.365202 10.0837 0.248535 9.7986 0.248535 9.46183V1.87216C0.248535 1.53538 0.365202 1.25033 0.598535 1.01699C0.831869 0.783659 1.11692 0.666992 1.4537 0.666992H11.71C12.0468 0.666992 12.3319 0.783659 12.5652 1.01699C12.7985 1.25033 12.9152 1.53538 12.9152 1.87216V13.026L10.5562 10.667H1.4537Z" fill="#666666"/>
</svg>
