<svg width="20" height="20" viewBox="0 0 20 20" fill="none" xmlns="http://www.w3.org/2000/svg">
<path d="M19.5 19.0385L15.9615 15.5H2.30775C1.80258 15.5 1.375 15.325 1.025 14.975C0.675 14.625 0.5 14.1974 0.5 13.6923V2.30775C0.5 1.80258 0.675 1.375 1.025 1.025C1.375 0.675 1.80258 0.5 2.30775 0.5H17.6923C18.1974 0.5 18.625 0.675 18.975 1.025C19.325 1.375 19.5 1.80258 19.5 2.30775V19.0385ZM2.30775 14H16.6L18 15.3848V2.30775C18 2.23075 17.9679 2.16025 17.9038 2.09625C17.8398 2.03208 17.7693 2 17.6923 2H2.30775C2.23075 2 2.16025 2.03208 2.09625 2.09625C2.03208 2.16025 2 2.23075 2 2.30775V13.6923C2 13.7692 2.03208 13.8398 2.09625 13.9038C2.16025 13.9679 2.23075 14 2.30775 14Z" fill="#1C1B1F"/>
</svg>
