<svg width="24" height="24" viewBox="0 0 24 24" fill="none" xmlns="http://www.w3.org/2000/svg">
<path d="M9.27273 4C9.00245 4.00584 8.76195 4.1837 8.66193 4.37642L7.71023 6.27273H4.27273C3.02543 6.27273 2 7.29816 2 8.54546V18.5455C2 19.7928 3.02543 20.8182 4.27273 20.8182H19.7273C20.9746 20.8182 22 19.7928 22 18.5455V8.54546C22 7.29816 20.9746 6.27273 19.7273 6.27273H16.2898L15.3381 4.37642C15.2253 4.15126 14.9791 3.99957 14.7273 4H9.27273ZM9.69886 5.36364H14.3011L15.2528 7.25994C15.3657 7.4851 15.6118 7.63679 15.8636 7.63636H19.7273C20.2427 7.63636 20.6364 8.03002 20.6364 8.54546V18.5455C20.6364 19.0609 20.2427 19.4546 19.7273 19.4546H4.27273C3.7573 19.4546 3.36364 19.0609 3.36364 18.5455V8.54546C3.36364 8.03002 3.7573 7.63636 4.27273 7.63636H8.13636C8.38821 7.63682 8.63434 7.4851 8.74716 7.25994L9.69886 5.36364ZM12 8.77273C9.3722 8.77273 7.22727 10.9176 7.22727 13.5455C7.22727 16.1733 9.37218 18.3182 12 18.3182C14.6278 18.3182 16.7727 16.1733 16.7727 13.5455C16.7727 10.9176 14.6278 8.77273 12 8.77273ZM12 10.1364C13.8909 10.1364 15.4091 11.6546 15.4091 13.5455C15.4091 15.4363 13.8909 16.9546 12 16.9546C10.1092 16.9546 8.59091 15.4363 8.59091 13.5455C8.59091 11.6546 10.1092 10.1364 12 10.1364Z" fill="#E3E3E3"/>
<path d="M9.27273 4C9.00245 4.00584 8.76195 4.1837 8.66193 4.37642L7.71023 6.27273H4.27273C3.02543 6.27273 2 7.29816 2 8.54546V18.5455C2 19.7928 3.02543 20.8182 4.27273 20.8182H19.7273C20.9746 20.8182 22 19.7928 22 18.5455V8.54546C22 7.29816 20.9746 6.27273 19.7273 6.27273H16.2898L15.3381 4.37642C15.2253 4.15126 14.9791 3.99957 14.7273 4H9.27273ZM9.69886 5.36364H14.3011L15.2528 7.25994C15.3657 7.4851 15.6118 7.63679 15.8636 7.63636H19.7273C20.2427 7.63636 20.6364 8.03002 20.6364 8.54546V18.5455C20.6364 19.0609 20.2427 19.4546 19.7273 19.4546H4.27273C3.7573 19.4546 3.36364 19.0609 3.36364 18.5455V8.54546C3.36364 8.03002 3.7573 7.63636 4.27273 7.63636H8.13636C8.38821 7.63682 8.63434 7.4851 8.74716 7.25994L9.69886 5.36364Z" fill="#E3E3E3"/>
</svg>
