<svg width="26" height="26" viewBox="0 0 26 26" fill="none" xmlns="http://www.w3.org/2000/svg">
<path d="M7.55344 18.6704L9.79471 18.0238L23.2894 4.36746C23.3959 4.25838 23.4551 4.11181 23.4544 3.9594C23.4537 3.807 23.3931 3.66099 23.2856 3.55291L22.4774 2.73582C22.4252 2.68216 22.3628 2.63944 22.2939 2.61015C22.225 2.58086 22.1509 2.56559 22.0761 2.56524C22.0012 2.56488 21.927 2.57945 21.8578 2.60808C21.7886 2.63671 21.7258 2.67884 21.6731 2.732L8.21398 16.3527L7.55216 18.6691L7.55344 18.6704ZM24.0773 1.11691L24.8854 1.93528C26.0003 3.06419 26.0105 4.88546 24.9058 6.00291L11 20.0767L6.20944 21.4564C5.91696 21.5382 5.60395 21.5007 5.3391 21.3521C5.07424 21.2034 4.87918 20.9558 4.79671 20.6635C4.73534 20.4533 4.73446 20.2301 4.79416 20.0195L6.1878 15.1322L20.0567 1.09528C20.3204 0.829732 20.6344 0.619355 20.9803 0.476415C21.3261 0.333476 21.697 0.260836 22.0713 0.262731C22.4455 0.264627 22.8156 0.34102 23.16 0.487456C23.5044 0.633891 23.8162 0.847437 24.0773 1.11564V1.11691ZM9.41671 2.58437C10.048 2.58437 10.5596 3.10237 10.5596 3.74128C10.5606 3.89231 10.5319 4.04206 10.4749 4.18196C10.418 4.32187 10.3341 4.44918 10.228 4.55663C10.1218 4.66407 9.99553 4.74954 9.85633 4.80815C9.71713 4.86676 9.56774 4.89735 9.41671 4.89819H4.84507C3.58253 4.89819 2.55926 5.93419 2.55926 7.21073V21.0911C2.55926 22.3689 3.58253 23.4049 4.84507 23.4049H18.56C19.8225 23.4049 20.8471 22.3689 20.8471 21.0911V16.4647C20.8471 15.8258 21.3587 15.3078 21.99 15.3078C22.6213 15.3078 23.1329 15.8258 23.1329 16.466V21.0911C23.1329 23.6467 21.0851 25.7187 18.56 25.7187H4.84507C2.31998 25.7187 0.273438 23.6467 0.273438 21.0911V7.21073C0.273438 4.65637 2.31998 2.58437 4.84507 2.58437H9.41671Z" fill="white"/>
</svg>
