<svg width="21" height="20" viewBox="0 0 21 20" fill="none" xmlns="http://www.w3.org/2000/svg">
<path d="M5.26925 0.904297H15.7885V12.904L9.15375 19.5003L8.30775 18.654C8.20392 18.5502 8.11767 18.4127 8.049 18.2415C7.9805 18.0704 7.94625 17.9092 7.94625 17.758V17.504L9.00775 12.904H2.30775C1.83208 12.904 1.41192 12.7217 1.04725 12.357C0.682417 11.9922 0.5 11.572 0.5 11.0965V9.48105C0.5 9.37721 0.5135 9.26505 0.5405 9.14455C0.567333 9.02405 0.597417 8.91188 0.63075 8.80805L3.49625 2.04655C3.63975 1.72605 3.88008 1.45555 4.21725 1.23505C4.55442 1.01455 4.90508 0.904297 5.26925 0.904297ZM14.2885 2.4043H5.26925C5.19875 2.4043 5.12667 2.42346 5.053 2.4618C4.97917 2.5003 4.923 2.56446 4.8845 2.6543L2 9.4043V11.0965C2 11.1862 2.02883 11.2599 2.0865 11.3175C2.14417 11.3754 2.21792 11.4043 2.30775 11.4043H10.9038L9.65 16.885L14.2885 12.2658V2.4043ZM15.7885 12.904V11.4043H19V2.4043H15.7885V0.904297H20.5V12.904H15.7885Z" fill="#1C1B1F"/>
</svg>
