<svg width="14" height="13" viewBox="0 0 14 13" fill="none" xmlns="http://www.w3.org/2000/svg">
<path d="M3.76153 0.602539H10.364V8.60237L5.94103 12.9999L5.37703 12.4357C5.3077 12.3665 5.2502 12.2748 5.20453 12.1607C5.15875 12.0466 5.13586 11.9392 5.13586 11.8384V11.669L5.8437 8.60237H1.7872C1.47009 8.60237 1.18998 8.48082 0.946865 8.23771C0.703642 7.99448 0.582031 7.71437 0.582031 7.39737V6.32037C0.582031 6.25115 0.589309 6.17637 0.603865 6.09604C0.61842 6.01571 0.640198 5.94093 0.669198 5.87171L2.57953 1.36404C2.6752 1.15037 2.83542 0.97004 3.0602 0.82304C3.28498 0.67604 3.51875 0.602539 3.76153 0.602539ZM11.364 8.60237V0.602539H13.9154V8.60237H11.364Z" fill="#666666"/>
</svg>
