<svg width="24" height="24" viewBox="0 0 24 24" fill="none" xmlns="http://www.w3.org/2000/svg">
<path d="M18.3264 12.4037L16.5186 14.2121C16.2092 14.521 15.7037 14.5216 15.3936 14.2121C15.0835 13.902 15.0835 13.3965 15.3936 13.0865L17.2014 11.2781C17.7701 10.71 18.0836 9.95822 18.0842 9.16081C18.0842 8.41312 17.8128 7.69878 17.3202 7.15001C16.803 6.57374 16.0658 6.24436 15.245 6.22213C15.2146 6.22154 15.1847 6.22096 15.1543 6.22096C14.2732 6.22096 13.4179 6.57257 12.7966 7.1933L11.1485 8.84137C10.8384 9.15145 10.3335 9.15086 10.0229 8.84137C9.87312 8.69102 9.79004 8.49093 9.79004 8.27856C9.79004 8.06619 9.87312 7.8661 10.0229 7.71575L11.671 6.06768C12.6199 5.11932 13.9444 4.59804 15.2865 4.63139C16.5491 4.66591 17.6911 5.18192 18.5031 6.08523C19.2584 6.92652 19.6744 8.01939 19.6744 9.16022C19.6744 10.383 19.1958 11.5338 18.3264 12.4037Z" fill="#E3E3E3"/>
<path d="M13.3171 17.4136L11.6585 19.0728C10.7125 20.0188 9.41019 20.5395 8.0523 20.5044C6.7927 20.4698 5.65303 19.9532 4.84333 19.0493C4.08979 18.2086 3.675 17.1181 3.675 15.9767C3.66388 14.7551 4.13952 13.6008 5.01475 12.7262L6.82254 10.9184C6.97289 10.768 7.17239 10.6855 7.38477 10.6855C7.59714 10.6855 7.79722 10.7686 7.94758 10.9184C8.09735 11.0688 8.18043 11.2688 8.18043 11.4812C8.18043 11.6936 8.09735 11.8937 7.94758 12.044L6.13979 13.8518C5.56937 14.4222 5.2593 15.1752 5.26632 15.9691C5.26632 16.722 5.53719 17.4393 6.02863 17.9875C6.54406 18.5626 7.27887 18.8914 8.09618 18.9136C8.99422 18.9282 9.89461 18.586 10.5341 17.9465L12.1927 16.2879C12.5016 15.9784 13.007 15.9779 13.3177 16.2879C13.6272 16.5986 13.6272 17.1035 13.3171 17.4136Z" fill="#E3E3E3"/>
<path d="M8.11859 14.9962L14.1013 9.01351C14.2563 8.85848 14.4599 8.78125 14.6635 8.78125C14.8671 8.78125 15.0707 8.85906 15.2257 9.01351C15.5358 9.32359 15.5358 9.82907 15.2257 10.1391L9.24363 16.1218C8.94292 16.4225 8.4193 16.4225 8.11859 16.1218C7.96882 15.9715 7.88574 15.7714 7.88574 15.559C7.88574 15.3466 7.96882 15.1465 8.11859 14.9962Z" fill="#E3E3E3"/>
</svg>
