     <svg width="14" height="13" viewBox="0 0 14 13" fill="none" xmlns="http://www.w3.org/2000/svg">
<path d="M10.4024 12.6669H3.79987V4.66687L8.22287 0.269531L8.78687 0.833532C8.8562 0.902754 8.9137 0.994421 8.95937 1.10853C9.00515 1.22264 9.02804 1.33014 9.02804 1.43103V1.6002L8.3202 4.66687H12.3767C12.6938 4.66687 12.9739 4.78848 13.217 5.0317C13.4603 5.27481 13.5819 5.55492 13.5819 5.87203V6.94887C13.5819 7.01809 13.5746 7.09287 13.56 7.1732C13.5455 7.25353 13.5237 7.32837 13.4947 7.3977L11.5844 11.9054C11.4887 12.119 11.3285 12.2994 11.1037 12.4464C10.8789 12.5934 10.6451 12.6669 10.4024 12.6669ZM2.79987 4.66687V12.6669H0.248535V4.66687H2.79987Z" fill="#666666"/>
</svg>
