<svg width="24" height="24" viewBox="0 0 24 24" fill="none" xmlns="http://www.w3.org/2000/svg">
<path d="M4.57 8.2002V6.6462L4.219 6.8652L4.042 6.5532L4.66 6.1392H5.014V8.2002H4.57Z" fill="#1ABC9C"/>
<line x1="9.0252" y1="7.3752" x2="19.4752" y2="7.3752" stroke="#E3E3E3" stroke-width="1.65" stroke-linecap="round"/>
<path d="M4.132 13.2002V12.8402L4.891 12.2522C5.137 12.0572 5.215 11.9222 5.215 11.7782C5.215 11.6072 5.071 11.5052 4.903 11.5052C4.702 11.5052 4.549 11.6072 4.399 11.7782L4.117 11.5052C4.321 11.2472 4.582 11.1032 4.915 11.1032C5.353 11.1032 5.671 11.3732 5.671 11.7602C5.671 12.0362 5.551 12.2492 5.191 12.5102L4.816 12.8012H5.689V13.2002H4.132Z" fill="#1ABC9C"/>
<line x1="9.0252" y1="12.3752" x2="19.4752" y2="12.3752" stroke="#E3E3E3" stroke-width="1.65" stroke-linecap="round"/>
<path d="M4.906 18.2392C4.534 18.2392 4.252 18.0922 4.078 17.8912L4.339 17.5972C4.483 17.7532 4.678 17.8402 4.885 17.8402C5.113 17.8402 5.245 17.7352 5.245 17.5882C5.245 17.4292 5.122 17.3482 4.843 17.3512H4.606V16.9732L4.843 16.9762C5.068 16.9762 5.203 16.8922 5.203 16.7452C5.203 16.5952 5.062 16.4992 4.858 16.4992C4.663 16.4992 4.51 16.5952 4.372 16.7392L4.117 16.4692C4.288 16.2622 4.534 16.1032 4.9 16.1032C5.365 16.1032 5.656 16.3402 5.656 16.6672C5.656 16.9042 5.494 17.0752 5.269 17.1412C5.494 17.1922 5.701 17.3512 5.701 17.6242C5.701 17.9812 5.386 18.2392 4.906 18.2392Z" fill="#1ABC9C"/>
<line x1="9.0252" y1="17.3752" x2="19.4752" y2="17.3752" stroke="#E3E3E3" stroke-width="1.65" stroke-linecap="round"/>
</svg>
