<svg width="21" height="20" viewBox="0 0 21 20" fill="none" xmlns="http://www.w3.org/2000/svg">
<path d="M15.7308 19.5003H5.2115V7.5003L11.8462 0.904297L12.6923 1.7503C12.7961 1.85413 12.8823 1.99163 12.951 2.1628C13.0195 2.33396 13.0538 2.49521 13.0538 2.64655V2.9003L11.9923 7.5003H18.6923C19.1679 7.5003 19.5881 7.68271 19.9527 8.04755C20.3176 8.41221 20.5 8.83238 20.5 9.30805V10.9233C20.5 11.0271 20.4865 11.1393 20.4595 11.2598C20.4327 11.3803 20.4026 11.4925 20.3693 11.5965L17.5038 18.358C17.3603 18.6785 17.1199 18.949 16.7828 19.1695C16.4456 19.39 16.0949 19.5003 15.7308 19.5003ZM6.7115 18.0003H15.7308C15.8013 18.0003 15.8733 17.981 15.947 17.9425C16.0208 17.904 16.077 17.84 16.1155 17.7503L19 11.0003V9.30805C19 9.21821 18.9712 9.14447 18.9135 9.0868C18.8558 9.02913 18.7821 9.0003 18.6923 9.0003H10.0963L11.35 3.51955L6.7115 8.1388V18.0003ZM5.2115 7.5003V9.0003H2V18.0003H5.2115V19.5003H0.5V7.5003H5.2115Z" fill="#1C1B1F"/>
</svg>
