<svg width="24" height="24" viewBox="0 0 24 24" fill="none" xmlns="http://www.w3.org/2000/svg">
<path fill-rule="evenodd" clip-rule="evenodd" d="M7.33272 9.36585C7.2409 9.05858 6.95726 8.84766 6.63635 8.84766C6.31545 8.84766 6.0318 9.05857 5.93999 9.36585L3.03089 19.0631C2.91544 19.4477 3.13362 19.8531 3.51818 19.9686C3.90271 20.084 4.30817 19.8659 4.42363 19.4813L5.08271 17.284H8.19009L8.84917 19.4813C8.96463 19.8658 9.37009 20.084 9.75462 19.9686C10.1392 19.8531 10.3573 19.4477 10.2419 19.0631L7.33272 9.36585ZM6.63635 12.1057L7.75363 15.8294H5.51907L6.63635 12.1057Z" fill="#E3E3E3"/>
<path fill-rule="evenodd" clip-rule="evenodd" d="M17.7873 4.51819C17.6954 4.21001 17.4118 4 17.0909 4C16.77 4 16.4863 4.21 16.3945 4.51819L12.0309 19.0637C11.9154 19.4482 12.1336 19.8537 12.5182 19.9691C12.9027 20.0846 13.3082 19.8664 13.4236 19.4818L14.49 15.9274H19.6919L20.7583 19.4818C20.8737 19.8664 21.2792 20.0845 21.6637 19.9691C22.0482 19.8537 22.2664 19.4482 22.151 19.0637L17.7873 4.51819ZM17.0909 7.25809L19.2554 14.4726H14.9263L17.0909 7.25809Z" fill="#1ABC9C"/>
</svg>
