<svg width="15" height="8" viewBox="0 0 15 8" fill="none" xmlns="http://www.w3.org/2000/svg">
<path fill-rule="evenodd" clip-rule="evenodd" d="M0 3.63183C1.93746 1.40342 4.56839 0.319336 7.5 0.319336C10.4316 0.319336 13.0625 1.4034 15 3.63183L14.4403 4.11618C12.7722 2.19701 10.5549 1.20739 8.07151 1.07702C10.4232 1.52861 11.3427 4.45176 9.62946 6.16438C7.73663 8.05721 4.48757 6.70904 4.48757 4.03497C4.48757 2.57861 5.52642 1.34649 6.92839 1.07702C4.44495 1.20745 2.22762 2.19715 0.558955 4.11618L0 3.63183ZM7.5 1.87659V2.5366C8.3278 2.5366 8.99831 3.20776 8.99831 4.03491H9.65832C9.65897 2.84268 8.69217 1.87659 7.5 1.87659Z" fill="#666666"/>
</svg>
