<svg width="36" height="36" viewBox="0 0 36 36" fill="none" xmlns="http://www.w3.org/2000/svg">
<path d="M18 16C19.1 16 20.0417 15.6083 20.825 14.825C21.6083 14.0417 22 13.1 22 12C22 10.9 21.6083 9.95833 20.825 9.175C20.0417 8.39167 19.1 8 18 8C16.9 8 15.9583 8.39167 15.175 9.175C14.3917 9.95833 14 10.9 14 12C14 13.1 14.3917 14.0417 15.175 14.825C15.9583 15.6083 16.9 16 18 16ZM16 32V25.8C14.3667 25.4333 12.9083 24.7417 11.625 23.725C10.3417 22.7083 9.4 21.4333 8.8 19.9C6.3 19.6 4.20833 18.5083 2.525 16.625C0.841667 14.7417 0 12.5333 0 10V8C0 6.9 0.391667 5.95833 1.175 5.175C1.95833 4.39167 2.9 4 4 4H8C8 2.9 8.39167 1.95833 9.175 1.175C9.95833 0.391667 10.9 0 12 0H24C25.1 0 26.0417 0.391667 26.825 1.175C27.6083 1.95833 28 2.9 28 4H32C33.1 4 34.0417 4.39167 34.825 5.175C35.6083 5.95833 36 6.9 36 8V10C36 12.5333 35.1583 14.7417 33.475 16.625C31.7917 18.5083 29.7 19.6 27.2 19.9C26.6 21.4333 25.6583 22.7083 24.375 23.725C23.0917 24.7417 21.6333 25.4333 20 25.8V32H26C26.5667 32 27.0417 32.1917 27.425 32.575C27.8083 32.9583 28 33.4333 28 34C28 34.5667 27.8083 35.0417 27.425 35.425C27.0417 35.8083 26.5667 36 26 36H10C9.43333 36 8.95833 35.8083 8.575 35.425C8.19167 35.0417 8 34.5667 8 34C8 33.4333 8.19167 32.9583 8.575 32.575C8.95833 32.1917 9.43333 32 10 32H16ZM8 15.6V8H4V10C4 11.2667 4.36667 12.4083 5.1 13.425C5.83333 14.4417 6.8 15.1667 8 15.6ZM18 22C19.6667 22 21.0833 21.4167 22.25 20.25C23.4167 19.0833 24 17.6667 24 16V4H12V16C12 17.6667 12.5833 19.0833 13.75 20.25C14.9167 21.4167 16.3333 22 18 22ZM28 15.6C29.2 15.1667 30.1667 14.4417 30.9 13.425C31.6333 12.4083 32 11.2667 32 10V8H28V15.6Z" fill="#D3D5D8"/>
</svg>
