<svg width="16" height="16" viewBox="0 0 16 16" fill="none" xmlns="http://www.w3.org/2000/svg">
<path d="M7.83333 12.6666H7.66667C6.08889 12.6666 4.75 12.1166 3.65 11.0166C2.55 9.91665 2 8.57776 2 6.99998C2 5.4222 2.55 4.08331 3.65 2.98331C4.75 1.88331 6.08889 1.33331 7.66667 1.33331C8.45555 1.33331 9.19167 1.48054 9.875 1.77498C10.5583 2.06942 11.1583 2.47498 11.675 2.99165C12.1917 3.50831 12.5972 4.10831 12.8917 4.79165C13.1861 5.47498 13.3333 6.21109 13.3333 6.99998C13.3333 8.48887 12.9139 9.8722 12.075 11.15C11.2361 12.4278 10.1778 13.4278 8.9 14.15C8.78889 14.2055 8.67778 14.2361 8.56667 14.2416C8.45555 14.2472 8.35556 14.2222 8.26667 14.1666C8.17778 14.1111 8.1 14.0389 8.03333 13.95C7.96667 13.8611 7.92778 13.7555 7.91667 13.6333L7.83333 12.6666ZM9.33333 12.2333C10.1222 11.5666 10.7639 10.7861 11.2583 9.89165C11.7528 8.9972 12 8.03331 12 6.99998C12 5.78887 11.5806 4.76387 10.7417 3.92498C9.90278 3.08609 8.87778 2.66665 7.66667 2.66665C6.45556 2.66665 5.43056 3.08609 4.59167 3.92498C3.75278 4.76387 3.33333 5.78887 3.33333 6.99998C3.33333 8.21109 3.75278 9.23609 4.59167 10.075C5.43056 10.9139 6.45556 11.3333 7.66667 11.3333H9.33333V12.2333ZM7.65 10.65C7.83889 10.65 8 10.5833 8.13333 10.45C8.26667 10.3166 8.33333 10.1555 8.33333 9.96665C8.33333 9.77776 8.26667 9.61665 8.13333 9.48331C8 9.34998 7.83889 9.28331 7.65 9.28331C7.46111 9.28331 7.3 9.34998 7.16667 9.48331C7.03333 9.61665 6.96667 9.77776 6.96667 9.96665C6.96667 10.1555 7.03333 10.3166 7.16667 10.45C7.3 10.5833 7.46111 10.65 7.65 10.65ZM6.2 5.58331C6.32222 5.63887 6.44444 5.64165 6.56667 5.59165C6.68889 5.54165 6.78889 5.46109 6.86667 5.34998C6.96667 5.21665 7.08333 5.11387 7.21667 5.04165C7.35 4.96942 7.5 4.93331 7.66667 4.93331C7.93333 4.93331 8.15 5.00831 8.31667 5.15831C8.48333 5.30831 8.56667 5.49998 8.56667 5.73331C8.56667 5.87776 8.525 6.0222 8.44167 6.16665C8.35833 6.31109 8.21111 6.48887 8 6.69998C7.72222 6.94442 7.51667 7.17498 7.38333 7.39165C7.25 7.60831 7.18333 7.82776 7.18333 8.04998C7.18333 8.18331 7.23056 8.2972 7.325 8.39165C7.41944 8.48609 7.53333 8.53331 7.66667 8.53331C7.8 8.53331 7.91111 8.48331 8 8.38331C8.08889 8.28331 8.15556 8.16665 8.2 8.03331C8.25556 7.84442 8.35556 7.6722 8.5 7.51665C8.64444 7.36109 8.77778 7.2222 8.9 7.09998C9.13333 6.86665 9.30833 6.63331 9.425 6.39998C9.54167 6.16665 9.6 5.93331 9.6 5.69998C9.6 5.18887 9.425 4.77776 9.075 4.46665C8.725 4.15554 8.25556 3.99998 7.66667 3.99998C7.31111 3.99998 6.98333 4.08609 6.68333 4.25831C6.38333 4.43054 6.13889 4.66665 5.95 4.96665C5.88333 5.08887 5.875 5.20831 5.925 5.32498C5.975 5.44165 6.06667 5.52776 6.2 5.58331Z" fill="#1193D4"/>
</svg>
