<svg width="24" height="24" viewBox="0 0 24 24" fill="none" xmlns="http://www.w3.org/2000/svg">
<path d="M1 18.15V6.10002C1 5.91669 1.04583 5.74169 1.1375 5.57502C1.22917 5.40836 1.36667 5.28336 1.55 5.20002C2.31667 4.80002 3.11667 4.50002 3.95 4.30002C4.78333 4.10002 5.63333 4.00002 6.5 4.00002C7.73334 4.00002 8.78334 4.14169 9.65 4.42502C10.5167 4.70836 11.45 5.14169 12.45 5.72502C12.6333 5.82502 12.7708 5.94169 12.8625 6.07502C12.9542 6.20836 13 6.38336 13 6.60002V17.05C13.7333 16.7 14.4708 16.4375 15.2125 16.2625C15.9542 16.0875 16.7167 16 17.5 16C18.1 16 18.6875 16.05 19.2625 16.15C19.8375 16.25 20.4167 16.4 21 16.6V5.57502C21 5.29169 21.0958 5.05419 21.2875 4.86252C21.4792 4.67086 21.7167 4.57502 22 4.57502C22.2833 4.57502 22.5208 4.67086 22.7125 4.86252C22.9042 5.05419 23 5.29169 23 5.57502V18.15C23 18.5334 22.8375 18.825 22.5125 19.025C22.1875 19.225 21.85 19.2334 21.5 19.05C20.8833 18.7167 20.2375 18.4584 19.5625 18.275C18.8875 18.0917 18.2 18 17.5 18C16.6833 18 15.8875 18.1209 15.1125 18.3625C14.3375 18.6042 13.6 18.9417 12.9 19.375C12.7667 19.4584 12.6208 19.5209 12.4625 19.5625C12.3042 19.6042 12.15 19.625 12 19.625C11.85 19.625 11.6958 19.6042 11.5375 19.5625C11.3792 19.5209 11.2333 19.4584 11.1 19.375C10.4 18.9417 9.6625 18.6042 8.8875 18.3625C8.1125 18.1209 7.31667 18 6.5 18C5.8 18 5.1125 18.0917 4.4375 18.275C3.7625 18.4584 3.11667 18.7167 2.5 19.05C2.15 19.2334 1.8125 19.225 1.4875 19.025C1.1625 18.825 1 18.5334 1 18.15ZM15.5 12.95V3.72502C15.5 3.50836 15.5625 3.31252 15.6875 3.13752C15.8125 2.96252 15.975 2.84169 16.175 2.77502L17.525 2.32502C17.7583 2.24169 17.9792 2.27919 18.1875 2.43752C18.3958 2.59586 18.5 2.80002 18.5 3.05002V12.275C18.5 12.4917 18.4375 12.6875 18.3125 12.8625C18.1875 13.0375 18.025 13.1584 17.825 13.225L16.475 13.675C16.2417 13.7584 16.0208 13.7209 15.8125 13.5625C15.6042 13.4042 15.5 13.2 15.5 12.95Z" fill="#898989"/>
</svg>
