<svg width="24" height="24" viewBox="0 0 24 24" fill="none" xmlns="http://www.w3.org/2000/svg">
<path d="M4 20C3.45 20 2.97917 19.8042 2.5875 19.4125C2.19583 19.0208 2 18.55 2 18V6C2 5.45 2.19583 4.97917 2.5875 4.5875C2.97917 4.19583 3.45 4 4 4H9.175C9.44166 4 9.69583 4.05 9.9375 4.15C10.1792 4.25 10.3917 4.39167 10.575 4.575L12 6H20C20.55 6 21.0208 6.19583 21.4125 6.5875C21.8042 6.97917 22 7.45 22 8V18C22 18.55 21.8042 19.0208 21.4125 19.4125C21.0208 19.8042 20.55 20 20 20H4ZM7 16H13C13.2833 16 13.5208 15.9042 13.7125 15.7125C13.9042 15.5208 14 15.2833 14 15C14 14.7167 13.9042 14.4792 13.7125 14.2875C13.5208 14.0958 13.2833 14 13 14H7C6.71667 14 6.47917 14.0958 6.2875 14.2875C6.09583 14.4792 6 14.7167 6 15C6 15.2833 6.09583 15.5208 6.2875 15.7125C6.47917 15.9042 6.71667 16 7 16ZM7 12H17C17.2833 12 17.5208 11.9042 17.7125 11.7125C17.9042 11.5208 18 11.2833 18 11C18 10.7167 17.9042 10.4792 17.7125 10.2875C17.5208 10.0958 17.2833 10 17 10H7C6.71667 10 6.47917 10.0958 6.2875 10.2875C6.09583 10.4792 6 10.7167 6 11C6 11.2833 6.09583 11.5208 6.2875 11.7125C6.47917 11.9042 6.71667 12 7 12Z" fill="#898989"/>
</svg>
