<svg width="52" height="52" viewBox="0 0 52 52" fill="none" xmlns="http://www.w3.org/2000/svg">
<rect width="52" height="52" rx="26" fill="#D9D9D9"/>
<path d="M19.3334 34.6249V17.3749C19.3334 16.9027 19.5 16.5069 19.8334 16.1874C20.1667 15.868 20.5556 15.7083 21 15.7083C21.1389 15.7083 21.2848 15.7291 21.4375 15.7708C21.5903 15.8124 21.7362 15.8749 21.875 15.9583L35.4584 24.5833C35.7084 24.7499 35.8959 24.9583 36.0209 25.2083C36.1459 25.4583 36.2084 25.7221 36.2084 25.9999C36.2084 26.2777 36.1459 26.5416 36.0209 26.7916C35.8959 27.0416 35.7084 27.2499 35.4584 27.4166L21.875 36.0416C21.7362 36.1249 21.5903 36.1874 21.4375 36.2291C21.2848 36.2708 21.1389 36.2916 21 36.2916C20.5556 36.2916 20.1667 36.1319 19.8334 35.8124C19.5 35.493 19.3334 35.0971 19.3334 34.6249ZM22.6667 31.5833L31.4167 25.9999L22.6667 20.4166V31.5833Z" fill="black"/>
</svg>
