<svg width="16" height="16" viewBox="0 0 16 16" fill="none" xmlns="http://www.w3.org/2000/svg">
<path d="M7.33329 11.3666V4.79998C6.87774 4.53331 6.3944 4.33331 5.88329 4.19998C5.37218 4.06665 4.85552 3.99998 4.33329 3.99998C3.93329 3.99998 3.53607 4.03887 3.14163 4.11665C2.74718 4.19442 2.36663 4.31109 1.99996 4.46665V11.0666C2.38885 10.9333 2.77496 10.8333 3.15829 10.7666C3.54163 10.7 3.93329 10.6666 4.33329 10.6666C4.85552 10.6666 5.36385 10.725 5.85829 10.8416C6.35274 10.9583 6.8444 11.1333 7.33329 11.3666ZM7.99996 13.3333C7.46663 12.9111 6.88885 12.5833 6.26663 12.35C5.6444 12.1166 4.99996 12 4.33329 12C3.86663 12 3.40829 12.0611 2.95829 12.1833C2.50829 12.3055 2.07774 12.4778 1.66663 12.7C1.43329 12.8222 1.20829 12.8166 0.991626 12.6833C0.774959 12.55 0.666626 12.3555 0.666626 12.1V4.06665C0.666626 3.94442 0.697182 3.82776 0.758293 3.71665C0.819404 3.60554 0.91107 3.5222 1.03329 3.46665C1.5444 3.19998 2.07774 2.99998 2.63329 2.86665C3.18885 2.73331 3.75552 2.66665 4.33329 2.66665C5.15552 2.66665 5.85552 2.76109 6.43329 2.94998C7.01107 3.13887 7.63329 3.42776 8.29996 3.81665C8.42218 3.88331 8.51385 3.96109 8.57496 4.04998C8.63607 4.13887 8.66663 4.25554 8.66663 4.39998V11.3666C9.15552 11.1333 9.64718 10.9583 10.1416 10.8416C10.6361 10.725 11.1444 10.6666 11.6666 10.6666C12.0666 10.6666 12.4583 10.7 12.8416 10.7666C13.225 10.8333 13.6111 10.9333 14 11.0666V3.04998C14.1666 3.10554 14.3305 3.16665 14.4916 3.23331C14.6527 3.29998 14.8111 3.37776 14.9666 3.46665C15.0888 3.5222 15.1805 3.60554 15.2416 3.71665C15.3027 3.82776 15.3333 3.94442 15.3333 4.06665V12.1C15.3333 12.3555 15.225 12.55 15.0083 12.6833C14.7916 12.8166 14.5666 12.8222 14.3333 12.7C13.9222 12.4778 13.4916 12.3055 13.0416 12.1833C12.5916 12.0611 12.1333 12 11.6666 12C11 12 10.3555 12.1166 9.73329 12.35C9.11107 12.5833 8.53329 12.9111 7.99996 13.3333ZM10.3333 9.33331V1.99998L12.3333 1.33331V8.66665L10.3333 9.33331Z" fill="#1193D4"/>
</svg>
