<svg width="40" height="40" viewBox="0 0 40 40" fill="none" xmlns="http://www.w3.org/2000/svg">
<g filter="url(#filter0_d_458_1494)">
<rect width="32" height="32" rx="10" fill="#EBEBEB" shape-rendering="crispEdges"/>
<rect x="0.5" y="0.5" width="31" height="31" rx="9.5" stroke="#898989" shape-rendering="crispEdges"/>
<path d="M16 9.54165C16.1806 9.54165 16.3299 9.48262 16.4479 9.36456C16.566 9.24651 16.625 9.0972 16.625 8.91665C16.625 8.73609 16.566 8.58679 16.4479 8.46873C16.3299 8.35067 16.1806 8.29165 16 8.29165C15.8194 8.29165 15.6701 8.35067 15.5521 8.46873C15.434 8.58679 15.375 8.73609 15.375 8.91665C15.375 9.0972 15.434 9.24651 15.5521 9.36456C15.6701 9.48262 15.8194 9.54165 16 9.54165ZM21 25.1666C19.8472 25.1666 18.8646 24.7604 18.0521 23.9479C17.2396 23.1354 16.8333 22.1528 16.8333 21C16.8333 19.8472 17.2396 18.8646 18.0521 18.0521C18.8646 17.2396 19.8472 16.8333 21 16.8333C22.1528 16.8333 23.1354 17.2396 23.9479 18.0521C24.7604 18.8646 25.1667 19.8472 25.1667 21C25.1667 22.1528 24.7604 23.1354 23.9479 23.9479C23.1354 24.7604 22.1528 25.1666 21 25.1666ZM10.1667 23.5C9.70833 23.5 9.31597 23.3368 8.98958 23.0104C8.66319 22.684 8.5 22.2916 8.5 21.8333V10.1666C8.5 9.70831 8.66319 9.31595 8.98958 8.98956C9.31597 8.66317 9.70833 8.49998 10.1667 8.49998H13.6667C13.8472 7.99998 14.1493 7.5972 14.5729 7.29165C14.9965 6.98609 15.4722 6.83331 16 6.83331C16.5278 6.83331 17.0035 6.98609 17.4271 7.29165C17.8507 7.5972 18.1528 7.99998 18.3333 8.49998H21.8333C22.2917 8.49998 22.684 8.66317 23.0104 8.98956C23.3368 9.31595 23.5 9.70831 23.5 10.1666V14.7083C23.5 14.9583 23.3958 15.1528 23.1875 15.2916C22.9792 15.4305 22.7569 15.4583 22.5208 15.375C22.2847 15.3055 22.0382 15.2535 21.7812 15.2187C21.5243 15.184 21.2639 15.1666 21 15.1666C20.8472 15.1666 20.7049 15.1701 20.5729 15.1771C20.441 15.184 20.3056 15.2014 20.1667 15.2291C20.0972 15.2153 20.0139 15.2014 19.9167 15.1875C19.8472 15.1875 19.7604 15.184 19.6562 15.1771C19.5521 15.1701 19.4444 15.1666 19.3333 15.1666H12.6667C12.4306 15.1666 12.2326 15.2465 12.0729 15.4062C11.9132 15.566 11.8333 15.7639 11.8333 16C11.8333 16.2361 11.9132 16.434 12.0729 16.5937C12.2326 16.7535 12.4306 16.8333 12.6667 16.8333H16.9375C16.6875 17.0694 16.4618 17.3264 16.2604 17.6041C16.059 17.8819 15.8819 18.1805 15.7292 18.5H12.6667C12.4306 18.5 12.2326 18.5798 12.0729 18.7396C11.9132 18.8993 11.8333 19.0972 11.8333 19.3333C11.8333 19.5694 11.9132 19.7673 12.0729 19.9271C12.2326 20.0868 12.4306 20.1666 12.6667 20.1666H15.2292C15.2014 20.3055 15.184 20.441 15.1771 20.5729C15.1701 20.7048 15.1667 20.8472 15.1667 21C15.1667 21.2778 15.1806 21.5416 15.2083 21.7916C15.2361 22.0416 15.2847 22.2847 15.3542 22.5208C15.4236 22.7569 15.3889 22.9791 15.25 23.1875C15.1111 23.3958 14.9236 23.5 14.6875 23.5H10.1667ZM20.5833 21.4166V23.0833C20.5833 23.1944 20.625 23.2916 20.7083 23.375C20.7917 23.4583 20.8889 23.5 21 23.5C21.1111 23.5 21.2083 23.4583 21.2917 23.375C21.375 23.2916 21.4167 23.1944 21.4167 23.0833V21.4166H23.0833C23.1944 21.4166 23.2917 21.375 23.375 21.2916C23.4583 21.2083 23.5 21.1111 23.5 21C23.5 20.8889 23.4583 20.7916 23.375 20.7083C23.2917 20.625 23.1944 20.5833 23.0833 20.5833H21.4167V18.9166C21.4167 18.8055 21.375 18.7083 21.2917 18.625C21.2083 18.5416 21.1111 18.5 21 18.5C20.8889 18.5 20.7917 18.5416 20.7083 18.625C20.625 18.7083 20.5833 18.8055 20.5833 18.9166V20.5833H18.9167C18.8056 20.5833 18.7083 20.625 18.625 20.7083C18.5417 20.7916 18.5 20.8889 18.5 21C18.5 21.1111 18.5417 21.2083 18.625 21.2916C18.7083 21.375 18.8056 21.4166 18.9167 21.4166H20.5833ZM12.6667 13.5H19.3333C19.5694 13.5 19.7674 13.4201 19.9271 13.2604C20.0868 13.1007 20.1667 12.9028 20.1667 12.6666C20.1667 12.4305 20.0868 12.2326 19.9271 12.0729C19.7674 11.9132 19.5694 11.8333 19.3333 11.8333H12.6667C12.4306 11.8333 12.2326 11.9132 12.0729 12.0729C11.9132 12.2326 11.8333 12.4305 11.8333 12.6666C11.8333 12.9028 11.9132 13.1007 12.0729 13.2604C12.2326 13.4201 12.4306 13.5 12.6667 13.5Z" fill="#898989"/>
</g>
<defs>
<filter id="filter0_d_458_1494" x="0" y="0" width="40" height="40" filterUnits="userSpaceOnUse" color-interpolation-filters="sRGB">
<feFlood flood-opacity="0" result="BackgroundImageFix"/>
<feColorMatrix in="SourceAlpha" type="matrix" values="0 0 0 0 0 0 0 0 0 0 0 0 0 0 0 0 0 0 127 0" result="hardAlpha"/>
<feOffset dx="4" dy="4"/>
<feGaussianBlur stdDeviation="2"/>
<feComposite in2="hardAlpha" operator="out"/>
<feColorMatrix type="matrix" values="0 0 0 0 0 0 0 0 0 0 0 0 0 0 0 0 0 0 0.25 0"/>
<feBlend mode="normal" in2="BackgroundImageFix" result="effect1_dropShadow_458_1494"/>
<feBlend mode="normal" in="SourceGraphic" in2="effect1_dropShadow_458_1494" result="shape"/>
</filter>
</defs>
</svg>
