<svg width="20" height="20" viewBox="0 0 20 20" fill="none" xmlns="http://www.w3.org/2000/svg">
<path d="M10 3.54165C10.1806 3.54165 10.3299 3.48262 10.4479 3.36456C10.566 3.24651 10.625 3.0972 10.625 2.91665C10.625 2.73609 10.566 2.58679 10.4479 2.46873C10.3299 2.35067 10.1806 2.29165 10 2.29165C9.81944 2.29165 9.67014 2.35067 9.55208 2.46873C9.43403 2.58679 9.375 2.73609 9.375 2.91665C9.375 3.0972 9.43403 3.24651 9.55208 3.36456C9.67014 3.48262 9.81944 3.54165 10 3.54165ZM15 19.1666C13.8472 19.1666 12.8646 18.7604 12.0521 17.9479C11.2396 17.1354 10.8333 16.1528 10.8333 15C10.8333 13.8472 11.2396 12.8646 12.0521 12.0521C12.8646 11.2396 13.8472 10.8333 15 10.8333C16.1528 10.8333 17.1354 11.2396 17.9479 12.0521C18.7604 12.8646 19.1667 13.8472 19.1667 15C19.1667 16.1528 18.7604 17.1354 17.9479 17.9479C17.1354 18.7604 16.1528 19.1666 15 19.1666ZM4.16667 17.5C3.70833 17.5 3.31597 17.3368 2.98958 17.0104C2.66319 16.684 2.5 16.2916 2.5 15.8333V4.16665C2.5 3.70831 2.66319 3.31595 2.98958 2.98956C3.31597 2.66317 3.70833 2.49998 4.16667 2.49998H7.66667C7.84722 1.99998 8.1493 1.5972 8.57292 1.29165C8.99653 0.986091 9.47222 0.833313 10 0.833313C10.5278 0.833313 11.0035 0.986091 11.4271 1.29165C11.8507 1.5972 12.1528 1.99998 12.3333 2.49998H15.8333C16.2917 2.49998 16.684 2.66317 17.0104 2.98956C17.3368 3.31595 17.5 3.70831 17.5 4.16665V8.70831C17.5 8.95831 17.3958 9.15276 17.1875 9.29165C16.9792 9.43054 16.7569 9.45831 16.5208 9.37498C16.2847 9.30554 16.0382 9.25345 15.7812 9.21873C15.5243 9.18401 15.2639 9.16665 15 9.16665C14.8472 9.16665 14.7049 9.17012 14.5729 9.17706C14.441 9.18401 14.3056 9.20137 14.1667 9.22915C14.0972 9.21526 14.0139 9.20137 13.9167 9.18748C13.8472 9.18748 13.7604 9.18401 13.6562 9.17706C13.5521 9.17012 13.4444 9.16665 13.3333 9.16665H6.66667C6.43055 9.16665 6.23264 9.24651 6.07292 9.40623C5.91319 9.56595 5.83333 9.76387 5.83333 9.99998C5.83333 10.2361 5.91319 10.434 6.07292 10.5937C6.23264 10.7535 6.43055 10.8333 6.66667 10.8333H10.9375C10.6875 11.0694 10.4618 11.3264 10.2604 11.6041C10.059 11.8819 9.88194 12.1805 9.72917 12.5H6.66667C6.43055 12.5 6.23264 12.5798 6.07292 12.7396C5.91319 12.8993 5.83333 13.0972 5.83333 13.3333C5.83333 13.5694 5.91319 13.7673 6.07292 13.9271C6.23264 14.0868 6.43055 14.1666 6.66667 14.1666H9.22917C9.20139 14.3055 9.18403 14.441 9.17708 14.5729C9.17014 14.7048 9.16667 14.8472 9.16667 15C9.16667 15.2778 9.18055 15.5416 9.20833 15.7916C9.23611 16.0416 9.28472 16.2847 9.35417 16.5208C9.42361 16.7569 9.38889 16.9791 9.25 17.1875C9.11111 17.3958 8.92361 17.5 8.6875 17.5H4.16667ZM14.5833 15.4166V17.0833C14.5833 17.1944 14.625 17.2916 14.7083 17.375C14.7917 17.4583 14.8889 17.5 15 17.5C15.1111 17.5 15.2083 17.4583 15.2917 17.375C15.375 17.2916 15.4167 17.1944 15.4167 17.0833V15.4166H17.0833C17.1944 15.4166 17.2917 15.375 17.375 15.2916C17.4583 15.2083 17.5 15.1111 17.5 15C17.5 14.8889 17.4583 14.7916 17.375 14.7083C17.2917 14.625 17.1944 14.5833 17.0833 14.5833H15.4167V12.9166C15.4167 12.8055 15.375 12.7083 15.2917 12.625C15.2083 12.5416 15.1111 12.5 15 12.5C14.8889 12.5 14.7917 12.5416 14.7083 12.625C14.625 12.7083 14.5833 12.8055 14.5833 12.9166V14.5833H12.9167C12.8056 14.5833 12.7083 14.625 12.625 14.7083C12.5417 14.7916 12.5 14.8889 12.5 15C12.5 15.1111 12.5417 15.2083 12.625 15.2916C12.7083 15.375 12.8056 15.4166 12.9167 15.4166H14.5833ZM6.66667 7.49998H13.3333C13.5694 7.49998 13.7674 7.42012 13.9271 7.2604C14.0868 7.10067 14.1667 6.90276 14.1667 6.66665C14.1667 6.43054 14.0868 6.23262 13.9271 6.0729C13.7674 5.91317 13.5694 5.83331 13.3333 5.83331H6.66667C6.43055 5.83331 6.23264 5.91317 6.07292 6.0729C5.91319 6.23262 5.83333 6.43054 5.83333 6.66665C5.83333 6.90276 5.91319 7.10067 6.07292 7.2604C6.23264 7.42012 6.43055 7.49998 6.66667 7.49998Z" fill="#898989"/>
</svg>
