<svg width="24" height="24" viewBox="0 0 24 24" fill="none" xmlns="http://www.w3.org/2000/svg">
<path d="M5.49998 12H8.39998C8.55964 12 8.71206 12.0417 8.85723 12.125C9.00239 12.2084 9.11322 12.3269 9.18973 12.4805L10.2 14.325L13 9.17505C13.1833 8.85838 13.45 8.70005 13.8 8.70005C14.15 8.70005 14.4075 8.85721 14.5725 9.17155L16.125 12H18.5C18.2166 10.45 17.4726 9.16255 16.268 8.13755C15.0635 7.11255 13.6426 6.60005 12.0055 6.60005C10.3685 6.60005 8.94581 7.11255 7.73748 8.13755C6.52914 9.16255 5.78331 10.45 5.49998 12ZM12 19.8C13.7333 19.8 15.225 19.225 16.475 18.075C17.725 16.925 18.425 15.5 18.575 13.8H15.6C15.4333 13.8 15.2833 13.7584 15.15 13.675C15.0166 13.5917 14.9109 13.4732 14.8327 13.3195L13.8 11.475L11 16.625C10.8166 16.9417 10.5541 17.1 10.2125 17.1C9.87081 17.1 9.60831 16.9417 9.42498 16.625L7.87498 13.8H5.42498C5.57498 15.5 6.27498 16.925 7.52498 18.075C8.77498 19.225 10.2666 19.8 12 19.8ZM12 21.6C10.8333 21.6 9.74231 21.3791 8.72697 20.9373C7.71164 20.4956 6.82423 19.895 6.06473 19.1353C5.30506 18.3758 4.70439 17.4884 4.26273 16.473C3.82089 15.4577 3.59998 14.3667 3.59998 13.2H5.39998C5.39998 15.0334 6.04164 16.5917 7.32498 17.875C8.60831 19.1584 10.1666 19.8 12 19.8C13.8333 19.8 15.3916 19.1584 16.675 17.875C17.9583 16.5917 18.6 15.0334 18.6 13.2H20.4C20.4 14.3667 20.1791 15.4577 19.7372 16.473C19.2956 17.4884 18.6949 18.3758 17.9352 19.1353C17.1757 19.895 16.2883 20.4956 15.273 20.9373C14.2576 21.3791 13.1666 21.6 12 21.6ZM3.59998 13.2C3.59998 12.0334 3.82089 10.9424 4.26273 9.92705C4.70439 8.91172 5.30506 8.0243 6.06473 7.2648C6.82423 6.50513 7.71164 5.90447 8.72697 5.4628C9.74231 5.02097 10.8296 4.80005 11.989 4.80005C12.9603 4.80005 13.8925 4.96255 14.7855 5.28755C15.6785 5.61255 16.5083 6.06672 17.275 6.65005L17.957 5.96805C18.1356 5.78938 18.3416 5.70422 18.575 5.71255C18.8083 5.72088 19.0166 5.81672 19.2 6.00005C19.3833 6.18338 19.475 6.39172 19.475 6.62505C19.475 6.85838 19.3833 7.06672 19.2 7.25005L18.55 7.92505C19.1333 8.67505 19.5875 9.49805 19.9125 10.394C20.2375 11.29 20.4 12.2254 20.4 13.2H18.6C18.6 11.3667 17.9583 9.80838 16.675 8.52505C15.3916 7.24172 13.8333 6.60005 12 6.60005C10.1666 6.60005 8.60831 7.24172 7.32498 8.52505C6.04164 9.80838 5.39998 11.3667 5.39998 13.2H3.59998ZM9.89998 3.60005C9.64498 3.60005 9.43123 3.5143 9.25873 3.3428C9.08623 3.1713 8.99998 2.9588 8.99998 2.7053C8.99998 2.4518 9.08623 2.23755 9.25873 2.06255C9.43123 1.88755 9.64498 1.80005 9.89998 1.80005H14.1C14.355 1.80005 14.5687 1.8858 14.7412 2.0573C14.9137 2.2288 15 2.4413 15 2.6948C15 2.9483 14.9137 3.16255 14.7412 3.33755C14.5687 3.51255 14.355 3.60005 14.1 3.60005H9.89998ZM12 19.8C10.1666 19.8 8.60831 19.1584 7.32498 17.875C6.04164 16.5917 5.39998 15.0334 5.39998 13.2C5.39998 11.3667 6.04164 9.80838 7.32498 8.52505C8.60831 7.24172 10.1666 6.60005 12 6.60005C13.8333 6.60005 15.3916 7.24172 16.675 8.52505C17.9583 9.80838 18.6 11.3667 18.6 13.2C18.6 15.0334 17.9583 16.5917 16.675 17.875C15.3916 19.1584 13.8333 19.8 12 19.8Z" fill="black"/>
</svg>
