<svg width="155" height="188" viewBox="0 0 155 188" fill="none" xmlns="http://www.w3.org/2000/svg">
<path d="M145.252 63.7289C140.518 62.0449 136.682 58.415 134.755 53.756C132.828 49.1158 132.959 43.8393 135.129 39.2926C138.385 32.4258 135.784 26.2138 132.266 22.6962C128.749 19.1785 122.537 16.559 115.67 19.8334C111.123 21.9852 105.847 22.1348 101.207 20.2076C96.5663 18.2804 92.9364 14.4634 91.2337 9.7296C89.9614 6.15584 87.7722 3.72344 85.265 2.18916C82.7764 0.636166 79.9698 0 77.4813 0C72.5042 0 66.2735 2.54466 63.7289 9.71089C62.0449 14.4447 58.415 18.2804 53.756 20.1889C49.1158 22.1161 43.8393 21.9852 39.2926 19.8147C32.4258 16.559 26.2138 19.1598 22.6962 22.6775C19.1785 26.1951 16.5777 32.4071 19.8334 39.2739C21.9852 43.8206 22.1348 49.0971 20.2076 53.7373C18.2804 58.3776 14.4634 62.0075 9.71089 63.7102C2.54466 66.2548 0 72.4855 0 77.4813C0 82.4584 2.54466 88.689 9.71089 91.2337C14.4447 92.9177 18.2804 96.5476 20.2076 101.207C22.1348 105.847 22.0039 111.123 19.8334 115.67C16.5777 122.537 19.1785 128.749 22.6962 132.266C24.0246 133.595 25.746 134.792 27.7294 135.597C27.7481 135.597 27.7668 135.616 27.7855 135.616C27.8042 135.616 27.8042 135.616 27.8042 135.634C31.0599 136.925 35.0453 137.15 39.2926 135.129C41.7063 133.988 44.3258 133.408 46.9453 133.408C49.2655 133.408 51.5856 133.857 53.756 134.755C58.3963 136.682 62.0262 140.499 63.7289 145.252C66.2735 152.418 72.5042 154.963 77.4813 154.963C82.4584 154.963 88.689 152.418 91.2524 145.252C92.9364 140.518 96.5663 136.682 101.225 134.755C105.884 132.828 111.142 132.959 115.689 135.129C119.936 137.15 123.921 136.925 127.196 135.616C127.196 135.616 127.196 135.616 127.215 135.616H127.233C129.235 134.811 130.975 133.614 132.304 132.266C135.821 128.749 138.441 122.537 135.167 115.67C133.015 111.123 132.865 105.847 134.792 101.207C136.72 96.5663 140.537 92.9364 145.289 91.2337C152.455 88.689 155 82.4584 155 77.4813C154.963 72.5042 152.418 66.2735 145.252 63.7289ZM77.6871 120.086C54.2051 120.086 35.1014 100.982 35.1014 77.5C35.1014 54.018 54.2051 34.9143 77.6871 34.9143C101.169 34.9143 120.273 54.018 120.273 77.5C120.273 100.982 101.169 120.086 77.6871 120.086Z" fill="#38C2EF"/>
<path d="M129.458 77.4991V77.5C129.458 106.134 105.867 129.458 76.8542 129.458C47.8414 129.458 24.25 106.134 24.25 77.5C24.25 48.8661 47.8414 25.5417 76.8542 25.5417C105.868 25.5417 129.483 48.8667 129.458 77.4991Z" fill="url(#paint0_radial_5_106)" stroke="white" stroke-width="2"/>
<path d="M60.6977 146.318C59.3131 142.426 56.3381 139.302 52.5211 137.711C48.7041 136.14 44.3819 136.252 40.6585 138.011C36.5796 139.957 32.1077 140.256 28.0474 139.077L26.9248 141.697L14.5383 170.68L38.6939 161.96C40.1907 161.418 41.8747 162.129 42.5109 163.588L52.8953 187.108L65.2819 158.125L66.7974 154.645C64.0657 152.605 61.9139 149.761 60.6977 146.318Z" fill="#169ECA"/>
<path d="M126.915 139.077C122.836 140.275 118.383 139.957 114.304 138.011C110.581 136.233 106.258 136.121 102.441 137.711C98.6245 139.283 95.6494 142.426 94.2649 146.318C93.0487 149.742 90.8969 152.605 88.1651 154.644L89.6807 158.106L102.067 187.108L112.452 163.607C113.088 162.148 114.772 161.436 116.269 161.979L140.424 170.698L128.038 141.715L126.915 139.077Z" fill="#169ECA"/>
<g filter="url(#filter0_d_5_106)">
<path d="M70.4662 68.7819L72.1654 61.8854H73.0853L73.1439 63.3385L71.3275 70.4167H70.3548L70.4662 68.7819ZM69.3939 61.8854L70.7884 68.7585V70.4167H69.7279L67.7943 61.8854H69.3939ZM74.9076 68.7292L76.2787 61.8854H77.8841L75.9505 70.4167H74.89L74.9076 68.7292ZM73.5247 61.8854L75.224 68.8053L75.3236 70.4167H74.3509L72.5404 63.3327L72.6107 61.8854H73.5247ZM84.5579 69.151V70.4167H80.0228V69.151H84.5579ZM80.515 61.8854V70.4167H78.9037V61.8854H80.515ZM83.9662 65.4069V66.6432H80.0228V65.4069H83.9662ZM84.5404 61.8854V63.1569H80.0228V61.8854H84.5404ZM46.7415 77.1803L44.3099 84.4167H42.6048L45.7923 75.8854H46.8822L46.7415 77.1803ZM48.7747 84.4167L46.3314 77.1803L46.1849 75.8854H47.2806L50.4857 84.4167H48.7747ZM48.6634 81.2467V82.5182H44.0872V81.2467H48.6634ZM54.6458 81.3053H52.4486V80.0397H54.6458C55.0052 80.0397 55.2962 79.9811 55.5189 79.8639C55.7454 79.7428 55.9115 79.5788 56.0169 79.3717C56.1224 79.1608 56.1751 78.9206 56.1751 78.651C56.1751 78.3893 56.1224 78.1452 56.0169 77.9186C55.9115 77.692 55.7454 77.5085 55.5189 77.3678C55.2962 77.2272 55.0052 77.1569 54.6458 77.1569H52.9759V84.4167H51.3646V75.8854H54.6458C55.3099 75.8854 55.8763 76.0045 56.3451 76.2428C56.8177 76.4772 57.1771 76.8034 57.4232 77.2213C57.6732 77.6354 57.7982 78.1081 57.7982 78.6393C57.7982 79.1901 57.6732 79.6647 57.4232 80.0631C57.1771 80.4616 56.8177 80.7682 56.3451 80.9831C55.8763 81.1979 55.3099 81.3053 54.6458 81.3053ZM62.3451 81.3053H60.1478V80.0397H62.3451C62.7044 80.0397 62.9954 79.9811 63.2181 79.8639C63.4447 79.7428 63.6107 79.5788 63.7162 79.3717C63.8216 79.1608 63.8744 78.9206 63.8744 78.651C63.8744 78.3893 63.8216 78.1452 63.7162 77.9186C63.6107 77.692 63.4447 77.5085 63.2181 77.3678C62.9954 77.2272 62.7044 77.1569 62.3451 77.1569H60.6751V84.4167H59.0638V75.8854H62.3451C63.0091 75.8854 63.5755 76.0045 64.0443 76.2428C64.5169 76.4772 64.8763 76.8034 65.1224 77.2213C65.3724 77.6354 65.4974 78.1081 65.4974 78.6393C65.4974 79.1901 65.3724 79.6647 65.1224 80.0631C64.8763 80.4616 64.5169 80.7682 64.0443 80.9831C63.5755 81.1979 63.0091 81.3053 62.3451 81.3053ZM66.763 75.8854H69.8626C70.5111 75.8854 71.0677 75.9831 71.5326 76.1784C71.9974 76.3737 72.3548 76.6628 72.6048 77.0456C72.8548 77.4284 72.9798 77.8991 72.9798 78.4577C72.9798 78.8991 72.9017 79.2819 72.7454 79.6061C72.5892 79.9303 72.3685 80.2018 72.0833 80.4206C71.8021 80.6393 71.4701 80.8112 71.0872 80.9362L70.5833 81.194H67.847L67.8353 79.9225H69.8802C70.2122 79.9225 70.4876 79.8639 70.7064 79.7467C70.9251 79.6295 71.0892 79.4674 71.1986 79.2604C71.3119 79.0534 71.3685 78.817 71.3685 78.5514C71.3685 78.2663 71.3138 78.0202 71.2044 77.8131C71.0951 77.6022 70.929 77.4401 70.7064 77.3268C70.4837 77.2135 70.2025 77.1569 69.8626 77.1569H68.3744V84.4167H66.763V75.8854ZM71.5794 84.4167L69.6048 80.5963L71.3099 80.5905L73.3079 84.3346V84.4167H71.5794ZM76.1087 75.8854V84.4167H74.4974V75.8854H76.1087ZM82.8412 81.61H84.4525C84.4095 82.1803 84.2513 82.6862 83.9779 83.1276C83.7044 83.5651 83.3236 83.9088 82.8353 84.1588C82.347 84.4088 81.7552 84.5338 81.0599 84.5338C80.5247 84.5338 80.0423 84.4401 79.6126 84.2526C79.1869 84.0612 78.8216 83.7897 78.5169 83.4381C78.2162 83.0827 77.9857 82.6569 77.8255 82.1608C77.6654 81.6608 77.5853 81.1003 77.5853 80.4792V79.8288C77.5853 79.2077 77.6673 78.6471 77.8314 78.1471C77.9954 77.6471 78.2298 77.2213 78.5345 76.8698C78.8431 76.5143 79.2122 76.2409 79.6419 76.0495C80.0755 75.8581 80.5599 75.7624 81.0951 75.7624C81.7904 75.7624 82.3783 75.8913 82.8587 76.1491C83.3392 76.403 83.7122 76.7526 83.9779 77.1979C84.2435 77.6432 84.4037 78.1549 84.4583 78.7331H82.847C82.8158 78.3737 82.7376 78.069 82.6126 77.819C82.4915 77.569 82.3079 77.3795 82.0619 77.2506C81.8197 77.1178 81.4974 77.0514 81.0951 77.0514C80.7826 77.0514 80.5072 77.11 80.2689 77.2272C80.0345 77.3444 79.8392 77.5202 79.6829 77.7545C79.5267 77.985 79.4095 78.2741 79.3314 78.6217C79.2533 78.9655 79.2142 79.3639 79.2142 79.817V80.4792C79.2142 80.9128 79.2494 81.3014 79.3197 81.6452C79.39 81.9889 79.4994 82.2799 79.6478 82.5182C79.7962 82.7565 79.9876 82.9381 80.222 83.0631C80.4564 83.1881 80.7357 83.2506 81.0599 83.2506C81.4544 83.2506 81.7747 83.1881 82.0208 83.0631C82.2708 82.9381 82.4603 82.7545 82.5892 82.5124C82.722 82.2702 82.806 81.9694 82.8412 81.61ZM87.4173 75.8854V84.4167H85.806V75.8854H87.4173ZM92.6556 77.1803L90.224 84.4167H88.5189L91.7064 75.8854H92.7962L92.6556 77.1803ZM94.6888 84.4167L92.2454 77.1803L92.099 75.8854H93.1947L96.3997 84.4167H94.6888ZM94.5775 81.2467V82.5182H90.0013V81.2467H94.5775ZM100.202 75.8854V84.4167H98.597V75.8854H100.202ZM102.851 75.8854V77.1569H95.9779V75.8854H102.851ZM109.577 83.151V84.4167H105.042V83.151H109.577ZM105.535 75.8854V84.4167H103.923V75.8854H105.535ZM108.986 79.4069V80.6432H105.042V79.4069H108.986ZM109.56 75.8854V77.1569H105.042V75.8854H109.56Z" fill="white"/>
</g>
<defs>
<filter id="filter0_d_5_106" x="38.6048" y="58.8854" width="74.9727" height="30.6484" filterUnits="userSpaceOnUse" color-interpolation-filters="sRGB">
<feFlood flood-opacity="0" result="BackgroundImageFix"/>
<feColorMatrix in="SourceAlpha" type="matrix" values="0 0 0 0 0 0 0 0 0 0 0 0 0 0 0 0 0 0 127 0" result="hardAlpha"/>
<feOffset dy="1"/>
<feGaussianBlur stdDeviation="2"/>
<feComposite in2="hardAlpha" operator="out"/>
<feColorMatrix type="matrix" values="0 0 0 0 0 0 0 0 0 0 0 0 0 0 0 0 0 0 0.5 0"/>
<feBlend mode="normal" in2="BackgroundImageFix" result="effect1_dropShadow_5_106"/>
<feBlend mode="normal" in="SourceGraphic" in2="effect1_dropShadow_5_106" result="shape"/>
</filter>
<radialGradient id="paint0_radial_5_106" cx="0" cy="0" r="1" gradientUnits="userSpaceOnUse" gradientTransform="translate(76.8542 77.5) rotate(90) scale(52.9583 53.6042)">
<stop stop-color="#75DEFF"/>
<stop offset="1" stop-color="#00698A"/>
</radialGradient>
</defs>
</svg>
