<svg width="152" height="147" viewBox="0 0 152 147" fill="none" xmlns="http://www.w3.org/2000/svg">
<path d="M74.5798 98.4601L72.6995 99.3418L70.9071 98.2944L71.1662 100.356L69.6148 101.733L71.652 102.125L72.4877 104.027L73.4904 102.209L75.5567 102.005L74.1356 100.488L74.5798 98.4601Z" fill="#0E0E0E"/>
<path d="M87.6056 96.5179L86.85 92.302L83.9652 95.466L79.7234 94.8826L81.8401 98.6057L79.9755 102.458L84.1679 101.595L87.2584 104.56L87.7312 100.304L91.5066 98.2822L87.6056 96.5179Z" fill="#0E0E0E"/>
<path d="M97.017 90.8328L95.8968 89.0853L95.1898 91.0352L93.1808 91.5618L94.8212 92.8374L94.7011 94.9129L96.4192 93.7466L98.3529 94.5006L97.777 92.5043L99.0911 90.8992L97.017 90.8328Z" fill="#0E0E0E"/>
<path d="M97.017 90.8328L95.8968 89.0853L95.1898 91.0352L93.1808 91.5618L94.8212 92.8374L94.7011 94.9129L96.4192 93.7466L98.3529 94.5006L97.777 92.5043L99.0911 90.8992L97.017 90.8328Z" fill="#0E0E0E"/>
<path d="M87.6056 96.5179L86.85 92.302L83.9652 95.466L79.7234 94.8826L81.8401 98.6057L79.9755 102.458L84.1679 101.595L87.2584 104.56L87.7312 100.304L91.5066 98.2822L87.6056 96.5179Z" fill="#0E0E0E"/>
<path d="M74.5798 98.4601L72.6995 99.3418L70.9071 98.2944L71.1662 100.356L69.6148 101.733L71.652 102.125L72.4877 104.027L73.4904 102.209L75.5567 102.005L74.1356 100.488L74.5798 98.4601Z" fill="#0E0E0E"/>
<path d="M74.5798 98.4601L72.6995 99.3418L70.9071 98.2944L71.1662 100.356L69.6148 101.733L71.652 102.125L72.4877 104.027L73.4904 102.209L75.5567 102.005L74.1356 100.488L74.5798 98.4601Z" fill="#0E0E0E"/>
<path d="M87.6056 96.5179L86.85 92.302L83.9652 95.466L79.7234 94.8826L81.8401 98.6057L79.9755 102.458L84.1679 101.595L87.2584 104.56L87.7312 100.304L91.5066 98.2822L87.6056 96.5179Z" fill="#0E0E0E"/>
<path d="M97.017 90.8328L95.8968 89.0853L95.1898 91.0352L93.1808 91.5618L94.8212 92.8374L94.7011 94.9129L96.4192 93.7466L98.3529 94.5006L97.777 92.5043L99.0911 90.8992L97.017 90.8328Z" fill="#0E0E0E"/>
<path d="M97.017 90.8328L95.8968 89.0853L95.1898 91.0352L93.1808 91.5618L94.8212 92.8374L94.7011 94.9129L96.4192 93.7466L98.3529 94.5006L97.777 92.5043L99.0911 90.8992L97.017 90.8328Z" fill="#0E0E0E"/>
<path d="M87.6056 96.5179L86.85 92.302L83.9652 95.466L79.7234 94.8826L81.8401 98.6057L79.9755 102.458L84.1679 101.595L87.2584 104.56L87.7312 100.304L91.5066 98.2822L87.6056 96.5179Z" fill="#0E0E0E"/>
<path d="M74.5798 98.4601L72.6995 99.3418L70.9071 98.2944L71.1662 100.356L69.6148 101.733L71.652 102.125L72.4877 104.027L73.4904 102.209L75.5567 102.005L74.1356 100.488L74.5798 98.4601Z" fill="#0E0E0E"/>
<path d="M74.5798 98.4601L72.6995 99.3418L70.9071 98.2944L71.1662 100.356L69.6148 101.733L71.652 102.125L72.4877 104.027L73.4904 102.209L75.5567 102.005L74.1356 100.488L74.5798 98.4601Z" fill="#0E0E0E"/>
<path d="M87.6056 96.5179L86.85 92.302L83.9652 95.466L79.7234 94.8826L81.8401 98.6057L79.9755 102.458L84.1679 101.595L87.2584 104.56L87.7312 100.304L91.5066 98.2822L87.6056 96.5179Z" fill="#0E0E0E"/>
<path d="M97.017 90.8328L95.8968 89.0853L95.1898 91.0352L93.1808 91.5618L94.8212 92.8374L94.7011 94.9129L96.4192 93.7466L98.3529 94.5006L97.777 92.5043L99.0911 90.8992L97.017 90.8328Z" fill="#0E0E0E"/>
<path d="M63.6961 39.2716C51.2546 43.7743 42.7696 54.3535 40.3728 66.4491L41.1297 66.175C43.6026 54.4748 51.8793 44.2676 63.9256 39.9054C75.9742 35.5424 88.8673 38.0837 98.2538 45.4895L99.0129 45.2145C89.4281 37.4603 76.1368 34.7667 63.6961 39.2716Z" fill="#38C2EF"/>
<path d="M62.8944 37.0503C49.1725 42.0192 39.9715 53.9253 37.8082 67.3778L39.2672 66.8495C41.5693 54.1719 50.3633 43.0218 63.352 38.3209C76.3398 33.6178 90.2332 36.5499 100.116 44.815L101.578 44.2858C91.3035 35.3397 76.6126 32.0853 62.8944 37.0503Z" fill="#38C2EF"/>
<path d="M59.5666 27.8606C40.6217 34.7208 28.5573 52.143 27.6038 71.073L28.9831 70.5735C30.1205 52.3866 41.7988 35.7284 60.0256 29.1282C78.2523 22.5279 97.8874 27.8497 110.403 41.0902L111.782 40.5907C98.9291 26.6602 78.5068 21.002 59.5666 27.8606Z" fill="#0E0E0E"/>
<path d="M115.117 33.6221C113.647 32.1818 110.773 32.3561 109.161 31.1036C107.544 29.8405 107.007 27.0126 105.261 25.9453C103.513 24.8765 100.748 25.6793 98.8925 24.8142C97.0401 23.9429 95.8908 21.3033 93.9457 20.6461C92.01 19.9932 89.4925 21.3871 87.4886 20.9523C85.4925 20.5173 83.7862 18.198 81.7384 17.9906C79.7105 17.7811 77.5701 19.7037 75.5097 19.7252C73.4724 19.7461 71.292 17.8693 69.2429 18.1213C67.2307 18.3755 65.573 20.7267 63.5645 21.2116C61.5932 21.6856 59.0483 20.3405 57.0991 21.0463C55.1499 21.7522 54.0555 24.4126 52.2363 25.3137C50.3853 26.2265 47.6057 25.4795 45.8981 26.5749C44.1619 27.6909 43.6864 30.5295 42.1104 31.8171C40.5117 33.1206 37.6389 33.0134 36.213 34.4736C34.7727 35.9441 34.947 38.8181 33.6945 40.4295C32.4314 42.0473 29.6035 42.584 28.5362 44.3294C27.4674 46.078 28.2701 48.8431 27.4051 50.6984C26.5338 52.5508 23.8942 53.7001 23.237 55.6452C22.5841 57.5809 23.978 60.0984 23.5432 62.1022C23.1082 64.0984 20.7888 65.8047 20.5815 67.8525C20.4071 69.5428 21.7119 71.3086 22.1643 73.0427L26.2315 71.5699C26.9979 51.8954 39.4507 33.7085 59.1077 26.593C78.7615 19.476 99.9663 25.4723 113.152 40.0945L117.224 38.6201C116.463 36.9975 116.334 34.8088 115.117 33.6221Z" fill="#38C2EF"/>
<path d="M97.017 90.8328L95.8968 89.0853L95.1898 91.0352L93.1808 91.5618L94.8212 92.8374L94.7011 94.9129L96.4192 93.7466L98.3529 94.5006L97.777 92.5043L99.0911 90.8992L97.017 90.8328Z" fill="#0E0E0E"/>
<path d="M87.6056 96.5179L86.85 92.302L83.9652 95.466L79.7234 94.8826L81.8401 98.6057L79.9755 102.458L84.1679 101.595L87.2584 104.56L87.7312 100.304L91.5066 98.2822L87.6056 96.5179Z" fill="#0E0E0E"/>
<path d="M74.5798 98.4601L72.6995 99.3418L70.9071 98.2944L71.1662 100.356L69.6148 101.733L71.652 102.125L72.4877 104.027L73.4904 102.209L75.5567 102.005L74.1356 100.488L74.5798 98.4601Z" fill="#0E0E0E"/>
<path d="M74.5798 98.4601L72.6995 99.3418L70.9071 98.2944L71.1662 100.356L69.6148 101.733L71.652 102.125L72.4877 104.027L73.4904 102.209L75.5567 102.005L74.1356 100.488L74.5798 98.4601Z" fill="#0E0E0E"/>
<path d="M87.6056 96.5179L86.85 92.302L83.9652 95.466L79.7234 94.8826L81.8401 98.6057L79.9755 102.458L84.1679 101.595L87.2584 104.56L87.7312 100.304L91.5066 98.2822L87.6056 96.5179Z" fill="#0E0E0E"/>
<path d="M97.017 90.8328L95.8968 89.0853L95.1898 91.0352L93.1808 91.5618L94.8212 92.8374L94.7011 94.9129L96.4192 93.7466L98.3529 94.5006L97.777 92.5043L99.0911 90.8992L97.017 90.8328Z" fill="#0E0E0E"/>
<path d="M111.052 80.8249C108.579 92.5252 100.302 102.732 88.256 107.095C76.2074 111.458 63.3142 108.916 53.9278 101.511L53.1687 101.785C62.7535 109.54 76.0448 112.233 88.4855 107.728C100.927 103.226 109.412 92.6465 111.809 80.5509L111.052 80.8249Z" fill="#38C2EF"/>
<path d="M112.915 80.1505C110.612 92.8281 101.818 103.978 88.8298 108.679C75.842 113.382 61.9486 110.45 52.0654 102.185L50.604 102.714C60.8783 111.66 75.5692 114.915 89.2874 109.95C103.009 104.981 112.21 93.0747 114.374 79.6221L112.915 80.1505Z" fill="#38C2EF"/>
<path d="M123.198 76.4265C122.061 94.6135 110.383 111.272 92.156 117.872C73.9293 124.472 54.2942 119.15 41.779 105.91L40.3997 106.409C53.2525 120.34 73.6747 125.998 92.615 119.139C111.56 112.279 123.624 94.8571 124.578 75.9271L123.198 76.4265Z" fill="#38C2EF"/>
<path d="M130.017 73.9573L125.95 75.43C125.184 95.1046 112.731 113.291 93.074 120.407C73.4202 127.524 52.2154 121.528 39.0296 106.905L34.9579 108.38C35.7182 110.002 35.8482 112.191 37.0644 113.378C38.5348 114.818 41.4089 114.644 43.0203 115.896C44.6381 117.159 45.1748 119.987 46.9202 121.055C48.6688 122.123 51.4339 121.321 53.2892 122.186C55.1416 123.057 56.2909 125.697 58.236 126.354C60.1717 127.007 62.6893 125.613 64.6931 126.048C66.6892 126.483 68.3955 128.802 70.4433 129.009C72.4712 129.219 74.6116 127.296 76.672 127.275C78.7093 127.254 80.8897 129.131 82.9388 128.879C84.951 128.625 86.6087 126.273 88.6172 125.788C90.5885 125.314 93.1334 126.659 95.0826 125.954C97.0318 125.248 98.1262 122.587 99.9454 121.686C101.796 120.773 104.576 121.52 106.284 120.425C108.02 119.309 108.495 116.47 110.071 115.183C111.67 113.879 114.543 113.987 115.969 112.526C117.409 111.056 117.235 108.182 118.487 106.57C119.75 104.953 122.578 104.416 123.646 102.671C124.714 100.922 123.912 98.1569 124.777 96.3016C125.648 94.4491 128.288 93.2999 128.945 91.3548C129.598 89.419 128.204 86.9015 128.639 84.8977C129.074 82.9016 131.393 81.1953 131.6 79.1475C131.775 77.4571 130.47 75.6913 130.017 73.9573Z" fill="#38C2EF"/>
<path d="M123.643 38.3586L16.9042 77.0105C15.2819 77.6933 14.4633 79.5344 15.0684 81.2055L24.2815 106.648C24.9064 108.373 26.813 109.266 28.5389 108.641L135.277 69.9895C136.9 69.3067 137.718 67.4656 137.113 65.7945L127.9 40.3523C127.275 38.6266 125.369 37.7337 123.643 38.3586Z" fill="#1C7ABF"/>
<path d="M28.4938 93.8433L25.8231 86.4682L28.2031 85.6064L30.8738 92.9815C31.1327 93.6964 31.1945 94.372 31.0593 95.0081C30.9272 95.6376 30.6383 96.1937 30.1927 96.6763C29.7502 97.1523 29.1861 97.5144 28.5005 97.7627C27.7953 98.018 27.126 98.1275 26.4924 98.091C25.857 98.0497 25.2939 97.8409 24.8032 97.4647C24.3155 97.0818 23.9334 96.5084 23.6568 95.7444L26.0515 94.8773C26.188 95.2543 26.3427 95.5362 26.5156 95.7229C26.6915 95.9029 26.8885 96.0033 27.1065 96.0241C27.3245 96.0448 27.5658 96.0073 27.8302 95.9116C28.0849 95.8193 28.2831 95.6783 28.4248 95.4885C28.5648 95.2938 28.6428 95.0578 28.6587 94.7806C28.6729 94.4986 28.6179 94.1861 28.4938 93.8433ZM31.1047 84.5557L33.088 83.8375L38.4281 90.5533L38.2227 81.9781L40.206 81.2599L40.3327 93.3119L38.724 93.8944L31.1047 84.5557ZM29.9588 84.9706L31.9788 84.2391L35.2236 92.0295L36.2264 94.7988L33.8317 95.666L29.9588 84.9706ZM39.3319 81.5765L41.3593 80.8423L45.2323 91.5376L42.8302 92.4075L41.8274 89.6381L39.3319 81.5765ZM43.137 80.1986L47.2432 78.7116C48.0611 78.4155 48.813 78.2817 49.4991 78.3102C50.1902 78.3369 50.7842 78.5317 51.2812 78.8946C51.7782 79.2575 52.1543 79.7915 52.4097 80.4967C52.6225 81.0844 52.7079 81.6184 52.6659 82.099C52.6238 82.5795 52.4777 83.0174 52.2276 83.4126C51.9823 83.8061 51.6597 84.1694 51.2596 84.5026L50.6353 85.2106L47.1387 86.4768L46.451 84.6237L49.0514 83.682C49.4089 83.5526 49.6821 83.3816 49.8711 83.1692C50.06 82.9567 50.1716 82.7141 50.2058 82.4414C50.2431 82.162 50.205 81.8656 50.0915 81.5522C49.9745 81.229 49.8122 80.972 49.6046 80.7813C49.3971 80.5905 49.1512 80.4774 48.8669 80.4419C48.5857 80.3997 48.2688 80.4424 47.9162 80.5701L46.2047 81.1899L49.4047 90.0268L47.01 90.8939L43.137 80.1986ZM52.9306 88.75L48.8075 84.8671L51.3318 83.9447L55.4544 87.7114L55.4943 87.8216L52.9306 88.75ZM65.3323 80.2043L67.7123 79.3425C67.9391 80.0913 67.9733 80.8128 67.8148 81.5072C67.6595 82.195 67.3212 82.8132 66.7998 83.3621C66.2767 83.906 65.5768 84.3367 64.7002 84.6542C63.9999 84.9078 63.3296 85.0148 62.6894 84.9752C62.0491 84.9356 61.4548 84.7631 60.9066 84.4575C60.3615 84.1453 59.8717 83.7106 59.4372 83.1533C59.0059 82.5894 58.6457 81.9083 58.3567 81.1101L58.1199 80.4563C57.8309 79.6581 57.6764 78.9025 57.6564 78.1896C57.6365 77.4767 57.7408 76.8241 57.9694 76.2317C58.1981 75.6393 58.5432 75.1238 59.0047 74.6852C59.4663 74.2467 60.035 73.905 60.7108 73.6603C61.6217 73.3304 62.45 73.2161 63.1956 73.3172C63.9413 73.4183 64.5892 73.6933 65.1395 74.1421C65.6947 74.5892 66.1396 75.1676 66.4741 75.8773L64.0868 76.7418C63.9164 76.3327 63.7113 76.0109 63.4713 75.7765C63.2296 75.5373 62.9401 75.3956 62.6028 75.3515C62.2656 75.3075 61.8619 75.3706 61.3918 75.5408C61.049 75.6649 60.7709 75.8377 60.5574 76.059C60.3489 76.2785 60.2077 76.554 60.1338 76.8854C60.0649 77.215 60.0641 77.603 60.1316 78.0494C60.1973 78.491 60.333 78.9957 60.5387 79.5638L60.7808 80.2323C60.9847 80.7954 61.1979 81.2694 61.4203 81.6542C61.6427 82.0389 61.8835 82.3367 62.1426 82.5475C62.4067 82.7566 62.6924 82.8802 62.9998 82.9185C63.3073 82.9567 63.6471 82.9084 64.0193 82.7737C64.4453 82.6194 64.7764 82.4247 65.0126 82.1896C65.2469 81.9497 65.3904 81.6651 65.4429 81.3358C65.4954 81.0066 65.4585 80.6295 65.3323 80.2043ZM76.9419 77.9612L77.6122 79.8123L71.9193 81.8738L71.2489 80.0227L76.9419 77.9612ZM68.8617 70.8832L72.7346 81.5786L70.3399 82.4457L66.467 71.7504L68.8617 70.8832ZM74.5634 73.6876L75.2125 75.4799L70.2541 77.2754L69.6051 75.4831L74.5634 73.6876ZM73.7466 69.1143L74.4196 70.9728L68.7193 73.0369L68.0463 71.1785L73.7466 69.1143ZM74.9145 68.6914L79.0208 67.2044C79.8386 66.9083 80.5906 66.7745 81.2767 66.803C81.9677 66.8297 82.5617 67.0245 83.0587 67.3874C83.5557 67.7503 83.9319 68.2843 84.1873 68.9895C84.4001 69.5772 84.4855 70.1112 84.4434 70.5918C84.4014 71.0723 84.2553 71.5102 84.0051 71.9054C83.7599 72.2989 83.4372 72.6622 83.0372 72.9954L82.4128 73.7034L78.9163 74.9696L78.2286 73.1165L80.829 72.1748C81.1865 72.0454 81.4597 71.8744 81.6486 71.662C81.8376 71.4495 81.9492 71.2069 81.9833 70.9342C82.0207 70.6548 81.9826 70.3584 81.8691 70.045C81.752 69.7218 81.5897 69.4648 81.3822 69.2741C81.1746 69.0834 80.9287 68.9702 80.6444 68.9347C80.3633 68.8925 80.0464 68.9352 79.6938 69.0629L77.9822 69.6827L81.1822 78.5196L78.7875 79.3867L74.9145 68.6914ZM84.7082 77.2428L80.5851 73.3599L83.1094 72.4375L87.2319 76.2042L87.2718 76.3144L84.7082 77.2428ZM89.224 63.5097L93.097 74.205L90.7096 75.0695L86.8366 64.3742L89.224 63.5097ZM92.4781 62.3313L93.1511 64.1898L84.3216 67.3871L83.6486 65.5286L92.4781 62.3313ZM96.2098 60.98L100.083 71.6754L97.6954 72.5399L93.8224 61.8445L96.2098 60.98ZM100.536 59.4133L104.409 70.1086L102.015 70.9758L98.1417 60.2804L100.536 59.4133ZM106.379 62.3994L107.049 64.2505L102.171 66.0167L101.501 64.1656L106.379 62.3994ZM105.216 57.7188L105.889 59.5773L100.541 61.5138L99.8679 59.6553L105.216 57.7188ZM108.933 56.3729L112.806 67.0682L110.418 67.9327L106.545 57.2374L108.933 56.3729ZM121.339 61.8841L122.01 63.7353L116.317 65.7968L115.646 63.9456L121.339 61.8841ZM113.259 54.8061L117.132 65.5015L114.737 66.3687L110.864 55.6733L113.259 54.8061ZM118.961 57.6105L119.61 59.4028L114.652 61.1983L114.003 59.406L118.961 57.6105ZM118.144 53.0372L118.817 54.8957L113.117 56.9599L112.444 55.1014L118.144 53.0372ZM126.571 62.0834L124.221 62.9346L123.565 61.0782L125.901 60.2323C126.435 60.039 126.841 59.7534 127.12 59.3755C127.397 58.9928 127.543 58.5244 127.558 57.9704C127.572 57.4116 127.452 56.782 127.198 56.0817L127.02 55.5895C126.828 55.0606 126.606 54.6149 126.353 54.2524C126.098 53.8849 125.816 53.6022 125.506 53.4042C125.196 53.2062 124.859 53.0954 124.496 53.0718C124.138 53.0464 123.758 53.1064 123.357 53.2518L120.977 54.1137L120.304 52.2552L122.684 51.3933C123.408 51.1309 124.114 51.0139 124.8 51.0424C125.491 51.0692 126.137 51.2313 126.738 51.5289C127.343 51.8248 127.879 52.2402 128.344 52.7753C128.809 53.3103 129.18 53.9598 129.457 54.7238L129.63 55.2012C129.904 55.9603 130.035 56.6967 130.022 57.4104C130.008 58.1192 129.862 58.7812 129.587 59.3962C129.314 60.0046 128.923 60.5394 128.414 61.0006C127.906 61.4618 127.291 61.8227 126.571 62.0834ZM121.707 51.7471L125.58 62.4425L123.185 63.3097L119.312 52.6143L121.707 51.7471Z" fill="white"/>
<path d="M74.5798 98.4601L72.6995 99.3418L70.9071 98.2944L71.1662 100.356L69.6148 101.733L71.652 102.125L72.4877 104.027L73.4904 102.209L75.5567 102.005L74.1356 100.488L74.5798 98.4601Z" fill="#0E0E0E"/>
<path d="M87.6056 96.5179L86.85 92.302L83.9652 95.466L79.7234 94.8826L81.8401 98.6057L79.9755 102.458L84.1679 101.595L87.2584 104.56L87.7312 100.304L91.5066 98.2822L87.6056 96.5179Z" fill="#0E0E0E"/>
<path d="M97.017 90.8328L95.8968 89.0853L95.1898 91.0352L93.1808 91.5618L94.8212 92.8374L94.7011 94.9129L96.4192 93.7466L98.3529 94.5006L97.777 92.5043L99.0911 90.8992L97.017 90.8328Z" fill="#0E0E0E"/>
<path d="M97.017 90.8328L95.8968 89.0853L95.1898 91.0352L93.1808 91.5618L94.8212 92.8374L94.7011 94.9129L96.4192 93.7466L98.3529 94.5006L97.777 92.5043L99.0911 90.8992L97.017 90.8328Z" fill="#0E0E0E"/>
<path d="M87.6056 96.5179L86.85 92.302L83.9652 95.466L79.7234 94.8826L81.8401 98.6057L79.9755 102.458L84.1679 101.595L87.2584 104.56L87.7312 100.304L91.5066 98.2822L87.6056 96.5179Z" fill="#0E0E0E"/>
<path d="M74.5798 98.4601L72.6995 99.3418L70.9071 98.2944L71.1662 100.356L69.6148 101.733L71.652 102.125L72.4877 104.027L73.4904 102.209L75.5567 102.005L74.1356 100.488L74.5798 98.4601Z" fill="#0E0E0E"/>
<path d="M74.5798 98.4601L72.6995 99.3418L70.9071 98.2944L71.1662 100.356L69.6148 101.733L71.652 102.125L72.4877 104.027L73.4904 102.209L75.5567 102.005L74.1356 100.488L74.5798 98.4601Z" fill="#0E0E0E"/>
<path d="M87.6056 96.5179L86.85 92.302L83.9652 95.466L79.7234 94.8826L81.8401 98.6057L79.9755 102.458L84.1679 101.595L87.2584 104.56L87.7312 100.304L91.5066 98.2822L87.6056 96.5179Z" fill="#0E0E0E"/>
<path d="M97.017 90.8328L95.8968 89.0853L95.1898 91.0352L93.1808 91.5618L94.8212 92.8374L94.7011 94.9129L96.4192 93.7466L98.3529 94.5006L97.777 92.5043L99.0911 90.8992L97.017 90.8328Z" fill="#0E0E0E"/>
<path d="M59.5666 27.8606C40.6217 34.7208 28.5573 52.143 27.6038 71.073L28.9831 70.5735C30.1205 52.3866 41.7988 35.7284 60.0256 29.1282C78.2523 22.5279 97.8874 27.8497 110.403 41.0902L111.782 40.5907C98.9291 26.6602 78.5068 21.002 59.5666 27.8606Z" fill="#38C2EF"/>
<path d="M97.017 90.8328L95.8968 89.0853L95.1898 91.0352L93.1808 91.5618L94.8212 92.8374L94.7011 94.9129L96.4192 93.7466L98.3529 94.5006L97.777 92.5043L99.0911 90.8992L97.017 90.8328Z" fill="#0E0E0E"/>
<path d="M87.6056 96.5179L86.85 92.302L83.9652 95.466L79.7234 94.8826L81.8401 98.6057L79.9755 102.458L84.1679 101.595L87.2584 104.56L87.7312 100.304L91.5066 98.2822L87.6056 96.5179Z" fill="#0E0E0E"/>
<path d="M74.5798 98.4601L72.6995 99.3418L70.9071 98.2944L71.1662 100.356L69.6148 101.733L71.652 102.125L72.4877 104.027L73.4904 102.209L75.5567 102.005L74.1356 100.488L74.5798 98.4601Z" fill="#0E0E0E"/>
<path d="M74.5798 98.4601L72.6995 99.3418L70.9071 98.2944L71.1662 100.356L69.6148 101.733L71.652 102.125L72.4877 104.027L73.4904 102.209L75.5567 102.005L74.1356 100.488L74.5798 98.4601Z" fill="#0E0E0E"/>
<path d="M87.6056 96.5179L86.85 92.302L83.9652 95.466L79.7234 94.8826L81.8401 98.6057L79.9755 102.458L84.1679 101.595L87.2584 104.56L87.7312 100.304L91.5066 98.2822L87.6056 96.5179Z" fill="#0E0E0E"/>
<path d="M97.017 90.8328L95.8968 89.0853L95.1898 91.0352L93.1808 91.5618L94.8212 92.8374L94.7011 94.9129L96.4192 93.7466L98.3529 94.5006L97.777 92.5043L99.0911 90.8992L97.017 90.8328Z" fill="#0E0E0E"/>
<path d="M97.017 90.8328L95.8968 89.0853L95.1898 91.0352L93.1808 91.5618L94.8212 92.8374L94.7011 94.9129L96.4192 93.7466L98.3529 94.5006L97.777 92.5043L99.0911 90.8992L97.017 90.8328Z" fill="#0E0E0E"/>
<path d="M87.6056 96.5179L86.85 92.302L83.9652 95.466L79.7234 94.8826L81.8401 98.6057L79.9755 102.458L84.1679 101.595L87.2584 104.56L87.7312 100.304L91.5066 98.2822L87.6056 96.5179Z" fill="#0E0E0E"/>
<path d="M74.5798 98.4601L72.6995 99.3418L70.9071 98.2944L71.1662 100.356L69.6148 101.733L71.652 102.125L72.4877 104.027L73.4904 102.209L75.5567 102.005L74.1356 100.488L74.5798 98.4601Z" fill="#0E0E0E"/>
<path d="M74.5798 98.4601L74.1356 100.488L75.5567 102.005L73.4904 102.209L72.4877 104.027L71.652 102.125L69.6148 101.733L71.1662 100.356L70.9071 98.2944L72.6995 99.3418L74.5798 98.4601Z" fill="#1C7ABF"/>
<path d="M87.6056 96.5179L91.5066 98.2822L87.7312 100.304L87.2584 104.56L84.1679 101.595L79.9755 102.458L81.8401 98.6057L79.7234 94.8826L83.9652 95.466L86.85 92.302L87.6056 96.5179Z" fill="#1C7ABF"/>
<path d="M99.0911 90.8992L97.777 92.5043L98.3529 94.5006L96.4192 93.7466L94.7011 94.9129L94.8212 92.8374L93.1808 91.5618L95.1898 91.0352L95.8968 89.0853L97.017 90.8328L99.0911 90.8992Z" fill="#1C7ABF"/>
<path d="M72.065 44.5936L67.8702 45.4573L64.7821 42.4912L64.3069 46.7476L60.534 48.7691L64.4326 50.5341L65.1905 54.7492L68.0751 51.5849L72.317 52.1685L70.1981 48.4463L72.065 44.5936Z" fill="#1C7ABF"/>
<path d="M82.6181 45.4084L80.581 45.0168L79.7451 43.1145L78.7425 44.9319L76.6762 45.1363L78.0972 46.6535L77.6539 48.6836L79.5341 47.8016L81.3259 48.8472L81.0674 46.7873L82.6181 45.4084Z" fill="#1C7ABF"/>
<path d="M57.3093 54.0213L57.4293 51.9458L55.7113 53.112L53.7775 52.3579L54.3534 54.3541L53.0394 55.9594L55.1128 56.0238L56.2337 57.7734L56.9398 55.8209L58.9489 55.2948L57.3093 54.0213Z" fill="#1C7ABF"/>
</svg>
