<svg width="271" height="271" viewBox="0 0 271 271" fill="none" xmlns="http://www.w3.org/2000/svg">
<g clip-path="url(#clip0_2665_1854)">
<path d="M270.5 206.995H0.5V207.13H270.5V206.995Z" fill="#EBEBEB"/>
<path d="M243.446 215.687H225.561V215.822H243.446V215.687Z" fill="#EBEBEB"/>
<path d="M179.36 217.152H174.666V217.287H179.36V217.152Z" fill="#EBEBEB"/>
<path d="M225.02 210.672H214.656V210.807H225.02V210.672Z" fill="#EBEBEB"/>
<path d="M52.1523 211.579H28.8281V211.714H52.1523V211.579Z" fill="#EBEBEB"/>
<path d="M60.3808 211.579H56.9609V211.714H60.3808V211.579Z" fill="#EBEBEB"/>
<path d="M122.079 213.86H71.4941V213.995H122.079V213.86Z" fill="#EBEBEB"/>
<path d="M128.487 182.912H24.2132C22.5138 182.912 21.1309 181.529 21.1309 179.829V33.2561C21.1309 31.5568 22.5138 30.1738 24.2132 30.1738H128.487C130.185 30.1738 131.568 31.5568 131.568 33.2561V179.829C131.568 181.529 130.185 182.912 128.487 182.912ZM24.2132 30.3094C22.5878 30.3094 21.2659 31.6313 21.2659 33.2567V179.83C21.2659 181.455 22.5878 182.777 24.2132 182.777H128.487C130.111 182.777 131.433 181.455 131.433 179.83V33.2561C131.433 31.6313 130.111 30.3088 128.487 30.3088L24.2132 30.3094Z" fill="#EBEBEB"/>
<path d="M245.286 182.912H141.013C139.314 182.912 137.932 181.529 137.932 179.829V33.2561C137.932 31.5568 139.315 30.1738 141.013 30.1738H245.286C246.986 30.1738 248.369 31.5568 248.369 33.2561V179.829C248.369 181.529 246.986 182.912 245.286 182.912ZM141.013 30.3094C139.389 30.3094 138.067 31.6313 138.067 33.2567V179.83C138.067 181.455 139.389 182.777 141.013 182.777H245.286C246.912 182.777 248.234 181.455 248.234 179.83V33.2561C248.234 31.6313 246.912 30.3088 245.286 30.3088L141.013 30.3094Z" fill="#EBEBEB"/>
<path d="M156.932 94.4922L231.334 94.4922V45.7696L156.932 45.7696V94.4922Z" fill="#E6E6E6"/>
<path d="M154.663 94.4922L230.273 94.4922V45.7696L154.663 45.7696V94.4922Z" fill="#F0F0F0"/>
<path d="M156.932 104.054L231.334 104.054V94.4914L156.932 94.4914V104.054Z" fill="#E6E6E6"/>
<path d="M150.879 104.054L226.49 104.054V94.4914L150.879 94.4914V104.054Z" fill="#F0F0F0"/>
<path d="M227.096 91.3145V48.9482L157.841 48.9482V91.3145L227.096 91.3145Z" fill="#FAFAFA"/>
<path d="M211.478 91.3155L202.633 48.9492H188.83L197.675 91.3155H211.478Z" fill="white"/>
<path d="M225.622 88.1506C225.747 88.1506 225.849 88.0491 225.849 87.9238V51.0159C225.849 50.8906 225.748 50.7891 225.622 50.7891C225.497 50.7891 225.395 50.8906 225.395 51.0159V87.9238C225.395 88.0491 225.497 88.1506 225.622 88.1506Z" fill="#F0F0F0"/>
<path d="M194.709 91.3155L185.864 48.9492H180.482L189.328 91.3155H194.709Z" fill="white"/>
<path d="M158.244 91.3145V48.9482H157.841V91.3145H158.244Z" fill="#E6E6E6"/>
<path opacity="0.6" d="M153.91 53.7391H228.312L228.604 50.1826H154.202L153.91 53.7391Z" fill="#EBEBEB"/>
<path opacity="0.6" d="M153.91 59.573H228.312L228.604 56.0166H154.202L153.91 59.573Z" fill="#EBEBEB"/>
<path opacity="0.6" d="M153.91 65.406H228.312L228.604 61.8496H154.202L153.91 65.406Z" fill="#EBEBEB"/>
<path opacity="0.6" d="M153.91 71.2391H228.312L228.604 67.6826H154.202L153.91 71.2391Z" fill="#EBEBEB"/>
<path opacity="0.6" d="M153.91 77.0721H228.312L228.604 73.5156H154.202L153.91 77.0721Z" fill="#EBEBEB"/>
<path opacity="0.6" d="M153.91 82.9051H228.312L228.604 79.3486H154.202L153.91 82.9051Z" fill="#EBEBEB"/>
<path d="M220.651 171.562H205.051V174.638H220.651V171.562Z" fill="#E6E6E6"/>
<path d="M175.626 206.996H178.506V136.221H175.626V206.996Z" fill="#E6E6E6"/>
<path d="M165.651 174.638H205.051V171.562H165.651V174.638Z" fill="#F5F5F5"/>
<path d="M220.651 188.393H205.051V191.468H220.651V188.393Z" fill="#E6E6E6"/>
<path d="M165.651 191.468H205.051V188.392H165.651V191.468Z" fill="#F5F5F5"/>
<path d="M220.651 137.902H205.051V140.978H220.651V137.902Z" fill="#E6E6E6"/>
<path d="M165.651 140.978H205.051V137.902H165.651V140.978Z" fill="#F5F5F5"/>
<path d="M220.651 154.733H205.051V157.809H220.651V154.733Z" fill="#E6E6E6"/>
<path d="M165.651 157.808H205.051V154.732H165.651V157.808Z" fill="#F5F5F5"/>
<path d="M215.026 206.996H217.906V136.221H215.026V206.996Z" fill="#E6E6E6"/>
<path d="M202.173 206.996H205.053V136.221H202.173V206.996Z" fill="#F5F5F5"/>
<path d="M165.651 206.996H168.531V136.221H165.651V206.996Z" fill="#F5F5F5"/>
<path d="M35.8013 206.995H65.2734V149.813H35.8013L35.8013 206.995Z" fill="#E6E6E6"/>
<path d="M43.6707 206.995H35.8008V199.102H51.9219L43.6707 206.995Z" fill="#FAFAFA"/>
<path d="M116.159 206.995H145.631V149.813H116.159V206.995Z" fill="#E6E6E6"/>
<path d="M35.8036 204.278H123.029V149.813H35.8036V204.278Z" fill="#FAFAFA"/>
<path d="M115.158 206.995H123.028V199.102H106.906L115.158 206.995Z" fill="#FAFAFA"/>
<path d="M41.9067 183.738H116.922V170.108H41.9067V183.738Z" fill="#F0F0F0"/>
<path d="M41.9067 200.281H116.922V186.651H41.9067V200.281Z" fill="#F0F0F0"/>
<path d="M56.1664 171.567H102.665C104.029 171.567 105.136 170.46 105.136 169.095V168.929H53.6953V169.095C53.6953 170.46 54.8018 171.567 56.1664 171.567Z" fill="#FAFAFA"/>
<path d="M41.9067 167.196H116.922V153.566H41.9067V167.196Z" fill="#F0F0F0"/>
<path d="M56.1664 155.023H102.665C104.029 155.023 105.136 153.916 105.136 152.551V152.385H53.6953V152.551C53.6953 153.916 54.8018 155.023 56.1664 155.023Z" fill="#FAFAFA"/>
<path d="M56.1664 188.109H102.665C104.029 188.109 105.136 187.003 105.136 185.638V185.472H53.6953V185.638C53.6953 187.003 54.8018 188.109 56.1664 188.109Z" fill="#FAFAFA"/>
<path d="M40.4947 94.4922L114.896 94.4922V45.7696L40.4947 45.7696V94.4922Z" fill="#E6E6E6"/>
<path d="M38.2251 94.4922L113.836 94.4922V45.7696L38.2251 45.7696V94.4922Z" fill="#F0F0F0"/>
<path d="M40.4947 104.054L114.896 104.054V94.4914L40.4947 94.4914V104.054Z" fill="#E6E6E6"/>
<path d="M34.4419 104.054L110.053 104.054V94.4914L34.4419 94.4914V104.054Z" fill="#F0F0F0"/>
<path d="M110.658 91.3145L110.658 48.9482L41.4037 48.9482L41.4037 91.3145L110.658 91.3145Z" fill="#FAFAFA"/>
<path d="M95.0393 91.3155L86.1936 48.9492H72.3906L81.2364 91.3155H95.0393Z" fill="white"/>
<path d="M109.184 88.1506C109.31 88.1506 109.411 88.0491 109.411 87.9238V51.0159C109.411 50.8906 109.31 50.7891 109.184 50.7891C109.059 50.7891 108.957 50.8906 108.957 51.0159V87.9238C108.958 88.0491 109.059 88.1506 109.184 88.1506Z" fill="#F0F0F0"/>
<path d="M78.2718 91.3155L69.426 48.9492H64.0449L72.8907 91.3155H78.2718Z" fill="white"/>
<path d="M41.8047 91.3145L41.8047 48.9482H41.4013L41.4013 91.3145H41.8047Z" fill="#E6E6E6"/>
<path opacity="0.6" d="M37.4727 53.7391H111.874L112.167 50.1826H37.7653L37.4727 53.7391Z" fill="#EBEBEB"/>
<path opacity="0.6" d="M37.4727 55.7474H111.874L112.167 52.1904H37.7653L37.4727 55.7474Z" fill="#EBEBEB"/>
<path opacity="0.6" d="M37.4727 57.7527H111.874L112.167 54.1963H37.7653L37.4727 57.7527Z" fill="#EBEBEB"/>
<path opacity="0.6" d="M37.4727 59.7601H111.874L112.167 56.2031H37.7653L37.4727 59.7601Z" fill="#EBEBEB"/>
<path opacity="0.6" d="M37.4727 61.7654H111.874L112.167 58.209H37.7653L37.4727 61.7654Z" fill="#EBEBEB"/>
<path opacity="0.6" d="M37.4727 63.7713H111.874L112.167 60.2148H37.7653L37.4727 63.7713Z" fill="#EBEBEB"/>
<path d="M52.3479 148.066H54.9199V119.397H52.3479V148.066Z" fill="#F5F5F5"/>
<path d="M52.678 148.047H53.4043V119.377H52.678V148.047Z" fill="#FAFAFA"/>
<path d="M53.7096 148.047H53.9941V119.377H53.7096V148.047Z" fill="#FAFAFA"/>
<path d="M44.1113 149.814H63.1539C63.1539 148.489 62.0798 147.415 60.7547 147.415H46.5105C45.1854 147.415 44.1113 148.489 44.1113 149.814Z" fill="#F0F0F0"/>
<path d="M49.0093 137.194C49.4165 137.194 49.7491 136.861 49.7491 136.454V117.657C49.7491 117.25 49.416 116.917 49.0093 116.917C48.6022 116.917 48.2695 117.25 48.2695 117.657V136.454C48.2695 136.861 48.6022 137.194 49.0093 137.194Z" fill="#F0F0F0"/>
<path d="M42.1191 126.211H65.1458L62.4971 110.119H44.7678L42.1191 126.211Z" fill="#E0E0E0"/>
<path d="M135.501 231.383C193.325 231.383 240.201 228.646 240.201 225.269C240.201 221.892 193.325 219.154 135.501 219.154C77.6766 219.154 30.8008 221.892 30.8008 225.269C30.8008 228.646 77.6766 231.383 135.501 231.383Z" fill="#F5F5F5"/>
<path d="M56.7183 109.775L56.1797 109.813L56.8965 119.772L57.4351 119.733L56.7183 109.775Z" fill="#407BFF"/>
<path d="M57.814 124.87L57.2754 124.909L57.5454 128.655L58.084 128.616L57.814 124.87Z" fill="#407BFF"/>
<path d="M182.864 170.687H67.2187C64.603 170.687 62.309 168.547 62.1206 165.932L56.4382 87.0214C56.2497 84.4056 58.2358 82.2656 60.8516 82.2656H176.497C179.113 82.2656 181.407 84.4056 181.595 87.0214L187.277 165.932C187.465 168.547 185.48 170.687 182.864 170.687Z" fill="#407BFF"/>
<path d="M183.307 170.687H67.6621C65.0463 170.687 62.7524 168.547 62.5639 165.932L56.8815 87.0214C56.6931 84.4056 58.6792 82.2656 61.2949 82.2656H176.94C179.556 82.2656 181.85 84.4056 182.038 87.0214L187.721 165.932C187.909 168.547 185.923 170.687 183.307 170.687Z" fill="#407BFF"/>
<path opacity="0.5" d="M183.307 170.687H67.6621C65.0463 170.687 62.7524 168.547 62.5639 165.932L56.8815 87.0214C56.6931 84.4056 58.6792 82.2656 61.2949 82.2656H176.94C179.556 82.2656 181.85 84.4056 182.038 87.0214L187.721 165.932C187.909 168.547 185.923 170.687 183.307 170.687Z" fill="white"/>
<path d="M177.111 84.6436H61.4653C61.3347 84.6436 61.2056 84.649 61.0782 84.6592C58.1222 84.9028 58.7259 89.3993 61.7094 89.3993H177.552C180.535 89.3993 180.492 84.9028 177.501 84.6592C177.371 84.649 177.241 84.6436 177.111 84.6436Z" fill="#407BFF"/>
<path d="M64.4783 87.0209C64.5215 87.623 64.069 88.1112 63.4663 88.1112C62.8642 88.1112 62.341 87.623 62.2978 87.0209C62.2546 86.4188 62.7071 85.9307 63.3097 85.9307C63.9124 85.9307 64.4351 86.4183 64.4783 87.0209Z" fill="#FAFAFA"/>
<path d="M68.1873 87.0209C68.2305 87.623 67.778 88.1112 67.1753 88.1112C66.5732 88.1112 66.05 87.623 66.0068 87.0209C65.9636 86.4188 66.4161 85.9307 67.0187 85.9307C67.6208 85.9307 68.1441 86.4183 68.1873 87.0209Z" fill="#FAFAFA"/>
<path d="M71.8968 87.0209C71.94 87.623 71.4869 88.1112 70.8848 88.1112C70.2827 88.1112 69.7595 87.623 69.7157 87.0209C69.6725 86.4188 70.1256 85.9307 70.7277 85.9307C71.3298 85.9307 71.8531 86.4183 71.8968 87.0209Z" fill="#FAFAFA"/>
<path d="M180.24 162.812H69.5925C68.6405 162.812 67.8127 162.039 67.7441 161.087L63.0709 96.1939C63.0024 95.2419 63.7189 94.4697 64.671 94.4697H175.319C176.271 94.4697 177.098 95.2414 177.167 96.1939L181.84 161.087C181.909 162.039 181.192 162.812 180.24 162.812Z" fill="white"/>
<path d="M133.625 138.091L131.824 113.078L126.366 109.793H111.352L113.39 138.091H133.625Z" fill="white"/>
<path d="M133.625 138.352H113.389C113.252 138.352 113.138 138.246 113.129 138.109L111.091 109.812C111.085 109.739 111.111 109.667 111.16 109.614C111.21 109.561 111.279 109.531 111.352 109.531H126.366C126.414 109.531 126.461 109.544 126.501 109.569L131.959 112.854C132.032 112.898 132.079 112.974 132.085 113.059L133.886 138.071C133.891 138.144 133.866 138.216 133.816 138.268C133.767 138.322 133.697 138.352 133.625 138.352ZM113.633 137.829H133.343L131.572 113.232L126.293 110.055H111.633L113.633 137.829Z" fill="#407BFF"/>
<path d="M131.824 113.078L126.365 109.793L128.369 114.145L131.824 113.078Z" fill="#EBEBEB"/>
<path d="M128.371 114.406C128.271 114.406 128.177 114.349 128.133 114.254L126.13 109.902C126.081 109.798 126.107 109.674 126.193 109.598C126.278 109.521 126.404 109.51 126.502 109.569L131.96 112.854C132.048 112.907 132.097 113.007 132.085 113.11C132.072 113.213 132.001 113.298 131.902 113.328L128.448 114.395C128.423 114.403 128.397 114.406 128.371 114.406ZM126.961 110.455L128.513 113.827L131.189 113L126.961 110.455Z" fill="#407BFF"/>
<path d="M119.823 122.543C119.868 123.174 119.393 123.686 118.761 123.686C118.13 123.686 117.582 123.174 117.536 122.543C117.491 121.911 117.966 121.399 118.597 121.399C119.228 121.399 119.777 121.911 119.823 122.543Z" fill="#407BFF"/>
<path d="M127.241 122.543C127.286 123.174 126.812 123.686 126.18 123.686C125.549 123.686 125 123.174 124.954 122.543C124.909 121.911 125.383 121.399 126.015 121.399C126.647 121.4 127.196 121.911 127.241 122.543Z" fill="#407BFF"/>
<path d="M129.333 129.958C129.197 129.958 129.082 129.852 129.072 129.715C128.94 127.876 126.057 126.381 122.646 126.381C120.386 126.381 118.357 127.053 117.351 128.135C116.903 128.616 116.696 129.134 116.735 129.677C116.745 129.821 116.637 129.946 116.493 129.957C116.348 129.966 116.223 129.858 116.213 129.714C116.164 129.03 116.425 128.361 116.967 127.778C118.069 126.593 120.245 125.857 122.646 125.857C126.388 125.857 129.44 127.535 129.594 129.676C129.604 129.82 129.496 129.946 129.352 129.956C129.345 129.958 129.339 129.958 129.333 129.958Z" fill="#407BFF"/>
<path d="M115.61 120.228C115.546 120.228 115.482 120.204 115.431 120.158C115.326 120.06 115.319 119.894 115.417 119.788L116.564 118.552C116.663 118.446 116.828 118.441 116.934 118.538C117.04 118.637 117.046 118.803 116.948 118.908L115.802 120.144C115.75 120.199 115.68 120.228 115.61 120.228Z" fill="#407BFF"/>
<path d="M128.796 120.228C128.732 120.228 128.668 120.204 128.617 120.157L127.292 118.922C127.186 118.824 127.181 118.658 127.279 118.552C127.377 118.446 127.543 118.441 127.649 118.539L128.974 119.774C129.08 119.873 129.085 120.039 128.987 120.144C128.935 120.199 128.866 120.228 128.796 120.228Z" fill="#407BFF"/>
<path d="M109.719 143.683H110.939L112.7 146.023L112.532 143.683H113.763L114.068 147.912H112.836L111.084 145.59L111.252 147.912H110.023L109.719 143.683Z" fill="#407BFF"/>
<path d="M114.62 145.801C114.571 145.11 114.724 144.573 115.082 144.188C115.439 143.803 115.961 143.61 116.647 143.61C117.351 143.61 117.907 143.799 118.315 144.177C118.723 144.555 118.952 145.085 119.001 145.765C119.037 146.26 118.983 146.665 118.839 146.982C118.695 147.298 118.473 147.544 118.171 147.72C117.869 147.896 117.484 147.984 117.014 147.984C116.537 147.984 116.137 147.908 115.813 147.756C115.49 147.605 115.219 147.364 115.001 147.035C114.783 146.707 114.656 146.295 114.62 145.801ZM115.928 145.807C115.959 146.234 116.06 146.54 116.232 146.727C116.404 146.914 116.627 147.006 116.9 147.006C117.181 147.006 117.391 146.915 117.532 146.732C117.673 146.55 117.726 146.221 117.692 145.748C117.663 145.35 117.562 145.059 117.388 144.876C117.214 144.692 116.989 144.6 116.715 144.6C116.451 144.6 116.246 144.694 116.1 144.88C115.954 145.067 115.897 145.376 115.928 145.807Z" fill="#407BFF"/>
<path d="M121.541 143.683H123.483C123.866 143.683 124.178 143.734 124.422 143.838C124.665 143.942 124.871 144.091 125.039 144.285C125.207 144.48 125.335 144.705 125.422 144.963C125.51 145.221 125.564 145.494 125.585 145.783C125.617 146.235 125.592 146.585 125.506 146.835C125.421 147.084 125.293 147.293 125.123 147.46C124.952 147.629 124.764 147.741 124.559 147.796C124.278 147.874 124.021 147.912 123.788 147.912H121.846L121.541 143.683ZM122.917 144.641L123.083 146.952H123.403C123.677 146.952 123.868 146.922 123.98 146.861C124.091 146.801 124.174 146.695 124.228 146.544C124.283 146.392 124.298 146.148 124.273 145.809C124.241 145.361 124.146 145.054 123.988 144.889C123.83 144.724 123.581 144.641 123.243 144.641H122.917V144.641Z" fill="#407BFF"/>
<path d="M128.72 147.214H127.236L127.08 147.912H125.746L127.031 143.683H128.457L130.351 147.912H128.982L128.72 147.214ZM128.383 146.3L127.807 144.779L127.454 146.3H128.383Z" fill="#407BFF"/>
<path d="M129.76 143.683H133.733L133.808 144.727H132.475L132.704 147.912H131.398L131.168 144.727H129.835L129.76 143.683Z" fill="#407BFF"/>
<path d="M136.775 147.214H135.291L135.135 147.912H133.801L135.086 143.683H136.512L138.405 147.912H137.036L136.775 147.214ZM136.438 146.3L135.862 144.779L135.509 146.3H136.438Z" fill="#407BFF"/>
<path d="M191.492 93.9639C191.975 93.722 192.55 93.4093 193.082 93.1171C193.624 92.8196 194.162 92.5091 194.693 92.1862C195.751 91.5349 196.817 90.8913 197.829 90.1763C199.871 88.7696 201.785 87.2085 203.506 85.5037C203.732 85.2974 203.924 85.0685 204.132 84.8503L204.44 84.5198L204.594 84.3546L204.671 84.272C204.692 84.2504 204.687 84.2547 204.677 84.2676L204.66 84.2941C204.583 84.4383 204.647 84.3945 204.677 84.2552C204.713 84.1213 204.743 83.9026 204.753 83.6661C204.788 82.6854 204.594 81.4494 204.359 80.2544C203.879 77.8325 203.151 75.3414 202.432 72.9006L204.529 71.9805C205.844 74.3273 206.939 76.7244 207.83 79.3234C208.255 80.6399 208.645 81.9618 208.759 83.5856C208.78 83.9992 208.789 84.434 208.714 84.941C208.634 85.44 208.509 86.0372 208.053 86.7144L207.963 86.8391L207.894 86.9298L207.81 87.0314L207.644 87.2333L207.311 87.6383C207.086 87.9051 206.872 88.1864 206.633 88.4364C204.771 90.5041 202.699 92.3304 200.488 93.9185C199.388 94.7226 198.263 95.4861 197.095 96.1811C196.514 96.5332 195.925 96.8712 195.326 97.199C194.719 97.536 194.143 97.8292 193.453 98.1527L191.492 93.9639Z" fill="#FFB573"/>
<path d="M186.687 220.916C187.105 220.916 187.562 220.83 187.881 220.754C187.923 220.744 187.955 220.711 187.962 220.668C187.97 220.626 187.952 220.583 187.916 220.56C187.761 220.458 186.388 219.572 185.861 219.81C185.778 219.848 185.674 219.93 185.648 220.111C185.614 220.351 185.674 220.542 185.826 220.68C186.018 220.857 186.34 220.916 186.687 220.916ZM187.578 220.601C186.791 220.758 186.199 220.731 185.97 220.522C185.873 220.434 185.836 220.309 185.86 220.141C185.873 220.051 185.915 220.021 185.949 220.005C186.226 219.88 187.018 220.263 187.578 220.601Z" fill="#407BFF"/>
<path d="M187.858 220.757C187.876 220.757 187.895 220.752 187.912 220.742C187.945 220.723 187.965 220.688 187.965 220.649C187.965 220.594 187.959 219.292 187.468 218.857C187.337 218.741 187.185 218.693 187.014 218.714C186.746 218.746 186.673 218.915 186.653 219.012C186.551 219.522 187.374 220.498 187.805 220.742C187.821 220.752 187.84 220.757 187.858 220.757ZM187.088 218.923C187.176 218.923 187.254 218.954 187.326 219.017C187.619 219.277 187.72 220.008 187.745 220.442C187.314 220.098 186.802 219.365 186.864 219.054C186.874 219.004 186.903 218.943 187.04 218.926C187.056 218.924 187.072 218.923 187.088 218.923Z" fill="#407BFF"/>
<path d="M187.461 80.4561C186.935 83.1399 185.826 88.576 187.704 90.3672C187.704 90.3672 186.97 93.0899 181.983 93.0899C176.499 93.0899 179.362 90.3678 179.362 90.3678C182.356 89.6528 182.278 87.4323 181.757 85.3468L187.461 80.4561Z" fill="#FFB573"/>
<path d="M178.315 91.4496C177.455 91.5663 178.187 89.3366 178.537 89.1055C179.345 88.5714 189.796 87.8154 189.728 89.0839C189.685 89.6298 189.429 90.6952 188.972 91.057C188.514 91.4188 185.829 90.3253 178.315 91.4496Z" fill="#263238"/>
<path d="M180.016 90.6986C179.333 90.9297 179.398 88.6828 179.63 88.4123C180.169 87.787 188.629 85.6134 188.88 86.843C188.977 87.3738 189.023 88.4344 188.733 88.8464C188.443 89.2579 185.958 88.577 180.016 90.6986Z" fill="#263238"/>
<path d="M176.867 75.6195C176.801 75.6233 176.734 75.5968 176.689 75.5412C176.084 74.8014 175.298 74.877 175.29 74.8781C175.171 74.8905 175.066 74.8057 175.054 74.688C175.041 74.5703 175.126 74.4645 175.244 74.452C175.286 74.4477 176.27 74.3521 177.021 75.2696C177.096 75.3614 177.082 75.4964 176.99 75.5709C176.954 75.6012 176.911 75.6168 176.867 75.6195Z" fill="#263238"/>
<path d="M175.822 78.2607C175.822 78.2607 175.36 79.8845 174.756 80.7053C175.279 81.1055 176.074 80.8209 176.074 80.8209L175.822 78.2607Z" fill="#FF5652"/>
<path d="M176.085 77.6047C176.121 77.9676 175.957 78.2808 175.72 78.3045C175.483 78.3278 175.262 78.0524 175.226 77.6895C175.19 77.3266 175.354 77.0134 175.591 76.9896C175.828 76.9664 176.05 77.2418 176.085 77.6047Z" fill="#263238"/>
<path d="M175.698 76.9988L174.801 76.833C174.801 76.833 175.315 77.4707 175.698 76.9988Z" fill="#263238"/>
<path d="M193.119 220.65H188.596L188.95 210.176H193.474L193.119 220.65Z" fill="#FFB573"/>
<path d="M188.236 220.127H193.318C193.502 220.127 193.653 220.255 193.678 220.436L194.257 224.456C194.317 224.873 193.959 225.268 193.532 225.261C191.76 225.23 190.907 225.126 188.672 225.126C187.297 225.126 185.288 225.269 183.39 225.269C181.533 225.269 181.391 223.391 182.181 223.222C185.726 222.459 186.286 221.408 187.48 220.405C187.695 220.224 187.966 220.127 188.236 220.127Z" fill="#263238"/>
<g opacity="0.2">
<path d="M193.475 210.179H188.95L188.77 215.578H193.295L193.475 210.179Z" fill="black"/>
</g>
<path d="M175.122 96.6435C172.323 95.5479 169.654 94.3561 166.995 92.9963C164.341 91.6382 161.728 90.1916 159.217 88.2589C158.592 87.767 157.973 87.2292 157.369 86.6011C157.218 86.4391 157.068 86.289 156.92 86.1032C156.764 85.9078 156.647 85.7928 156.445 85.4925C156.08 84.9676 155.798 84.2629 155.723 83.5437C155.652 82.8238 155.781 82.1364 155.988 81.5883C156.194 81.0305 156.465 80.5753 156.748 80.1805C157.315 79.39 157.944 78.8057 158.578 78.2797C159.843 77.2327 161.181 76.4713 162.521 75.7595C163.191 75.4042 163.873 75.084 164.565 74.7892C165.259 74.4895 165.937 74.2108 166.674 73.957L167.632 76.0376C165.277 77.5221 162.837 79.154 161.043 80.9835C160.607 81.4366 160.226 81.9107 159.986 82.3281C159.729 82.7531 159.733 83.0712 159.776 83.0469C159.799 83.0469 159.79 83.0371 159.853 83.0998L160.067 83.3304C160.148 83.427 160.262 83.5258 160.364 83.6252C160.788 84.021 161.286 84.4184 161.822 84.7964C162.894 85.5595 164.075 86.2733 165.296 86.9402C166.513 87.6163 167.766 88.2633 169.041 88.8772C171.586 90.096 174.224 91.2689 176.813 92.3402L175.122 96.6435Z" fill="#FFB573"/>
<path d="M168.962 74.5643L169.71 72.9422L166.31 71.7617C166.31 71.7617 165.251 74.9493 166.513 76.4203C167.588 76.248 168.507 75.5525 168.962 74.5643Z" fill="#FFB573"/>
<path d="M169.71 69.4349L166.993 68.6514L166.311 71.7607L169.71 72.9417V69.4349Z" fill="#FFB573"/>
<path d="M204.808 73.0984L205.205 69.3076L201.701 70.1311C201.701 70.1311 201.65 73.6843 203.503 74.2508L204.808 73.0984Z" fill="#FFB573"/>
<path d="M203.515 66.6543L201.232 67.7203L201.699 70.1314L205.203 69.3079L203.515 66.6543Z" fill="#FFB573"/>
<path d="M188.171 75.1584C188.335 79.6442 188.501 81.5396 186.474 84.05C183.425 87.8257 177.879 87.047 176.377 82.7006C175.026 78.7883 174.983 72.1096 179.173 69.9053C183.302 67.7345 188.006 70.6721 188.171 75.1584Z" fill="#FFB573"/>
<path d="M186.217 84.0415C190.621 82.1385 193.518 78.1258 192.295 71.8515C191.125 65.8489 187.073 65.256 185.399 66.5012C183.725 67.7464 179.552 65.8905 177.048 67.9975C172.709 71.6485 176.811 75.5845 178.948 77.9168C180.224 80.5401 181.896 85.9088 186.217 84.0415Z" fill="#263238"/>
<path d="M184.39 70.7745C185.876 72.9264 188.726 73.5339 190.756 72.1316C192.787 70.7297 193.228 67.8488 191.742 65.6969C190.256 63.545 187.406 62.9375 185.375 64.3399C183.345 65.7417 182.904 68.6226 184.39 70.7745Z" fill="#407BFF"/>
<path d="M185.531 66.921C184.896 63.3041 188.318 60.515 192.895 61.8628C197.471 63.2107 195.05 67.2677 194.112 70.5077C193.173 73.7477 195.636 76.8338 196.665 74.366C197.695 71.8987 195.965 71.1368 195.965 71.1368C195.965 71.1368 200.824 72.3966 196.31 77.8744C191.795 83.3527 187.708 77.3036 188.814 73.7337C189.707 70.849 186.132 70.3398 185.531 66.921Z" fill="#263238"/>
<path d="M180.961 68.2883C178.871 67.1986 175.333 66.3174 173.32 69.7048C172.367 71.3064 172.736 73.4788 172.736 73.4788L178.886 73.8882L180.961 68.2883Z" fill="#263238"/>
<path d="M172.01 72.4173C172.008 72.4173 172.005 72.4173 172.002 72.4168C171.927 72.4125 171.871 72.3482 171.875 72.2737C171.881 72.1819 172.03 70.0095 173.341 68.6465C176.51 65.3536 180.226 68.0849 181.289 69.0007C181.346 69.0493 181.352 69.1347 181.303 69.1914C181.254 69.2481 181.169 69.254 181.112 69.2054C180.095 68.329 176.54 65.7116 173.535 68.8339C172.294 70.1239 172.146 72.2688 172.144 72.2904C172.14 72.3617 172.081 72.4173 172.01 72.4173Z" fill="#263238"/>
<path d="M179.7 77.7382C179.693 78.612 179.302 79.4673 178.806 80.0478C178.06 80.9205 177.204 80.4906 177.008 79.5229C176.832 78.6519 177.007 77.1486 177.95 76.6215C178.879 76.1026 179.707 76.7392 179.7 77.7382Z" fill="#FFB573"/>
<path d="M178.729 118.825C178.729 118.825 179.017 150.223 181.741 167.719C183.941 181.851 188.012 214.532 188.012 214.532H194.18C194.18 214.532 194.782 182.983 193.665 169.005C190.84 133.636 198.132 127.024 192.247 118.825H178.729Z" fill="#263238"/>
<path opacity="0.1" d="M178.729 118.825C178.729 118.825 179.017 150.223 181.741 167.719C183.941 181.851 188.012 214.532 188.012 214.532H194.18C194.18 214.532 194.782 182.983 193.665 169.005C190.84 133.636 198.132 127.024 192.247 118.825H178.729Z" fill="white"/>
<path opacity="0.3" d="M181.97 133.07C184.136 142.547 182.408 157.472 181.225 164.044C179.972 154.065 179.341 141.132 179.027 131.655C180.145 129.841 181.204 129.722 181.97 133.07Z" fill="black"/>
<path d="M187.168 214.654H195.024L195.437 211.898L187.123 211.616L187.168 214.654Z" fill="#407BFF"/>
<path d="M189.408 92.3232C190.147 90.8539 194.12 89.9294 196.291 89.9326L197.917 97.1497C197.917 97.1497 193.59 103.57 191.791 102.889C189.666 102.086 187.825 95.4714 189.408 92.3232Z" fill="#407BFF"/>
<path opacity="0.4" d="M189.408 92.3232C190.147 90.8539 194.12 89.9294 196.291 89.9326L197.917 97.1497C197.917 97.1497 193.59 103.57 191.791 102.889C189.666 102.086 187.825 95.4714 189.408 92.3232Z" fill="black"/>
<path d="M184.829 212.888C184.849 212.856 184.85 212.816 184.832 212.782C184.811 212.743 184.767 212.72 184.722 212.727C184.495 212.761 182.496 213.078 182.226 213.649C182.173 213.76 182.181 213.876 182.247 213.987C182.357 214.171 182.513 214.274 182.71 214.294C183.365 214.362 184.311 213.453 184.817 212.906C184.821 212.9 184.825 212.894 184.829 212.888ZM182.431 213.718C182.616 213.415 183.649 213.136 184.438 212.991C183.726 213.715 183.098 214.118 182.731 214.081C182.603 214.067 182.505 214 182.43 213.876C182.401 213.827 182.398 213.786 182.419 213.74C182.423 213.733 182.427 213.725 182.431 213.718Z" fill="#407BFF"/>
<path d="M184.83 212.889C184.835 212.883 184.838 212.875 184.84 212.867C184.852 212.832 184.844 212.792 184.82 212.763C184.786 212.724 183.985 211.801 183.247 211.753C183.021 211.738 182.823 211.805 182.658 211.953C182.436 212.151 182.455 212.324 182.511 212.434C182.745 212.897 184.181 213.059 184.761 212.938C184.79 212.932 184.815 212.914 184.83 212.889ZM182.716 212.209C182.733 212.182 182.76 212.149 182.801 212.112C182.923 212.003 183.064 211.955 183.233 211.967C183.718 211.999 184.269 212.5 184.52 212.756C183.88 212.81 182.842 212.615 182.702 212.337C182.694 212.32 182.673 212.279 182.716 212.209Z" fill="#407BFF"/>
<path d="M189.545 210.973L185.408 212.811L183.564 208.974L181.155 203.95L180.873 203.366L185.005 201.525L185.325 202.183L187.66 207.049L189.545 210.973Z" fill="#FFB573"/>
<path opacity="0.2" d="M187.659 207.049L183.563 208.975L181.154 203.95L185.324 202.184L187.659 207.049Z" fill="black"/>
<path d="M173.878 118.825C173.878 118.825 160.662 151.676 164.245 167.145C167.482 181.126 181.797 207.603 181.797 207.603L187.332 204.825C187.332 204.825 178.482 172.863 177.522 165.92C175.654 152.41 187.661 133.34 187.661 118.825H173.878Z" fill="#263238"/>
<path opacity="0.1" d="M173.878 118.825C173.878 118.825 160.662 151.676 164.245 167.145C167.482 181.126 181.797 207.603 181.797 207.603L187.332 204.825C187.332 204.825 178.482 172.863 177.522 165.92C175.654 152.41 187.661 133.34 187.661 118.825H173.878Z" fill="white"/>
<path d="M184.67 212.237L188.778 209.246C188.928 209.137 189.125 209.153 189.252 209.283L192.086 212.194C192.38 212.495 192.322 213.026 191.973 213.271C190.523 214.289 189.771 214.707 187.965 216.022C186.853 216.831 184.638 218.62 183.103 219.737C181.602 220.83 180.381 219.396 180.921 218.793C183.339 216.091 183.848 214.42 184.223 212.906C184.291 212.634 184.451 212.396 184.67 212.237Z" fill="#263238"/>
<path d="M181.439 208.776L188.583 205.508L187.666 202.597L180.016 206.086L181.439 208.776Z" fill="#407BFF"/>
<path d="M177.384 91.9557C176.791 90.4215 171.629 88.7389 169.04 88.1514L167.902 96.6661C167.902 96.6661 172.131 102.744 173.988 102.241C176.181 101.648 178.654 95.2426 177.384 91.9557Z" fill="#407BFF"/>
<path opacity="0.4" d="M177.384 91.9557C176.791 90.4215 171.629 88.7389 169.04 88.1514L167.902 96.6661C167.902 96.6661 172.131 102.744 173.988 102.241C176.181 101.648 178.654 95.2426 177.384 91.9557Z" fill="black"/>
<path d="M171.716 91.5266C171.716 91.5266 169.561 92.2853 173.877 118.826C181.167 118.826 188.701 118.826 192.247 118.826C191.939 111.349 191.93 106.74 195.504 91.3954C195.504 91.3954 191.654 90.5579 187.703 90.3678C184.611 90.2187 182.079 90.1199 179.361 90.3683C175.779 90.695 171.716 91.5266 171.716 91.5266Z" fill="#407BFF"/>
<path opacity="0.4" d="M171.716 91.5266C171.716 91.5266 169.561 92.2853 173.877 118.826C181.167 118.826 188.701 118.826 192.247 118.826C191.939 111.349 191.93 106.74 195.504 91.3954C195.504 91.3954 191.654 90.5579 187.703 90.3678C184.611 90.2187 182.079 90.1199 179.361 90.3683C175.779 90.695 171.716 91.5266 171.716 91.5266Z" fill="black"/>
<path d="M192.523 117.748L193.351 119.392C193.415 119.519 193.264 119.649 193.052 119.649H173.786C173.62 119.649 173.483 119.568 173.473 119.464L173.307 117.82C173.296 117.706 173.44 117.609 173.62 117.609H192.223C192.36 117.61 192.481 117.666 192.523 117.748Z" fill="#407BFF"/>
<path opacity="0.3" d="M192.523 117.748L193.351 119.392C193.415 119.519 193.264 119.649 193.052 119.649H173.786C173.62 119.649 173.483 119.568 173.473 119.464L173.307 117.82C173.296 117.706 173.44 117.609 173.62 117.609H192.223C192.36 117.61 192.481 117.666 192.523 117.748Z" fill="white"/>
<path d="M190.025 119.828H190.523C190.622 119.828 190.698 119.777 190.691 119.714L190.457 117.578C190.45 117.516 190.364 117.465 190.264 117.465H189.766C189.667 117.465 189.591 117.516 189.598 117.578L189.832 119.714C189.839 119.777 189.926 119.828 190.025 119.828Z" fill="#263238"/>
<path d="M177.949 119.828H178.447C178.546 119.828 178.622 119.777 178.615 119.714L178.381 117.578C178.374 117.516 178.288 117.465 178.188 117.465H177.69C177.591 117.465 177.515 117.516 177.522 117.578L177.756 119.714C177.762 119.777 177.849 119.828 177.949 119.828Z" fill="#263238"/>
</g>
<defs>
<clipPath id="clip0_2665_1854">
<rect width="270" height="270" fill="white" transform="translate(0.5 0.5)"/>
</clipPath>
</defs>
</svg>
