<svg width="20" height="20" viewBox="0 0 20 20" fill="none" xmlns="http://www.w3.org/2000/svg">
<path d="M5.17075 11.7595C5.41558 11.7595 5.62425 11.6732 5.79675 11.5007C5.96908 11.3284 6.05525 11.1197 6.05525 10.8747C6.05525 10.6299 5.96908 10.4213 5.79675 10.249C5.62425 10.0765 5.41558 9.99023 5.17075 9.99023C4.92592 9.99023 4.71725 10.0765 4.54475 10.249C4.37225 10.4213 4.286 10.6299 4.286 10.8747C4.286 11.1197 4.37225 11.3284 4.54475 11.5007C4.71725 11.6732 4.92592 11.7595 5.17075 11.7595ZM5.17075 8.87473C5.41558 8.87473 5.62425 8.78857 5.79675 8.61623C5.96908 8.44373 6.05525 8.23507 6.05525 7.99023C6.05525 7.7454 5.96908 7.53674 5.79675 7.36423C5.62425 7.1919 5.41558 7.10573 5.17075 7.10573C4.92592 7.10573 4.71725 7.1919 4.54475 7.36423C4.37225 7.53674 4.286 7.7454 4.286 7.99023C4.286 8.23507 4.37225 8.44373 4.54475 8.61623C4.71725 8.78857 4.92592 8.87473 5.17075 8.87473ZM5.17075 5.99023C5.41558 5.99023 5.62425 5.90399 5.79675 5.73148C5.96908 5.55915 6.05525 5.35057 6.05525 5.10573C6.05525 4.86073 5.96908 4.65207 5.79675 4.47973C5.62425 4.30724 5.41558 4.22098 5.17075 4.22098C4.92592 4.22098 4.71725 4.30724 4.54475 4.47973C4.37225 4.65207 4.286 4.86073 4.286 5.10573C4.286 5.35057 4.37225 5.55915 4.54475 5.73148C4.71725 5.90399 4.92592 5.99023 5.17075 5.99023ZM8.20925 11.6247H12.8438V10.125H8.20925V11.6247ZM8.20925 8.74023H15.8438V7.24023H8.20925V8.74023ZM8.20925 5.85548H15.8438V4.35573H8.20925V5.85548ZM0.59375 19.0287V2.29798C0.59375 1.79282 0.76875 1.36523 1.11875 1.01523C1.46875 0.665234 1.89633 0.490234 2.4015 0.490234H17.786C18.2912 0.490234 18.7188 0.665234 19.0688 1.01523C19.4188 1.36523 19.5938 1.79282 19.5938 2.29798V13.6825C19.5938 14.1877 19.4188 14.6152 19.0688 14.9652C18.7188 15.3152 18.2912 15.4902 17.786 15.4902H4.13225L0.59375 19.0287ZM3.49375 13.9902H17.786C17.863 13.9902 17.9335 13.9582 17.9975 13.894C18.0617 13.83 18.0938 13.7595 18.0938 13.6825V2.29798C18.0938 2.22098 18.0617 2.15048 17.9975 2.08648C17.9335 2.02232 17.863 1.99023 17.786 1.99023H2.4015C2.3245 1.99023 2.254 2.02232 2.19 2.08648C2.12583 2.15048 2.09375 2.22098 2.09375 2.29798V15.375L3.49375 13.9902Z" fill="#9B9B9B"/>
</svg>
