<svg width="48" height="48" viewBox="0 0 48 48" fill="none" xmlns="http://www.w3.org/2000/svg">
<rect width="48" height="48" rx="24" fill="#EBF1FF"/>
<g clip-path="url(#clip0_1597_468)">
<path d="M24.5821 24.5625H23.5428C20.8471 24.5656 18.2627 25.6379 16.3566 27.5441C14.4504 29.4502 13.3781 32.0346 13.375 34.7303V35.3654C13.3759 36.0804 13.6603 36.7659 14.1659 37.2716C14.6716 37.7772 15.3571 38.0616 16.0721 38.0625H32.0529C32.7679 38.0617 33.4535 37.7773 33.9592 37.2717C34.4648 36.766 34.7492 36.0804 34.75 35.3654V34.7303C34.7469 32.0346 33.6746 29.4502 31.7684 27.5441C29.8623 25.6379 27.2779 24.5656 24.5821 24.5625Z" fill="#4294FF"/>
<path d="M24.0625 22.3125C27.4798 22.3125 30.25 19.5423 30.25 16.125C30.25 12.7077 27.4798 9.9375 24.0625 9.9375C20.6452 9.9375 17.875 12.7077 17.875 16.125C17.875 19.5423 20.6452 22.3125 24.0625 22.3125Z" fill="#4294FF"/>
</g>
<defs>
<clipPath id="clip0_1597_468">
<rect width="28.125" height="28.125" fill="white" transform="translate(10 9.9375)"/>
</clipPath>
</defs>
</svg>
