<svg width="20" height="20" viewBox="0 0 20 20" fill="none" xmlns="http://www.w3.org/2000/svg">
<path d="M10 0.5C11.1536 0.5 12.2413 0.691538 13.2666 1.07227L13.7021 1.24707C14.8631 1.74806 15.8683 2.42493 16.7217 3.27832C17.5751 4.13171 18.2519 5.13694 18.7529 6.29785C19.2498 7.44922 19.5 8.68174 19.5 10C19.5 11.3183 19.2498 12.5508 18.7529 13.7021C18.2519 14.8631 17.5751 15.8683 16.7217 16.7217C15.8683 17.5751 14.8631 18.2519 13.7021 18.7529C12.5508 19.2498 11.3183 19.5 10 19.5C8.68174 19.5 7.44922 19.2498 6.29785 18.7529C5.13694 18.2519 4.13171 17.5751 3.27832 16.7217C2.53146 15.9748 1.91938 15.1118 1.44238 14.1299L1.24707 13.7021C0.750248 12.5508 0.5 11.3183 0.5 10C0.5 8.84639 0.691538 7.75872 1.07227 6.7334L1.24707 6.29785C1.74806 5.13694 2.42493 4.13171 3.27832 3.27832C4.02518 2.53146 4.88817 1.91938 5.87012 1.44238L6.29785 1.24707C7.44922 0.750248 8.68174 0.5 10 0.5ZM10 1.5C7.63686 1.5 5.61741 2.32595 3.97168 3.97168C2.32595 5.61741 1.5 7.63686 1.5 10C1.5 12.3631 2.32595 14.3826 3.97168 16.0283C5.61741 17.6741 7.63686 18.5 10 18.5C12.3631 18.5 14.3826 17.6741 16.0283 16.0283C17.6741 14.3826 18.5 12.3631 18.5 10C18.5 7.63686 17.6741 5.61741 16.0283 3.97168C14.3826 2.32595 12.3631 1.5 10 1.5ZM6.27637 12.5C6.66511 13.0741 7.15978 13.5407 7.75879 13.8936C8.44519 14.2978 9.19556 14.5 10 14.5C10.8044 14.5 11.5548 14.2978 12.2412 13.8936C12.8402 13.5407 13.3349 13.0741 13.7236 12.5H14.3057C13.9346 13.147 13.4351 13.6883 12.8027 14.127C11.962 14.7101 11.0322 15 10 15C8.9678 15 8.03797 14.7101 7.19727 14.127C6.56489 13.6883 6.06545 13.147 5.69434 12.5H6.27637ZM6.5 6.5C6.78557 6.5 7.01215 6.59418 7.20898 6.79102C7.40582 6.98785 7.5 7.21443 7.5 7.5C7.5 7.78557 7.40582 8.01215 7.20898 8.20898C7.01215 8.40582 6.78557 8.5 6.5 8.5C6.21443 8.5 5.98785 8.40582 5.79102 8.20898C5.59418 8.01215 5.5 7.78557 5.5 7.5C5.5 7.21443 5.59418 6.98785 5.79102 6.79102C5.98785 6.59418 6.21443 6.5 6.5 6.5ZM13.5 6.5C13.7856 6.5 14.0122 6.59418 14.209 6.79102C14.4058 6.98785 14.5 7.21443 14.5 7.5C14.5 7.78557 14.4058 8.01215 14.209 8.20898C14.0122 8.40582 13.7856 8.5 13.5 8.5C13.2144 8.5 12.9878 8.40582 12.791 8.20898C12.5942 8.01215 12.5 7.78557 12.5 7.5C12.5 7.21443 12.5942 6.98785 12.791 6.79102C12.9878 6.59418 13.2144 6.5 13.5 6.5Z" fill="#1C1B1F" stroke="#353C47"/>
</svg>
