<svg width="20" height="18" viewBox="0 0 20 18" fill="none" xmlns="http://www.w3.org/2000/svg">
<path d="M2.09375 15.9902V1.99023V6.46523V5.99023V15.9902ZM4.09375 9.99023H9.61875C9.65208 9.62357 9.73542 9.27357 9.86875 8.94023C10.0021 8.6069 10.1688 8.29023 10.3688 7.99023H4.09375V9.99023ZM4.09375 13.9902H8.01875C8.30208 13.6569 8.62708 13.3861 8.99375 13.1777C9.36042 12.9694 9.74375 12.7986 10.1438 12.6652C10.0771 12.5652 10.0188 12.4569 9.96875 12.3402C9.91875 12.2236 9.87708 12.1069 9.84375 11.9902H4.09375V13.9902ZM4.09375 5.99023H14.0938V3.99023H4.09375V5.99023ZM2.09375 17.9902C1.54375 17.9902 1.07292 17.7944 0.68125 17.4027C0.289583 17.0111 0.09375 16.5402 0.09375 15.9902V1.99023C0.09375 1.44023 0.289583 0.969401 0.68125 0.577734C1.07292 0.186068 1.54375 -0.00976562 2.09375 -0.00976562H16.0938C16.6437 -0.00976562 17.1146 0.186068 17.5063 0.577734C17.8979 0.969401 18.0938 1.44023 18.0938 1.99023V8.44023C17.8604 8.0069 17.5771 7.62357 17.2437 7.29023C16.9104 6.9569 16.5271 6.6819 16.0938 6.46523V1.99023H2.09375V15.9902H7.14375C7.12708 16.0902 7.11458 16.1902 7.10625 16.2902C7.09792 16.3902 7.09375 16.4902 7.09375 16.5902V17.9902H2.09375ZM14.0938 12.9902C13.3938 12.9902 12.8021 12.7486 12.3188 12.2652C11.8354 11.7819 11.5938 11.1902 11.5938 10.4902C11.5938 9.79023 11.8354 9.19857 12.3188 8.71523C12.8021 8.2319 13.3938 7.99023 14.0938 7.99023C14.7937 7.99023 15.3854 8.2319 15.8688 8.71523C16.3521 9.19857 16.5938 9.79023 16.5938 10.4902C16.5938 11.1902 16.3521 11.7819 15.8688 12.2652C15.3854 12.7486 14.7937 12.9902 14.0938 12.9902ZM9.09375 17.9902V16.5902C9.09375 16.1902 9.19792 15.8194 9.40625 15.4777C9.61458 15.1361 9.91042 14.8902 10.2937 14.7402C10.8938 14.4902 11.5146 14.3027 12.1562 14.1777C12.7979 14.0527 13.4438 13.9902 14.0938 13.9902C14.7437 13.9902 15.3896 14.0527 16.0312 14.1777C16.6729 14.3027 17.2938 14.4902 17.8938 14.7402C18.2771 14.8902 18.5729 15.1361 18.7812 15.4777C18.9896 15.8194 19.0938 16.1902 19.0938 16.5902V17.9902H9.09375Z" fill="#8D8D8D"/>
</svg>
