<svg width="25" height="24" viewBox="0 0 25 24" fill="none" xmlns="http://www.w3.org/2000/svg">
<path fill-rule="evenodd" clip-rule="evenodd" d="M11.4798 1.20088C11.8409 0.920018 12.3466 0.920018 12.7077 1.20088L21.7077 8.20088C21.9513 8.39034 22.0938 8.68164 22.0938 8.99023V19.9902C22.0938 20.7859 21.7777 21.5489 21.2151 22.1116C20.6525 22.6742 19.8894 22.9902 19.0938 22.9902H5.09375C4.2981 22.9902 3.53504 22.6742 2.97243 22.1116C2.40982 21.5489 2.09375 20.7859 2.09375 19.9902V8.99023C2.09375 8.68164 2.23622 8.39034 2.47981 8.20088L11.4798 1.20088ZM4.09375 9.47932V19.9902C4.09375 20.2555 4.19911 20.5098 4.38664 20.6973C4.57418 20.8849 4.82853 20.9902 5.09375 20.9902H19.0938C19.359 20.9902 19.6133 20.8849 19.8009 20.6973C19.9884 20.5098 20.0938 20.2554 20.0938 19.9902V9.47932L12.0938 3.2571L4.09375 9.47932Z" fill="#84888F"/>
<path fill-rule="evenodd" clip-rule="evenodd" d="M8.09375 11.9902C8.09375 11.4379 8.54147 10.9902 9.09375 10.9902H15.0938C15.646 10.9902 16.0938 11.4379 16.0938 11.9902V21.9902C16.0938 22.5425 15.646 22.9902 15.0938 22.9902C14.5415 22.9902 14.0938 22.5425 14.0938 21.9902V12.9902H10.0938V21.9902C10.0938 22.5425 9.64603 22.9902 9.09375 22.9902C8.54147 22.9902 8.09375 22.5425 8.09375 21.9902V11.9902Z" fill="#84888F"/>
</svg>
