<svg width="23" height="23" viewBox="0 0 23 23" fill="none" xmlns="http://www.w3.org/2000/svg">
<path fill-rule="evenodd" clip-rule="evenodd" d="M12.3765 1.13694C11.7762 0.761452 11.049 1.12104 10.9917 1.82659C10.9769 2.00755 10.9723 2.19612 10.9748 2.42624L10.9823 2.81997C10.9812 2.82322 10.9792 2.82532 10.9755 2.82698L10.5816 2.90974L10.3246 2.96774L10.1113 3.02317L9.91563 3.08349C8.77696 3.46304 7.82307 4.13268 7.05827 5.08247C6.21995 6.12412 5.76589 7.30549 5.71202 8.61263C5.70913 8.68321 5.70657 8.7519 5.7043 8.8202L5.69407 9.23744L5.68964 9.71765L5.69132 10.9593L5.6862 11.1907C5.64385 12.1066 5.33916 12.9081 4.75998 13.6038C4.4774 13.9429 4.19377 14.2923 3.90827 14.6526C3.24603 15.4893 3.23993 16.5252 3.89385 17.355C4.31866 17.894 4.90503 18.1518 5.6341 18.1534L8.31086 18.1539L8.32021 18.2233C8.62188 20.1257 10.3551 21.4137 12.1276 21.2846L12.3096 21.2669L12.4891 21.2404C13.9746 20.9845 15.1816 19.8439 15.4722 18.2303L15.4839 18.1539L18.1787 18.1534L18.3579 18.1476C19.0048 18.1057 19.5355 17.8368 19.928 17.3331C20.5488 16.5353 20.5071 15.422 19.8346 14.6086L18.9643 13.5574C18.4034 12.8694 18.106 12.1006 18.0839 11.2509L18.0745 10.7561L18.0645 9.46114L18.0491 8.60781C18.0174 7.55422 17.7019 6.56229 17.1199 5.66324C16.1038 4.09235 14.6699 3.14076 12.8386 2.83556L12.7867 2.82547C12.7763 2.82078 12.7767 2.81258 12.7776 2.79042C12.7778 2.7856 12.778 2.78012 12.7782 2.77388L12.7824 2.43608C12.7824 2.21419 12.7768 1.9987 12.7653 1.78832C12.75 1.5146 12.612 1.28433 12.3765 1.13694ZM13.9219 18.0176L13.9434 17.8613H9.80851L9.83555 18.0217L9.86661 18.1727C10.0962 19.1153 10.9406 19.7877 11.9035 19.771C12.9162 19.7527 13.787 18.9981 13.9219 18.0176ZM11.0237 4.61303C9.03442 5.00853 7.53868 6.77232 7.47822 8.79911L7.46771 9.29456L7.45389 10.8604L7.44202 11.3418C7.44069 11.3807 7.43926 11.4199 7.43772 11.4599C7.40275 12.3734 7.14372 13.2219 6.66457 13.9586L6.53142 14.1576L6.39093 14.356L6.22942 14.5727L5.3965 15.6381L5.34605 15.7046C5.25409 15.8266 5.21593 15.8901 5.20265 15.9536C5.15782 16.1686 5.27144 16.322 5.49653 16.3534L5.58608 16.3594L18.0937 16.3608C18.3512 16.3615 18.4718 16.3111 18.5428 16.1537C18.6073 16.0105 18.5677 15.8995 18.4042 15.7063L18.1944 15.4526L17.7436 14.898C17.7281 14.8793 17.7125 14.8607 17.6963 14.8416C16.7306 13.6951 16.2548 12.3836 16.2771 10.9039C16.286 10.2963 16.2859 9.67307 16.2771 9.02755C16.2668 8.25614 16.1156 7.57181 15.8007 6.94848C14.9139 5.19423 12.9459 4.23091 11.0237 4.61303Z" fill="#273239"/>
</svg>
