<svg width="16" height="16" viewBox="0 0 16 16" fill="none" xmlns="http://www.w3.org/2000/svg">
<path fill-rule="evenodd" clip-rule="evenodd" d="M6.57129 2C9.33271 2 11.5713 4.23858 11.5713 7C11.5713 8.04123 11.253 9.00812 10.7084 9.8087L13.7074 12.8076C14.0979 13.1981 14.0979 13.8313 13.7074 14.2218C13.3168 14.6123 12.6837 14.6123 12.2931 14.2218L9.27681 11.2055C8.49693 11.7083 7.56818 12 6.57129 12C3.80987 12 1.57129 9.76142 1.57129 7C1.57129 4.23858 3.80987 2 6.57129 2ZM9.57129 7C9.57129 5.34315 8.22814 4 6.57129 4C4.91443 4 3.57129 5.34315 3.57129 7C3.57129 8.65685 4.91443 10 6.57129 10C8.22814 10 9.57129 8.65685 9.57129 7Z" fill="#4D4D4D"/>
</svg>
