<svg width="346" height="192" viewBox="0 0 346 192" fill="none" xmlns="http://www.w3.org/2000/svg">
<path d="M25.375 137.844H34.4688C34.3438 141.26 33.6562 144.146 32.4062 146.5C31.1562 148.833 29.375 150.604 27.0625 151.812C24.7708 153.021 22 153.625 18.75 153.625C16.2292 153.625 13.9896 153.208 12.0312 152.375C10.0729 151.521 8.40625 150.271 7.03125 148.625C5.65625 146.979 4.61458 144.948 3.90625 142.531C3.21875 140.094 2.875 137.292 2.875 134.125V126.406C2.875 123.24 3.23958 120.438 3.96875 118C4.71875 115.562 5.78125 113.521 7.15625 111.875C8.55208 110.208 10.2292 108.958 12.1875 108.125C14.1667 107.271 16.3958 106.844 18.875 106.844C22.1875 106.844 24.9583 107.469 27.1875 108.719C29.4167 109.969 31.1354 111.792 32.3438 114.188C33.5729 116.562 34.3125 119.469 34.5625 122.906H25.4375C25.375 120.74 25.125 119.042 24.6875 117.812C24.2708 116.562 23.6042 115.688 22.6875 115.188C21.7708 114.667 20.5 114.406 18.875 114.406C17.6667 114.406 16.625 114.625 15.75 115.062C14.875 115.479 14.1562 116.156 13.5938 117.094C13.0312 118.031 12.6146 119.26 12.3438 120.781C12.0938 122.302 11.9688 124.156 11.9688 126.344V134.125C11.9688 136.271 12.0833 138.104 12.3125 139.625C12.5417 141.125 12.9062 142.354 13.4062 143.312C13.9062 144.271 14.5833 144.969 15.4375 145.406C16.3125 145.844 17.4167 146.062 18.75 146.062C20.2917 146.062 21.5312 145.833 22.4688 145.375C23.4271 144.917 24.1354 144.094 24.5938 142.906C25.0521 141.719 25.3125 140.031 25.375 137.844ZM66.2812 145.438V153H46.5V145.438H66.2812ZM49.3438 107.5V153H40.1875V107.5H49.3438ZM63.625 125.938V133.281H46.5V125.938H63.625ZM66.2188 107.5V115.094H46.5V107.5H66.2188ZM71.6562 107.5H86.25C89.2917 107.5 91.8854 108.021 94.0312 109.062C96.1771 110.104 97.8229 111.646 98.9688 113.688C100.115 115.729 100.688 118.25 100.688 121.25C100.688 123.708 100.354 125.812 99.6875 127.562C99.0208 129.292 98.0729 130.74 96.8438 131.906C95.6146 133.052 94.1458 133.969 92.4375 134.656L89.6562 136.312H77.8125L77.7812 128.719H86C87.25 128.719 88.2812 128.448 89.0938 127.906C89.9271 127.344 90.5417 126.562 90.9375 125.562C91.3542 124.542 91.5625 123.354 91.5625 122C91.5625 120.562 91.375 119.333 91 118.312C90.6458 117.271 90.0729 116.479 89.2812 115.938C88.5104 115.375 87.5 115.094 86.25 115.094H80.8125V153H71.6562V107.5ZM92.3125 153L83.9688 132.719L93.5625 132.688L102.094 152.562V153H92.3125ZM123.562 107.5V153H114.469V107.5H123.562ZM134.875 107.5V115.094H103.375V107.5H134.875ZM149.688 107.5V153H140.594V107.5H149.688ZM166.656 107.5V153H157.5V107.5H166.656ZM180.906 126.844V134.406H164.344V126.844H180.906ZM182.656 107.5V115.094H164.344V107.5H182.656ZM197.5 107.5V153H188.406V107.5H197.5ZM227 137.844H236.094C235.969 141.26 235.281 144.146 234.031 146.5C232.781 148.833 231 150.604 228.688 151.812C226.396 153.021 223.625 153.625 220.375 153.625C217.854 153.625 215.615 153.208 213.656 152.375C211.698 151.521 210.031 150.271 208.656 148.625C207.281 146.979 206.24 144.948 205.531 142.531C204.844 140.094 204.5 137.292 204.5 134.125V126.406C204.5 123.24 204.865 120.438 205.594 118C206.344 115.562 207.406 113.521 208.781 111.875C210.177 110.208 211.854 108.958 213.812 108.125C215.792 107.271 218.021 106.844 220.5 106.844C223.812 106.844 226.583 107.469 228.812 108.719C231.042 109.969 232.76 111.792 233.969 114.188C235.198 116.562 235.938 119.469 236.188 122.906H227.062C227 120.74 226.75 119.042 226.312 117.812C225.896 116.562 225.229 115.688 224.312 115.188C223.396 114.667 222.125 114.406 220.5 114.406C219.292 114.406 218.25 114.625 217.375 115.062C216.5 115.479 215.781 116.156 215.219 117.094C214.656 118.031 214.24 119.26 213.969 120.781C213.719 122.302 213.594 124.156 213.594 126.344V134.125C213.594 136.271 213.708 138.104 213.938 139.625C214.167 141.125 214.531 142.354 215.031 143.312C215.531 144.271 216.208 144.969 217.062 145.406C217.938 145.844 219.042 146.062 220.375 146.062C221.917 146.062 223.156 145.833 224.094 145.375C225.052 144.917 225.76 144.094 226.219 142.906C226.677 141.719 226.938 140.031 227 137.844ZM258.281 115.625L248.5 153H238.844L253.062 107.5H259.094L258.281 115.625ZM266 153L256.156 115.625L255.25 107.5H261.375L275.719 153H266ZM266.344 136.031V143.625H245.812V136.031H266.344ZM294.438 107.5V153H285.344V107.5H294.438ZM305.75 107.5V115.094H274.25V107.5H305.75ZM337.156 145.438V153H317.375V145.438H337.156ZM320.219 107.5V153H311.062V107.5H320.219ZM334.5 125.938V133.281H317.375V125.938H334.5ZM337.094 107.5V115.094H317.375V107.5H337.094Z" fill="#595B5C"/>
<path d="M17.8438 181.672C17.8438 184.724 17.1198 187.094 15.6719 188.781C14.2344 190.469 12.2344 191.312 9.67188 191.312C7.11979 191.312 5.11458 190.479 3.65625 188.812C2.19792 187.135 1.45833 184.792 1.4375 181.781V177.891C1.4375 174.766 2.16146 172.328 3.60938 170.578C5.05729 168.818 7.06771 167.938 9.64062 167.938C12.1719 167.938 14.1667 168.802 15.625 170.531C17.0833 172.25 17.8229 174.667 17.8438 177.781V181.672ZM13.2344 177.859C13.2344 175.807 12.9427 174.281 12.3594 173.281C11.776 172.281 10.8698 171.781 9.64062 171.781C8.42188 171.781 7.52083 172.266 6.9375 173.234C6.35417 174.193 6.05208 175.656 6.03125 177.625V181.672C6.03125 183.661 6.32812 185.13 6.92188 186.078C7.51562 187.016 8.43229 187.484 9.67188 187.484C10.8698 187.484 11.7604 187.026 12.3438 186.109C12.9271 185.182 13.224 183.75 13.2344 181.812V177.859ZM32.875 181.719H25.7344V191H21.1406V168.25H33.7344V172.078H25.7344V177.906H32.875V181.719ZM59.1562 183.422C59.0417 186.016 58.3125 187.979 56.9688 189.312C55.625 190.646 53.7292 191.312 51.2812 191.312C48.7083 191.312 46.7344 190.469 45.3594 188.781C43.9948 187.083 43.3125 184.667 43.3125 181.531V177.703C43.3125 174.578 44.0208 172.172 45.4375 170.484C46.8542 168.786 48.8229 167.938 51.3438 167.938C53.8229 167.938 55.7031 168.63 56.9844 170.016C58.276 171.401 59.0104 173.391 59.1875 175.984H54.5781C54.5365 174.38 54.2865 173.276 53.8281 172.672C53.3802 172.057 52.5521 171.75 51.3438 171.75C50.1146 171.75 49.2448 172.182 48.7344 173.047C48.224 173.901 47.9531 175.312 47.9219 177.281V181.578C47.9219 183.839 48.1719 185.391 48.6719 186.234C49.1823 187.078 50.0521 187.5 51.2812 187.5C52.4896 187.5 53.3229 187.208 53.7812 186.625C54.2396 186.031 54.5 184.964 54.5625 183.422H59.1562ZM78 181.672C78 184.724 77.276 187.094 75.8281 188.781C74.3906 190.469 72.3906 191.312 69.8281 191.312C67.276 191.312 65.2708 190.479 63.8125 188.812C62.3542 187.135 61.6146 184.792 61.5938 181.781V177.891C61.5938 174.766 62.3177 172.328 63.7656 170.578C65.2135 168.818 67.224 167.938 69.7969 167.938C72.3281 167.938 74.3229 168.802 75.7812 170.531C77.2396 172.25 77.9792 174.667 78 177.781V181.672ZM73.3906 177.859C73.3906 175.807 73.099 174.281 72.5156 173.281C71.9323 172.281 71.026 171.781 69.7969 171.781C68.5781 171.781 67.6771 172.266 67.0938 173.234C66.5104 174.193 66.2083 175.656 66.1875 177.625V181.672C66.1875 183.661 66.4844 185.13 67.0781 186.078C67.6719 187.016 68.5885 187.484 69.8281 187.484C71.026 187.484 71.9167 187.026 72.5 186.109C73.0833 185.182 73.3802 183.75 73.3906 181.812V177.859ZM96.0938 168.25V184C96.0729 186.365 95.4219 188.177 94.1406 189.438C92.8594 190.688 91.0208 191.312 88.625 191.312C86.1875 191.312 84.3229 190.677 83.0312 189.406C81.75 188.135 81.1094 186.297 81.1094 183.891V168.25H85.7344V183.906C85.7344 185.198 85.9427 186.12 86.3594 186.672C86.776 187.224 87.5312 187.5 88.625 187.5C89.7188 187.5 90.4688 187.229 90.875 186.688C91.2812 186.135 91.4896 185.234 91.5 183.984V168.25H96.0938ZM106.469 182.688H104.188V191H99.5938V168.25H106.922C109.224 168.25 111 168.849 112.25 170.047C113.51 171.234 114.141 172.927 114.141 175.125C114.141 178.146 113.042 180.26 110.844 181.469L114.828 190.781V191H109.891L106.469 182.688ZM104.188 178.859H106.797C107.714 178.859 108.401 178.557 108.859 177.953C109.318 177.339 109.547 176.521 109.547 175.5C109.547 173.219 108.656 172.078 106.875 172.078H104.188V178.859ZM126.906 185.031C126.906 184.104 126.667 183.406 126.188 182.938C125.719 182.458 124.859 181.964 123.609 181.453C121.328 180.589 119.688 179.578 118.688 178.422C117.688 177.255 117.188 175.88 117.188 174.297C117.188 172.38 117.865 170.844 119.219 169.688C120.583 168.521 122.312 167.938 124.406 167.938C125.802 167.938 127.047 168.234 128.141 168.828C129.234 169.411 130.073 170.24 130.656 171.312C131.25 172.385 131.547 173.604 131.547 174.969H126.969C126.969 173.906 126.74 173.099 126.281 172.547C125.833 171.984 125.182 171.703 124.328 171.703C123.526 171.703 122.901 171.943 122.453 172.422C122.005 172.891 121.781 173.526 121.781 174.328C121.781 174.953 122.031 175.521 122.531 176.031C123.031 176.531 123.917 177.052 125.188 177.594C127.406 178.396 129.016 179.38 130.016 180.547C131.026 181.714 131.531 183.198 131.531 185C131.531 186.979 130.901 188.526 129.641 189.641C128.38 190.755 126.667 191.312 124.5 191.312C123.031 191.312 121.693 191.01 120.484 190.406C119.276 189.802 118.328 188.938 117.641 187.812C116.964 186.688 116.625 185.359 116.625 183.828H121.234C121.234 185.141 121.49 186.094 122 186.688C122.51 187.281 123.344 187.578 124.5 187.578C126.104 187.578 126.906 186.729 126.906 185.031ZM146.328 181.156H139.172V187.188H147.641V191H134.578V168.25H147.609V172.078H139.172V177.453H146.328V181.156ZM173.094 183.422C172.979 186.016 172.25 187.979 170.906 189.312C169.562 190.646 167.667 191.312 165.219 191.312C162.646 191.312 160.672 190.469 159.297 188.781C157.932 187.083 157.25 184.667 157.25 181.531V177.703C157.25 174.578 157.958 172.172 159.375 170.484C160.792 168.786 162.76 167.938 165.281 167.938C167.76 167.938 169.641 168.63 170.922 170.016C172.214 171.401 172.948 173.391 173.125 175.984H168.516C168.474 174.38 168.224 173.276 167.766 172.672C167.318 172.057 166.49 171.75 165.281 171.75C164.052 171.75 163.182 172.182 162.672 173.047C162.161 173.901 161.891 175.312 161.859 177.281V181.578C161.859 183.839 162.109 185.391 162.609 186.234C163.12 187.078 163.99 187.5 165.219 187.5C166.427 187.5 167.26 187.208 167.719 186.625C168.177 186.031 168.438 184.964 168.5 183.422H173.094ZM191.938 181.672C191.938 184.724 191.214 187.094 189.766 188.781C188.328 190.469 186.328 191.312 183.766 191.312C181.214 191.312 179.208 190.479 177.75 188.812C176.292 187.135 175.552 184.792 175.531 181.781V177.891C175.531 174.766 176.255 172.328 177.703 170.578C179.151 168.818 181.161 167.938 183.734 167.938C186.266 167.938 188.26 168.802 189.719 170.531C191.177 172.25 191.917 174.667 191.938 177.781V181.672ZM187.328 177.859C187.328 175.807 187.036 174.281 186.453 173.281C185.87 172.281 184.964 171.781 183.734 171.781C182.516 171.781 181.615 172.266 181.031 173.234C180.448 174.193 180.146 175.656 180.125 177.625V181.672C180.125 183.661 180.422 185.13 181.016 186.078C181.609 187.016 182.526 187.484 183.766 187.484C184.964 187.484 185.854 187.026 186.438 186.109C187.021 185.182 187.318 183.75 187.328 181.812V177.859ZM201.234 168.25L205.531 184.703L209.812 168.25H215.812V191H211.203V184.844L211.625 175.359L207.078 191H203.953L199.406 175.359L199.828 184.844V191H195.234V168.25H201.234ZM224.109 183V191H219.516V168.25H227.266C229.516 168.25 231.307 168.948 232.641 170.344C233.984 171.74 234.656 173.552 234.656 175.781C234.656 178.01 233.995 179.771 232.672 181.062C231.349 182.354 229.516 183 227.172 183H224.109ZM224.109 179.172H227.266C228.141 179.172 228.818 178.885 229.297 178.312C229.776 177.74 230.016 176.906 230.016 175.812C230.016 174.677 229.771 173.776 229.281 173.109C228.792 172.432 228.135 172.089 227.312 172.078H224.109V179.172ZM242.328 187.188H250.391V191H237.734V168.25H242.328V187.188ZM264.797 181.156H257.641V187.188H266.109V191H253.047V168.25H266.078V172.078H257.641V177.453H264.797V181.156ZM283.812 172.078H278.188V191H273.578V172.078H268.047V168.25H283.812V172.078ZM291.25 191H286.656V168.25H291.25V191ZM311.125 181.672C311.125 184.724 310.401 187.094 308.953 188.781C307.516 190.469 305.516 191.312 302.953 191.312C300.401 191.312 298.396 190.479 296.938 188.812C295.479 187.135 294.74 184.792 294.719 181.781V177.891C294.719 174.766 295.443 172.328 296.891 170.578C298.339 168.818 300.349 167.938 302.922 167.938C305.453 167.938 307.448 168.802 308.906 170.531C310.365 172.25 311.104 174.667 311.125 177.781V181.672ZM306.516 177.859C306.516 175.807 306.224 174.281 305.641 173.281C305.057 172.281 304.151 171.781 302.922 171.781C301.703 171.781 300.802 172.266 300.219 173.234C299.635 174.193 299.333 175.656 299.312 177.625V181.672C299.312 183.661 299.609 185.13 300.203 186.078C300.797 187.016 301.714 187.484 302.953 187.484C304.151 187.484 305.042 187.026 305.625 186.109C306.208 185.182 306.505 183.75 306.516 181.812V177.859ZM330.328 191H325.734L319.016 176.078V191H314.422V168.25H319.016L325.75 183.188V168.25H330.328V191Z" fill="#656464"/>
<path fill-rule="evenodd" clip-rule="evenodd" d="M61.2297 0C41.6273 0 41.1516 15.5639 41.1516 15.5639C41.1516 15.5639 40.9147 29.5822 41.0332 44.552C41.1516 59.5217 60.5171 60.0112 60.5171 60.0112L70.1397 59.9737L87.2471 75.9166L82.3756 59.9974C82.3756 59.9974 141.183 60.0921 161.973 59.9737C182.764 59.8553 182.431 45.0277 182.431 45.0277C182.431 45.0277 182.407 31.3646 182.407 15.6823C182.407 0 162.092 0 162.092 0H61.2297Z" fill="#1C7ABF"/>
<path d="M143.228 14.6539V29.298H144.633C146.913 29.298 148.622 29.0966 149.759 28.6742C150.896 28.2538 151.788 27.4958 152.436 26.4023C153.083 25.3088 153.413 23.8857 153.413 22.1269C153.413 19.5767 152.815 17.6996 151.621 16.4797C150.434 15.2599 148.516 14.6539 145.865 14.6539H143.228ZM143.228 31.0488V40.4246C143.228 42.2346 143.336 43.3696 143.555 43.8335C143.782 44.3052 144.169 44.6842 144.726 44.9605C145.29 45.2389 146.333 45.381 147.864 45.381V46.2909H129.92V45.381C131.467 45.381 133.337 45.2349 133.893 44.9428C134.438 44.6566 134.827 44.2855 135.054 43.8236C135.273 43.3617 135.382 42.2327 135.382 40.4226V18.728C135.382 16.9179 135.273 15.783 135.054 15.3112C134.827 14.8395 134.436 14.4743 133.876 14.192C133.319 13.9118 131.452 13.7716 129.92 13.7716V12.8538H146.281C150.33 12.8538 153.285 13.14 155.16 13.6946C157.029 14.2473 158.561 15.2856 159.747 16.7916C160.925 18.2898 161.523 20.0564 161.523 22.0776C161.523 24.5429 160.631 26.58 158.855 28.1966C157.718 29.2151 156.137 29.9809 154.1 30.4862L162.137 41.8063C163.189 43.2709 163.937 44.1789 164.376 44.5421C165.057 45.0553 165.832 45.3336 166.725 45.3829V46.2929H156.196L145.423 31.0508H143.228V31.0488ZM106.214 34.8939L115.294 12.8518L129.673 12.8538V13.7716L127.816 13.7696C126.835 13.7696 126.039 13.9414 125.451 14.2828C125.043 14.5197 124.711 14.9066 124.458 15.4454C124.283 15.8402 124.19 16.8666 124.19 18.5247V40.5648C124.19 42.2741 124.283 43.342 124.458 43.7703C124.644 44.2006 125.015 44.5697 125.57 44.8895C126.134 45.2152 126.874 45.377 127.816 45.377H129.671V46.287H111.441V45.377H112.526C113.519 45.377 114.303 45.1994 114.899 44.8559C115.304 44.6289 115.639 44.2322 115.884 43.6696C116.062 43.2828 116.154 42.2465 116.154 40.5648V15.7909L103.336 46.2909H102.738L89.7184 16.01V39.5581C89.7184 41.1984 89.7598 42.2169 89.8447 42.5959C90.0559 43.413 90.5257 44.0861 91.2422 44.5993C91.9567 45.1204 93.0779 45.3829 94.6096 45.3829V46.2929H82.5908V45.3829H83.5086C84.2488 45.3829 84.9397 45.2724 85.5792 45.0198C86.2187 44.7671 86.7063 44.4217 87.0359 44.0012C87.3636 43.5729 87.6162 42.9669 87.8018 42.2011C87.8353 42.0155 87.8531 41.1826 87.8531 39.6844V18.5266C87.8531 16.835 87.7603 15.783 87.5846 15.3625C87.3991 14.9421 87.03 14.569 86.4734 14.2513C85.9108 13.9295 85.1588 13.7716 84.2271 13.7716H82.5947V12.8538H96.8262L106.214 34.8939ZM64.0839 13.7696V12.8518H82.3421L82.3401 13.7716L80.7709 13.7696C79.7879 13.7696 78.9964 13.9414 78.4062 14.2828C77.9956 14.5197 77.666 14.9066 77.4212 15.4691C77.2357 15.8639 77.1429 16.9002 77.1429 18.574V34.9432C77.1429 38.1488 76.8232 40.4819 76.1836 41.9366C75.5441 43.3933 74.4072 44.6052 72.7669 45.5902C71.1345 46.5653 69.1646 47.0548 66.867 47.0548C64.0562 47.0548 61.7843 46.3146 60.0513 44.8322C58.3084 43.3518 57.4418 41.7175 57.4418 39.9252C57.4418 38.7725 57.7952 37.8468 58.5018 37.1322C59.2085 36.4177 60.075 36.0545 61.0935 36.0545C62.0942 36.0545 62.9371 36.3743 63.6181 37.0138C64.299 37.6612 64.6445 38.4448 64.6445 39.3864C64.6445 39.8404 64.5852 40.245 64.4688 40.5904C64.4096 40.7582 64.149 41.1707 63.695 41.8359C63.241 42.5011 63.0219 42.9729 63.0219 43.2591C63.0219 43.6795 63.2331 44.0506 63.6615 44.3605C64.2852 44.8243 65.1004 45.0592 66.1031 45.0592C66.8098 45.0592 67.3901 44.8737 67.854 44.5125C68.3079 44.1513 68.6376 43.5867 68.829 42.8209C69.0146 42.0629 69.1074 39.9351 69.1074 36.4493V18.574C69.1074 16.8666 69.0146 15.7968 68.829 15.3685C68.6356 14.9401 68.2645 14.569 67.7178 14.2493C67.1631 13.9295 66.4209 13.7696 65.4873 13.7696H64.0839Z" fill="white"/>
<path d="M147.264 66.6789H146.562V67.9047H145.113V66.6789H144.41V70.1253H145.113V68.5383H146.562V70.1253H147.264V66.6789ZM142.634 68.8423C142.614 68.8936 142.588 68.9508 142.559 69.016C142.529 69.0791 142.493 69.1443 142.45 69.2074C142.409 69.2726 142.355 69.3318 142.294 69.3871C142.233 69.4423 142.162 69.4857 142.077 69.5193C141.992 69.5529 141.897 69.5686 141.787 69.5706C141.67 69.5706 141.558 69.5489 141.447 69.5035C141.337 69.4581 141.236 69.389 141.145 69.2963C141.056 69.2035 140.983 69.0851 140.932 68.939C140.879 68.7929 140.851 68.6192 140.849 68.4199C140.851 68.2106 140.877 68.029 140.928 67.8771C140.979 67.7231 141.051 67.5948 141.137 67.4941C141.226 67.3935 141.327 67.3185 141.441 67.2691C141.556 67.2198 141.674 67.1941 141.801 67.1941C141.842 67.1941 141.891 67.198 141.947 67.2059C142.004 67.2158 142.063 67.2336 142.122 67.2592C142.184 67.2849 142.241 67.3244 142.296 67.3737C142.351 67.4231 142.397 67.4902 142.434 67.5711C142.458 67.6224 142.476 67.6718 142.486 67.7191C142.495 67.7665 142.505 67.8159 142.511 67.8632L143.218 67.6737C143.204 67.6224 143.182 67.5593 143.155 67.4862C143.127 67.4132 143.092 67.3362 143.046 67.2533C143.001 67.1724 142.942 67.0915 142.872 67.0125C142.803 66.9336 142.716 66.8605 142.616 66.7954C142.515 66.7302 142.395 66.6789 142.259 66.6394C142.12 66.6019 141.96 66.5802 141.781 66.5802C141.574 66.5802 141.388 66.6059 141.226 66.6572C141.062 66.7065 140.92 66.7756 140.798 66.8645C140.676 66.9533 140.571 67.0559 140.484 67.1724C140.397 67.2888 140.328 67.4152 140.275 67.5494C140.222 67.6836 140.182 67.8218 140.158 67.9639C140.135 68.106 140.121 68.2462 140.121 68.3863C140.121 68.5679 140.141 68.7416 140.176 68.9094C140.212 69.0752 140.265 69.2291 140.332 69.3713C140.401 69.5134 140.484 69.6377 140.579 69.7443C140.636 69.8075 140.705 69.8667 140.784 69.9259C140.863 69.9832 140.952 70.0365 141.051 70.0819C141.149 70.1273 141.26 70.1648 141.38 70.1904C141.501 70.218 141.629 70.2299 141.771 70.2319C141.929 70.2319 142.083 70.2121 142.229 70.1727C142.377 70.1332 142.515 70.07 142.645 69.9832C142.774 69.8963 142.892 69.7838 142.997 69.6476C143.101 69.5094 143.188 69.3436 143.261 69.1482L142.634 68.8423ZM139.124 69.4917H137.178V68.5501H138.554V67.9363H137.178V67.2573H139.017V66.6809H136.475V70.1272H139.124V69.4917ZM134.533 67.2553H135.508V66.6789H132.863V67.2553H133.83V70.1253H134.533V67.2553ZM131.544 68.3626C131.546 68.5561 131.525 68.7258 131.477 68.8758C131.432 69.0239 131.367 69.1482 131.284 69.2509C131.199 69.3515 131.102 69.4285 130.99 69.4818C130.877 69.5331 130.757 69.5608 130.627 69.5608C130.534 69.5608 130.445 69.5469 130.364 69.5193C130.283 69.4936 130.208 69.4561 130.141 69.4088C130.074 69.3614 130.017 69.3081 129.967 69.2469C129.91 69.1739 129.863 69.093 129.825 69.0002C129.788 68.9074 129.76 68.8127 129.74 68.714C129.721 68.6153 129.713 68.5166 129.713 68.4218C129.713 68.3054 129.725 68.1889 129.748 68.0744C129.772 67.96 129.807 67.8514 129.857 67.7488C129.904 67.6461 129.965 67.5553 130.04 67.4764C130.113 67.3974 130.2 67.3342 130.301 67.2908C130.402 67.2454 130.514 67.2237 130.64 67.2217C130.781 67.2237 130.907 67.2513 131.021 67.3106C131.134 67.3678 131.229 67.4467 131.306 67.5494C131.375 67.6362 131.432 67.7487 131.475 67.883C131.517 68.0172 131.54 68.179 131.544 68.3626ZM132.261 68.4218C132.263 68.1909 132.237 67.9777 132.182 67.7863C132.127 67.5928 132.05 67.4231 131.949 67.2731C131.848 67.123 131.73 66.9967 131.594 66.8941C131.458 66.7914 131.31 66.7125 131.15 66.6592C130.988 66.6059 130.82 66.5783 130.644 66.5783C130.457 66.5783 130.281 66.6079 130.113 66.6651C129.948 66.7243 129.794 66.8072 129.657 66.9138C129.519 67.0224 129.401 67.1507 129.3 67.3027C129.199 67.4527 129.123 67.6224 129.067 67.808C129.012 67.9935 128.984 68.1929 128.984 68.406C128.984 68.6054 129.008 68.7949 129.057 68.9745C129.105 69.1561 129.176 69.3219 129.269 69.4719C129.361 69.6239 129.474 69.7562 129.606 69.8667C129.74 69.9772 129.89 70.0661 130.06 70.1272C130.23 70.1884 130.415 70.22 130.621 70.22C130.796 70.22 130.958 70.1963 131.108 70.1509C131.256 70.1075 131.39 70.0463 131.509 69.9693C131.627 69.8904 131.73 69.8035 131.817 69.7029C131.902 69.6062 131.977 69.4936 132.044 69.3634C132.109 69.2331 132.16 69.089 132.2 68.9311C132.237 68.7752 132.257 68.6034 132.261 68.4218ZM126.349 68.5876H127.695V67.9718H126.349V67.2652H128.086V66.6789H125.641V70.1253H126.347V68.5876H126.349ZM124.17 66.6789H123.531V69.0219L122.139 66.6789H121.417V70.1253H122.06V67.7527L123.469 70.1253H124.168V66.6789H124.17ZM119.936 66.6789H119.233V70.1253H119.936V66.6789Z" fill="#020202"/>
<path d="M145.3 80.7466C145.3 80.9519 145.263 81.1295 145.188 81.2776C145.115 81.4256 145.006 81.5401 144.862 81.619C144.718 81.698 144.54 81.7394 144.329 81.7414C144.112 81.7394 143.919 81.7019 143.755 81.625C143.591 81.55 143.451 81.4453 143.334 81.3151C143.218 81.1828 143.123 81.0328 143.046 80.867C142.971 80.6992 142.912 80.5216 142.868 80.336C142.825 80.1505 142.795 79.9649 142.778 79.7794C142.76 79.5939 142.752 79.4182 142.752 79.2524C142.752 79.0846 142.762 78.9089 142.788 78.7234C142.811 78.5378 142.851 78.3523 142.904 78.1648C142.957 77.9792 143.026 77.8036 143.113 77.6338C143.2 77.466 143.307 77.318 143.431 77.1858C143.555 77.0555 143.703 76.9509 143.871 76.8759C144.039 76.8008 144.232 76.7633 144.45 76.7614C144.722 76.7633 144.957 76.8147 145.154 76.9134C145.354 77.0121 145.519 77.1482 145.654 77.3219C145.788 77.4937 145.894 77.6911 145.973 77.9102C146.052 78.1293 146.106 78.3602 146.137 78.603H146.267L146.761 77.0357C146.431 76.864 146.052 76.7337 145.624 76.641C145.194 76.5502 144.728 76.5028 144.225 76.5028C143.911 76.5028 143.605 76.5403 143.307 76.6153C143.011 76.6903 142.732 76.8008 142.476 76.9509C142.219 77.0989 141.992 77.2844 141.797 77.5035C141.601 77.7246 141.447 77.9812 141.339 78.2714C141.228 78.5615 141.173 78.8872 141.171 79.2484C141.173 79.6097 141.228 79.9353 141.339 80.2255C141.447 80.5157 141.601 80.7722 141.797 80.9933C141.992 81.2144 142.217 81.398 142.476 81.546C142.734 81.696 143.011 81.8065 143.307 81.8816C143.605 81.9566 143.911 81.9941 144.225 81.9941C144.489 81.9941 144.734 81.9803 144.961 81.9526C145.19 81.925 145.407 81.8835 145.612 81.8283C145.817 81.773 146.019 81.7059 146.216 81.6269C146.414 81.546 146.613 81.4532 146.816 81.3486C146.771 81.2026 146.741 81.0585 146.731 80.9124C146.721 80.7663 146.718 80.6222 146.719 80.4762C146.718 80.2275 146.731 80.0202 146.759 79.8544C146.787 79.6886 146.84 79.5623 146.919 79.4754C146.998 79.3886 147.11 79.3392 147.26 79.3294V79.2011C147.102 79.2011 146.943 79.205 146.777 79.209C146.611 79.2149 146.449 79.2188 146.287 79.2248C146.125 79.2307 145.973 79.2326 145.829 79.2326C145.618 79.2307 145.395 79.2247 145.162 79.2168C144.927 79.207 144.692 79.2011 144.457 79.2011V79.3294C144.625 79.353 144.763 79.3807 144.872 79.4162C144.98 79.4517 145.067 79.5011 145.129 79.5662C145.19 79.6314 145.235 79.7182 145.261 79.8307C145.286 79.9432 145.298 80.0893 145.296 80.2669V80.7466H145.3ZM134.677 76.7653C134.837 76.8008 134.963 76.8561 135.056 76.937C135.149 77.016 135.216 77.1127 135.259 77.2272C135.303 77.3417 135.328 77.468 135.342 77.6101C135.352 77.7503 135.358 77.9003 135.356 78.0582V80.111C135.356 80.2275 135.346 80.3518 135.328 80.4841C135.309 80.6163 135.279 80.7505 135.238 80.8828C135.196 81.015 135.141 81.1394 135.074 81.2578C135.007 81.3743 134.924 81.4769 134.827 81.5598C134.73 81.6447 134.616 81.7059 134.485 81.7434V81.8717C134.653 81.8697 134.817 81.8658 134.983 81.8559C135.147 81.846 135.305 81.8421 135.457 81.8401C135.557 81.8401 135.664 81.8421 135.774 81.848C135.887 81.8539 136.001 81.8579 136.116 81.8638C136.232 81.8697 136.347 81.8717 136.457 81.8717V81.7335C136.323 81.698 136.209 81.6388 136.114 81.5539C136.019 81.471 135.942 81.3703 135.883 81.2539C135.824 81.1374 135.776 81.0131 135.745 80.8788C135.713 80.7466 135.69 80.6143 135.676 80.4821C135.664 80.3498 135.658 80.2255 135.658 80.109V77.6121L139.641 81.7809C139.667 81.8085 139.695 81.8401 139.728 81.8737C139.76 81.9052 139.791 81.9349 139.823 81.9605C139.854 81.9842 139.884 81.998 139.908 82H139.923C139.943 82 139.965 81.9941 139.989 81.9763C140.012 81.9605 140.032 81.9349 140.052 81.8974C140.07 81.8598 140.077 81.8085 140.077 81.7414V78.3957C140.077 78.2793 140.087 78.1549 140.105 78.0227C140.125 77.8884 140.154 77.7582 140.196 77.624C140.237 77.4917 140.293 77.3673 140.36 77.2489C140.427 77.1325 140.51 77.0298 140.606 76.9449C140.703 76.8601 140.818 76.7989 140.948 76.7614V76.6331C140.78 76.635 140.616 76.639 140.451 76.6489C140.287 76.6587 140.129 76.6627 139.979 76.6647C139.88 76.6647 139.773 76.6627 139.659 76.6568C139.546 76.6508 139.432 76.6469 139.318 76.641C139.201 76.635 139.089 76.6331 138.976 76.6331V76.7712C139.112 76.8068 139.227 76.866 139.319 76.9509C139.414 77.0338 139.491 77.1364 139.55 77.2509C139.61 77.3673 139.657 77.4917 139.689 77.6259C139.722 77.7582 139.744 77.8904 139.758 78.0227C139.77 78.1549 139.777 78.2793 139.775 78.3957V79.7459L136.584 76.635C136.477 76.635 136.371 76.637 136.256 76.6429C136.144 76.6489 136.033 76.6528 135.924 76.6587C135.814 76.6647 135.711 76.6666 135.613 76.6666C135.467 76.6647 135.313 76.6607 135.153 76.6508C134.993 76.641 134.833 76.637 134.675 76.635V76.7653H134.677ZM129.652 79.2524C129.653 78.6839 129.715 78.2122 129.835 77.845C129.955 77.4779 130.127 77.2055 130.346 77.0278C130.565 76.8522 130.824 76.7633 131.122 76.7633C131.42 76.7614 131.679 76.8502 131.9 77.0278C132.119 77.2055 132.289 77.4779 132.411 77.845C132.531 78.2122 132.593 78.6819 132.595 79.2524C132.593 79.8228 132.531 80.2906 132.411 80.6578C132.289 81.0269 132.121 81.2993 131.9 81.4769C131.681 81.6526 131.42 81.7414 131.122 81.7414C130.824 81.7434 130.565 81.6546 130.346 81.4769C130.127 81.2993 129.955 81.0269 129.835 80.6578C129.715 80.2906 129.652 79.8228 129.652 79.2524ZM128.068 79.2524C128.07 79.6136 128.126 79.9393 128.236 80.2294C128.345 80.5196 128.499 80.7762 128.694 80.9973C128.89 81.2183 129.115 81.4019 129.373 81.5499C129.632 81.7 129.908 81.8105 130.206 81.8855C130.504 81.9605 130.81 81.998 131.124 81.998C131.438 81.998 131.744 81.9605 132.042 81.8855C132.338 81.8105 132.616 81.7 132.875 81.5499C133.131 81.4019 133.358 81.2183 133.554 80.9973C133.749 80.7762 133.903 80.5216 134.012 80.2294C134.122 79.9393 134.18 79.6136 134.18 79.2524C134.178 78.8912 134.122 78.5655 134.012 78.2753C133.903 77.9852 133.749 77.7286 133.554 77.5075C133.358 77.2864 133.133 77.1029 132.875 76.9548C132.616 76.8048 132.34 76.6943 132.042 76.6193C131.744 76.5442 131.438 76.5067 131.124 76.5067C130.81 76.5067 130.504 76.5442 130.206 76.6193C129.91 76.6943 129.632 76.8048 129.373 76.9548C129.117 77.1029 128.89 77.2884 128.694 77.5075C128.499 77.7286 128.345 77.9852 128.236 78.2753C128.126 78.5655 128.068 78.8912 128.068 79.2524ZM124.125 77.6693C124.123 77.4917 124.139 77.3397 124.168 77.2154C124.198 77.091 124.249 76.9903 124.322 76.9173C124.393 76.8423 124.494 76.793 124.618 76.7653V76.637C124.401 76.639 124.194 76.6429 123.996 76.6528C123.799 76.6627 123.61 76.6666 123.422 76.6686C123.238 76.6666 123.047 76.6627 122.848 76.6528C122.65 76.6429 122.443 76.639 122.226 76.637V76.7653C122.352 76.793 122.449 76.8423 122.518 76.9173C122.587 76.9923 122.636 77.091 122.664 77.2154C122.692 77.3397 122.704 77.4917 122.704 77.6693V80.3025C122.706 80.486 122.7 80.6597 122.69 80.8255C122.68 80.9894 122.652 81.1374 122.611 81.2677C122.567 81.396 122.502 81.5006 122.411 81.5796C122.321 81.6585 122.198 81.7 122.042 81.7098V81.8717C122.163 81.8717 122.283 81.8697 122.4 81.8658C122.518 81.8638 122.634 81.8598 122.753 81.8559C122.865 81.8519 122.98 81.848 123.09 81.846C123.201 81.8421 123.31 81.8401 123.414 81.8401C123.783 81.8401 124.129 81.8421 124.454 81.846C124.778 81.848 125.088 81.8519 125.38 81.8559C125.674 81.8598 125.956 81.8638 126.231 81.8658C126.503 81.8697 126.776 81.8717 127.042 81.8717L127.632 80.0538L127.504 79.9965C127.388 80.1446 127.257 80.2926 127.113 80.4387C126.969 80.5867 126.813 80.7249 126.647 80.8552C126.482 80.9874 126.306 81.1039 126.12 81.2065C125.937 81.3091 125.745 81.3901 125.548 81.4473C125.35 81.5065 125.149 81.5361 124.944 81.5381C124.741 81.5401 124.579 81.5026 124.458 81.4295C124.338 81.3545 124.253 81.2361 124.202 81.0703C124.15 80.9084 124.125 80.6913 124.127 80.4229V77.6693H124.125ZM118.099 78.0325L118.833 79.4952H117.378L118.099 78.0325ZM118.963 79.7695L119.36 80.5295C119.411 80.6282 119.459 80.7249 119.5 80.8196C119.539 80.9163 119.575 81.0071 119.599 81.092C119.622 81.1769 119.634 81.2499 119.634 81.3131C119.634 81.4138 119.616 81.4888 119.579 81.5401C119.543 81.5914 119.492 81.6269 119.425 81.6506C119.36 81.6743 119.285 81.6921 119.198 81.7098V81.8717C119.425 81.8697 119.652 81.8658 119.875 81.8559C120.098 81.846 120.311 81.8421 120.515 81.8401C120.653 81.8401 120.801 81.8421 120.955 81.848C121.111 81.8539 121.267 81.8579 121.426 81.8638C121.584 81.8697 121.738 81.8717 121.888 81.8717V81.6861C121.827 81.6763 121.764 81.6526 121.703 81.619C121.642 81.5875 121.576 81.5361 121.509 81.4671C121.442 81.3999 121.369 81.3091 121.29 81.1927C121.213 81.0762 121.126 80.9321 121.032 80.7584L118.931 76.8166C118.914 76.7811 118.892 76.7416 118.862 76.6943C118.833 76.6469 118.803 76.6035 118.774 76.5679C118.742 76.5324 118.718 76.5107 118.699 76.5107H118.683C118.667 76.5127 118.645 76.5285 118.622 76.562C118.598 76.5956 118.572 76.6331 118.549 76.6785C118.525 76.7219 118.505 76.7614 118.487 76.7949L116.557 80.4545C116.415 80.719 116.269 80.944 116.121 81.1256C115.973 81.3091 115.835 81.4532 115.706 81.5539C115.578 81.6546 115.475 81.7138 115.394 81.7296V81.8756C115.562 81.8737 115.726 81.8697 115.892 81.8598C116.056 81.85 116.213 81.846 116.364 81.8441C116.464 81.8441 116.571 81.846 116.683 81.852C116.796 81.8579 116.91 81.8618 117.025 81.8677C117.141 81.8737 117.256 81.8756 117.366 81.8756V81.7138C117.244 81.6901 117.137 81.6526 117.046 81.6032C116.954 81.5539 116.883 81.4848 116.831 81.398C116.78 81.3111 116.754 81.2006 116.752 81.0664C116.754 80.9834 116.772 80.8848 116.81 80.7683C116.845 80.6519 116.892 80.5295 116.946 80.4031L117.254 79.7735H118.963V79.7695ZM107.491 80.2709C107.493 80.4545 107.489 80.6282 107.477 80.794C107.467 80.9578 107.444 81.1058 107.408 81.2361C107.371 81.3664 107.315 81.469 107.238 81.548C107.161 81.6269 107.057 81.6704 106.925 81.6783V81.8401H109.461V81.6783C109.333 81.6704 109.232 81.6388 109.157 81.5796C109.082 81.5223 109.027 81.4355 108.993 81.323C108.958 81.2085 108.936 81.0644 108.926 80.8907C108.916 80.719 108.912 80.5117 108.912 80.2748V79.6847C108.91 79.5386 108.936 79.4281 108.989 79.353C109.04 79.278 109.121 79.2405 109.236 79.2405C109.339 79.2425 109.429 79.2721 109.506 79.3294C109.585 79.3866 109.652 79.4596 109.71 79.5485C109.769 79.6373 109.818 79.7301 109.864 79.8268C109.907 79.9235 109.946 80.0103 109.98 80.0893L110.714 81.7769C110.722 81.7967 110.736 81.8125 110.754 81.8243C110.772 81.8362 110.791 81.8421 110.811 81.8421H112.726V81.7691C112.566 81.6842 112.42 81.5638 112.291 81.4118C112.161 81.2578 112.037 81.0802 111.916 80.8749C111.798 80.6696 111.674 80.4485 111.545 80.2097C111.401 79.9452 111.251 79.7301 111.097 79.5623C110.943 79.3945 110.779 79.2682 110.606 79.1793C110.432 79.0905 110.245 79.0293 110.043 78.9958C109.842 78.9622 109.621 78.9464 109.38 78.9484V78.9326L110.827 77.7444C111.076 77.5529 111.334 77.3752 111.601 77.2134C111.867 77.0515 112.149 76.9134 112.441 76.7989V76.637C112.254 76.639 112.066 76.6429 111.877 76.6528C111.687 76.6627 111.502 76.6666 111.318 76.6686C111.135 76.6666 110.949 76.6627 110.76 76.6528C110.57 76.6429 110.383 76.639 110.195 76.637V76.7831C110.278 76.8009 110.349 76.8245 110.406 76.8541C110.464 76.8818 110.509 76.9212 110.539 76.9706C110.568 77.0199 110.582 77.0831 110.582 77.164C110.58 77.2015 110.568 77.2469 110.547 77.3042C110.523 77.3614 110.491 77.4206 110.454 77.4838C110.416 77.545 110.375 77.6062 110.331 77.6614C110.288 77.7187 110.245 77.7641 110.203 77.8036L108.91 78.982V77.6733C108.91 77.5016 108.916 77.3595 108.93 77.2509C108.944 77.1404 108.967 77.0535 108.999 76.9903C109.033 76.9272 109.078 76.8778 109.133 76.8463C109.191 76.8127 109.26 76.787 109.344 76.7673V76.639C109.147 76.641 108.952 76.6449 108.758 76.6548C108.565 76.6647 108.377 76.6686 108.196 76.6706C108.012 76.6686 107.827 76.6647 107.637 76.6548C107.448 76.6449 107.26 76.641 107.073 76.639V76.7673C107.15 76.7752 107.217 76.7949 107.27 76.8226C107.323 76.8502 107.365 76.8956 107.396 76.9588C107.428 77.0219 107.45 77.1107 107.463 77.2272C107.477 77.3417 107.483 77.4897 107.483 77.6733V80.2709H107.491ZM100.421 76.7653C100.581 76.8008 100.707 76.8561 100.8 76.937C100.892 77.016 100.96 77.1127 101.003 77.2272C101.046 77.3417 101.072 77.468 101.086 77.6101C101.096 77.7503 101.102 77.9003 101.1 78.0582V80.111C101.1 80.2275 101.09 80.3518 101.072 80.4841C101.052 80.6163 101.023 80.7505 100.981 80.8828C100.94 81.015 100.885 81.1394 100.817 81.2578C100.75 81.3743 100.667 81.4769 100.571 81.5598C100.474 81.6447 100.359 81.7059 100.229 81.7434V81.8717C100.397 81.8697 100.563 81.8658 100.727 81.8559C100.89 81.846 101.048 81.8421 101.2 81.8401C101.301 81.8401 101.408 81.8421 101.52 81.848C101.631 81.8539 101.747 81.8579 101.862 81.8638C101.978 81.8697 102.093 81.8717 102.203 81.8717V81.7335C102.069 81.698 101.954 81.6388 101.86 81.5539C101.765 81.471 101.688 81.3703 101.629 81.2539C101.569 81.1374 101.522 81.0131 101.49 80.8788C101.459 80.7466 101.435 80.6143 101.421 80.4821C101.41 80.3498 101.404 80.2255 101.404 80.109V77.6121L105.387 81.7809C105.413 81.8085 105.44 81.8401 105.474 81.8737C105.505 81.9052 105.537 81.9349 105.568 81.9605C105.6 81.9842 105.63 81.998 105.653 82H105.669C105.689 82 105.711 81.9941 105.734 81.9763C105.758 81.9605 105.778 81.9349 105.795 81.8974C105.813 81.8598 105.821 81.8085 105.823 81.7414V78.3957C105.823 78.2793 105.833 78.1549 105.851 78.0227C105.87 77.8884 105.9 77.7582 105.942 77.624C105.983 77.4917 106.038 77.3673 106.105 77.2489C106.172 77.1325 106.257 77.0298 106.352 76.9449C106.449 76.8601 106.563 76.7989 106.694 76.7614V76.6331C106.526 76.635 106.362 76.639 106.196 76.6489C106.032 76.6587 105.874 76.6627 105.724 76.6647C105.626 76.6647 105.519 76.6627 105.405 76.6568C105.292 76.6508 105.178 76.6469 105.063 76.641C104.947 76.635 104.834 76.6331 104.722 76.6331V76.7712C104.858 76.8068 104.972 76.866 105.065 76.9509C105.16 77.0338 105.235 77.1364 105.296 77.2509C105.355 77.3673 105.403 77.4917 105.434 77.6259C105.468 77.7582 105.49 77.8904 105.503 78.0227C105.515 78.1549 105.523 78.2793 105.521 78.3957V79.7459L102.329 76.635C102.223 76.635 102.114 76.637 102.002 76.6429C101.889 76.6489 101.779 76.6528 101.67 76.6587C101.56 76.6647 101.457 76.6666 101.358 76.6666C101.212 76.6647 101.058 76.6607 100.898 76.6508C100.738 76.641 100.579 76.637 100.421 76.635V76.7653ZM96.4058 78.0325L97.1401 79.4952H95.6854L96.4058 78.0325ZM97.2704 79.7695L97.6671 80.5295C97.7184 80.6282 97.7658 80.7249 97.8073 80.8196C97.8467 80.9163 97.8823 81.0071 97.9059 81.092C97.9296 81.1769 97.9415 81.2499 97.9415 81.3131C97.9415 81.4138 97.9237 81.4888 97.8862 81.5401C97.8507 81.5914 97.7994 81.6269 97.7322 81.6506C97.6671 81.6743 97.5921 81.6921 97.5053 81.7098V81.8717C97.7322 81.8697 97.9592 81.8658 98.1823 81.8559C98.4053 81.846 98.6185 81.8421 98.8218 81.8401C98.96 81.8401 99.108 81.8421 99.262 81.848C99.4179 81.8539 99.5739 81.8579 99.7337 81.8638C99.8917 81.8697 100.046 81.8717 100.196 81.8717V81.6861C100.134 81.6763 100.071 81.6526 100.01 81.619C99.9489 81.5875 99.8838 81.5361 99.8166 81.4671C99.7495 81.3999 99.6765 81.3091 99.5975 81.1927C99.5206 81.0762 99.4337 80.9321 99.339 80.7584L97.2388 76.8166C97.221 76.7811 97.1993 76.7416 97.1697 76.6943C97.1401 76.6469 97.1105 76.6035 97.0809 76.5679C97.0493 76.5324 97.0256 76.5107 97.0059 76.5107H96.9901C96.9743 76.5127 96.9545 76.5285 96.9289 76.562C96.9052 76.5956 96.8795 76.6331 96.8559 76.6785C96.8322 76.7219 96.8124 76.7614 96.7947 76.7949L94.8642 80.4545C94.7221 80.719 94.5761 80.944 94.428 81.1256C94.28 81.3091 94.1418 81.4532 94.0135 81.5539C93.8852 81.6546 93.7826 81.7138 93.7016 81.7296V81.8756C93.8694 81.8737 94.0332 81.8697 94.199 81.8598C94.3629 81.85 94.5208 81.846 94.6708 81.8441C94.7715 81.8441 94.8781 81.846 94.9906 81.852C95.1031 81.8579 95.2176 81.8618 95.332 81.8677C95.4485 81.8737 95.563 81.8756 95.6735 81.8756V81.7138C95.5511 81.6901 95.4445 81.6526 95.3538 81.6032C95.261 81.5539 95.1899 81.4848 95.1386 81.398C95.0873 81.3111 95.0616 81.2006 95.0596 81.0664C95.0616 80.9834 95.0794 80.8848 95.1169 80.7683C95.1524 80.6519 95.1998 80.5295 95.2531 80.4031L95.561 79.7735H97.2704V79.7695ZM88.2064 80.3025C88.2084 80.486 88.2044 80.6597 88.1926 80.8255C88.1827 80.9894 88.1571 81.1374 88.1196 81.2677C88.0801 81.396 88.0209 81.5006 87.9399 81.5796C87.857 81.6585 87.7465 81.7 87.6083 81.7098V81.8717C87.7386 81.8717 87.8669 81.8697 87.9952 81.8658C88.1235 81.8638 88.2518 81.8598 88.3762 81.8559C88.5045 81.8519 88.6328 81.848 88.7571 81.846C88.8815 81.8421 89.0019 81.8401 89.1203 81.8401H90.6797C90.8316 81.8421 91.0034 81.8381 91.1929 81.8283C91.3823 81.8184 91.5797 81.8006 91.783 81.771C91.9863 81.7414 92.1837 81.696 92.3732 81.6368C92.5647 81.5776 92.7364 81.4947 92.8884 81.394C93.0424 81.2914 93.1647 81.1631 93.2536 81.0091C93.3444 80.8552 93.3917 80.6676 93.3917 80.4525C93.3898 80.2689 93.3562 80.109 93.293 79.9689C93.2279 79.8287 93.1391 79.7083 93.0246 79.6077C92.9121 79.505 92.7838 79.4202 92.6377 79.3511C92.4917 79.282 92.3397 79.2267 92.1778 79.1833C92.016 79.1399 91.8541 79.1083 91.6942 79.0866C91.5324 79.0649 91.3784 79.053 91.2343 79.0471V79.0313C91.3883 79.0135 91.5482 78.9918 91.71 78.9622C91.8699 78.9326 92.0258 78.8912 92.1739 78.8379C92.3239 78.7846 92.4561 78.7115 92.5746 78.6227C92.693 78.5339 92.7877 78.4234 92.8568 78.2872C92.9259 78.151 92.9614 77.9871 92.9634 77.7937C92.9614 77.618 92.922 77.468 92.8469 77.3437C92.7719 77.2193 92.6693 77.1167 92.539 77.0318C92.4107 76.9509 92.2666 76.8837 92.1048 76.8364C91.9429 76.787 91.7771 76.7515 91.6074 76.7278C91.4376 76.7041 91.2698 76.6883 91.11 76.6824C90.9501 76.6765 90.804 76.6726 90.6777 76.6726H88.9407C88.8519 76.6726 88.7591 76.6706 88.6643 76.6666C88.5696 76.6647 88.4768 76.6607 88.3821 76.6568C88.2893 76.6528 88.1946 76.6489 88.0998 76.6469C88.0051 76.6429 87.9103 76.641 87.8176 76.641V76.7693C87.9202 76.7969 88.0031 76.8462 88.0584 76.9212C88.1156 76.9963 88.1531 77.095 88.1748 77.2193C88.1965 77.3437 88.2064 77.4957 88.2064 77.6733V80.3025ZM89.6276 76.9252H89.8941C90.1645 76.9272 90.3994 76.9449 90.6007 76.9745C90.802 77.0042 90.9659 77.0555 91.0981 77.1265C91.2304 77.1976 91.3271 77.2963 91.3902 77.4246C91.4514 77.5509 91.483 77.7147 91.4771 77.9102C91.4751 78.1312 91.4297 78.3089 91.3389 78.4451C91.2501 78.5793 91.1297 78.6819 90.9777 78.753C90.8277 78.8241 90.6579 78.8714 90.4704 78.8951C90.2829 78.9188 90.0914 78.9306 89.8921 78.9287H89.6256V76.9252H89.6276ZM89.6276 79.1872H89.975C90.1447 79.1853 90.3204 79.1932 90.4981 79.207C90.6777 79.2208 90.8494 79.2504 91.0172 79.2938C91.185 79.3392 91.335 79.4024 91.4672 79.4873C91.6014 79.5721 91.708 79.6847 91.785 79.8268C91.864 79.9669 91.9034 80.1426 91.9054 80.3499C91.9034 80.6222 91.8521 80.8492 91.7475 81.0308C91.6429 81.2124 91.4929 81.3486 91.2994 81.4394C91.106 81.5322 90.8731 81.5776 90.6066 81.5776C90.4388 81.5796 90.2987 81.5717 90.1822 81.5539C90.0678 81.5381 89.973 81.5065 89.902 81.4592C89.8289 81.4098 89.7737 81.3388 89.7342 81.246C89.6947 81.1512 89.6671 81.0269 89.6532 80.8749C89.6375 80.7209 89.6315 80.5295 89.6296 80.3005V79.1872H89.6276Z" fill="#0078B9"/>
</svg>
