<svg width="270" height="270" viewBox="0 0 270 270" fill="none" xmlns="http://www.w3.org/2000/svg">
<path d="M270 206.495H0V206.63H270V206.495Z" fill="#EBEBEB"/>
<path d="M242.946 215.187H225.061V215.322H242.946V215.187Z" fill="#EBEBEB"/>
<path d="M178.858 216.652H174.164V216.787H178.858V216.652Z" fill="#EBEBEB"/>
<path d="M224.52 210.172H214.156V210.307H224.52V210.172Z" fill="#EBEBEB"/>
<path d="M51.6523 211.079H28.3281V211.214H51.6523V211.079Z" fill="#EBEBEB"/>
<path d="M59.8808 211.079H56.4609V211.214H59.8808V211.079Z" fill="#EBEBEB"/>
<path d="M121.579 213.36H70.9941V213.495H121.579V213.36Z" fill="#EBEBEB"/>
<path d="M127.987 182.412H23.7132C22.0138 182.412 20.6309 181.029 20.6309 179.329V32.7561C20.6309 31.0568 22.0138 29.6738 23.7132 29.6738H127.987C129.685 29.6738 131.068 31.0568 131.068 32.7561V179.329C131.068 181.029 129.685 182.412 127.987 182.412ZM23.7132 29.8094C22.0878 29.8094 20.7659 31.1313 20.7659 32.7567V179.33C20.7659 180.955 22.0878 182.277 23.7132 182.277H127.987C129.611 182.277 130.933 180.955 130.933 179.33V32.7561C130.933 31.1313 129.611 29.8088 127.987 29.8088L23.7132 29.8094Z" fill="#EBEBEB"/>
<path d="M244.788 182.412H140.515C138.816 182.412 137.434 181.029 137.434 179.329V32.7561C137.434 31.0568 138.817 29.6738 140.515 29.6738H244.788C246.488 29.6738 247.871 31.0568 247.871 32.7561V179.329C247.871 181.029 246.488 182.412 244.788 182.412ZM140.515 29.8094C138.891 29.8094 137.569 31.1313 137.569 32.7567V179.33C137.569 180.955 138.891 182.277 140.515 182.277H244.788C246.414 182.277 247.736 180.955 247.736 179.33V32.7561C247.736 31.1313 246.414 29.8088 244.788 29.8088L140.515 29.8094Z" fill="#EBEBEB"/>
<path d="M212.258 41.1279H54.6934V114.848H212.258V41.1279Z" fill="#E6E6E6"/>
<path d="M214.632 41.1279H55.8027V114.848H214.632V41.1279Z" fill="#F0F0F0"/>
<path d="M212.258 114.848H54.6934V118.608H212.258V114.848Z" fill="#E6E6E6"/>
<path d="M218.587 114.848H59.7578V118.608H218.587V114.848Z" fill="#F0F0F0"/>
<path d="M211.309 111.525V44.4512L59.1258 44.4512V111.525L211.309 111.525Z" fill="#FAFAFA"/>
<path d="M75.4551 111.526L84.7042 44.4521H99.1373L89.8877 111.526H75.4551Z" fill="white"/>
<path d="M60.6653 108.217C60.5341 108.217 60.4277 108.111 60.4277 107.98V46.6136C60.4277 46.4824 60.5341 46.376 60.6653 46.376C60.7966 46.376 60.9029 46.4824 60.9029 46.6136V107.98C60.9029 108.111 60.7966 108.217 60.6653 108.217Z" fill="#F0F0F0"/>
<path d="M92.9883 111.526L102.237 44.4521H107.864L98.6151 111.526H92.9883Z" fill="white"/>
<path d="M211.309 111.525V44.4512H210.887V111.525H211.309Z" fill="#E6E6E6"/>
<path opacity="0.6" d="M215.419 49.4621H57.8545L57.5488 45.7432H215.113L215.419 49.4621Z" fill="#EBEBEB"/>
<path opacity="0.6" d="M215.419 55.5608H57.8545L57.5488 51.8418H215.113L215.419 55.5608Z" fill="#EBEBEB"/>
<path opacity="0.6" d="M215.419 61.6604H57.8545L57.5488 57.9414H215.113L215.419 61.6604Z" fill="#EBEBEB"/>
<path opacity="0.6" d="M215.419 67.76H57.8545L57.5488 64.041H215.113L215.419 67.76Z" fill="#EBEBEB"/>
<path opacity="0.6" d="M215.419 73.8586H57.8545L57.5488 70.1396H215.113L215.419 73.8586Z" fill="#EBEBEB"/>
<path opacity="0.6" d="M215.419 79.9582H57.8545L57.5488 76.2393H215.113L215.419 79.9582Z" fill="#EBEBEB"/>
<path d="M237.06 133.38H213.014V206.495H237.06V133.38Z" fill="#E6E6E6"/>
<path d="M230.638 206.495H237.06V196.402H223.906L230.638 206.495Z" fill="#FAFAFA"/>
<path d="M171.497 133.38H147.451V206.495H171.497V133.38Z" fill="#E6E6E6"/>
<path d="M237.06 133.38H165.893V203.022H237.06V133.38Z" fill="#FAFAFA"/>
<path d="M172.313 206.495H165.893V196.402H179.046L172.313 206.495Z" fill="#FAFAFA"/>
<path d="M232.08 159.331H170.875V176.759H232.08V159.331Z" fill="#F0F0F0"/>
<path d="M232.08 180.483H170.875V197.911H232.08V180.483Z" fill="#F0F0F0"/>
<path d="M219.939 161.194H183.016C181.622 161.194 180.492 160.064 180.492 158.67V157.821H222.463V158.67C222.463 160.064 221.332 161.194 219.939 161.194Z" fill="#FAFAFA"/>
<path d="M232.08 138.178H170.875V155.606H232.08V138.178Z" fill="#F0F0F0"/>
<path d="M219.939 140.041H183.016C181.622 140.041 180.492 138.911 180.492 137.517V136.668H222.463V137.517C222.463 138.911 221.332 140.041 219.939 140.041Z" fill="#FAFAFA"/>
<path d="M219.939 182.347H183.016C181.622 182.347 180.492 181.217 180.492 179.824V178.975H222.463V179.824C222.463 181.217 221.332 182.347 219.939 182.347Z" fill="#FAFAFA"/>
<path d="M28.8451 148.969C30.1848 145.123 40.7483 150.353 45.0348 156.726C47.8898 160.971 49.634 165.501 50.4483 171.588C50.3506 164.643 50.2399 157.182 50.1313 150.141C49.2646 148.385 47.285 144.338 45.861 141.13C41.1101 130.428 29.8133 126.443 25.9107 119.686C20.7969 110.833 20.8266 97.5519 25.1796 92.7594C28.9628 88.5949 41.4903 116.755 42.9013 119.901C47.7548 130.722 49.1658 138.753 50.0752 146.533C49.9715 139.919 49.8727 133.847 49.7911 129.162C49.526 113.882 49.1944 108.966 49.0427 107.454C48.5194 106.715 47.9022 105.854 47.5431 105.393C44.5116 101.49 37.7848 96.8434 34.4233 91.1697C29.5147 82.8855 30.3079 72.9706 33.751 69.2786C37.3506 65.4181 43.7145 74.542 47.0933 83.5821C50.4721 92.6223 49.0281 101.275 49.9758 108.782C50.174 110.255 50.3776 115.848 50.5687 123.606C51.5937 115.259 53.6354 109.666 57.4192 104.455C62.0729 98.046 66.0905 90.2409 69.925 91.2496C73.7596 92.2583 71.6957 102.586 68.662 109.836C65.9604 116.293 52.6332 122.733 50.6692 127.924C50.9003 138.44 51.1071 151.762 51.2535 164.166C52.3043 157.759 51.5818 157.221 55.8872 147.412C58.4468 141.58 68.9406 134.389 70.1923 138.395C71.4203 142.328 69.5416 149.975 65.5802 155.278C62.3845 159.557 55.2937 159.552 53.6527 162.207C53.2698 162.826 52.0041 165.2 51.281 166.566C51.4522 181.709 51.5289 195.076 51.4441 199.634L50.7561 199.679C50.7891 198.503 50.7059 190.799 50.5709 180.605C48.8494 175.181 37.2577 172.014 33.677 166.373C29.931 160.471 27.238 153.582 28.8451 148.969Z" fill="#E6E6E6"/>
<path d="M39.7442 206.495H61.9922C63.2077 206.495 64.2553 205.639 64.4967 204.447L66.0762 196.661H35.6602L37.2397 204.447C37.481 205.639 38.5286 206.495 39.7442 206.495Z" fill="#F0F0F0"/>
<path d="M35.0247 199.68H66.7129C67.4722 199.68 68.1105 199.11 68.1952 198.355L68.8432 192.598C68.9426 191.714 68.2509 190.939 67.3609 190.939H34.3767C33.4867 190.939 32.7945 191.714 32.8944 192.598L33.5424 198.355C33.6271 199.11 34.2654 199.68 35.0247 199.68Z" fill="#F0F0F0"/>
<path d="M96.0333 171.515H77.0215V206.496H96.0333V171.515Z" fill="#E0E0E0"/>
<path d="M144.493 206.495H80.8299L74.1426 159.03H137.805L144.493 206.495Z" fill="#E6E6E6"/>
<path d="M153.78 206.495H83.3592L76.6719 159.03H147.092L153.78 206.495Z" fill="#F0F0F0"/>
<path d="M90.2524 199.075L84.6191 166.45H140.199L145.832 199.075H90.2524Z" fill="white"/>
<path d="M114.134 199.075L95.2422 166.45H101.169L120.061 199.075H114.134Z" fill="#FAFAFA"/>
<path d="M122.574 199.075L103.682 166.45H113.788L132.68 199.075H122.574Z" fill="#FAFAFA"/>
<path d="M135.001 230.883C192.825 230.883 239.701 228.146 239.701 224.769C239.701 221.392 192.825 218.654 135.001 218.654C77.1766 218.654 30.3008 221.392 30.3008 224.769C30.3008 228.146 77.1766 230.883 135.001 230.883Z" fill="#F5F5F5"/>
<path d="M41.7246 119.626C41.6058 119.626 41.5059 119.535 41.4956 119.415L40.2958 104.996C40.285 104.869 40.3789 104.758 40.5058 104.748C40.6246 104.739 40.7429 104.831 40.7537 104.958L41.9536 119.377C41.9644 119.503 41.8704 119.614 41.7435 119.625C41.737 119.625 41.7311 119.626 41.7246 119.626Z" fill="#407BFF"/>
<path d="M42.435 128.191C42.3162 128.191 42.2163 128.1 42.2061 127.98L41.8426 123.615C41.8318 123.488 41.9258 123.378 42.0527 123.367C42.1742 123.351 42.2903 123.449 42.3006 123.577L42.664 127.942C42.6748 128.068 42.5808 128.179 42.4539 128.19C42.448 128.19 42.4415 128.191 42.435 128.191Z" fill="#407BFF"/>
<path d="M163.919 169.22H52.4235C49.5788 169.22 47.0575 166.893 46.8205 164.048L40.5414 88.5701C40.3048 85.7254 42.4384 83.3975 45.2836 83.3975H156.78C159.624 83.3975 162.146 85.7249 162.383 88.5701L168.662 164.048C168.899 166.892 166.765 169.22 163.919 169.22Z" fill="white"/>
<path d="M163.92 169.436H52.4242C49.4628 169.436 46.853 167.027 46.6067 164.067L40.3276 88.5891C40.2072 87.1489 40.6613 85.7908 41.6047 84.7654C42.5438 83.7448 43.8506 83.1826 45.2843 83.1826H156.781C159.742 83.1826 162.351 85.5921 162.598 88.5529L168.877 164.03C168.998 165.47 168.544 166.828 167.6 167.852C166.661 168.874 165.354 169.436 163.92 169.436ZM45.2843 83.6141C43.9726 83.6141 42.7787 84.1265 41.9222 85.0575C41.0609 85.9928 40.6473 87.2342 40.7569 88.5535L47.036 164.03C47.2645 166.774 49.6815 169.005 52.4247 169.005H163.921C165.233 169.005 166.427 168.492 167.284 167.561C168.145 166.626 168.558 165.385 168.449 164.066L162.169 88.5891C161.94 85.8459 159.524 83.6141 156.781 83.6141H45.2843Z" fill="#407BFF"/>
<path d="M156.78 83.3984H45.2836C42.4389 83.3984 40.3048 85.7258 40.5413 88.5711H162.382C162.146 85.7258 159.624 83.3984 156.78 83.3984Z" fill="#407BFF"/>
<path d="M47.8934 85.9838C47.9447 86.5999 47.4868 87.0994 46.8706 87.0994C46.2545 87.0994 45.7134 86.5999 45.6621 85.9838C45.6108 85.3677 46.0687 84.8682 46.6849 84.8682C47.301 84.8682 47.8421 85.3677 47.8934 85.9838Z" fill="white"/>
<path d="M52.43 85.9838C52.4813 86.5999 52.0234 87.0994 51.4072 87.0994C50.7911 87.0994 50.2505 86.5999 50.1992 85.9838C50.1479 85.3677 50.6059 84.8682 51.222 84.8682C51.8381 84.8682 52.3787 85.3677 52.43 85.9838Z" fill="white"/>
<path d="M56.9651 85.9838C57.0164 86.5999 56.5585 87.0994 55.9424 87.0994C55.3262 87.0994 54.7852 86.5999 54.7344 85.9838C54.6831 85.3677 55.141 84.8682 55.7571 84.8682C56.3733 84.8682 56.9138 85.3677 56.9651 85.9838Z" fill="white"/>
<path d="M154.243 159.329H60.4536C58.192 159.329 56.1881 157.479 55.9996 155.218L51.6197 102.573C51.4318 100.312 53.1279 98.4619 55.3894 98.4619H149.179C151.44 98.4619 153.444 100.312 153.633 102.573L158.013 155.218C158.201 157.479 156.505 159.329 154.243 159.329Z" fill="#F0F0F0"/>
<path opacity="0.1" d="M125.239 107.679L96.1822 142.662C92.1965 147.461 94.7215 154.777 100.819 156.095L147.946 166.288C154.454 167.696 159.893 161.26 157.419 155.078L139.348 109.903C137.008 104.053 129.264 102.833 125.239 107.679Z" fill="#263238"/>
<path opacity="0.1" d="M60.568 112.585L50.4479 139.837C49.0973 143.473 52.0214 147.268 55.8819 146.89L85.4355 143.991C89.5795 143.585 91.6239 138.747 89.0271 135.492L69.5941 111.138C67.0464 107.946 61.9898 108.756 60.568 112.585Z" fill="#263238"/>
<path d="M135.26 98.8722L108.098 138.312C104.398 143.685 107.676 151.07 114.142 151.93L164.073 158.575C171.003 159.497 176.156 152.311 173.059 146.043L150.291 99.9576C147.337 93.9787 139.044 93.3793 135.26 98.8722Z" fill="#407BFF"/>
<path d="M115.329 148.394C113.513 148.153 111.934 147.007 111.107 145.332C110.279 143.656 110.374 141.799 111.361 140.364L138.593 100.825C139.58 99.3912 141.254 98.6789 143.07 98.9203C144.886 99.1622 146.464 100.307 147.292 101.983L170.118 148.184C170.946 149.86 170.851 151.717 169.862 153.151C168.875 154.585 167.201 155.297 165.385 155.056L115.329 148.394Z" fill="white"/>
<path d="M140.75 112.897L143.93 113.32C145.975 113.592 147.549 115.453 147.445 117.475L147.232 121.623C147.224 121.775 147.206 121.926 147.18 122.074L144.917 134.575C144.591 136.376 142.945 137.542 141.078 137.293C139.206 137.044 137.7 135.454 137.567 133.586L136.65 120.667C136.639 120.518 136.638 120.368 136.646 120.22L136.859 116.067C136.963 114.044 138.705 112.625 140.75 112.897ZM140.496 140.739L141.363 140.855C143.193 141.098 144.6 142.762 144.507 144.571C144.414 146.38 142.856 147.649 141.027 147.406L140.159 147.29C138.33 147.047 136.923 145.383 137.015 143.574C137.109 141.765 138.667 140.496 140.496 140.739Z" fill="#407BFF"/>
<path d="M71.0131 104.9L63.5552 133.182C62.5675 136.927 65.8361 140.415 69.6372 139.673L98.5661 134.029C102.631 133.236 104.22 128.268 101.37 125.263L79.8993 102.626C77.0686 99.6417 72.0618 100.923 71.0131 104.9Z" fill="#407BFF"/>
<path d="M69.5821 137.384C68.5302 137.589 67.4356 137.22 66.6553 136.397C65.8745 135.574 65.5699 134.468 65.8415 133.439L73.3184 105.086C73.5894 104.058 74.3795 103.321 75.4319 103.116C76.4838 102.911 77.5784 103.28 78.3587 104.103L99.8837 126.797C100.665 127.621 100.969 128.726 100.697 129.755C100.426 130.783 99.6363 131.52 98.5844 131.725L69.5821 137.384Z" fill="white"/>
<path d="M76.8353 111.743L78.6777 111.383C79.8625 111.152 81.0921 111.941 81.4231 113.144L82.103 115.614C82.1278 115.705 82.1472 115.796 82.1607 115.888L83.3115 123.64C83.4773 124.757 82.7898 125.753 81.7082 125.965C80.6239 126.176 79.484 125.532 79.0514 124.464L76.0587 117.075C76.0242 116.989 75.9945 116.902 75.9702 116.813L75.2898 114.341C74.9588 113.137 75.6505 111.974 76.8353 111.743ZM82.049 128.095L82.5517 127.997C83.6117 127.79 84.7112 128.496 85.0076 129.572C85.3041 130.65 84.6852 131.69 83.6252 131.897L83.123 131.995C82.063 132.202 80.9636 131.496 80.6671 130.42C80.3701 129.342 80.9889 128.302 82.049 128.095Z" fill="#407BFF"/>
<path d="M209.716 111.259L205.525 112.62L208.897 116.609C208.897 116.609 210.484 115.257 211.35 113.741C211.712 113.107 211.503 112.301 210.874 111.934L209.716 111.259Z" fill="#7F3E3B"/>
<path d="M203.596 115.894L206.109 118.946L208.896 116.609L205.525 112.62L203.596 115.894Z" fill="#7F3E3B"/>
<path d="M211.067 78.666C212.092 81.4729 213.031 84.2804 213.92 87.1278C214.798 89.9817 215.635 92.8308 216.349 95.8251L216.604 96.9731L216.723 97.573L216.782 97.8727L216.796 97.9483L216.813 98.0628L216.845 98.2923C216.995 99.5149 216.867 100.476 216.698 101.367C216.346 103.131 215.773 104.628 215.142 106.08C213.859 108.965 212.32 111.557 210.518 114.071L207.718 112.522C208.71 109.831 209.689 107.06 210.424 104.391C210.777 103.061 211.08 101.72 211.17 100.559C211.211 99.9917 211.183 99.4609 211.105 99.2211L210.873 98.3766L210.572 97.3797C209.725 94.6754 208.758 91.8955 207.802 89.1334C206.851 86.3664 205.891 83.5784 204.971 80.806L211.067 78.666Z" fill="#7F3E3B"/>
<path d="M187.745 61.9613C187.816 62.2977 187.698 62.6153 187.48 62.6703C187.262 62.7254 187.028 62.497 186.956 62.1606C186.885 61.8242 187.004 61.5066 187.222 61.4516C187.44 61.3965 187.674 61.6244 187.745 61.9613Z" fill="#263238"/>
<path d="M187.728 62.6074C187.728 62.6074 187.382 64.7404 186.746 65.8879C187.453 66.2945 188.402 65.7875 188.402 65.7875L187.728 62.6074Z" fill="#630F0F"/>
<path d="M186.854 59.9171C186.791 59.9171 186.728 59.8869 186.689 59.8313C186.625 59.74 186.647 59.6142 186.738 59.5499C186.771 59.5272 187.55 58.9943 188.567 59.4128C188.67 59.4554 188.719 59.5732 188.677 59.6763C188.634 59.7794 188.517 59.8291 188.413 59.7859C187.599 59.45 186.977 59.8766 186.971 59.8809C186.935 59.9052 186.894 59.9171 186.854 59.9171Z" fill="#263238"/>
<path d="M199.321 63.0312C199.697 66.9511 199.142 70.7468 200.019 74.1547C200.019 74.1547 199.044 77.3175 193.251 77.3175C186.88 77.3175 190.328 74.1547 190.328 74.1547C193.838 73.3242 193.847 70.7446 193.335 68.3216L199.321 63.0312Z" fill="#7F3E3B"/>
<path d="M201.252 75.2403C201.748 74.2391 202.077 72.8216 201.05 72.4625C199.921 72.0678 193.892 71.9366 191.704 72.6775C189.516 73.4189 190.05 75.4493 190.05 75.4493L201.252 75.2403Z" fill="#263238"/>
<path d="M214.271 217.454C214.69 217.355 215.122 217.161 215.419 217.011C215.458 216.991 215.482 216.949 215.479 216.905C215.475 216.86 215.446 216.822 215.404 216.808C215.215 216.744 213.54 216.191 213.1 216.568C213.032 216.626 212.957 216.734 212.988 216.915C213.029 217.159 213.149 217.332 213.344 217.43C213.59 217.553 213.926 217.536 214.271 217.454ZM215.071 216.934C214.339 217.27 213.74 217.382 213.443 217.233C213.313 217.167 213.235 217.051 213.205 216.878C213.191 216.793 213.218 216.757 213.243 216.736C213.472 216.54 214.396 216.731 215.071 216.934Z" fill="#407BFF"/>
<path d="M215.395 217.02C215.415 217.015 215.434 217.005 215.449 216.989C215.477 216.96 215.487 216.918 215.475 216.879C215.457 216.825 215.04 215.543 214.412 215.237C214.248 215.158 214.083 215.147 213.922 215.207C213.673 215.3 213.643 215.474 213.647 215.57C213.671 216.098 214.812 216.876 215.341 217.02C215.359 217.024 215.377 217.024 215.395 217.02ZM214.045 215.399C214.134 215.378 214.222 215.39 214.314 215.435C214.717 215.631 215.042 216.359 215.185 216.728C214.636 216.485 213.881 215.871 213.867 215.559C213.866 215.53 213.862 215.464 213.998 215.414C214.014 215.408 214.03 215.403 214.045 215.399Z" fill="#407BFF"/>
<path d="M184.775 220.749C185.206 220.749 185.67 220.66 185.994 220.582C186.037 220.572 186.07 220.536 186.077 220.492C186.084 220.448 186.064 220.405 186.026 220.381C185.857 220.275 184.355 219.352 183.839 219.617C183.76 219.658 183.662 219.745 183.65 219.929C183.635 220.176 183.711 220.372 183.878 220.512C184.089 220.689 184.42 220.749 184.775 220.749ZM185.674 220.427C184.883 220.586 184.275 220.556 184.02 220.343C183.909 220.249 183.859 220.118 183.871 219.942C183.876 219.857 183.911 219.828 183.94 219.813C184.208 219.676 185.063 220.074 185.674 220.427Z" fill="#407BFF"/>
<path d="M185.967 220.585C185.988 220.585 186.009 220.579 186.027 220.567C186.061 220.545 186.08 220.506 186.076 220.466C186.072 220.409 185.961 219.066 185.42 218.623C185.279 218.508 185.121 218.46 184.95 218.481C184.686 218.514 184.617 218.676 184.599 218.77C184.501 219.289 185.432 220.31 185.914 220.571C185.931 220.581 185.949 220.585 185.967 220.585ZM185.027 218.697C185.117 218.697 185.201 218.729 185.28 218.794C185.627 219.078 185.776 219.861 185.83 220.253C185.351 219.889 184.757 219.119 184.815 218.812C184.82 218.784 184.833 218.718 184.976 218.701C184.994 218.698 185.01 218.697 185.027 218.697Z" fill="#407BFF"/>
<path d="M190.979 220.417H186.717L186.674 210.546H190.936L190.979 220.417Z" fill="#7F3E3B"/>
<path d="M220.678 216.765L216.574 217.517L213.631 207.804L217.734 207.052L220.678 216.765Z" fill="#7F3E3B"/>
<path d="M215.793 216.424L220.453 215.322C220.623 215.282 220.793 215.367 220.862 215.525L222.411 219.052C222.571 219.418 222.342 219.853 221.95 219.939C220.317 220.296 219.508 220.386 217.459 220.871C216.198 221.169 213.627 221.915 211.886 222.327C210.183 222.73 209.577 221.056 210.259 220.729C213.316 219.268 214.329 218.01 215.171 216.84C215.322 216.63 215.545 216.483 215.793 216.424Z" fill="#263238"/>
<path d="M186.765 219.923H191.42C191.594 219.923 191.74 220.044 191.771 220.214L192.467 224.003C192.539 224.395 192.227 224.768 191.824 224.761C190.147 224.732 187.724 224.634 185.613 224.634C183.145 224.634 182.266 224.768 179.372 224.768C177.623 224.768 177.205 222.999 177.944 222.839C181.307 222.109 182.775 222.031 185.725 220.254C186.046 220.062 186.397 219.923 186.765 219.923Z" fill="#263238"/>
<path d="M209.519 75.2547C213.497 78.054 214.695 85.269 214.695 85.269L205.679 89.8401C205.679 89.8401 203.389 85.4024 202.387 80.8923C201.437 76.6241 206.691 73.2648 209.519 75.2547Z" fill="#407BFF"/>
<path opacity="0.2" d="M205.011 79.8564L208.564 88.3679L205.682 89.8416C205.682 89.8416 204.425 87.3943 203.35 84.2661L205.011 79.8564Z" fill="black"/>
<path d="M183 93.9779C183.031 98.7353 183.319 104.653 184.028 111.998H206.83C207.109 108.65 205.71 92.8622 209.104 77.0564C209.356 75.8809 208.57 74.7361 207.382 74.5514C205.929 74.3257 203.942 74.0664 201.997 73.9725C199.09 73.8332 194.876 73.7403 192.308 73.9725C190.911 74.0994 189.545 74.3224 188.42 74.5411C186.475 74.9197 184.928 76.3728 184.413 78.2866C183.921 80.1161 183.418 82.9284 183.165 87.1717C183.048 89.1276 182.985 91.3783 183 93.9779Z" fill="#407BFF"/>
<path opacity="0.2" d="M190.196 85.0282C188.69 86.1352 185.806 86.6428 183.182 86.8696C183.225 86.173 183.279 85.5142 183.338 84.8932C184.045 84.5206 184.726 84.1804 185.369 83.8672L190.196 85.0282Z" fill="black"/>
<g opacity="0.2">
<path d="M186.676 210.548L186.697 216.033H190.962L190.94 210.548H186.676Z" fill="black"/>
<path d="M217.736 207.054L213.631 207.806L215.15 212.812L219.255 212.06L217.736 207.054Z" fill="black"/>
</g>
<path d="M198.712 58.4395C199.336 62.6364 199.912 65.0534 198.294 67.6973C195.86 71.6738 190.406 71.0571 188.555 67.1778C186.889 63.6861 186.148 57.4092 189.807 54.7518C193.411 52.1339 198.087 54.2426 198.712 58.4395Z" fill="#7F3E3B"/>
<path d="M189.992 61.5036C188.413 60.8097 188.563 58.3198 189.043 57.27C187.213 57.9002 184.567 58.2598 184.09 56.4001C183.613 54.5403 185.233 53.9404 184.243 52.3501C183.253 50.7603 186.403 49.0199 187.873 51.2404C189.343 53.4608 192.968 52.4845 195.313 50.3402C197.018 48.7801 199.513 50.79 198.523 52.8301C198.523 52.8301 203.653 52.5002 202.633 55.9799C201.613 59.4597 200.172 59.5855 200.502 62.0603C200.726 63.736 200.922 67.1396 198.913 67.6196C196.485 68.1996 190.423 66.0482 189.992 61.5036Z" fill="#263238"/>
<path opacity="0.2" d="M189.964 66.0469C189.499 66.3817 189.019 66.7381 188.527 67.1161C188.538 67.1377 188.544 67.1539 188.554 67.1755C189.062 68.2393 189.845 69.0601 190.763 69.6109C191.068 69.3145 191.239 68.3171 191.814 68.3322C193.525 68.377 196.837 67.662 197.385 65.7305L189.964 66.0469Z" fill="black"/>
<path d="M191.292 61.4445C191.411 62.5207 191.211 63.5289 190.886 64.1855C190.397 65.1732 189.632 64.5435 189.333 63.3285C189.063 62.2345 188.992 60.4023 189.693 59.8639C190.383 59.3325 191.155 60.2138 191.292 61.4445Z" fill="#7F3E3B"/>
<path d="M192.117 111.998C192.117 111.998 195.697 144.571 197.881 156.774C200.273 170.138 212.661 212.084 212.661 212.084L220.297 210.458C220.297 210.458 211.77 171.217 210.621 157.986C209.375 143.626 206.828 111.999 206.828 111.999L192.117 111.998Z" fill="#407BFF"/>
<path opacity="0.3" d="M192.117 111.998C192.117 111.998 195.697 144.571 197.881 156.774C200.273 170.138 212.661 212.084 212.661 212.084L220.297 210.458C220.297 210.458 211.77 171.217 210.621 157.986C209.437 144.335 209.434 144.363 206.828 111.999L192.117 111.998Z" fill="black"/>
<path d="M210.95 209.507C210.917 209.514 212.249 212.295 212.249 212.295L220.84 210.466L220.226 207.861L210.95 209.507Z" fill="#263238"/>
<path opacity="0.2" d="M194.726 123.604C200.277 124.701 198.88 145.558 197.792 156.286C196.472 148.703 194.674 134.111 193.461 123.755C193.84 123.57 194.26 123.511 194.726 123.604Z" fill="black"/>
<path d="M184.03 111.998C184.03 111.998 182.213 143.866 182.174 156.864C182.134 170.383 185.147 214.651 185.147 214.651H192.368C192.368 214.651 194.311 171.173 195.146 157.896C196.055 143.421 199.016 111.998 199.016 111.998H184.03Z" fill="#407BFF"/>
<path opacity="0.3" d="M184.03 111.998C184.03 111.998 182.213 143.866 182.174 156.864C182.134 170.383 185.147 214.651 185.147 214.651H192.368C192.368 214.651 194.311 171.173 195.146 157.896C196.055 143.421 199.016 111.998 199.016 111.998H184.03Z" fill="black"/>
<path d="M183.868 211.775C183.834 211.775 184.159 214.773 184.159 214.773H192.942L193.283 212.098L183.868 211.775Z" fill="#263238"/>
<path d="M193.06 81.9389C192.198 82.0231 191.466 82.0669 190.675 82.0901C189.899 82.1155 189.125 82.1257 188.349 82.123C186.798 82.1058 185.241 82.0275 183.677 81.852C182.112 81.684 180.539 81.4307 178.955 81.0414C177.371 80.6607 175.776 80.1304 174.191 79.3507L174.012 79.2621C172.616 78.5752 172.041 76.8867 172.727 75.4908C172.802 75.339 172.899 75.1846 172.995 75.0528C173.733 74.0614 174.448 73.3702 175.18 72.7162C175.909 72.0709 176.639 71.4904 177.374 70.9385C178.84 69.831 180.343 68.8531 181.85 67.9027C183.365 66.9652 184.894 66.0753 186.445 65.2286C188.007 64.3948 189.553 63.5757 191.174 62.8229C191.98 62.4487 192.936 62.7986 193.311 63.6043C193.634 64.3009 193.417 65.1103 192.831 65.5585L192.812 65.572C191.454 66.6121 190.057 67.6462 188.703 68.7046C187.338 69.7533 185.981 70.8025 184.656 71.8722C183.325 72.9312 182.03 74.023 180.807 75.1198C180.196 75.6684 179.611 76.2279 179.085 76.7857C178.567 77.337 178.074 77.9089 177.812 78.3425L176.615 74.0446C177.714 74.4723 178.955 74.779 180.245 75.0123C181.539 75.2364 182.884 75.3828 184.247 75.4778C185.612 75.5642 186.996 75.6096 188.385 75.6101C189.08 75.6144 189.776 75.6069 190.47 75.5863C191.149 75.561 191.886 75.5367 192.49 75.5032L192.564 75.4989C194.345 75.399 195.87 76.7614 195.97 78.5423C196.068 80.2773 194.772 81.7693 193.06 81.9389Z" fill="#7F3E3B"/>
<path d="M196.084 61.9497L193.372 62.5486C193.372 62.5486 189.76 62.0999 188.934 64.8225L191.074 66.6494L194.377 67.1715C194.901 67.2542 195.438 67.1672 195.909 66.9231L196.752 66.4857C197.14 66.2849 197.399 65.9004 197.439 65.4657L197.639 63.3224C197.719 62.4563 196.934 61.7624 196.084 61.9497Z" fill="#7F3E3B"/>
<path d="M190.814 85.0951C186.272 86.355 181.094 84.7803 181.094 84.7803L182.999 74.6105C182.999 74.6105 187.511 74.2152 190.328 74.1553C197.58 74.0019 199.002 82.8239 190.814 85.0951Z" fill="#407BFF"/>
</svg>
