<svg width="121" height="121" viewBox="0 0 121 121" fill="none" xmlns="http://www.w3.org/2000/svg">
<rect x="0.75" y="0.731934" width="120" height="120" rx="9" fill="#2B3A92"/>
<g clip-path="url(#clip0_24_321)">
<path d="M70.9685 28.1459C70.9685 30.9725 69.9979 33.3404 68.0673 35.2817C66.1367 37.2123 63.7581 38.1829 60.9316 38.1829C58.1157 38.1829 55.7371 37.2123 53.8065 35.2817C51.8759 33.3511 50.9053 30.9725 50.9053 28.1459C50.9053 25.3194 51.8759 22.9515 53.8065 21.0102C55.7371 19.0689 58.1263 18.1196 60.9422 18.1196C63.7688 18.1196 66.1367 19.0903 68.078 21.0209C70.0192 22.9515 70.9792 25.33 70.9685 28.1459Z" fill="white"/>
<path d="M84.1947 38.7482V61.83C84.1947 63.0993 83.2134 64.1446 81.9548 64.2299C78.4882 64.4752 75.075 65.2646 71.8538 66.5658C68.3979 67.9525 65.1661 69.8511 62.2648 72.1976C61.3795 72.9016 60.1316 72.9016 59.2463 72.1976C56.345 69.8511 53.1132 67.9525 49.6573 66.5658C46.4361 65.2646 43.0229 64.4752 39.5563 64.2299C38.2977 64.1446 37.3164 63.0886 37.3164 61.83V38.7482C37.3271 37.4149 38.4044 36.3376 39.7377 36.3376C39.823 36.3376 39.8976 36.3376 39.983 36.3483C43.1615 36.6683 46.3187 37.5536 49.4653 39.0148C53.4758 40.8814 57.2517 43.484 60.7609 46.8332C64.2808 43.4947 68.046 40.8814 72.0565 39.0148C75.1924 37.5536 78.3602 36.6683 81.5388 36.3483C82.8614 36.2096 84.056 37.1696 84.1947 38.5029C84.184 38.5882 84.1947 38.6735 84.1947 38.7482Z" fill="white"/>
<path d="M46.7501 59.4092H52.9061V61.8032H44.0861V49.4372H46.7501V59.4092ZM54.7256 61.8032V49.4372H57.3716L61.2056 56.4212L65.0216 49.4372H67.6856V61.8032H65.0216V54.0992L61.2056 61.0832L57.3716 54.0992V61.8032H54.7256ZM74.9069 62.0192C72.7649 62.0192 70.8569 61.2992 69.4169 59.9672L70.9469 58.1492C72.1169 59.1572 73.4489 59.7692 75.0149 59.7692C76.3469 59.7692 77.0309 59.1572 77.0309 58.3832C77.0309 57.5012 76.3109 57.2312 74.4209 56.7992C71.8109 56.2052 69.9569 55.4672 69.9569 53.0732C69.9569 50.7872 71.8289 49.2212 74.5289 49.2212C76.5449 49.2212 78.1109 49.8512 79.3709 50.9312L77.9849 52.8392C76.8869 51.9572 75.6449 51.4712 74.4569 51.4712C73.3229 51.4712 72.6389 52.0652 72.6389 52.8032C72.6389 53.7032 73.3769 53.9912 75.2849 54.4232C77.9489 55.0172 79.7129 55.8092 79.7129 58.0952C79.7129 60.4532 77.9309 62.0192 74.9069 62.0192Z" fill="#2B3A92"/>
</g>
<path fill-rule="evenodd" clip-rule="evenodd" d="M44.0608 76.0059C37.5255 76.0059 37.3669 81.1947 37.3669 81.1947C37.3669 81.1947 37.288 85.8683 37.3275 90.859C37.3669 95.8498 43.8232 96.013 43.8232 96.013L47.0313 96.0005L52.7347 101.316L51.1106 96.0084C51.1106 96.0084 70.7164 96.04 77.6478 96.0005C84.5792 95.961 84.468 91.0176 84.468 91.0176C84.468 91.0176 84.4601 86.4625 84.4601 81.2342C84.4601 76.0059 77.6873 76.0059 77.6873 76.0059H44.0608Z" fill="white"/>
<path d="M71.3983 80.8913V85.7735H71.8668C72.6269 85.7735 73.1968 85.7064 73.5758 85.5656C73.9548 85.4254 74.2523 85.1727 74.4681 84.8081C74.684 84.4436 74.7939 83.9691 74.7939 83.3828C74.7939 82.5326 74.5945 81.9067 74.1964 81.5001C73.8009 81.0934 73.1612 80.8913 72.2774 80.8913H71.3983ZM71.3983 86.3572V89.483C71.3983 90.0865 71.4345 90.4649 71.5075 90.6195C71.5832 90.7768 71.7122 90.9031 71.8977 90.9953C72.0859 91.0881 72.4334 91.1354 72.9441 91.1354V91.4388H66.9616V91.1354C67.4775 91.1354 68.1007 91.0867 68.2863 90.9893C68.4679 90.8939 68.5975 90.7702 68.6732 90.6162C68.7463 90.4622 68.7825 90.0858 68.7825 89.4824V82.2496C68.7825 81.6461 68.7463 81.2678 68.6732 81.1105C68.5975 80.9532 68.4672 80.8315 68.2803 80.7374C68.0948 80.6439 67.4722 80.5972 66.9616 80.5972V80.2912H72.4163C73.766 80.2912 74.7511 80.3866 75.3763 80.5715C75.9995 80.7558 76.5101 81.1019 76.9056 81.604C77.2985 82.1035 77.4979 82.6925 77.4979 83.3663C77.4979 84.1882 77.2004 84.8674 76.6082 85.4063C76.2291 85.7459 75.702 86.0012 75.0229 86.1697L77.7025 89.9437C78.0533 90.432 78.3027 90.7347 78.4488 90.8558C78.6758 91.0269 78.9344 91.1196 79.2319 91.1361V91.4395H75.7218L72.13 86.3579H71.3983V86.3572ZM59.0582 87.6391L62.0853 80.2905L66.8793 80.2912V80.5972L66.2601 80.5965C65.933 80.5965 65.6678 80.6538 65.4717 80.7676C65.3355 80.8466 65.225 80.9756 65.1407 81.1552C65.0822 81.2868 65.0512 81.629 65.0512 82.1818V89.5298C65.0512 90.0996 65.0822 90.4557 65.1407 90.5985C65.2026 90.7419 65.3263 90.865 65.5112 90.9716C65.6994 91.0802 65.9462 91.1341 66.2601 91.1341H66.8787V91.4375H60.8008V91.1341H61.1627C61.4937 91.1341 61.755 91.0749 61.9537 90.9604C62.0886 90.8847 62.2005 90.7524 62.2821 90.5649C62.3413 90.4359 62.3722 90.0904 62.3722 89.5298V81.2704L58.0988 91.4388H57.8994L53.5588 81.3434V89.1941C53.5588 89.741 53.5726 90.0806 53.6009 90.2069C53.6713 90.4793 53.8279 90.7037 54.0668 90.8748C54.305 91.0486 54.6788 91.1361 55.1895 91.1361V91.4395H51.1825V91.1361H51.4885C51.7353 91.1361 51.9656 91.0992 52.1788 91.015C52.392 90.9308 52.5546 90.8156 52.6645 90.6755C52.7737 90.5327 52.8579 90.3306 52.9198 90.0753C52.931 90.0134 52.9369 89.7357 52.9369 89.2363V82.1825C52.9369 81.6185 52.906 81.2678 52.8474 81.1276C52.7855 80.9874 52.6625 80.863 52.4769 80.7571C52.2894 80.6498 52.0386 80.5972 51.728 80.5972H51.1838V80.2912H55.9285L59.0582 87.6391ZM45.0125 80.5965V80.2905H51.0996L51.0989 80.5972L50.5758 80.5965C50.2481 80.5965 49.9842 80.6538 49.7874 80.7676C49.6505 80.8466 49.5406 80.9756 49.459 81.1631C49.3972 81.2947 49.3662 81.6402 49.3662 82.1983V87.6556C49.3662 88.7243 49.2596 89.5021 49.0464 89.9871C48.8332 90.4728 48.4542 90.8768 47.9073 91.2052C47.3631 91.5303 46.7063 91.6935 45.9404 91.6935C45.0033 91.6935 44.2458 91.4467 43.6681 90.9525C43.087 90.4589 42.7981 89.9141 42.7981 89.3165C42.7981 88.9322 42.9159 88.6236 43.1515 88.3854C43.3871 88.1472 43.676 88.0261 44.0155 88.0261C44.3492 88.0261 44.6301 88.1327 44.8572 88.3459C45.0842 88.5617 45.1994 88.823 45.1994 89.1369C45.1994 89.2883 45.1796 89.4232 45.1408 89.5383C45.1211 89.5943 45.0342 89.7318 44.8828 89.9536C44.7315 90.1753 44.6584 90.3326 44.6584 90.428C44.6584 90.5682 44.7289 90.6919 44.8717 90.7952C45.0796 90.9499 45.3514 91.0282 45.6857 91.0282C45.9213 91.0282 46.1147 90.9663 46.2694 90.8459C46.4207 90.7255 46.5306 90.5373 46.5945 90.2819C46.6563 90.0292 46.6873 89.3198 46.6873 88.1577V82.1983C46.6873 81.629 46.6563 81.2724 46.5945 81.1296C46.53 80.9868 46.4063 80.863 46.224 80.7564C46.0391 80.6498 45.7916 80.5965 45.4804 80.5965H45.0125Z" fill="#1C7ABF"/>
<path d="M72.7436 98.2367H72.5094V98.6453H72.0263V98.2367H71.7921V99.3857H72.0263V98.8566H72.5094V99.3857H72.7436V98.2367ZM71.1998 98.9579C71.1932 98.975 71.1847 98.9941 71.1748 99.0158C71.1649 99.0369 71.1531 99.0586 71.1386 99.0797C71.1248 99.1014 71.107 99.1211 71.0866 99.1396C71.0662 99.158 71.0425 99.1725 71.0142 99.1836C70.9859 99.1948 70.9543 99.2001 70.9175 99.2007C70.8787 99.2007 70.8412 99.1935 70.8043 99.1784C70.7675 99.1632 70.7339 99.1402 70.7036 99.1093C70.674 99.0784 70.6497 99.0389 70.6325 98.9902C70.6148 98.9415 70.6056 98.8836 70.6049 98.8171C70.6056 98.7473 70.6141 98.6868 70.6312 98.6361C70.6483 98.5848 70.672 98.542 70.701 98.5085C70.7306 98.4749 70.7642 98.4499 70.8023 98.4334C70.8405 98.417 70.88 98.4084 70.9221 98.4084C70.9359 98.4084 70.9524 98.4098 70.9708 98.4124C70.9899 98.4157 71.0096 98.4216 71.0294 98.4302C71.0498 98.4387 71.0688 98.4519 71.0873 98.4683C71.1057 98.4848 71.1208 98.5071 71.1333 98.5341C71.1412 98.5512 71.1472 98.5677 71.1504 98.5835C71.1537 98.5993 71.157 98.6157 71.159 98.6315L71.3946 98.5684C71.39 98.5512 71.3827 98.5302 71.3735 98.5058C71.3643 98.4815 71.3525 98.4558 71.3373 98.4282C71.3222 98.4012 71.3025 98.3742 71.2794 98.3479C71.2564 98.3216 71.2274 98.2972 71.1939 98.2755C71.1603 98.2538 71.1202 98.2367 71.0748 98.2235C71.0287 98.211 70.9754 98.2038 70.9155 98.2038C70.8464 98.2038 70.7846 98.2123 70.7306 98.2294C70.676 98.2459 70.6286 98.2689 70.5878 98.2985C70.547 98.3282 70.5121 98.3624 70.4832 98.4012C70.4542 98.44 70.4312 98.4821 70.4134 98.5269C70.3956 98.5716 70.3825 98.6177 70.3746 98.6651C70.3667 98.7125 70.3621 98.7592 70.3621 98.8059C70.3621 98.8665 70.3687 98.9244 70.3805 98.9803C70.3924 99.0356 70.4101 99.0869 70.4325 99.1343C70.4555 99.1817 70.4832 99.2231 70.5148 99.2587C70.5338 99.2797 70.5569 99.2995 70.5832 99.3192C70.6095 99.3383 70.6391 99.3561 70.672 99.3712C70.7049 99.3863 70.7418 99.3988 70.7819 99.4074C70.8221 99.4166 70.8648 99.4205 70.9122 99.4212C70.9649 99.4212 71.0162 99.4146 71.0649 99.4015C71.1143 99.3883 71.1603 99.3672 71.2037 99.3383C71.2465 99.3093 71.286 99.2718 71.3209 99.2264C71.3558 99.1804 71.3847 99.1251 71.4091 99.0599L71.1998 98.9579ZM70.0298 99.1744H69.3809V98.8605H69.8396V98.6559H69.3809V98.4295H69.9942V98.2373H69.1466V99.3863H70.0298V99.1744ZM68.4991 98.4288H68.8242V98.2367H67.9424V98.4288H68.2648V99.3857H68.4991V98.4288ZM67.5028 98.798C67.5034 98.8625 67.4962 98.9191 67.4804 98.9691C67.4653 99.0185 67.4436 99.0599 67.4159 99.0941C67.3876 99.1277 67.3554 99.1534 67.3179 99.1711C67.2804 99.1882 67.2402 99.1975 67.1968 99.1975C67.1659 99.1975 67.1362 99.1929 67.1093 99.1836C67.0823 99.1751 67.0573 99.1626 67.0349 99.1468C67.0125 99.131 66.9934 99.1132 66.977 99.0928C66.9579 99.0685 66.9421 99.0415 66.9296 99.0106C66.9171 98.9796 66.9079 98.9481 66.9013 98.9152C66.8947 98.8822 66.8921 98.8493 66.8921 98.8178C66.8921 98.7789 66.8961 98.7401 66.904 98.7019C66.9118 98.6638 66.9237 98.6276 66.9401 98.5934C66.9559 98.5591 66.9763 98.5289 67.0013 98.5025C67.0257 98.4762 67.0546 98.4552 67.0882 98.4407C67.1218 98.4256 67.1593 98.4183 67.2014 98.4177C67.2481 98.4183 67.2902 98.4275 67.3284 98.4473C67.3659 98.4664 67.3975 98.4927 67.4232 98.5269C67.4462 98.5558 67.4653 98.5934 67.4798 98.6381C67.4936 98.6829 67.5015 98.7368 67.5028 98.798ZM67.7417 98.8178C67.7423 98.7408 67.7338 98.6697 67.7153 98.6059C67.6969 98.5414 67.6713 98.4848 67.6377 98.4348C67.6041 98.3848 67.5646 98.3426 67.5192 98.3084C67.4738 98.2742 67.4245 98.2479 67.3712 98.2301C67.3172 98.2123 67.2613 98.2031 67.2027 98.2031C67.1402 98.2031 67.0816 98.213 67.0257 98.2321C66.9704 98.2518 66.9191 98.2795 66.8737 98.315C66.8276 98.3512 66.7881 98.394 66.7546 98.4446C66.721 98.4946 66.6953 98.5512 66.6769 98.6131C66.6585 98.675 66.6493 98.7414 66.6493 98.8125C66.6493 98.879 66.6572 98.9421 66.6736 99.002C66.6894 99.0626 66.7131 99.1178 66.744 99.1678C66.775 99.2185 66.8125 99.2626 66.8566 99.2995C66.9013 99.3363 66.9513 99.3659 67.0079 99.3863C67.0645 99.4067 67.1264 99.4173 67.1948 99.4173C67.2534 99.4173 67.3073 99.4094 67.3574 99.3942C67.4067 99.3797 67.4515 99.3593 67.4909 99.3337C67.5304 99.3074 67.5646 99.2784 67.5936 99.2448C67.6219 99.2126 67.6469 99.1751 67.6693 99.1317C67.691 99.0882 67.7081 99.0402 67.7213 98.9875C67.7338 98.9356 67.7404 98.8783 67.7417 98.8178ZM65.7708 98.873H66.2196V98.6677H65.7708V98.4321H66.3499V98.2367H65.5345V99.3857H65.7701V98.873H65.7708ZM65.0443 98.2367H64.831V99.0178L64.3671 98.2367H64.1263V99.3857H64.3408V98.5947L64.8106 99.3857H65.0436V98.2367H65.0443ZM63.6327 98.2367H63.3984V99.3857H63.6327V98.2367Z" fill="white"/>
<path d="M72.0889 102.926C72.0889 102.995 72.0764 103.054 72.0514 103.103C72.0271 103.152 71.9909 103.191 71.9428 103.217C71.8948 103.243 71.8356 103.257 71.7651 103.258C71.6928 103.257 71.6283 103.245 71.5736 103.219C71.519 103.194 71.4723 103.159 71.4335 103.116C71.3947 103.072 71.3631 103.021 71.3374 102.966C71.3124 102.91 71.2927 102.851 71.2782 102.789C71.2637 102.727 71.2538 102.665 71.2479 102.604C71.242 102.542 71.2393 102.483 71.2393 102.428C71.2393 102.372 71.2426 102.313 71.2512 102.252C71.2591 102.19 71.2723 102.128 71.29 102.065C71.3078 102.003 71.3308 101.945 71.3598 101.888C71.3887 101.832 71.4243 101.783 71.4657 101.739C71.5072 101.695 71.5565 101.661 71.6125 101.636C71.6684 101.611 71.7329 101.598 71.8053 101.597C71.8961 101.598 71.9744 101.615 72.0402 101.648C72.1067 101.681 72.162 101.726 72.2067 101.784C72.2515 101.842 72.287 101.907 72.3133 101.98C72.3396 102.053 72.3574 102.13 72.3679 102.211H72.4114L72.5759 101.689C72.466 101.632 72.3396 101.588 72.1968 101.557C72.0534 101.527 71.8981 101.511 71.7303 101.511C71.6256 101.511 71.5236 101.524 71.4243 101.549C71.3256 101.574 71.2328 101.611 71.1472 101.661C71.0617 101.71 70.986 101.772 70.9208 101.845C70.8557 101.919 70.8044 102.004 70.7682 102.101C70.7313 102.198 70.7129 102.306 70.7122 102.427C70.7129 102.547 70.7313 102.656 70.7682 102.752C70.8044 102.849 70.8557 102.935 70.9208 103.008C70.986 103.082 71.061 103.143 71.1472 103.193C71.2334 103.243 71.3256 103.279 71.4243 103.304C71.5236 103.329 71.6256 103.342 71.7303 103.342C71.8184 103.342 71.9 103.337 71.9757 103.328C72.0521 103.319 72.1244 103.305 72.1929 103.287C72.2613 103.268 72.3284 103.246 72.3943 103.22C72.4601 103.193 72.5265 103.162 72.5943 103.127C72.5792 103.078 72.5693 103.03 72.566 102.981C72.5627 102.933 72.5614 102.885 72.5621 102.836C72.5614 102.753 72.566 102.684 72.5752 102.629C72.5844 102.573 72.6022 102.531 72.6285 102.502C72.6548 102.473 72.6924 102.457 72.7424 102.454V102.411C72.6897 102.411 72.6364 102.412 72.5811 102.413C72.5259 102.415 72.4719 102.417 72.4179 102.419C72.364 102.421 72.3133 102.421 72.2653 102.421C72.1949 102.421 72.1205 102.419 72.0428 102.416C71.9645 102.413 71.8862 102.411 71.8079 102.411V102.454C71.8639 102.461 71.9099 102.471 71.9461 102.483C71.9823 102.494 72.0113 102.511 72.0317 102.533C72.0521 102.554 72.0672 102.583 72.0757 102.621C72.0843 102.658 72.0883 102.707 72.0876 102.766V102.926H72.0889ZM68.5472 101.599C68.6005 101.611 68.6426 101.629 68.6736 101.656C68.7045 101.682 68.7269 101.715 68.7413 101.753C68.7558 101.791 68.7644 101.833 68.769 101.88C68.7723 101.927 68.7742 101.977 68.7736 102.03V102.714C68.7736 102.753 68.7703 102.794 68.7644 102.839C68.7578 102.883 68.7479 102.927 68.7341 102.971C68.7203 103.016 68.7018 103.057 68.6795 103.097C68.6571 103.135 68.6295 103.17 68.5972 103.197C68.565 103.225 68.5268 103.246 68.4834 103.258V103.301C68.5393 103.301 68.5939 103.299 68.6492 103.296C68.7038 103.293 68.7565 103.291 68.8071 103.291C68.8407 103.291 68.8762 103.291 68.9131 103.293C68.9506 103.295 68.9888 103.297 69.0269 103.299C69.0658 103.301 69.1039 103.301 69.1408 103.301V103.255C69.096 103.243 69.0579 103.224 69.0263 103.195C68.9947 103.168 68.969 103.134 68.9493 103.095C68.9295 103.056 68.9137 103.015 68.9032 102.97C68.8927 102.926 68.8848 102.882 68.8802 102.838C68.8762 102.794 68.8743 102.752 68.8743 102.714V101.881L70.2022 103.271C70.2108 103.28 70.22 103.291 70.2312 103.302C70.2417 103.312 70.2523 103.322 70.2628 103.331C70.2733 103.339 70.2832 103.343 70.2911 103.344H70.2963C70.3029 103.344 70.3102 103.342 70.3181 103.336C70.326 103.331 70.3325 103.322 70.3391 103.31C70.345 103.297 70.3477 103.28 70.3477 103.258V102.142C70.3477 102.103 70.351 102.062 70.3569 102.018C70.3635 101.973 70.3733 101.93 70.3872 101.885C70.401 101.841 70.4194 101.799 70.4418 101.76C70.4641 101.721 70.4918 101.687 70.524 101.659C70.5563 101.63 70.5944 101.61 70.6379 101.597V101.555C70.5819 101.555 70.5273 101.557 70.472 101.56C70.4174 101.563 70.3648 101.565 70.3148 101.565C70.2819 101.565 70.2463 101.565 70.2082 101.563C70.1707 101.561 70.1325 101.559 70.0943 101.557C70.0555 101.555 70.018 101.555 69.9805 101.555V101.601C70.0259 101.613 70.064 101.632 70.095 101.661C70.1266 101.688 70.1522 101.722 70.172 101.761C70.1917 101.799 70.2075 101.841 70.218 101.886C70.2292 101.93 70.2365 101.974 70.2411 102.018C70.245 102.062 70.2476 102.103 70.247 102.142V102.592L69.1829 101.555C69.1474 101.555 69.1118 101.556 69.0737 101.558C69.0361 101.56 68.9993 101.561 68.9631 101.563C68.9263 101.565 68.892 101.566 68.8591 101.566C68.8104 101.565 68.7591 101.564 68.7058 101.561C68.6525 101.557 68.5992 101.556 68.5465 101.555V101.599H68.5472ZM66.8718 102.428C66.8724 102.238 66.8928 102.081 66.933 101.959C66.9731 101.836 67.0304 101.746 67.1034 101.686C67.1765 101.628 67.2627 101.598 67.362 101.598C67.4614 101.597 67.5476 101.627 67.6213 101.686C67.6944 101.746 67.7509 101.836 67.7917 101.959C67.8319 102.081 67.8523 102.238 67.8529 102.428C67.8523 102.618 67.8319 102.774 67.7917 102.896C67.7509 103.02 67.695 103.11 67.6213 103.17C67.5483 103.228 67.4614 103.258 67.362 103.258C67.2627 103.258 67.1765 103.229 67.1034 103.17C67.0304 103.11 66.9731 103.02 66.933 102.896C66.8928 102.774 66.8718 102.618 66.8718 102.428ZM66.344 102.428C66.3447 102.548 66.3631 102.657 66.3999 102.754C66.4361 102.85 66.4875 102.936 66.5526 103.01C66.6178 103.083 66.6928 103.145 66.779 103.194C66.8652 103.244 66.9573 103.281 67.0567 103.306C67.1561 103.331 67.2581 103.343 67.3627 103.343C67.4673 103.343 67.5693 103.331 67.6687 103.306C67.7674 103.281 67.8602 103.244 67.9464 103.194C68.0319 103.145 68.1076 103.083 68.1728 103.01C68.2379 102.936 68.2892 102.851 68.3254 102.754C68.3623 102.657 68.3814 102.548 68.3814 102.428C68.3807 102.307 68.3623 102.199 68.3254 102.102C68.2892 102.005 68.2379 101.92 68.1728 101.846C68.1076 101.772 68.0326 101.711 67.9464 101.662C67.8602 101.612 67.7681 101.575 67.6687 101.55C67.5693 101.525 67.4673 101.513 67.3627 101.513C67.2581 101.513 67.1561 101.525 67.0567 101.55C66.958 101.575 66.8652 101.612 66.779 101.662C66.6934 101.711 66.6178 101.773 66.5526 101.846C66.4875 101.92 66.4361 102.005 66.3999 102.102C66.3631 102.199 66.344 102.307 66.344 102.428ZM65.0292 101.9C65.0285 101.841 65.0338 101.79 65.0437 101.749C65.0535 101.707 65.0706 101.674 65.095 101.649C65.1187 101.624 65.1522 101.608 65.1937 101.599V101.556C65.1213 101.557 65.0522 101.558 64.9864 101.561C64.9206 101.565 64.8574 101.566 64.7949 101.567C64.7337 101.566 64.6699 101.565 64.6034 101.561C64.5376 101.558 64.4685 101.557 64.3961 101.556V101.599C64.4382 101.608 64.4705 101.624 64.4935 101.649C64.5166 101.674 64.533 101.707 64.5422 101.749C64.5514 101.79 64.5554 101.841 64.5554 101.9V102.778C64.556 102.839 64.5541 102.897 64.5508 102.952C64.5475 103.007 64.5383 103.056 64.5245 103.1C64.51 103.143 64.4883 103.177 64.458 103.204C64.4277 103.23 64.3869 103.244 64.3349 103.247V103.301C64.3751 103.301 64.4152 103.301 64.454 103.299C64.4935 103.299 64.5323 103.297 64.5718 103.296C64.6093 103.295 64.6475 103.293 64.6844 103.293C64.7212 103.291 64.7574 103.291 64.7923 103.291C64.9153 103.291 65.0305 103.291 65.1391 103.293C65.247 103.293 65.3503 103.295 65.4477 103.296C65.5458 103.297 65.6399 103.299 65.7313 103.299C65.8222 103.301 65.913 103.301 66.0018 103.301L66.1986 102.695L66.1558 102.676C66.117 102.725 66.0735 102.775 66.0255 102.823C65.9775 102.873 65.9255 102.919 65.8702 102.962C65.8149 103.006 65.7563 103.045 65.6945 103.079C65.6333 103.114 65.5695 103.141 65.5037 103.16C65.4378 103.179 65.3707 103.189 65.3023 103.19C65.2345 103.191 65.1805 103.178 65.1404 103.154C65.1003 103.129 65.072 103.089 65.0549 103.034C65.0377 102.98 65.0292 102.908 65.0298 102.818V101.9H65.0292ZM63.0201 102.021L63.2649 102.509H62.7799L63.0201 102.021ZM63.3083 102.6L63.4406 102.854C63.4577 102.887 63.4735 102.919 63.4873 102.95C63.5005 102.983 63.5123 103.013 63.5202 103.041C63.5281 103.07 63.5321 103.094 63.5321 103.115C63.5321 103.148 63.5262 103.174 63.5137 103.191C63.5018 103.208 63.4847 103.22 63.4623 103.227C63.4406 103.235 63.4156 103.241 63.3867 103.247V103.301C63.4623 103.301 63.538 103.299 63.6124 103.296C63.6867 103.293 63.7578 103.291 63.8256 103.291C63.8717 103.291 63.921 103.291 63.9723 103.293C64.0243 103.295 64.0763 103.297 64.1296 103.299C64.1823 103.301 64.2336 103.301 64.2836 103.301V103.239C64.2632 103.236 64.2421 103.228 64.2217 103.217C64.2013 103.206 64.1796 103.189 64.1572 103.166C64.1349 103.144 64.1105 103.114 64.0842 103.075C64.0585 103.036 64.0296 102.988 63.998 102.93L63.2978 101.616C63.2919 101.604 63.2847 101.591 63.2748 101.575C63.2649 101.559 63.255 101.545 63.2452 101.533C63.2346 101.521 63.2267 101.514 63.2202 101.514H63.2149C63.2096 101.515 63.2024 101.52 63.1945 101.531C63.1866 101.542 63.178 101.555 63.1702 101.57C63.1623 101.584 63.1557 101.597 63.1498 101.609L62.5062 102.829C62.4588 102.917 62.4101 102.992 62.3607 103.052C62.3114 103.114 62.2653 103.162 62.2225 103.195C62.1798 103.229 62.1455 103.249 62.1186 103.254V103.302C62.1745 103.302 62.2291 103.301 62.2844 103.297C62.339 103.294 62.3917 103.293 62.4417 103.292C62.4752 103.292 62.5108 103.293 62.5483 103.295C62.5858 103.297 62.624 103.298 62.6621 103.3C62.701 103.302 62.7391 103.302 62.776 103.302V103.249C62.7352 103.241 62.6996 103.228 62.6694 103.212C62.6384 103.195 62.6147 103.172 62.5976 103.143C62.5805 103.114 62.572 103.077 62.5713 103.033C62.572 103.005 62.5779 102.972 62.5904 102.933C62.6022 102.894 62.618 102.854 62.6358 102.812L62.7385 102.602H63.3083V102.6ZM59.4837 102.767C59.4843 102.829 59.483 102.887 59.4791 102.942C59.4758 102.996 59.4679 103.046 59.456 103.089C59.4435 103.133 59.4251 103.167 59.3994 103.193C59.3738 103.22 59.3389 103.234 59.2948 103.237V103.291H60.1404V103.237C60.0976 103.234 60.0641 103.224 60.0391 103.204C60.0141 103.185 59.9956 103.156 59.9845 103.118C59.9726 103.08 59.9654 103.032 59.9621 102.974C59.9588 102.917 59.9575 102.848 59.9575 102.769V102.572C59.9568 102.523 59.9654 102.486 59.9831 102.461C60.0003 102.436 60.0272 102.424 60.0654 102.424C60.0996 102.425 60.1299 102.434 60.1556 102.454C60.1819 102.473 60.2043 102.497 60.2233 102.527C60.2431 102.556 60.2595 102.587 60.2747 102.619C60.2891 102.652 60.3023 102.681 60.3135 102.707L60.5583 103.27C60.5609 103.276 60.5655 103.281 60.5715 103.285C60.5774 103.289 60.584 103.291 60.5905 103.291H61.2289V103.267C61.1756 103.239 61.1269 103.199 61.0841 103.148C61.0407 103.097 60.9992 103.037 60.9591 102.969C60.9196 102.9 60.8781 102.827 60.8353 102.747C60.7873 102.659 60.7373 102.587 60.686 102.531C60.6346 102.475 60.58 102.433 60.5221 102.404C60.4642 102.374 60.4017 102.354 60.3345 102.342C60.2674 102.331 60.1937 102.326 60.1134 102.327V102.321L60.5958 101.925C60.6787 101.861 60.7649 101.802 60.8538 101.748C60.9426 101.694 61.0367 101.648 61.1341 101.61V101.556C61.0716 101.557 61.0091 101.558 60.9459 101.561C60.8827 101.565 60.8209 101.566 60.7597 101.567C60.6985 101.566 60.6366 101.565 60.5734 101.561C60.5103 101.558 60.4477 101.557 60.3852 101.556V101.605C60.4129 101.611 60.4365 101.618 60.4556 101.628C60.4747 101.638 60.4899 101.651 60.4997 101.667C60.5096 101.684 60.5142 101.705 60.5142 101.732C60.5135 101.744 60.5096 101.759 60.5024 101.778C60.4945 101.797 60.4839 101.817 60.4714 101.838C60.4589 101.859 60.4451 101.879 60.4306 101.898C60.4162 101.917 60.4017 101.932 60.3879 101.945L59.9568 102.338V101.901C59.9568 101.844 59.9588 101.797 59.9634 101.761C59.968 101.724 59.9759 101.695 59.9864 101.674C59.9976 101.653 60.0128 101.636 60.0312 101.626C60.0503 101.615 60.0733 101.606 60.1016 101.599V101.557C60.0358 101.557 59.9706 101.559 59.9062 101.562C59.8417 101.565 59.7791 101.567 59.7186 101.567C59.6574 101.567 59.5955 101.565 59.5324 101.562C59.4692 101.559 59.4067 101.557 59.3442 101.557V101.599C59.3698 101.602 59.3922 101.609 59.41 101.618C59.4277 101.627 59.4416 101.642 59.4521 101.663C59.4626 101.684 59.4699 101.714 59.4745 101.753C59.4791 101.791 59.481 101.84 59.481 101.901V102.767H59.4837ZM57.1265 101.599C57.1798 101.611 57.2219 101.629 57.2528 101.656C57.2838 101.682 57.3061 101.715 57.3206 101.753C57.3351 101.791 57.3436 101.833 57.3483 101.88C57.3515 101.927 57.3535 101.977 57.3529 102.03V102.714C57.3529 102.753 57.3496 102.794 57.3436 102.839C57.3371 102.883 57.3272 102.927 57.3134 102.971C57.2996 103.016 57.2811 103.057 57.2588 103.097C57.2364 103.135 57.2087 103.17 57.1765 103.197C57.1442 103.225 57.1061 103.246 57.0626 103.258V103.301C57.1186 103.301 57.1739 103.299 57.2285 103.296C57.2831 103.293 57.3357 103.291 57.3864 103.291C57.42 103.291 57.4555 103.291 57.493 103.293C57.5299 103.295 57.5687 103.297 57.6069 103.299C57.6457 103.301 57.6839 103.301 57.7207 103.301V103.255C57.676 103.243 57.6378 103.224 57.6062 103.195C57.5746 103.168 57.549 103.134 57.5292 103.095C57.5095 103.056 57.4937 103.015 57.4832 102.97C57.4726 102.926 57.4647 102.882 57.4601 102.838C57.4562 102.794 57.4542 102.752 57.4542 102.714V101.881L58.7822 103.271C58.7907 103.28 58.7999 103.291 58.8111 103.302C58.8217 103.312 58.8322 103.322 58.8427 103.331C58.8532 103.339 58.8631 103.343 58.871 103.344H58.8763C58.8829 103.344 58.8901 103.342 58.898 103.336C58.9059 103.331 58.9125 103.322 58.9184 103.31C58.9243 103.297 58.9269 103.28 58.9276 103.258V102.142C58.9276 102.103 58.9309 102.062 58.9368 102.018C58.9434 101.973 58.9533 101.93 58.9671 101.885C58.9809 101.841 58.9993 101.799 59.0217 101.76C59.0441 101.721 59.0724 101.687 59.104 101.659C59.1362 101.63 59.1744 101.61 59.2178 101.597V101.555C59.1619 101.555 59.1073 101.557 59.052 101.56C58.9974 101.563 58.9447 101.565 58.8947 101.565C58.8618 101.565 58.8263 101.565 58.7881 101.563C58.7506 101.561 58.7124 101.559 58.6743 101.557C58.6354 101.555 58.5979 101.555 58.5604 101.555V101.601C58.6058 101.613 58.644 101.632 58.6749 101.661C58.7065 101.688 58.7315 101.722 58.7519 101.761C58.7716 101.799 58.7874 101.841 58.798 101.886C58.8092 101.93 58.8164 101.974 58.821 102.018C58.8249 102.062 58.8276 102.103 58.8269 102.142V102.592L57.7628 101.555C57.7273 101.555 57.6911 101.556 57.6536 101.558C57.6161 101.56 57.5792 101.561 57.543 101.563C57.5062 101.565 57.472 101.566 57.4391 101.566C57.3904 101.565 57.339 101.564 57.2857 101.561C57.2324 101.557 57.1791 101.556 57.1265 101.555V101.599ZM55.788 102.021L56.0328 102.509H55.5478L55.788 102.021ZM56.0762 102.6L56.2085 102.854C56.2256 102.887 56.2414 102.919 56.2552 102.95C56.2684 102.983 56.2802 103.013 56.2881 103.041C56.296 103.07 56.3 103.094 56.3 103.115C56.3 103.148 56.294 103.174 56.2815 103.191C56.2697 103.208 56.2526 103.22 56.2302 103.227C56.2085 103.235 56.1835 103.241 56.1545 103.247V103.301C56.2302 103.301 56.3059 103.299 56.3802 103.296C56.4546 103.293 56.5257 103.291 56.5935 103.291C56.6395 103.291 56.6889 103.291 56.7402 103.293C56.7922 103.295 56.8442 103.297 56.8975 103.299C56.9501 103.301 57.0015 103.301 57.0515 103.301V103.239C57.0311 103.236 57.01 103.228 56.9896 103.217C56.9692 103.206 56.9475 103.189 56.9251 103.166C56.9027 103.144 56.8784 103.114 56.8521 103.075C56.8264 103.036 56.7975 102.988 56.7659 102.93L56.0657 101.616C56.0598 101.604 56.0525 101.591 56.0426 101.575C56.0328 101.559 56.0229 101.545 56.013 101.533C56.0025 101.521 55.9946 101.514 55.988 101.514H55.9828C55.9775 101.515 55.9709 101.52 55.9624 101.531C55.9545 101.542 55.9459 101.555 55.938 101.57C55.9301 101.584 55.9235 101.597 55.9176 101.609L55.274 102.829C55.2266 102.917 55.178 102.992 55.1286 103.052C55.0792 103.114 55.0332 103.162 54.9904 103.195C54.9476 103.229 54.9134 103.249 54.8864 103.254V103.302C54.9424 103.302 54.997 103.301 55.0523 103.297C55.1069 103.294 55.1595 103.293 55.2095 103.292C55.2431 103.292 55.2786 103.293 55.3161 103.295C55.3537 103.297 55.3918 103.298 55.43 103.3C55.4688 103.302 55.507 103.302 55.5438 103.302V103.249C55.503 103.241 55.4675 103.228 55.4372 103.212C55.4063 103.195 55.3826 103.172 55.3655 103.143C55.3484 103.114 55.3398 103.077 55.3392 103.033C55.3398 103.005 55.3458 102.972 55.3583 102.933C55.3701 102.894 55.3859 102.854 55.4037 102.812L55.5063 102.602H56.0762V102.6ZM53.0544 102.778C53.055 102.839 53.0537 102.897 53.0498 102.952C53.0465 103.007 53.0379 103.056 53.0254 103.1C53.0123 103.143 52.9925 103.177 52.9655 103.204C52.9379 103.23 52.901 103.244 52.855 103.247V103.301C52.8984 103.301 52.9412 103.301 52.984 103.299C53.0267 103.299 53.0695 103.297 53.111 103.296C53.1537 103.295 53.1965 103.293 53.238 103.293C53.2794 103.291 53.3196 103.291 53.3591 103.291H53.8789C53.9296 103.291 53.9869 103.29 54.05 103.287C54.1132 103.283 54.179 103.277 54.2468 103.268C54.3146 103.258 54.3804 103.243 54.4436 103.223C54.5074 103.203 54.5646 103.175 54.6153 103.142C54.6666 103.108 54.7074 103.065 54.737 103.014C54.7673 102.962 54.7831 102.9 54.7831 102.828C54.7825 102.767 54.7713 102.714 54.7502 102.667C54.7285 102.62 54.6989 102.58 54.6607 102.546C54.6232 102.512 54.5804 102.484 54.5317 102.461C54.483 102.438 54.4324 102.419 54.3784 102.405C54.3244 102.39 54.2705 102.38 54.2172 102.373C54.1632 102.365 54.1119 102.361 54.0638 102.359V102.354C54.1152 102.348 54.1685 102.341 54.2224 102.331C54.2757 102.321 54.3277 102.307 54.3771 102.29C54.4271 102.272 54.4712 102.248 54.5107 102.218C54.5502 102.188 54.5817 102.152 54.6048 102.106C54.6278 102.061 54.6397 102.006 54.6403 101.942C54.6397 101.883 54.6265 101.833 54.6015 101.792C54.5765 101.75 54.5423 101.716 54.4988 101.688C54.4561 101.661 54.408 101.638 54.3541 101.622C54.3001 101.606 54.2448 101.594 54.1882 101.586C54.1316 101.578 54.0757 101.573 54.0224 101.571C53.9691 101.569 53.9204 101.568 53.8783 101.568H53.2992C53.2696 101.568 53.2386 101.567 53.207 101.566C53.1755 101.565 53.1445 101.564 53.1129 101.563C53.082 101.561 53.0504 101.56 53.0188 101.559C52.9873 101.558 52.9557 101.557 52.9247 101.557V101.6C52.959 101.609 52.9866 101.626 53.005 101.651C53.0241 101.676 53.0366 101.709 53.0438 101.75C53.0511 101.792 53.0544 101.842 53.0544 101.901V102.778ZM53.5282 101.652H53.617C53.7072 101.653 53.7855 101.659 53.8526 101.669C53.9197 101.678 53.9744 101.695 54.0184 101.719C54.0625 101.743 54.0948 101.776 54.1158 101.819C54.1362 101.861 54.1468 101.915 54.1448 101.98C54.1441 102.054 54.129 102.113 54.0987 102.159C54.0691 102.204 54.029 102.238 53.9783 102.261C53.9283 102.285 53.8717 102.301 53.8092 102.309C53.7467 102.317 53.6828 102.321 53.6164 102.32H53.5275V101.652H53.5282ZM53.5282 102.406H53.644C53.7006 102.406 53.7592 102.408 53.8184 102.413C53.8783 102.417 53.9355 102.427 53.9915 102.442C54.0474 102.457 54.0974 102.478 54.1415 102.506C54.1862 102.535 54.2218 102.572 54.2474 102.619C54.2738 102.666 54.2869 102.725 54.2876 102.794C54.2869 102.885 54.2698 102.96 54.2349 103.021C54.2001 103.081 54.1501 103.127 54.0856 103.157C54.0211 103.188 53.9434 103.203 53.8546 103.203C53.7986 103.204 53.7519 103.201 53.7131 103.195C53.6749 103.19 53.6433 103.179 53.6197 103.164C53.5953 103.147 53.5769 103.123 53.5637 103.093C53.5506 103.061 53.5413 103.02 53.5367 102.969C53.5315 102.918 53.5295 102.854 53.5288 102.777V102.406H53.5282Z" fill="white"/>
<defs>
<clipPath id="clip0_24_321">
<rect width="54.6113" height="54.6113" fill="white" transform="translate(33.4446 18.1196)"/>
</clipPath>
</defs>
</svg>
