<svg width="61" height="60" viewBox="0 0 61 60" fill="none" xmlns="http://www.w3.org/2000/svg">
<rect x="0.0905762" width="60" height="60" rx="3.69863" fill="#2B3A92"/>
<g clip-path="url(#clip0_1287_8702)">
<path d="M35.1998 13.7065C35.1998 15.1198 34.7145 16.3037 33.7492 17.2744C32.7839 18.2397 31.5946 18.725 30.1813 18.725C28.7734 18.725 27.5841 18.2397 26.6188 17.2744C25.6535 16.3091 25.1682 15.1198 25.1682 13.7065C25.1682 12.2932 25.6535 11.1093 26.6188 10.1386C27.5841 9.16801 28.7787 8.69336 30.1867 8.69336C31.6 8.69336 32.7839 9.17868 33.7546 10.144C34.7252 11.1093 35.2052 12.2986 35.1998 13.7065Z" fill="white"/>
<path d="M41.813 19.0074V30.5483C41.813 31.183 41.3223 31.7056 40.693 31.7483C38.9597 31.8709 37.2531 32.2656 35.6425 32.9162C33.9146 33.6095 32.2986 34.5588 30.848 35.7321C30.4054 36.0841 29.7814 36.0841 29.3388 35.7321C27.8881 34.5588 26.2722 33.6095 24.5443 32.9162C22.9337 32.2656 21.2271 31.8709 19.4938 31.7483C18.8645 31.7056 18.3738 31.1776 18.3738 30.5483V19.0074C18.3792 18.3408 18.9178 17.8021 19.5844 17.8021C19.6271 17.8021 19.6644 17.8021 19.7071 17.8074C21.2964 17.9674 22.875 18.4101 24.4483 19.1407C26.4535 20.074 28.3415 21.3753 30.0961 23.0499C31.856 21.3806 33.7386 20.074 35.7439 19.1407C37.3118 18.4101 38.8957 17.9674 40.485 17.8074C41.1463 17.7381 41.7436 18.2181 41.813 18.8847C41.8076 18.9274 41.813 18.9701 41.813 19.0074Z" fill="white"/>
<path d="M23.2884 28.442H26.0993V29.5352H22.0719V23.8886H23.2884V28.442ZM26.9301 29.5352V23.8886H28.1383L29.889 27.0776L31.6315 23.8886H32.8479V29.5352H31.6315V26.0173L29.889 29.2064L28.1383 26.0173V29.5352H26.9301ZM36.1453 29.6338C35.1673 29.6338 34.296 29.305 33.6385 28.6968L34.3371 27.8667C34.8714 28.3269 35.4796 28.6064 36.1946 28.6064C36.8029 28.6064 37.1152 28.3269 37.1152 27.9735C37.1152 27.5708 36.7864 27.4475 35.9234 27.2502C34.7316 26.979 33.8851 26.642 33.8851 25.5489C33.8851 24.505 34.7399 23.79 35.9727 23.79C36.8933 23.79 37.6083 24.0776 38.1837 24.5708L37.5508 25.442C37.0494 25.0393 36.4823 24.8173 35.9399 24.8173C35.422 24.8173 35.1097 25.0886 35.1097 25.4256C35.1097 25.8365 35.4467 25.968 36.3179 26.1653C37.5344 26.4365 38.3399 26.7982 38.3399 27.842C38.3399 28.9187 37.5262 29.6338 36.1453 29.6338Z" fill="#2B3A92"/>
</g>
<path fill-rule="evenodd" clip-rule="evenodd" d="M21.746 37.6367C18.4784 37.6367 18.3991 40.2311 18.3991 40.2311C18.3991 40.2311 18.3596 42.5679 18.3794 45.0633C18.3991 47.5587 21.6272 47.6403 21.6272 47.6403L23.2313 47.634L26.083 50.2916L25.271 47.638C25.271 47.638 35.0738 47.6538 38.5395 47.634C42.0052 47.6143 41.9496 45.1426 41.9496 45.1426C41.9496 45.1426 41.9457 42.865 41.9457 40.2509C41.9457 37.6367 38.5593 37.6367 38.5593 37.6367H21.746Z" fill="white"/>
<path d="M35.4147 40.0797V42.5208H35.649C36.029 42.5208 36.314 42.4872 36.5035 42.4168C36.693 42.3467 36.8417 42.2204 36.9497 42.0381C37.0576 41.8558 37.1125 41.6186 37.1125 41.3254C37.1125 40.9003 37.0128 40.5874 36.8138 40.3841C36.616 40.1807 36.2962 40.0797 35.8543 40.0797H35.4147ZM35.4147 42.8126V44.3756C35.4147 44.6773 35.4328 44.8665 35.4693 44.9438C35.5072 45.0224 35.5717 45.0856 35.6645 45.1317C35.7586 45.1781 35.9323 45.2018 36.1876 45.2018V45.3534H33.1964V45.2018C33.4543 45.2018 33.7659 45.1774 33.8587 45.1287C33.9495 45.081 34.0144 45.0191 34.0522 44.9421C34.0887 44.8652 34.1068 44.6769 34.1068 44.3752V40.7588C34.1068 40.4571 34.0887 40.2679 34.0522 40.1893C34.0144 40.1106 33.9492 40.0498 33.8558 40.0027C33.763 39.956 33.4517 39.9326 33.1964 39.9326V39.7796H35.9237C36.5986 39.7796 37.0911 39.8273 37.4037 39.9198C37.7153 40.0119 37.9706 40.185 38.1684 40.436C38.3648 40.6858 38.4645 40.9803 38.4645 41.3172C38.4645 41.7282 38.3158 42.0677 38.0197 42.3372C37.8302 42.507 37.5666 42.6346 37.227 42.7189L38.5669 44.6059C38.7422 44.85 38.8669 45.0014 38.94 45.0619C39.0535 45.1475 39.1828 45.1939 39.3315 45.2021V45.3538H37.5765L35.7806 42.813H35.4147V42.8126ZM29.2447 43.4536L30.7583 39.7793L33.1553 39.7796V39.9326L32.8456 39.9323C32.6821 39.9323 32.5495 39.9609 32.4515 40.0178C32.3833 40.0573 32.3281 40.1218 32.286 40.2116C32.2567 40.2775 32.2412 40.4485 32.2412 40.7249V44.3989C32.2412 44.6839 32.2567 44.8619 32.286 44.9333C32.3169 45.005 32.3787 45.0665 32.4712 45.1198C32.5653 45.1741 32.6887 45.2011 32.8456 45.2011H33.1549V45.3528H30.116V45.2011H30.297C30.4625 45.2011 30.5931 45.1715 30.6924 45.1142C30.7599 45.0764 30.8158 45.0103 30.8566 44.9165C30.8862 44.852 30.9017 44.6792 30.9017 44.3989V40.2692L28.765 45.3534H28.6653L26.495 40.3057V44.2311C26.495 44.5045 26.5019 44.6743 26.516 44.7375C26.5512 44.8737 26.6296 44.9859 26.749 45.0715C26.8681 45.1583 27.055 45.2021 27.3103 45.2021V45.3538H25.3068V45.2021H25.4598C25.5832 45.2021 25.6984 45.1837 25.805 45.1415C25.9116 45.0994 25.9929 45.0418 26.0478 44.9718C26.1024 44.9004 26.1446 44.7993 26.1755 44.6717C26.1811 44.6408 26.184 44.5019 26.184 44.2522V40.7253C26.184 40.4433 26.1686 40.2679 26.1393 40.1978C26.1084 40.1277 26.0468 40.0656 25.954 40.0126C25.8603 39.9589 25.7349 39.9326 25.5796 39.9326H25.3075V39.7796H27.6798L29.2447 43.4536ZM22.2218 39.9323V39.7793H25.2654L25.2651 39.9326L25.0035 39.9323C24.8396 39.9323 24.7077 39.9609 24.6093 40.0178C24.5409 40.0573 24.4859 40.1218 24.4451 40.2156C24.4142 40.2814 24.3987 40.4541 24.3987 40.7332V43.4618C24.3987 43.9962 24.3454 44.3851 24.2388 44.6276C24.1322 44.8704 23.9427 45.0724 23.6692 45.2366C23.3971 45.3992 23.0688 45.4808 22.6858 45.4808C22.2172 45.4808 21.8385 45.3574 21.5496 45.1103C21.2591 44.8635 21.1146 44.5911 21.1146 44.2923C21.1146 44.1002 21.1735 43.9458 21.2913 43.8267C21.4091 43.7076 21.5536 43.6471 21.7233 43.6471C21.8902 43.6471 22.0307 43.7004 22.1442 43.807C22.2577 43.9149 22.3153 44.0455 22.3153 44.2025C22.3153 44.2782 22.3054 44.3456 22.286 44.4032C22.2761 44.4312 22.2327 44.4999 22.157 44.6108C22.0813 44.7217 22.0448 44.8003 22.0448 44.848C22.0448 44.9181 22.08 44.98 22.1514 45.0316C22.2554 45.109 22.3913 45.1481 22.5584 45.1481C22.6762 45.1481 22.773 45.1172 22.8503 45.057C22.926 44.9968 22.9809 44.9027 23.0128 44.775C23.0438 44.6486 23.0592 44.294 23.0592 43.7129V40.7332C23.0592 40.4485 23.0438 40.2702 23.0128 40.1988C22.9806 40.1274 22.9187 40.0656 22.8276 40.0123C22.7351 39.9589 22.6114 39.9323 22.4558 39.9323H22.2218Z" fill="#1C7ABF"/>
<path d="M36.0874 48.7512H35.9703V48.9555H35.7288V48.7512H35.6116V49.3256H35.7288V49.0611H35.9703V49.3256H36.0874V48.7512ZM35.3155 49.1118C35.3122 49.1203 35.3079 49.1299 35.303 49.1407C35.2981 49.1513 35.2921 49.1621 35.2849 49.1726C35.278 49.1835 35.2691 49.1934 35.2589 49.2026C35.2487 49.2118 35.2369 49.219 35.2227 49.2246C35.2086 49.2302 35.1928 49.2329 35.1743 49.2332C35.1549 49.2332 35.1362 49.2296 35.1177 49.222C35.0993 49.2144 35.0825 49.2029 35.0674 49.1875C35.0526 49.172 35.0404 49.1522 35.0319 49.1279C35.023 49.1036 35.0184 49.0746 35.018 49.0414C35.0184 49.0065 35.0227 48.9762 35.0312 48.9509C35.0398 48.9252 35.0516 48.9038 35.0661 48.887C35.0809 48.8703 35.0977 48.8578 35.1168 48.8495C35.1358 48.8413 35.1556 48.837 35.1766 48.837C35.1835 48.837 35.1918 48.8377 35.201 48.839C35.2105 48.8407 35.2204 48.8436 35.2303 48.8479C35.2405 48.8522 35.25 48.8587 35.2592 48.867C35.2684 48.8752 35.276 48.8864 35.2823 48.8999C35.2862 48.9084 35.2892 48.9167 35.2908 48.9246C35.2925 48.9325 35.2941 48.9407 35.2951 48.9486L35.4129 48.917C35.4106 48.9084 35.407 48.8979 35.4024 48.8857C35.3978 48.8736 35.3918 48.8607 35.3843 48.8469C35.3767 48.8334 35.3668 48.8199 35.3553 48.8068C35.3438 48.7936 35.3293 48.7814 35.3125 48.7706C35.2957 48.7597 35.2757 48.7512 35.253 48.7446C35.2299 48.7383 35.2033 48.7347 35.1733 48.7347C35.1388 48.7347 35.1079 48.739 35.0809 48.7475C35.0536 48.7558 35.0299 48.7673 35.0095 48.7821C34.9891 48.7969 34.9717 48.814 34.9572 48.8334C34.9427 48.8528 34.9312 48.8739 34.9223 48.8963C34.9134 48.9186 34.9068 48.9417 34.9029 48.9654C34.8989 48.989 34.8966 49.0124 34.8966 49.0358C34.8966 49.066 34.8999 49.095 34.9058 49.123C34.9118 49.1506 34.9207 49.1763 34.9318 49.2C34.9434 49.2236 34.9572 49.2444 34.973 49.2621C34.9825 49.2727 34.994 49.2825 35.0072 49.2924C35.0203 49.302 35.0352 49.3108 35.0516 49.3184C35.0681 49.326 35.0865 49.3322 35.1066 49.3365C35.1266 49.3411 35.148 49.3431 35.1717 49.3434C35.198 49.3434 35.2237 49.3401 35.248 49.3335C35.2727 49.327 35.2957 49.3164 35.3175 49.302C35.3389 49.2875 35.3586 49.2687 35.376 49.246C35.3935 49.223 35.4079 49.1954 35.4201 49.1628L35.3155 49.1118ZM34.7305 49.22H34.406V49.0631H34.6354V48.9607H34.406V48.8476H34.7127V48.7515H34.2889V49.326H34.7305V49.22ZM33.9651 48.8472H34.1277V48.7512H33.6868V48.8472H33.848V49.3256H33.9651V48.8472ZM33.467 49.0318C33.4673 49.0641 33.4637 49.0924 33.4558 49.1174C33.4482 49.142 33.4374 49.1628 33.4236 49.1799C33.4094 49.1967 33.3933 49.2095 33.3745 49.2184C33.3558 49.2269 33.3357 49.2315 33.314 49.2315C33.2985 49.2315 33.2837 49.2292 33.2702 49.2246C33.2567 49.2204 33.2442 49.2141 33.233 49.2062C33.2219 49.1983 33.2123 49.1894 33.2041 49.1792C33.1945 49.1671 33.1867 49.1536 33.1804 49.1381C33.1741 49.1226 33.1695 49.1068 33.1663 49.0904C33.163 49.0739 33.1616 49.0575 33.1616 49.0417C33.1616 49.0223 33.1636 49.0029 33.1676 48.9838C33.1715 48.9647 33.1774 48.9466 33.1857 48.9295C33.1936 48.9124 33.2038 48.8972 33.2163 48.8841C33.2284 48.8709 33.2429 48.8604 33.2597 48.8532C33.2765 48.8456 33.2952 48.842 33.3163 48.8416C33.3397 48.842 33.3607 48.8466 33.3798 48.8564C33.3985 48.866 33.4143 48.8791 33.4272 48.8963C33.4387 48.9107 33.4482 48.9295 33.4555 48.9519C33.4624 48.9742 33.4663 49.0012 33.467 49.0318ZM33.5864 49.0417C33.5868 49.0032 33.5825 48.9677 33.5733 48.9357C33.5641 48.9035 33.5512 48.8752 33.5344 48.8502C33.5177 48.8252 33.4979 48.8041 33.4752 48.787C33.4525 48.7699 33.4278 48.7567 33.4012 48.7479C33.3742 48.739 33.3462 48.7344 33.3169 48.7344C33.2857 48.7344 33.2564 48.7393 33.2284 48.7489C33.2008 48.7587 33.1751 48.7725 33.1524 48.7903C33.1294 48.8084 33.1097 48.8298 33.0929 48.8551C33.0761 48.8801 33.0633 48.9084 33.0541 48.9394C33.0448 48.9703 33.0402 49.0035 33.0402 49.0391C33.0402 49.0723 33.0442 49.1039 33.0524 49.1338C33.0603 49.1641 33.0721 49.1917 33.0876 49.2167C33.1031 49.2421 33.1218 49.2641 33.1439 49.2825C33.1663 49.301 33.1913 49.3158 33.2196 49.326C33.2479 49.3362 33.2788 49.3414 33.313 49.3414C33.3423 49.3414 33.3693 49.3375 33.3943 49.3299C33.4189 49.3227 33.4413 49.3125 33.4611 49.2997C33.4808 49.2865 33.4979 49.272 33.5124 49.2552C33.5265 49.2391 33.539 49.2204 33.5502 49.1986C33.5611 49.1769 33.5696 49.1529 33.5762 49.1266C33.5825 49.1006 33.5858 49.072 33.5864 49.0417ZM32.601 49.0693H32.8254V48.9667H32.601V48.8489H32.8905V48.7512H32.4829V49.3256H32.6006V49.0693H32.601ZM32.2377 48.7512H32.1311V49.1417L31.8991 48.7512H31.7787V49.3256H31.886V48.9301L32.1209 49.3256H32.2374V48.7512H32.2377ZM31.5319 48.7512H31.4148V49.3256H31.5319V48.7512Z" fill="white"/>
<path d="M35.7603 51.0971C35.7603 51.1313 35.754 51.1609 35.7415 51.1856C35.7293 51.2103 35.7112 51.2293 35.6872 51.2425C35.6632 51.2557 35.6336 51.2626 35.5984 51.2629C35.5622 51.2626 35.5299 51.2563 35.5026 51.2435C35.4753 51.231 35.452 51.2135 35.4325 51.1918C35.4131 51.1698 35.3973 51.1448 35.3845 51.1171C35.372 51.0892 35.3621 51.0596 35.3549 51.0286C35.3477 50.9977 35.3427 50.9668 35.3398 50.9358C35.3368 50.9049 35.3355 50.8756 35.3355 50.848C35.3355 50.82 35.3371 50.7907 35.3414 50.7598C35.3453 50.7289 35.3519 50.698 35.3608 50.6667C35.3697 50.6358 35.3812 50.6065 35.3957 50.5782C35.4102 50.5502 35.4279 50.5255 35.4487 50.5035C35.4694 50.4818 35.4941 50.4643 35.522 50.4518C35.55 50.4393 35.5823 50.4331 35.6184 50.4328C35.6639 50.4331 35.703 50.4416 35.7359 50.4581C35.7691 50.4745 35.7968 50.4972 35.8192 50.5262C35.8415 50.5548 35.8593 50.5877 35.8725 50.6242C35.8856 50.6608 35.8945 50.6993 35.8998 50.7397H35.9215L36.0037 50.4785C35.9488 50.4499 35.8856 50.4281 35.8142 50.4127C35.7425 50.3975 35.6648 50.3896 35.5809 50.3896C35.5286 50.3896 35.4776 50.3959 35.4279 50.4084C35.3786 50.4209 35.3322 50.4393 35.2894 50.4643C35.2466 50.489 35.2088 50.5199 35.1762 50.5565C35.1437 50.5933 35.118 50.6361 35.0999 50.6845C35.0815 50.7328 35.0723 50.7871 35.0719 50.8473C35.0723 50.9075 35.0815 50.9618 35.0999 51.0102C35.118 51.0586 35.1437 51.1013 35.1762 51.1382C35.2088 51.175 35.2463 51.2057 35.2894 51.2303C35.3325 51.2553 35.3786 51.2738 35.4279 51.2863C35.4776 51.2988 35.5286 51.305 35.5809 51.305C35.625 51.305 35.6658 51.3027 35.7037 51.2981C35.7418 51.2935 35.778 51.2866 35.8122 51.2774C35.8465 51.2682 35.88 51.257 35.9129 51.2438C35.9458 51.2303 35.9791 51.2149 36.013 51.1974C36.0054 51.1731 36.0005 51.1491 35.9988 51.1247C35.9972 51.1004 35.9965 51.0763 35.9968 51.052C35.9965 51.0105 35.9988 50.976 36.0034 50.9483C36.008 50.9207 36.0169 50.8996 36.0301 50.8852C36.0432 50.8707 36.062 50.8625 36.087 50.8608V50.8394C36.0607 50.8394 36.034 50.8401 36.0064 50.8408C35.9787 50.8417 35.9518 50.8424 35.9248 50.8434C35.8978 50.8444 35.8725 50.8447 35.8484 50.8447C35.8132 50.8444 35.7761 50.8434 35.7372 50.8421C35.6981 50.8404 35.6589 50.8394 35.6198 50.8394V50.8608C35.6477 50.8648 35.6708 50.8694 35.6889 50.8753C35.707 50.8812 35.7214 50.8894 35.7316 50.9003C35.7418 50.9112 35.7494 50.9256 35.7537 50.9444C35.758 50.9632 35.7599 50.9875 35.7596 51.0171V51.0971H35.7603ZM33.9894 50.4334C34.0161 50.4393 34.0371 50.4485 34.0526 50.462C34.068 50.4752 34.0792 50.4913 34.0865 50.5104C34.0937 50.5295 34.098 50.5505 34.1003 50.5742C34.1019 50.5976 34.1029 50.6226 34.1026 50.6489V50.9911C34.1026 51.0105 34.1009 51.0313 34.098 51.0533C34.0947 51.0754 34.0898 51.0977 34.0829 51.1198C34.0759 51.1418 34.0667 51.1625 34.0555 51.1823C34.0444 51.2017 34.0305 51.2188 34.0144 51.2326C33.9983 51.2468 33.9792 51.257 33.9575 51.2632V51.2846C33.9855 51.2843 34.0128 51.2836 34.0404 51.282C34.0677 51.2803 34.094 51.2797 34.1194 51.2794C34.1362 51.2794 34.1539 51.2797 34.1723 51.2807C34.1911 51.2817 34.2102 51.2823 34.2293 51.2833C34.2487 51.2843 34.2678 51.2846 34.2862 51.2846V51.2616C34.2638 51.2557 34.2447 51.2458 34.2289 51.2316C34.2131 51.2178 34.2003 51.201 34.1904 51.1816C34.1806 51.1622 34.1727 51.1415 34.1674 51.1191C34.1621 51.0971 34.1582 51.075 34.1559 51.053C34.1539 51.0309 34.1529 51.0102 34.1529 50.9908V50.5746L34.8169 51.2695C34.8212 51.2741 34.8258 51.2794 34.8314 51.2849C34.8367 51.2902 34.8419 51.2951 34.8472 51.2994C34.8525 51.3034 34.8574 51.3057 34.8613 51.306H34.864C34.8673 51.306 34.8709 51.305 34.8748 51.3021C34.8788 51.2994 34.8821 51.2951 34.8854 51.2889C34.8883 51.2826 34.8896 51.2741 34.8896 51.2629V50.7052C34.8896 50.6858 34.8913 50.665 34.8942 50.643C34.8975 50.6206 34.9025 50.5989 34.9094 50.5765C34.9163 50.5545 34.9255 50.5338 34.9367 50.514C34.9479 50.4946 34.9617 50.4775 34.9778 50.4634C34.9939 50.4492 35.013 50.439 35.0347 50.4328V50.4114C35.0068 50.4117 34.9795 50.4124 34.9518 50.414C34.9245 50.4156 34.8982 50.4163 34.8732 50.4166C34.8567 50.4166 34.839 50.4163 34.8199 50.4153C34.8011 50.4143 34.782 50.4137 34.763 50.4127C34.7436 50.4117 34.7248 50.4114 34.706 50.4114V50.4344C34.7287 50.4403 34.7478 50.4502 34.7633 50.4643C34.7791 50.4782 34.7919 50.4953 34.8018 50.5144C34.8117 50.5338 34.8196 50.5545 34.8248 50.5769C34.8304 50.5989 34.834 50.621 34.8363 50.643C34.8383 50.665 34.8396 50.6858 34.8393 50.7052V50.9303L34.3073 50.4117C34.2895 50.4117 34.2717 50.412 34.2526 50.413C34.2339 50.414 34.2155 50.4147 34.1974 50.4156C34.1789 50.4166 34.1618 50.417 34.1454 50.417C34.121 50.4166 34.0954 50.416 34.0687 50.4143C34.0421 50.4127 34.0154 50.412 33.9891 50.4117V50.4334H33.9894ZM33.1517 50.848C33.152 50.7532 33.1622 50.6746 33.1823 50.6134C33.2024 50.5522 33.231 50.5068 33.2675 50.4772C33.304 50.4479 33.3471 50.4331 33.3968 50.4331C33.4465 50.4328 33.4896 50.4476 33.5265 50.4772C33.563 50.5068 33.5913 50.5522 33.6117 50.6134C33.6317 50.6746 33.6419 50.7529 33.6423 50.848C33.6419 50.9431 33.6317 51.0211 33.6117 51.0823C33.5913 51.1438 33.5633 51.1892 33.5265 51.2188C33.4899 51.2481 33.4465 51.2629 33.3968 51.2629C33.3471 51.2632 33.304 51.2484 33.2675 51.2188C33.231 51.1892 33.2024 51.1438 33.1823 51.0823C33.1622 51.0211 33.1517 50.9431 33.1517 50.848ZM32.8878 50.848C32.8881 50.9082 32.8973 50.9625 32.9158 51.0109C32.9339 51.0592 32.9595 51.102 32.9921 51.1389C33.0247 51.1757 33.0622 51.2063 33.1053 51.231C33.1484 51.256 33.1945 51.2744 33.2441 51.2869C33.2938 51.2994 33.3448 51.3057 33.3971 51.3057C33.4495 51.3057 33.5005 51.2994 33.5501 51.2869C33.5995 51.2744 33.6459 51.256 33.689 51.231C33.7318 51.2063 33.7696 51.1757 33.8022 51.1389C33.8348 51.102 33.8604 51.0596 33.8785 51.0109C33.8969 50.9625 33.9065 50.9082 33.9065 50.848C33.9062 50.7878 33.8969 50.7335 33.8785 50.6851C33.8604 50.6368 33.8348 50.594 33.8022 50.5571C33.7696 50.5203 33.7321 50.4897 33.689 50.465C33.6459 50.44 33.5998 50.4216 33.5501 50.4091C33.5005 50.3966 33.4495 50.3903 33.3971 50.3903C33.3448 50.3903 33.2938 50.3966 33.2441 50.4091C33.1948 50.4216 33.1484 50.44 33.1053 50.465C33.0625 50.4897 33.0247 50.5206 32.9921 50.5571C32.9595 50.594 32.9339 50.6368 32.9158 50.6851C32.8973 50.7335 32.8878 50.7878 32.8878 50.848ZM32.2304 50.5841C32.2301 50.5545 32.2327 50.5292 32.2376 50.5084C32.2426 50.4877 32.2511 50.4709 32.2633 50.4587C32.2751 50.4462 32.2919 50.438 32.3127 50.4334V50.412C32.2765 50.4124 32.2419 50.413 32.209 50.4147C32.1761 50.4163 32.1445 50.417 32.1133 50.4173C32.0827 50.417 32.0507 50.4163 32.0175 50.4147C31.9846 50.413 31.9501 50.4124 31.9139 50.412V50.4334C31.9349 50.438 31.951 50.4462 31.9626 50.4587C31.9741 50.4712 31.9823 50.4877 31.9869 50.5084C31.9915 50.5292 31.9935 50.5545 31.9935 50.5841V51.023C31.9938 51.0536 31.9928 51.0826 31.9912 51.1102C31.9895 51.1375 31.9849 51.1622 31.978 51.1839C31.9708 51.2053 31.9599 51.2228 31.9448 51.2359C31.9297 51.2491 31.9093 51.256 31.8833 51.2576V51.2846C31.9033 51.2846 31.9234 51.2843 31.9428 51.2836C31.9626 51.2833 31.982 51.2826 32.0017 51.282C32.0205 51.2813 32.0396 51.2807 32.058 51.2803C32.0764 51.2797 32.0945 51.2794 32.1119 51.2794C32.1735 51.2794 32.2311 51.2797 32.2853 51.2803C32.3393 51.2807 32.391 51.2813 32.4397 51.282C32.4887 51.2826 32.5357 51.2833 32.5815 51.2836C32.6269 51.2843 32.6723 51.2846 32.7167 51.2846L32.8151 50.9816L32.7937 50.972C32.7743 50.9967 32.7526 51.0214 32.7286 51.0457C32.7045 51.0704 32.6785 51.0935 32.6509 51.1152C32.6233 51.1372 32.594 51.1566 32.5631 51.1737C32.5325 51.1908 32.5005 51.2043 32.4676 51.2139C32.4347 51.2237 32.4012 51.2287 32.3669 51.229C32.3331 51.2293 32.3061 51.2231 32.286 51.2109C32.2659 51.1984 32.2518 51.1787 32.2432 51.151C32.2347 51.124 32.2304 51.0879 32.2307 51.0431V50.5841H32.2304ZM31.2259 50.6446L31.3483 50.8885H31.1058L31.2259 50.6446ZM31.37 50.9342L31.4361 51.0609C31.4447 51.0773 31.4526 51.0934 31.4595 51.1092C31.4661 51.1254 31.472 51.1405 31.4759 51.1546C31.4799 51.1688 31.4818 51.181 31.4818 51.1915C31.4818 51.2083 31.4789 51.2208 31.4726 51.2293C31.4667 51.2379 31.4582 51.2438 31.447 51.2478C31.4361 51.2517 31.4236 51.2547 31.4091 51.2576V51.2846C31.447 51.2843 31.4848 51.2836 31.522 51.282C31.5592 51.2803 31.5947 51.2797 31.6286 51.2794C31.6516 51.2794 31.6763 51.2797 31.702 51.2807C31.728 51.2817 31.754 51.2823 31.7806 51.2833C31.8069 51.2843 31.8326 51.2846 31.8576 51.2846V51.2537C31.8474 51.252 31.8369 51.2481 31.8267 51.2425C31.8165 51.2372 31.8056 51.2287 31.7944 51.2172C31.7832 51.206 31.7711 51.1908 31.7579 51.1714C31.7451 51.152 31.7306 51.128 31.7148 51.099L31.3647 50.442C31.3618 50.436 31.3581 50.4295 31.3532 50.4216C31.3483 50.4137 31.3433 50.4064 31.3384 50.4005C31.3331 50.3946 31.3292 50.391 31.3259 50.391H31.3233C31.3206 50.3913 31.317 50.3939 31.3131 50.3995C31.3091 50.4051 31.3048 50.4114 31.3009 50.4189C31.2969 50.4262 31.2936 50.4328 31.2907 50.4383L30.9689 51.0484C30.9452 51.0925 30.9208 51.13 30.8962 51.1602C30.8715 51.1908 30.8485 51.2149 30.8271 51.2316C30.8057 51.2484 30.7886 51.2583 30.7751 51.2609V51.2853C30.8031 51.2849 30.8304 51.2843 30.858 51.2826C30.8853 51.281 30.9116 51.2803 30.9366 51.28C30.9534 51.28 30.9712 51.2803 30.9899 51.2813C31.0087 51.2823 31.0278 51.283 31.0469 51.284C31.0663 51.2849 31.0854 51.2853 31.1038 51.2853V51.2583C31.0834 51.2543 31.0656 51.2481 31.0505 51.2399C31.035 51.2316 31.0232 51.2201 31.0146 51.2057C31.0061 51.1912 31.0018 51.1727 31.0015 51.1504C31.0018 51.1366 31.0048 51.1201 31.011 51.1007C31.0169 51.0813 31.0248 51.0609 31.0337 51.0398L31.085 50.9349H31.37V50.9342ZM29.4576 51.0178C29.458 51.0484 29.4573 51.0773 29.4553 51.105C29.4537 51.1323 29.4497 51.157 29.4438 51.1787C29.4376 51.2004 29.4284 51.2175 29.4155 51.2307C29.4027 51.2438 29.3853 51.2511 29.3632 51.2524V51.2794H29.786V51.2524C29.7646 51.2511 29.7478 51.2458 29.7353 51.2359C29.7228 51.2264 29.7136 51.2119 29.708 51.1931C29.7021 51.1741 29.6985 51.15 29.6968 51.1211C29.6952 51.0925 29.6945 51.0579 29.6945 51.0184V50.92C29.6942 50.8957 29.6985 50.8773 29.7074 50.8648C29.7159 50.8523 29.7294 50.846 29.7485 50.846C29.7656 50.8463 29.7808 50.8513 29.7936 50.8608C29.8067 50.8704 29.8179 50.8825 29.8275 50.8973C29.8373 50.9122 29.8456 50.9276 29.8531 50.9437C29.8604 50.9599 29.867 50.9743 29.8726 50.9875L29.995 51.2688C29.9963 51.2721 29.9986 51.2747 30.0015 51.2767C30.0045 51.2787 30.0078 51.2797 30.0111 51.2797H30.3302V51.2675C30.3036 51.2534 30.2792 51.2333 30.2578 51.208C30.2361 51.1823 30.2154 51.1527 30.1953 51.1185C30.1756 51.0842 30.1549 51.0474 30.1335 51.0076C30.1095 50.9635 30.0844 50.9276 30.0588 50.8996C30.0331 50.8717 30.0058 50.8506 29.9769 50.8358C29.9479 50.821 29.9166 50.8108 29.8831 50.8052C29.8495 50.7996 29.8127 50.797 29.7725 50.7973V50.7947L30.0137 50.5966C30.0552 50.5647 30.0983 50.5351 30.1427 50.5081C30.1871 50.4811 30.2342 50.4581 30.2829 50.439V50.412C30.2516 50.4124 30.2203 50.413 30.1888 50.4147C30.1572 50.4163 30.1262 50.417 30.0956 50.4173C30.065 50.417 30.0341 50.4163 30.0025 50.4147C29.9709 50.413 29.9397 50.4124 29.9084 50.412V50.4364C29.9222 50.4393 29.9341 50.4433 29.9436 50.4482C29.9532 50.4528 29.9607 50.4594 29.9657 50.4676C29.9706 50.4759 29.9729 50.4864 29.9729 50.4999C29.9726 50.5061 29.9706 50.5137 29.967 50.5232C29.963 50.5328 29.9578 50.5426 29.9515 50.5532C29.9453 50.5634 29.9384 50.5736 29.9311 50.5828C29.9239 50.5923 29.9166 50.5999 29.9097 50.6065L29.6942 50.8029V50.5848C29.6942 50.5561 29.6952 50.5324 29.6975 50.5144C29.6998 50.4959 29.7038 50.4814 29.709 50.4709C29.7146 50.4604 29.7222 50.4522 29.7314 50.4469C29.7409 50.4413 29.7525 50.437 29.7666 50.4337V50.4124C29.7337 50.4127 29.7011 50.4133 29.6689 50.415C29.6366 50.4166 29.6054 50.4173 29.5751 50.4176C29.5445 50.4173 29.5136 50.4166 29.482 50.415C29.4504 50.4133 29.4191 50.4127 29.3879 50.4124V50.4337C29.4007 50.4351 29.4119 50.4383 29.4208 50.443C29.4297 50.4476 29.4366 50.4551 29.4418 50.4657C29.4471 50.4762 29.4507 50.491 29.453 50.5104C29.4553 50.5295 29.4563 50.5542 29.4563 50.5848V51.0178H29.4576ZM28.279 50.4334C28.3057 50.4393 28.3268 50.4485 28.3422 50.462C28.3577 50.4752 28.3689 50.4913 28.3761 50.5104C28.3833 50.5295 28.3876 50.5505 28.3899 50.5742C28.3916 50.5976 28.3926 50.6226 28.3922 50.6489V50.9911C28.3922 51.0105 28.3906 51.0313 28.3876 51.0533C28.3843 51.0754 28.3794 51.0977 28.3725 51.1198C28.3656 51.1418 28.3564 51.1625 28.3452 51.1823C28.334 51.2017 28.3202 51.2188 28.3041 51.2326C28.2879 51.2468 28.2688 51.257 28.2471 51.2632V51.2846C28.2751 51.2843 28.3027 51.2836 28.33 51.282C28.3574 51.2803 28.3837 51.2797 28.409 51.2794C28.4258 51.2794 28.4436 51.2797 28.4623 51.2807C28.4807 51.2817 28.5002 51.2823 28.5192 51.2833C28.5387 51.2843 28.5577 51.2846 28.5762 51.2846V51.2616C28.5538 51.2557 28.5347 51.2458 28.5189 51.2316C28.5031 51.2178 28.4903 51.201 28.4804 51.1816C28.4705 51.1622 28.4626 51.1415 28.4574 51.1191C28.4521 51.0971 28.4482 51.075 28.4459 51.053C28.4439 51.0309 28.4429 51.0102 28.4429 50.9908V50.5746L29.1069 51.2695C29.1112 51.2741 29.1158 51.2794 29.1214 51.2849C29.1266 51.2902 29.1319 51.2951 29.1372 51.2994C29.1424 51.3034 29.1474 51.3057 29.1513 51.306H29.1539C29.1572 51.306 29.1609 51.305 29.1648 51.3021C29.1688 51.2994 29.172 51.2951 29.175 51.2889C29.178 51.2826 29.1793 51.2741 29.1796 51.2629V50.7052C29.1796 50.6858 29.1813 50.665 29.1842 50.643C29.1875 50.6206 29.1924 50.5989 29.1994 50.5765C29.2063 50.5545 29.2155 50.5338 29.2267 50.514C29.2378 50.4946 29.252 50.4775 29.2678 50.4634C29.2839 50.4492 29.303 50.439 29.3247 50.4328V50.4114C29.2967 50.4117 29.2694 50.4124 29.2418 50.414C29.2145 50.4156 29.1882 50.4163 29.1632 50.4166C29.1467 50.4166 29.1289 50.4163 29.1099 50.4153C29.0911 50.4143 29.072 50.4137 29.0529 50.4127C29.0335 50.4117 29.0148 50.4114 28.996 50.4114V50.4344C29.0187 50.4403 29.0378 50.4502 29.0533 50.4643C29.0691 50.4782 29.0816 50.4953 29.0918 50.5144C29.1016 50.5338 29.1095 50.5545 29.1148 50.5769C29.1204 50.5989 29.124 50.621 29.1263 50.643C29.1283 50.665 29.1296 50.6858 29.1293 50.7052V50.9303L28.5972 50.4117C28.5795 50.4117 28.5614 50.412 28.5426 50.413C28.5238 50.414 28.5054 50.4147 28.4873 50.4156C28.4689 50.4166 28.4518 50.417 28.4353 50.417C28.411 50.4166 28.3853 50.416 28.3587 50.4143C28.332 50.4127 28.3054 50.412 28.279 50.4117V50.4334ZM27.6098 50.6446L27.7322 50.8885H27.4897L27.6098 50.6446ZM27.7539 50.9342L27.82 51.0609C27.8286 51.0773 27.8365 51.0934 27.8434 51.1092C27.85 51.1254 27.8559 51.1405 27.8599 51.1546C27.8638 51.1688 27.8658 51.181 27.8658 51.1915C27.8658 51.2083 27.8628 51.2208 27.8566 51.2293C27.8506 51.2379 27.8421 51.2438 27.8309 51.2478C27.82 51.2517 27.8075 51.2547 27.7931 51.2576V51.2846C27.8309 51.2843 27.8687 51.2836 27.9059 51.282C27.9431 51.2803 27.9786 51.2797 28.0125 51.2794C28.0356 51.2794 28.0602 51.2797 28.0859 51.2807C28.1119 51.2817 28.1379 51.2823 28.1645 51.2833C28.1909 51.2843 28.2165 51.2846 28.2415 51.2846V51.2537C28.2313 51.252 28.2208 51.2481 28.2106 51.2425C28.2004 51.2372 28.1895 51.2287 28.1784 51.2172C28.1672 51.206 28.155 51.1908 28.1418 51.1714C28.129 51.152 28.1145 51.128 28.0987 51.099L27.7486 50.442C27.7457 50.436 27.7421 50.4295 27.7371 50.4216C27.7322 50.4137 27.7273 50.4064 27.7223 50.4005C27.7171 50.3946 27.7131 50.391 27.7098 50.391H27.7072C27.7046 50.3913 27.7013 50.3939 27.697 50.3995C27.693 50.4051 27.6888 50.4114 27.6848 50.4189C27.6809 50.4262 27.6776 50.4328 27.6746 50.4383L27.3528 51.0484C27.3291 51.0925 27.3048 51.13 27.2801 51.1602C27.2554 51.1908 27.2324 51.2149 27.211 51.2316C27.1896 51.2484 27.1725 51.2583 27.159 51.2609V51.2853C27.187 51.2849 27.2143 51.2843 27.2419 51.2826C27.2692 51.281 27.2956 51.2803 27.3206 51.28C27.3374 51.28 27.3551 51.2803 27.3739 51.2813C27.3926 51.2823 27.4117 51.283 27.4308 51.284C27.4502 51.2849 27.4693 51.2853 27.4877 51.2853V51.2583C27.4673 51.2543 27.4496 51.2481 27.4344 51.2399C27.419 51.2316 27.4071 51.2201 27.3986 51.2057C27.39 51.1912 27.3857 51.1727 27.3854 51.1504C27.3857 51.1366 27.3887 51.1201 27.3949 51.1007C27.4009 51.0813 27.4088 51.0609 27.4176 51.0398L27.469 50.9349H27.7539V50.9342ZM26.243 51.023C26.2433 51.0536 26.2427 51.0826 26.2407 51.1102C26.239 51.1375 26.2348 51.1622 26.2285 51.1839C26.2219 51.2053 26.2121 51.2228 26.1986 51.2359C26.1848 51.2491 26.1663 51.256 26.1433 51.2576V51.2846C26.165 51.2846 26.1864 51.2843 26.2078 51.2836C26.2292 51.2833 26.2506 51.2826 26.2713 51.282C26.2927 51.2813 26.3141 51.2807 26.3348 51.2803C26.3555 51.2797 26.3756 51.2794 26.3953 51.2794H26.6553C26.6806 51.2797 26.7092 51.279 26.7408 51.2774C26.7724 51.2757 26.8053 51.2728 26.8392 51.2678C26.8731 51.2629 26.906 51.2553 26.9376 51.2455C26.9695 51.2356 26.9981 51.2218 27.0235 51.205C27.0491 51.1879 27.0695 51.1665 27.0843 51.1408C27.0995 51.1152 27.1074 51.0839 27.1074 51.048C27.107 51.0174 27.1014 50.9908 27.0909 50.9674C27.0801 50.9441 27.0652 50.924 27.0462 50.9072C27.0274 50.8901 27.006 50.876 26.9817 50.8644C26.9573 50.8529 26.932 50.8437 26.905 50.8365C26.878 50.8292 26.851 50.824 26.8244 50.8204C26.7974 50.8167 26.7717 50.8148 26.7477 50.8138V50.8111C26.7734 50.8082 26.8 50.8046 26.827 50.7996C26.8537 50.7947 26.8797 50.7878 26.9043 50.7789C26.9294 50.77 26.9514 50.7578 26.9711 50.743C26.9909 50.7282 27.0067 50.7098 27.0182 50.6871C27.0297 50.6644 27.0356 50.6371 27.036 50.6048C27.0356 50.5756 27.0291 50.5505 27.0165 50.5298C27.004 50.5091 26.9869 50.492 26.9652 50.4778C26.9438 50.4643 26.9198 50.4532 26.8928 50.4453C26.8659 50.437 26.8382 50.4311 26.8099 50.4272C26.7816 50.4232 26.7537 50.4206 26.727 50.4196C26.7003 50.4186 26.676 50.4179 26.6549 50.4179H26.3654C26.3506 50.4179 26.3351 50.4176 26.3193 50.417C26.3035 50.4166 26.2881 50.416 26.2723 50.4153C26.2568 50.4147 26.241 50.414 26.2252 50.4137C26.2094 50.413 26.1936 50.4127 26.1782 50.4127V50.4341C26.1953 50.4387 26.2091 50.4469 26.2183 50.4594C26.2279 50.4719 26.2341 50.4884 26.2377 50.5091C26.2413 50.5298 26.243 50.5552 26.243 50.5848V51.023ZM26.4799 50.4601H26.5243C26.5694 50.4604 26.6085 50.4634 26.6421 50.4683C26.6757 50.4732 26.703 50.4818 26.725 50.4936C26.7471 50.5055 26.7632 50.5219 26.7737 50.5433C26.7839 50.5644 26.7892 50.5917 26.7882 50.6242C26.7879 50.6611 26.7803 50.6907 26.7652 50.7134C26.7504 50.7358 26.7303 50.7529 26.705 50.7647C26.6799 50.7766 26.6517 50.7845 26.6204 50.7884C26.5891 50.7924 26.5572 50.7944 26.524 50.794H26.4796V50.4601H26.4799ZM26.4799 50.8371H26.5378C26.5661 50.8368 26.5954 50.8381 26.625 50.8404C26.6549 50.8427 26.6836 50.8477 26.7115 50.8549C26.7395 50.8625 26.7645 50.873 26.7866 50.8871C26.8089 50.9013 26.8267 50.92 26.8395 50.9437C26.8527 50.9671 26.8593 50.9964 26.8596 51.0309C26.8593 51.0763 26.8507 51.1142 26.8333 51.1444C26.8158 51.1747 26.7908 51.1974 26.7586 51.2126C26.7263 51.228 26.6875 51.2356 26.6431 51.2356C26.6151 51.2359 26.5918 51.2346 26.5724 51.2316C26.5533 51.229 26.5375 51.2237 26.5256 51.2159C26.5135 51.2076 26.5042 51.1958 26.4977 51.1803C26.4911 51.1645 26.4865 51.1438 26.4842 51.1185C26.4815 51.0928 26.4806 51.0609 26.4802 51.0227V50.8371H26.4799Z" fill="white"/>
<defs>
<clipPath id="clip0_1287_8702">
<rect width="27.3057" height="27.3057" fill="white" transform="translate(16.4379 8.69336)"/>
</clipPath>
</defs>
</svg>
