<svg width="20" height="13" viewBox="0 0 20 13" fill="none" xmlns="http://www.w3.org/2000/svg">
<path d="M19.0681 0.82716C18.6818 0.622652 18.2272 0.645322 17.8636 0.87266L14.1136 3.2589V2.91806C14.1136 1.4862 12.9546 0.327148 11.5227 0.327148H3.34091C1.90905 0.327148 0.75 1.4862 0.75 2.91806V9.73624C0.75 11.1681 1.90905 12.3271 3.34091 12.3271H11.5227C12.9546 12.3271 14.1136 11.1681 14.1136 9.73624V9.41807L17.8409 11.7816C18.0454 11.918 18.2499 11.9635 18.4773 11.9635C18.6818 11.9635 18.8863 11.918 19.0455 11.8271C19.4545 11.6226 19.6818 11.1908 19.6818 10.7589V1.8953C19.7045 1.4408 19.4545 1.03163 19.0681 0.82712L19.0681 0.82716ZM18.7044 10.7363C18.7044 10.8271 18.6589 10.8954 18.5681 10.9408C18.4999 10.9863 18.4317 10.9634 18.3636 10.9408L14.0909 8.23617V4.44072L18.3636 1.69064C18.4317 1.64514 18.4999 1.64514 18.5681 1.69064C18.6363 1.73614 18.6818 1.80431 18.6818 1.89515L18.7044 10.7363ZM13.1362 2.91807V9.73625C13.1362 10.6226 12.4089 11.35 11.5225 11.35H3.34071C2.45435 11.35 1.72699 10.6226 1.72699 9.73625L1.72715 2.91807C1.72715 2.03171 2.4545 1.30435 3.34087 1.30435H11.5227C12.4091 1.32718 13.1362 2.05435 13.1362 2.91807Z" fill="#002A7F"/>
</svg>
