<svg width="13" height="15" viewBox="0 0 13 15" fill="none" xmlns="http://www.w3.org/2000/svg">
<path fill-rule="evenodd" clip-rule="evenodd" d="M2.92147 6.86009L3.63188 7.60437C3.72435 7.70074 3.85198 7.75544 3.98547 7.75544C4.11895 7.75544 4.24658 7.70074 4.3384 7.60437L5.58212 6.30205C5.7677 6.1067 5.76054 5.7974 5.56584 5.61116C5.37049 5.42558 5.06119 5.43274 4.87495 5.62744L3.98547 6.55991L3.62863 6.18549C3.4424 5.99079 3.13309 5.98363 2.93774 6.16986C2.74305 6.35544 2.73588 6.6654 2.92147 6.86009Z" fill="#002A7F"/>
<path fill-rule="evenodd" clip-rule="evenodd" d="M2.92147 10.7673L3.63188 11.5116C3.72435 11.608 3.85198 11.6627 3.98547 11.6627C4.11895 11.6627 4.24658 11.608 4.3384 11.5116L5.58212 10.2093C5.7677 10.0139 5.76054 9.70462 5.56584 9.51839C5.37049 9.33281 5.06119 9.33997 4.87495 9.53467L3.98547 10.4671L3.62863 10.0927C3.4424 9.89802 3.13309 9.89085 2.93774 10.0771C2.74305 10.2627 2.73588 10.5726 2.92147 10.7673Z" fill="#002A7F"/>
<path fill-rule="evenodd" clip-rule="evenodd" d="M7.18198 7.10467H9.78663C10.0562 7.10467 10.275 6.88588 10.275 6.6163C10.275 6.34672 10.0562 6.12793 9.78663 6.12793H7.18198C6.91239 6.12793 6.6936 6.34672 6.6936 6.6163C6.6936 6.88588 6.91239 7.10467 7.18198 7.10467Z" fill="#002A7F"/>
<path fill-rule="evenodd" clip-rule="evenodd" d="M7.18198 11.0119H9.78663C10.0562 11.0119 10.275 10.7931 10.275 10.5235C10.275 10.2539 10.0562 10.0352 9.78663 10.0352H7.18198C6.91239 10.0352 6.6936 10.2539 6.6936 10.5235C6.6936 10.7931 6.91239 11.0119 7.18198 11.0119Z" fill="#002A7F"/>
<path fill-rule="evenodd" clip-rule="evenodd" d="M9.49901 1.76581L9.42152 1.5353C9.26655 1.06972 8.83092 0.755859 8.34059 0.755859H4.72143C4.2311 0.755859 3.79548 1.06972 3.6405 1.5353L3.56301 1.76581C3.48031 2.01456 3.43799 2.27567 3.43799 2.53809V2.54656C3.43799 2.8487 3.5578 3.13846 3.77203 3.35205C3.98562 3.56628 4.27538 3.68609 4.57752 3.68609H8.4845C8.78664 3.68609 9.07641 3.56628 9.28999 3.35205C9.50422 3.13846 9.62403 2.8487 9.62403 2.54656V2.53809C9.62403 2.27567 9.58171 2.01456 9.49901 1.76581ZM8.49492 1.84395L8.57241 2.07446C8.6219 2.22423 8.64729 2.38051 8.64729 2.53809V2.54656C8.64729 2.58953 8.63036 2.63121 8.59976 2.66181C8.56915 2.69242 8.52748 2.70935 8.4845 2.70935H4.57752C4.53455 2.70935 4.49287 2.69242 4.46227 2.66181C4.43166 2.63121 4.41473 2.58953 4.41473 2.54656V2.53809C4.41473 2.38051 4.44013 2.22423 4.48962 2.07446L4.5671 1.84395C4.58924 1.77753 4.6511 1.7326 4.72143 1.7326H8.34059C8.41092 1.7326 8.47278 1.77753 8.49492 1.84395Z" fill="#002A7F"/>
<path fill-rule="evenodd" clip-rule="evenodd" d="M3.92628 1.73242H2.62395C1.63483 1.73242 0.833252 2.534 0.833252 3.52312V12.965C0.833252 13.9541 1.63483 14.7557 2.62395 14.7557H10.4379C11.427 14.7557 12.2286 13.9541 12.2286 12.965V3.52312C12.2286 2.534 11.427 1.73242 10.4379 1.73242C9.78674 1.73242 9.13558 1.73242 9.13558 1.73242C8.866 1.73242 8.64721 1.95121 8.64721 2.22079C8.64721 2.49038 8.866 2.70917 9.13558 2.70917H10.4379C10.8872 2.70917 11.2519 3.07382 11.2519 3.52312V12.965C11.2519 13.4143 10.8872 13.7789 10.4379 13.7789H2.62395C2.17465 13.7789 1.81 13.4143 1.81 12.965V3.52312C1.81 3.07382 2.17465 2.70917 2.62395 2.70917H3.92628C4.19586 2.70917 4.41465 2.49038 4.41465 2.22079C4.41465 1.95121 4.19586 1.73242 3.92628 1.73242Z" fill="#002A7F"/>
</svg>
