<svg width="15" height="17" viewBox="0 0 15 17" fill="none" xmlns="http://www.w3.org/2000/svg">
<path d="M9.38543 13.0116V12.1377C9.39044 11.6406 9.62783 11.1745 10.0267 10.8779C11.0096 10.1223 11.6422 8.99921 11.779 7.76713C11.9157 6.53504 11.5446 5.30035 10.7513 4.34784C9.95815 3.39517 8.81098 2.8069 7.57455 2.71849C6.31252 2.62471 5.06919 3.06471 4.14712 3.93121C3.22473 4.7946 2.70029 6.00108 2.69839 7.26452C2.69389 8.68021 3.35173 10.0165 4.4764 10.8764C4.88854 11.187 5.13474 11.6701 5.14409 12.1862V13.0193C5.14409 13.4671 5.47076 13.9469 5.95728 13.9469H8.54747C9.04113 13.9469 9.38543 13.4539 9.38543 13.0117V13.0116ZM8.61028 13.0116C8.60492 13.073 8.57671 13.1303 8.53086 13.1716H5.97859C5.94225 13.1289 5.92132 13.0753 5.91924 13.019V12.1861C5.90938 11.4298 5.55157 10.72 4.94942 10.2624C4.01597 9.54868 3.46991 8.43943 3.47354 7.26439C3.47527 6.21568 3.91043 5.21442 4.67604 4.49791C5.43267 3.79386 6.44453 3.43034 7.47627 3.49177C8.50801 3.55337 9.46968 4.03473 10.1372 4.8237C10.8047 5.61284 11.1201 6.64077 11.0099 7.6684C10.8999 8.69615 10.3737 9.63395 9.55393 10.2634C8.96376 10.7064 8.61459 11.3996 8.61024 12.1376L8.61028 13.0116Z" fill="#002A7F"/>
<path d="M8.99599 14.7225C8.99599 14.5085 8.82244 14.335 8.60841 14.335H5.89575C5.68172 14.335 5.50818 14.5085 5.50818 14.7225C5.50818 14.9366 5.68172 15.1101 5.89575 15.1101H8.60841C8.82244 15.1101 8.99599 14.9366 8.99599 14.7225Z" fill="#002A7F"/>
<path d="M6.47742 15.4971C6.26339 15.4971 6.08984 15.6706 6.08984 15.8846C6.08984 16.0987 6.26339 16.2722 6.47742 16.2722H8.02736C8.24139 16.2722 8.41493 16.0987 8.41493 15.8846C8.41493 15.6706 8.24139 15.4971 8.02736 15.4971H6.47742Z" fill="#002A7F"/>
<path d="M7.63965 1.54456V0.76941C7.63965 0.55538 7.4661 0.381836 7.25208 0.381836C7.03805 0.381836 6.8645 0.55538 6.8645 0.76941V1.54456C6.8645 1.75859 7.03805 1.93213 7.25208 1.93213C7.4661 1.93213 7.63965 1.75859 7.63965 1.54456Z" fill="#002A7F"/>
<path d="M11.6514 3.48734L12.1997 2.93902V2.93919C12.3504 2.78762 12.35 2.54297 12.199 2.39176C12.0479 2.24071 11.8031 2.24054 11.6516 2.39107L11.1032 2.93939H11.1034C11.0306 3.01205 10.9897 3.11068 10.9897 3.21346C10.9897 3.31623 11.0306 3.41486 11.1032 3.48753C11.1759 3.56019 11.2745 3.60103 11.3773 3.60103C11.4801 3.60103 11.5787 3.56018 11.6514 3.48734Z" fill="#002A7F"/>
<path d="M13.1139 6.92285C12.8999 6.92285 12.7263 7.0964 12.7263 7.31043C12.7263 7.52445 12.8999 7.698 13.1139 7.698H13.889C14.1031 7.698 14.2766 7.52445 14.2766 7.31043C14.2766 7.0964 14.1031 6.92285 13.889 6.92285H13.1139Z" fill="#002A7F"/>
<path d="M11.7199 12.2571C11.8713 12.408 12.1163 12.4077 12.2675 12.2566C12.4185 12.1054 12.4189 11.8604 12.268 11.709L11.7197 11.1607V11.1609C11.5683 11.01 11.3233 11.0102 11.1723 11.1614C11.021 11.3124 11.0209 11.5574 11.1717 11.7088L11.7199 12.2571Z" fill="#002A7F"/>
<path d="M2.67573 12.439C2.77851 12.4392 2.87713 12.3984 2.9498 12.3255L3.49812 11.7772H3.49795C3.57096 11.7046 3.61197 11.6059 3.61197 11.5032C3.61214 11.4002 3.57131 11.3014 3.49846 11.2287C3.42579 11.1559 3.327 11.1151 3.22405 11.1152C3.12127 11.1152 3.02265 11.1562 2.94998 11.2293L2.40166 11.7776V11.7774C2.29093 11.8883 2.25771 12.0549 2.31775 12.1998C2.37761 12.3446 2.51897 12.439 2.67573 12.439Z" fill="#002A7F"/>
<path d="M0.711792 7.01855C0.497763 7.01855 0.324219 7.1921 0.324219 7.40613C0.324219 7.62016 0.497763 7.7937 0.711792 7.7937H1.48694C1.70097 7.7937 1.87451 7.62016 1.87451 7.40613C1.87451 7.1921 1.70097 7.01855 1.48694 7.01855H0.711792Z" fill="#002A7F"/>
<path d="M3.15592 3.6696C3.31251 3.66943 3.45387 3.57513 3.51391 3.43031C3.57377 3.28549 3.54072 3.11869 3.42982 3.00796L2.8815 2.45964H2.88167C2.73028 2.30877 2.48528 2.30911 2.33406 2.46016C2.18301 2.61138 2.18267 2.85638 2.33355 3.00777L2.88186 3.55609V3.55591C2.95436 3.62875 3.05297 3.6696 3.15592 3.6696Z" fill="#002A7F"/>
<path d="M7.88013 10.0439H6.79126C6.79451 9.74121 6.82056 9.4873 6.86938 9.28223C6.91821 9.07389 6.99959 8.88509 7.11353 8.71582C7.23071 8.54655 7.38534 8.36751 7.57739 8.17871C7.72713 8.03548 7.86222 7.90039 7.98267 7.77344C8.10311 7.64323 8.19914 7.50651 8.27075 7.36328C8.34237 7.2168 8.37817 7.04915 8.37817 6.86035C8.37817 6.65527 8.34399 6.48112 8.27563 6.33789C8.20728 6.19466 8.10636 6.08561 7.9729 6.01074C7.84269 5.93587 7.67993 5.89844 7.48462 5.89844C7.32186 5.89844 7.16886 5.93099 7.02563 5.99609C6.88241 6.05794 6.76685 6.1556 6.67896 6.28906C6.59106 6.41927 6.54386 6.5918 6.53735 6.80664H5.3606C5.36711 6.39648 5.46476 6.05143 5.65356 5.77148C5.84237 5.49154 6.09627 5.28158 6.41528 5.1416C6.73429 5.00163 7.09074 4.93164 7.48462 4.93164C7.92082 4.93164 8.29354 5.00651 8.60278 5.15625C8.91203 5.30273 9.14803 5.51758 9.31079 5.80078C9.47681 6.08073 9.55981 6.41927 9.55981 6.81641C9.55981 7.10286 9.50285 7.36328 9.38892 7.59766C9.27498 7.82878 9.12687 8.04525 8.94458 8.24707C8.76229 8.44564 8.56535 8.64421 8.35376 8.84277C8.17147 9.00879 8.04777 9.18945 7.98267 9.38477C7.91756 9.57682 7.88338 9.79655 7.88013 10.0439ZM6.6936 11.5674C6.6936 11.3916 6.75382 11.2435 6.87427 11.123C6.99471 10.9993 7.1591 10.9375 7.36743 10.9375C7.57576 10.9375 7.74015 10.9993 7.8606 11.123C7.98104 11.2435 8.04126 11.3916 8.04126 11.5674C8.04126 11.7432 7.98104 11.8929 7.8606 12.0166C7.74015 12.137 7.57576 12.1973 7.36743 12.1973C7.1591 12.1973 6.99471 12.137 6.87427 12.0166C6.75382 11.8929 6.6936 11.7432 6.6936 11.5674Z" fill="#002A7F"/>
</svg>
