<svg width="18" height="15" viewBox="0 0 18 15" fill="none" xmlns="http://www.w3.org/2000/svg">
<path d="M16.8753 2.75029H16.0676V0.59647C16.0676 0.521206 16.0361 0.449297 15.9806 0.398375C15.9254 0.346957 15.851 0.321496 15.7759 0.328205C13.6107 0.508788 11.5227 1.21721 9.69488 2.39173L9.07267 2.79202L9.06969 2.79313L8.79844 2.96838L8.52707 2.79326L8.52396 2.79202L7.90137 2.39134L7.90149 2.39147C6.99074 1.80798 6.01297 1.33653 4.98919 0.987554C3.96369 0.640296 2.89995 0.418975 1.82116 0.328202C1.74615 0.321992 1.67188 0.347452 1.61648 0.398372C1.56109 0.449418 1.52955 0.521203 1.52942 0.596467V2.75028H0.721653C0.572865 2.75028 0.452393 2.87088 0.452393 3.01954V14.0579C0.452393 14.1444 0.493999 14.2257 0.564169 14.2763C0.634463 14.3269 0.724632 14.3407 0.80685 14.3133C2.8746 13.6244 5.09083 13.5097 7.21851 13.9817L8.73968 14.3208C8.75856 14.3249 8.77793 14.3271 8.79731 14.3271H8.7993C8.81867 14.3271 8.83805 14.3249 8.85692 14.3208L10.3776 13.9817C12.5057 13.5094 14.722 13.6241 16.7899 14.3133C16.8721 14.3407 16.9624 14.3269 17.0326 14.2764C17.1027 14.2257 17.1443 14.1445 17.1443 14.0579V3.01954C17.1443 2.87088 17.0239 2.75028 16.8751 2.75028L16.8753 2.75029ZM9.98541 2.8453C11.6561 1.7716 13.5543 1.10306 15.5291 0.892804V11.1204C13.4516 11.3354 11.4534 12.0343 9.69481 13.1611L9.06773 13.5645V3.43578L9.98541 2.8453ZM2.06797 0.892931V0.892807C3.00343 0.993156 3.92508 1.19597 4.81631 1.49763C5.7987 1.83259 6.73714 2.28505 7.6111 2.84505L8.52942 3.43572L8.5293 13.5645L8.22762 13.3705L7.90211 13.1611H7.90186C6.14347 12.0343 4.14535 11.3352 2.06791 11.1203V0.892632L2.06797 0.892931ZM0.991063 13.6902V3.28896H1.52947V11.3657C1.52947 11.5057 1.63678 11.6223 1.77625 11.634C2.02936 11.6552 2.28149 11.6841 2.53273 11.7209C2.61532 11.7328 2.69692 11.75 2.77926 11.7636C2.94705 11.7913 3.11498 11.8184 3.28152 11.8527C3.38063 11.8732 3.4785 11.899 3.57711 11.9217C3.72552 11.956 3.87406 11.9892 4.02112 12.0287C4.12569 12.0567 4.22865 12.0899 4.33248 12.1207C4.47158 12.1619 4.61105 12.2022 4.7488 12.248C4.85523 12.2835 4.95993 12.3235 5.06537 12.3618C5.19814 12.4099 5.33103 12.4574 5.46217 12.5099C5.56861 12.5525 5.67343 12.5992 5.77862 12.6448C5.90592 12.6998 6.03335 12.7545 6.15879 12.8136C6.2641 12.8631 6.36744 12.9163 6.47139 12.9687C6.59385 13.0306 6.71618 13.0925 6.83677 13.1582C6.93973 13.2144 7.04083 13.2737 7.14217 13.3327C7.21334 13.3742 7.28388 13.4169 7.3543 13.4598L7.33567 13.4556V13.4558C5.23562 12.9898 3.05106 13.0706 0.991097 13.6902L0.991063 13.6902ZM16.6062 13.6902L16.6061 13.6901C14.5459 13.0707 12.3613 12.9901 10.2609 13.4558L10.2425 13.4599C10.3127 13.4172 10.3829 13.3746 10.4538 13.3332C10.5555 13.274 10.6571 13.2145 10.7603 13.1581C10.8807 13.0923 11.0031 13.0304 11.1254 12.9686C11.2293 12.9162 11.3326 12.8632 11.4378 12.8136C11.5635 12.7544 11.6912 12.6996 11.8186 12.6446C11.9237 12.5991 12.0282 12.5525 12.1346 12.5099C12.2658 12.4574 12.399 12.4098 12.5319 12.3615C12.6372 12.3234 12.7417 12.2833 12.8479 12.2479C12.9857 12.2021 13.125 12.1617 13.2642 12.1206C13.3681 12.0898 13.4712 12.0566 13.5759 12.0285C13.7228 11.9891 13.8713 11.9559 14.0196 11.9216C14.1182 11.8988 14.2161 11.8729 14.3153 11.8526C14.4819 11.8183 14.6498 11.7911 14.8176 11.7635C14.8999 11.75 14.9815 11.7327 15.0641 11.7208C15.3152 11.6844 15.5675 11.6555 15.8206 11.6338L15.821 11.634C15.9604 11.6222 16.0676 11.5056 16.0676 11.3656V3.28885H16.6062L16.6062 13.6902Z" fill="#002A7F"/>
</svg>
