<svg width="18" height="21" viewBox="0 0 18 21" fill="none" xmlns="http://www.w3.org/2000/svg">
<path d="M2.40983 8.21037V19.1668C2.40983 19.4349 2.51777 19.6795 2.69128 19.8561C2.8648 20.0327 3.10491 20.1426 3.36823 20.1426H5.99444V15.0367C5.99444 14.7134 6.12487 14.4193 6.33392 14.2056C6.54487 13.9916 6.83372 13.8588 7.15186 13.8588H11.0746C11.3922 13.8588 11.6818 13.9916 11.8914 14.2045C12.1023 14.4179 12.232 14.7127 12.232 15.0367V20.1426H14.8582C15.1228 20.1426 15.3624 20.0333 15.5352 19.8574C15.7093 19.6801 15.8166 19.4362 15.8166 19.1668V8.21036C11.3472 8.21036 6.87851 8.20977 2.40908 8.21036L2.40983 8.21037ZM6.61854 20.1428H11.6083V15.0369C11.6083 14.8883 11.5478 14.7523 11.451 14.6539C11.355 14.5553 11.2214 14.4943 11.0741 14.4943H7.15141C7.00473 14.4943 6.87068 14.5553 6.77451 14.6531C6.67847 14.7517 6.61855 14.8876 6.61855 15.0369L6.61854 20.1428ZM16.6575 7.57506L9.11323 1.4969L1.56973 7.57506H16.6571H16.6575ZM16.4416 8.20909V19.167C16.4416 19.6091 16.2637 20.012 15.9774 20.3043L15.9755 20.3062C15.6891 20.5972 15.2935 20.7783 14.8592 20.7783H3.36885C2.93331 20.7783 2.5371 20.5972 2.25075 20.3056C1.96437 20.014 1.7865 19.6112 1.7865 19.1672V8.21074H0.675198C0.502991 8.21074 0.363281 8.06849 0.363281 7.89315C0.363281 7.78133 0.420005 7.68353 0.505602 7.62696L8.92153 0.846171C9.03759 0.752811 9.19979 0.757836 9.3102 0.848682L17.7454 7.64459C17.8796 7.75258 17.9027 7.95214 17.7966 8.08863C17.7356 8.16736 17.6445 8.20873 17.5526 8.20873H16.4419L16.4416 8.20909Z" fill="white"/>
</svg>
