<svg width="22" height="21" viewBox="0 0 22 21" fill="none" xmlns="http://www.w3.org/2000/svg">
<path d="M13.2628 3.87575V0.547281H12.3643V0.136719H11.4658V0.547281H10.5673V0.136719H9.66883V0.547281H8.77034V3.87575H4.38836L0.148193 20.1367H21.901L17.6608 3.87575H13.2628ZM12.3643 0.972524V3.87575H11.4658V0.972524H12.3643ZM9.68461 0.972524H10.5831V3.87575H9.68461V0.972524ZM15.9739 16.8085L16.3837 19.3012H5.72781L6.13763 16.8085H15.9739ZM17.2979 19.3012L16.8881 16.8085H18.1964V15.9727H3.85258V16.8085H5.22391L4.81408 19.3012H1.28325L5.09784 4.71136H6.94209L6.80022 5.97234H5.19247V6.80815H16.8572V5.97234H15.2179L15.076 4.71136H16.9675L20.7821 19.3012H17.2979Z" fill="white"/>
</svg>
