<svg width="100" height="101" viewBox="0 0 100 101" fill="none" xmlns="http://www.w3.org/2000/svg">
<circle cx="50" cy="50.5" r="50" fill="#D9D9D9" fill-opacity="0.2"/>
<g clip-path="url(#clip0_30_1339)">
<path d="M45.6172 43.2173H49.8578L47.6155 39.6098L43.5001 46.1323H41.6272L46.6328 38.2973C46.8504 37.9808 47.2132 37.7896 47.6155 37.7896C48.0046 37.7896 48.3673 37.9742 48.5784 38.2842L53.6038 46.1323H51.7309L50.8472 44.6748H46.5538L45.6173 43.2173H45.6172ZM65.0725 44.6746V37.8686H63.4832V45.3408C63.4832 45.5453 63.5623 45.7432 63.7139 45.8949C63.8656 46.0465 64.07 46.1323 64.2943 46.1323H71.5422L72.4788 44.6748H65.0724L65.0725 44.6746ZM38.7781 43.4546C40.3214 43.4546 41.5745 42.2081 41.5745 40.6649C41.5745 39.1216 40.3214 37.8685 38.7781 37.8685H31.8249V46.1324H33.4138V39.3263H38.6727C39.4113 39.3263 40.0048 39.9265 40.0048 40.6652C40.0048 41.4037 39.4113 42.0038 38.6727 42.0038L34.192 41.9973L38.9364 46.1324H41.2447L38.0527 43.4548H38.7782L38.7781 43.4546ZM22.0446 46.1323C19.7634 46.1324 17.9121 44.2857 17.9121 42.0038C17.9121 39.7218 19.7634 37.8688 22.0446 37.8688H26.8478C29.1295 37.8688 30.9795 39.7218 30.9795 42.0038C30.9795 44.2857 29.1295 46.1323 26.8477 46.1323H22.0446ZM26.741 44.6748C28.2189 44.6748 29.4159 43.481 29.4159 42.0037C29.4159 40.5265 28.2189 39.3263 26.741 39.3263H22.1509C20.6735 39.3263 19.4759 40.5265 19.4759 42.0038C19.4759 43.481 20.6735 44.6748 22.1508 44.6748H26.7409H26.741ZM56.9211 46.1323C54.6394 46.1323 52.786 44.2857 52.786 42.0038C52.786 39.7218 54.6394 37.8688 56.9211 37.8688H62.626L61.6959 39.3263H57.0266C55.5493 39.3263 54.3491 40.5265 54.3491 42.0038C54.3491 43.481 55.5493 44.6748 57.0266 44.6748H62.7577L61.8211 46.1323H56.9211ZM76.3568 44.6748C75.1367 44.6748 74.1012 43.857 73.7848 42.7292H80.5776L81.514 41.2717H73.7848C74.1012 40.1505 75.1367 39.3263 76.3568 39.3263H81.0196L81.9624 37.8685H76.2511C73.9693 37.8685 72.1161 39.7217 72.1161 42.0036C72.1161 44.2856 73.9693 46.1321 76.2511 46.1321H81.1513L82.0877 44.6748H76.3567H76.3568Z" fill="#EA1B22"/>
</g>
<path d="M10 50.2417H90" stroke="black"/>
<path d="M21.8551 60.6538V53.3811H26.5142V54.4855H23.1725V56.4599H26.1946V57.5643H23.1725V60.6538H21.8551ZM28.9431 53.3811V60.6538H27.6576V53.3811H28.9431ZM32.6798 60.7603C32.1329 60.7603 31.6606 60.6467 31.2629 60.4194C30.8676 60.1898 30.5633 59.8655 30.3503 59.4464C30.1372 59.025 30.0307 58.529 30.0307 57.9585C30.0307 57.3974 30.1372 56.905 30.3503 56.4812C30.5657 56.0551 30.8664 55.7236 31.2523 55.4869C31.6381 55.2478 32.0915 55.1282 32.6123 55.1282C32.9485 55.1282 33.2658 55.1827 33.564 55.2916C33.8647 55.3981 34.1299 55.5638 34.3595 55.7888C34.5915 56.0137 34.7738 56.3001 34.9064 56.6481C35.039 56.9938 35.1052 57.4057 35.1052 57.8839V58.2781H30.6344V57.4116H33.873C33.8706 57.1654 33.8174 56.9464 33.7132 56.7547C33.609 56.5605 33.4634 56.4078 33.2764 56.2966C33.0917 56.1853 32.8763 56.1297 32.6301 56.1297C32.3673 56.1297 32.1365 56.1936 31.9376 56.3214C31.7388 56.4469 31.5837 56.6126 31.4724 56.8186C31.3635 57.0222 31.3079 57.2459 31.3055 57.4897V58.2461C31.3055 58.5634 31.3635 58.8356 31.4795 59.0629C31.5955 59.2878 31.7577 59.4606 31.966 59.5814C32.1744 59.6997 32.4182 59.7589 32.6976 59.7589C32.8846 59.7589 33.0539 59.7329 33.2054 59.6808C33.3569 59.6263 33.4883 59.547 33.5996 59.4429C33.7108 59.3387 33.7949 59.2097 33.8517 59.0558L35.052 59.1907C34.9762 59.508 34.8318 59.785 34.6187 60.0217C34.408 60.2561 34.1381 60.4384 33.8091 60.5686C33.48 60.6964 33.1036 60.7603 32.6798 60.7603ZM37.1267 55.1993L38.2276 57.2128L39.3462 55.1993H40.7063L39.0621 57.9265L40.7347 60.6538H39.3817L38.2276 58.69L37.0841 60.6538H35.7205L37.3824 57.9265L35.7631 55.1993H37.1267ZM43.8748 60.7603C43.3303 60.7603 42.8627 60.6408 42.4721 60.4017C42.0838 60.1626 41.7843 59.8323 41.5736 59.4109C41.3653 58.9871 41.2611 58.4995 41.2611 57.9478C41.2611 57.3939 41.3677 56.905 41.5807 56.4812C41.7938 56.0551 42.0945 55.7236 42.4827 55.4869C42.8734 55.2478 43.335 55.1282 43.8677 55.1282C44.3104 55.1282 44.7022 55.2099 45.0431 55.3733C45.3864 55.5343 45.6598 55.7627 45.8634 56.0586C46.067 56.3522 46.183 56.6955 46.2114 57.0885H44.9827C44.933 56.8257 44.8146 56.6067 44.6276 56.4315C44.443 56.254 44.1956 56.1652 43.8854 56.1652C43.6226 56.1652 43.3918 56.2362 43.193 56.3782C42.9941 56.5179 42.839 56.7191 42.7278 56.9819C42.6189 57.2447 42.5644 57.5596 42.5644 57.9265C42.5644 58.2982 42.6189 58.6178 42.7278 58.8853C42.8367 59.1505 42.9894 59.3553 43.1859 59.4997C43.3847 59.6417 43.6179 59.7128 43.8854 59.7128C44.0748 59.7128 44.2441 59.6772 44.3932 59.6062C44.5448 59.5328 44.6714 59.4275 44.7732 59.2902C44.875 59.1529 44.9448 58.986 44.9827 58.7895H46.2114C46.1806 59.1754 46.067 59.5174 45.8705 59.8157C45.674 60.1117 45.4065 60.3437 45.068 60.5118C44.7294 60.6775 44.3317 60.7603 43.8748 60.7603ZM50.7436 58.3598V55.1993H52.0291V60.6538H50.7826V59.6843H50.7258C50.6027 59.9897 50.4003 60.2395 50.1186 60.4336C49.8392 60.6278 49.4947 60.7248 49.0852 60.7248C48.7277 60.7248 48.4116 60.6455 48.137 60.4869C47.8648 60.3259 47.6517 60.0927 47.4978 59.7873C47.3439 59.4796 47.267 59.1079 47.267 58.6723V55.1993H48.5525V58.4734C48.5525 58.8191 48.6472 59.0937 48.8366 59.2973C49.026 59.5009 49.2746 59.6027 49.5823 59.6027C49.7717 59.6027 49.9552 59.5565 50.1328 59.4642C50.3103 59.3718 50.4559 59.2345 50.5696 59.0522C50.6856 58.8676 50.7436 58.6368 50.7436 58.3598ZM53.4078 60.6538V53.3811H54.6933V56.1013H54.7466C54.8129 55.9687 54.9064 55.8278 55.0271 55.6787C55.1479 55.5272 55.3112 55.3981 55.5172 55.2916C55.7231 55.1827 55.9859 55.1282 56.3055 55.1282C56.7269 55.1282 57.1069 55.236 57.4454 55.4514C57.7863 55.6645 58.0562 55.9805 58.2551 56.3995C58.4563 56.8162 58.5569 57.3276 58.5569 57.9336C58.5569 58.5326 58.4587 59.0416 58.2622 59.4606C58.0657 59.8797 57.7982 60.1993 57.4596 60.4194C57.1211 60.6396 56.7376 60.7497 56.3091 60.7497C55.9966 60.7497 55.7373 60.6976 55.5314 60.5934C55.3254 60.4893 55.1597 60.3638 55.0342 60.217C54.9111 60.0679 54.8152 59.927 54.7466 59.7944H54.672V60.6538H53.4078ZM54.6685 57.9265C54.6685 58.2793 54.7182 58.5882 54.8176 58.8534C54.9194 59.1185 55.065 59.3257 55.2544 59.4748C55.4461 59.6216 55.6782 59.695 55.9504 59.695C56.2345 59.695 56.4724 59.6192 56.6642 59.4677C56.856 59.3138 57.0004 59.1043 57.0974 58.8392C57.1969 58.5717 57.2466 58.2674 57.2466 57.9265C57.2466 57.588 57.198 57.2873 57.101 57.0245C57.0039 56.7618 56.8595 56.5558 56.6677 56.4066C56.476 56.2575 56.2369 56.1829 55.9504 56.1829C55.6758 56.1829 55.4426 56.2551 55.2508 56.3995C55.0591 56.544 54.9135 56.7464 54.814 57.0068C54.717 57.2672 54.6685 57.5738 54.6685 57.9265ZM62.0646 60.7603C61.5177 60.7603 61.0454 60.6467 60.6477 60.4194C60.2523 60.1898 59.9481 59.8655 59.735 59.4464C59.522 59.025 59.4154 58.529 59.4154 57.9585C59.4154 57.3974 59.522 56.905 59.735 56.4812C59.9505 56.0551 60.2511 55.7236 60.637 55.4869C61.0229 55.2478 61.4763 55.1282 61.9971 55.1282C62.3333 55.1282 62.6505 55.1827 62.9488 55.2916C63.2495 55.3981 63.5146 55.5638 63.7443 55.7888C63.9763 56.0137 64.1586 56.3001 64.2911 56.6481C64.4237 56.9938 64.49 57.4057 64.49 57.8839V58.2781H60.0191V57.4116H63.2578C63.2554 57.1654 63.2021 56.9464 63.098 56.7547C62.9938 56.5605 62.8482 56.4078 62.6612 56.2966C62.4765 56.1853 62.2611 56.1297 62.0149 56.1297C61.7521 56.1297 61.5213 56.1936 61.3224 56.3214C61.1235 56.4469 60.9685 56.6126 60.8572 56.8186C60.7483 57.0222 60.6927 57.2459 60.6903 57.4897V58.2461C60.6903 58.5634 60.7483 58.8356 60.8643 59.0629C60.9803 59.2878 61.1425 59.4606 61.3508 59.5814C61.5591 59.6997 61.803 59.7589 62.0823 59.7589C62.2694 59.7589 62.4386 59.7329 62.5901 59.6808C62.7417 59.6263 62.8731 59.547 62.9843 59.4429C63.0956 59.3387 63.1796 59.2097 63.2365 59.0558L64.4367 59.1907C64.361 59.508 64.2166 59.785 64.0035 60.0217C63.7928 60.2561 63.5229 60.4384 63.1938 60.5686C62.8648 60.6964 62.4883 60.7603 62.0646 60.7603ZM71.0019 53.3811V60.6538H69.6844V54.663H69.6418L67.9408 55.7497V54.5423L69.7484 53.3811H71.0019ZM72.7171 59.3044V58.2568L75.803 53.3811H76.6766V54.8726H76.1439L74.0665 58.1645V58.2213H78.3741V59.3044H72.7171ZM76.1866 60.6538V58.9848L76.2008 58.516V53.3811H77.4437V60.6538H76.1866Z" fill="black"/>
<defs>
<clipPath id="clip0_30_1339">
<rect width="64.2048" height="8.39799" fill="white" transform="translate(17.8975 37.7896)"/>
</clipPath>
</defs>
</svg>
