<svg width="19" height="21" viewBox="0 0 19 21" fill="none" xmlns="http://www.w3.org/2000/svg">
<path d="M9.2852 8.79053C8.17039 8.79053 7.10132 8.33473 6.31308 7.52327C5.52483 6.71182 5.08203 5.61128 5.08203 4.46372C5.08203 3.31616 5.52481 2.2156 6.31308 1.40417C7.10132 0.592732 8.17043 0.136719 9.2852 0.136719C10.4 0.136719 11.4691 0.592704 12.2573 1.40417C13.0456 2.2156 13.4884 3.31616 13.4884 4.46372C13.4873 5.61095 13.0442 6.71076 12.2561 7.522C11.4682 8.33325 10.3997 8.78945 9.2852 8.79053ZM9.2852 0.968384C8.38251 0.968384 7.51693 1.33762 6.87869 1.99451C6.2404 2.65157 5.88189 3.54275 5.88189 4.472C5.88189 5.40106 6.2404 6.29229 6.87869 6.9493C7.51698 7.60632 8.38251 7.97543 9.2852 7.97543C10.1879 7.97543 11.0535 7.60637 11.6917 6.9493C12.33 6.29223 12.6885 5.40106 12.6885 4.472C12.6896 3.54167 12.3316 2.64898 11.6934 1.99046C11.0553 1.33194 10.189 0.961232 9.2852 0.96015V0.968384Z" fill="white"/>
<path d="M16.7134 20.1368H2.2282C1.62383 20.1366 1.052 19.855 0.672416 19.3709C0.287128 18.8793 0.140032 18.234 0.272488 17.6172C0.737227 15.4624 1.90182 13.5352 3.5742 12.1542C5.24658 10.7728 7.32676 10.02 9.47074 10.02C11.6147 10.02 13.695 10.7728 15.3673 12.1542C17.0397 13.5354 18.2042 15.4626 18.669 17.6172C18.8015 18.234 18.6543 18.8793 18.2691 19.3709C17.8895 19.855 17.3176 20.1366 16.7133 20.1368H16.7134ZM9.47078 10.857C7.5158 10.8697 5.6222 11.5624 4.09758 12.8224C2.57306 14.0823 1.50678 15.8359 1.07225 17.798C0.990479 18.1687 1.07904 18.5575 1.31221 18.8521C1.53931 19.1426 1.88175 19.3121 2.24402 19.3132H16.7132C17.0756 19.3121 17.4181 19.1426 17.6452 18.8521C17.8783 18.5574 17.9669 18.1687 17.8851 17.798C17.4498 15.8331 16.3813 14.0776 14.8535 12.8173C13.3256 11.557 11.4284 10.8659 9.47074 10.857L9.47078 10.857Z" fill="white"/>
</svg>
