<svg width="21" height="21" viewBox="0 0 21 21" fill="none" xmlns="http://www.w3.org/2000/svg">
<path d="M7.60195 0.700195C3.50071 0.700195 0.165039 4.03577 0.165039 8.137C0.165039 12.2382 3.50066 15.5738 7.60195 15.5738C9.46929 15.5738 11.1757 14.8787 12.4822 13.7387L19.294 20.5504C19.4836 20.7456 19.8321 20.7518 20.0233 20.5585C20.2146 20.3651 20.2126 20.0086 20.0153 19.8211L13.2117 13.0176C14.3496 11.7113 15.0388 10.0028 15.0388 8.13745C15.0388 4.03626 11.7032 0.700643 7.60187 0.700643L7.60195 0.700195ZM7.60195 1.72587C11.1488 1.72587 14.0131 4.59009 14.0131 8.13691C14.0131 11.6837 11.1488 14.548 7.60195 14.548C4.05508 14.548 1.19082 11.6837 1.19082 8.13691C1.19082 4.59009 4.05508 1.72587 7.60195 1.72587Z" fill="white"/>
</svg>
