<?xml version="1.0" encoding="UTF-8"?>
<svg version="1.1" xmlns="http://www.w3.org/2000/svg" width="512" height="512">
<path d="M0 0 C1.3974719 1.18227185 2.77204955 2.39202817 4.125 3.625 C4.93195313 4.34042969 5.73890625 5.05585937 6.5703125 5.79296875 C21.36426405 19.65947074 30.47871231 38.70683422 31.33984375 59.03125 C31.9879876 82.72078821 24.80753694 102.76905437 8.5703125 120.22265625 C-3.03597561 131.625 -3.03597561 131.625 -6.875 131.625 C-6.875 132.285 -6.875 132.945 -6.875 133.625 C-6.05773437 133.71910156 -5.24046875 133.81320313 -4.3984375 133.91015625 C-0.12932692 134.77628401 3.53842419 136.28520451 7.5 138.0625 C8.67767944 138.59049194 8.67767944 138.59049194 9.87915039 139.12915039 C22.48120551 144.94324295 33.69716657 152.47635732 44.125 161.625 C44.97578125 162.34300781 45.8265625 163.06101563 46.703125 163.80078125 C55.79679006 171.65313314 66.0802242 182.22729141 70.90478516 193.43676758 C71.8192931 195.43952463 72.647638 196.98712035 74.125 198.625 C77.00975394 199.67379668 79.82514293 199.74024031 82.875 199.8125 C90.40684987 200.10749745 96.30177577 201.32580843 102.1484375 206.37109375 C102.59445312 206.92925781 103.04046875 207.48742187 103.5 208.0625 C103.96148437 208.61808594 104.42296875 209.17367187 104.8984375 209.74609375 C112.86141664 221.94416052 107.08037757 242.12841519 105.09765625 255.5546875 C104.78528613 257.72408579 104.47381425 259.89361359 104.16319275 262.06326294 C103.5151141 266.57395664 102.85980436 271.08351378 102.19848633 275.59228516 C101.34981631 281.37903523 100.51421329 287.16757527 99.68325138 292.95689201 C98.88842892 298.49014947 98.0869552 304.02243748 97.28515625 309.5546875 C97.13280077 310.61025723 96.98044529 311.66582695 96.82347298 312.75338364 C96.39391357 315.72139837 95.95959208 318.68867399 95.52368164 321.65576172 C95.39636658 322.53980682 95.26905151 323.42385193 95.13787842 324.33468628 C94.23975541 330.39548919 94.23975541 330.39548919 93.125 332.625 C93.70507812 332.63917969 94.28515625 332.65335937 94.8828125 332.66796875 C101.00499242 333.04176521 103.91518579 334.11448478 108.125 338.625 C111.60621667 344.00053027 111.61050854 348.80253356 111.5625 355 C111.58248047 355.9075 111.60246094 356.815 111.62304688 357.75 C111.61867584 363.81699754 110.7005452 368.61651018 107.125 373.625 C102.17882213 377.64376952 98.3295668 378.74760971 92.09208965 378.75642776 C91.07129084 378.76026891 90.05049203 378.76411005 88.99875993 378.7680676 C87.31916388 378.76676787 87.31916388 378.76676787 85.6056366 378.76544189 C84.41476057 378.76841302 83.22388454 378.77138414 81.99692136 378.7744453 C78.69019756 378.78162534 75.38352571 378.78430459 72.07679784 378.78504276 C68.51091453 378.78689415 64.94504246 378.79444188 61.37916565 378.80117798 C53.58166208 378.81475795 45.78416366 378.82078538 37.98665023 378.82518864 C33.11807061 378.8279514 28.24949297 378.8321888 23.38091469 378.83669281 C9.90159193 378.84888461 -3.57772923 378.85918438 -17.05705738 378.8625679 C-17.91969845 378.86278747 -18.78233952 378.86300703 -19.67112122 378.86323325 C-20.53582542 378.86345153 -21.40052962 378.86366981 -22.29143697 378.8638947 C-24.04365655 378.86433817 -25.79587613 378.86478473 -27.5480957 378.86523438 C-28.8518377 378.86556652 -28.8518377 378.86556652 -30.18191793 378.86590537 C-44.26751972 378.86985395 -58.35306979 378.8873102 -72.4386516 378.9105939 C-86.89958279 378.93430517 -101.36048802 378.94676964 -115.82143897 378.94793582 C-123.94096836 378.94885266 -132.06043035 378.95460734 -140.17994118 378.97275543 C-147.09335963 378.98815334 -154.00668985 378.9932787 -160.92012218 378.98501733 C-164.44707277 378.98110982 -167.97384565 378.98204521 -171.50077438 378.99607468 C-175.32548825 379.01114951 -179.14995184 379.00295011 -182.97468567 378.99249268 C-184.64424347 379.00457728 -184.64424347 379.00457728 -186.34752971 379.01690602 C-193.90564147 378.96848515 -199.08334343 378.35461976 -204.6875 372.875 C-210.18760963 364.70340855 -209.98147396 354.28243997 -208.41015625 344.828125 C-206.91244234 339.54624637 -204.71127593 336.49094129 -199.875 333.625 C-197.57666016 333.2109375 -197.57666016 333.2109375 -195.1640625 333 C-193.9567749 332.88785156 -193.9567749 332.88785156 -192.72509766 332.7734375 C-192.11456543 332.72445313 -191.5040332 332.67546875 -190.875 332.625 C-190.96606018 332.07322083 -191.05712036 331.52144165 -191.15093994 330.95294189 C-194.28765445 311.85337487 -197.11758501 292.71231264 -199.87646484 273.55517578 C-200.37747622 270.07946579 -200.88394674 266.60461567 -201.39501953 263.13037109 C-202.02381756 258.85572836 -202.64346986 254.57985111 -203.25675201 250.30295563 C-203.48806838 248.69999665 -203.72241687 247.09747168 -203.9601059 245.49544525 C-208.02175468 218.06172211 -208.02175468 218.06172211 -201.875 209.625 C-198.18651239 205.23869041 -193.55782632 201.19507616 -187.7331543 200.29345703 C-186.22780975 200.21939941 -184.72149284 200.16321616 -183.21484375 200.1237793 C-175.76494161 200.00632302 -175.76494161 200.00632302 -169.5 196.515625 C-167.76274163 193.62576252 -166.33619128 190.66293596 -164.875 187.625 C-147.91143973 162.59108922 -123.97280152 145.14074455 -95.875 134.625 C-94.20650102 133.9629325 -92.53905066 133.29816983 -90.875 132.625 C-92.12603516 131.71621094 -92.12603516 131.71621094 -93.40234375 130.7890625 C-112.62137345 116.58892385 -124.59667667 98.25605667 -128.375 74.47265625 C-131.02186037 54.10423856 -125.76000491 33.38240156 -113.875 16.625 C-101.19852582 0.59983232 -83.84262008 -11.84183434 -63.30566406 -15.09375 C-40.3877053 -17.74556684 -18.74809239 -13.96204768 0 0 Z " fill="#010101" transform="translate(208.875,85.375)"/>
<path d="M0 0 C2.97249482 1.37288956 4.6862614 0.71269575 7.84375 -0.1484375 C9.45691802 -0.87887547 11.05999167 -1.63174979 12.65625 -2.3984375 C44.17167451 -17.23175463 80.59127055 -14.93858162 113.65625 -7.2109375 C114.70538574 -6.97036621 115.75452148 -6.72979492 116.83544922 -6.48193359 C126.21866354 -4.15351206 126.21866354 -4.15351206 129.84375 -0.1484375 C131.06645124 3.3161865 130.97489835 6.71335252 130.98419189 10.35969543 C130.98716302 11.01154255 130.99013414 11.66338967 130.9931953 12.33498973 C131.00186096 14.51736623 131.00338873 16.69968774 131.00488281 18.88208008 C131.00951248 20.44764828 131.01453734 22.01321536 131.01992798 23.57878113 C131.03303925 27.83094435 131.0394944 32.0830918 131.04393864 36.33527207 C131.04687128 38.99272451 131.05097645 41.65017264 131.05544281 44.30762291 C131.06911409 52.62474415 131.07878268 60.94185555 131.0826447 69.25898725 C131.08712536 78.85523517 131.10467515 88.45134064 131.1336453 98.04754525 C131.15526981 105.46848365 131.16534939 112.88938199 131.16668582 120.31035155 C131.16773325 124.74107859 131.17362795 129.17167166 131.19150543 133.60236549 C131.20799955 137.77123192 131.21013516 141.93986385 131.20136642 146.1087513 C131.20059678 147.63613768 131.20492923 149.16353674 131.21482468 150.69089127 C131.22757289 152.78169767 131.22165275 154.87167709 131.21124268 156.96247864 C131.21270924 158.13072583 131.2141758 159.29897303 131.2156868 160.50262165 C130.76505747 164.56011469 129.70001317 167.22261403 127.84375 170.8515625 C121.52311341 174.01188079 113.14543676 171.18037347 106.71875 169.4765625 C75.55763722 161.76472808 41.2343271 161.13457892 12.53125 177.2265625 C7.88602539 179.53929135 3.93059294 179.9576859 -1.15625 178.8515625 C-4.62242179 177.46152235 -7.93238901 175.75291975 -11.26098633 174.06518555 C-16.80254859 171.31779038 -22.29057423 169.4382272 -28.28125 167.9140625 C-29.45288696 167.61592651 -29.45288696 167.61592651 -30.64819336 167.31176758 C-54.58577899 161.50082259 -80.26366148 164.33675839 -103.82836914 170.56347656 C-108.85291428 171.86139194 -113.00071647 172.53896697 -118.15625 171.8515625 C-121.18840675 169.65324886 -121.97279398 168.40193056 -123.15625 164.8515625 C-123.25452315 162.69420404 -123.29127251 160.53388689 -123.29669189 158.3742981 C-123.29966302 157.71372717 -123.30263414 157.05315624 -123.3056953 156.37256801 C-123.31438045 154.15477866 -123.31589038 151.9370433 -123.31738281 149.71923828 C-123.32201108 148.13086837 -123.32703575 146.54249958 -123.33242798 144.95413208 C-123.34555221 140.63593033 -123.35199685 136.31774413 -123.35643864 131.99952555 C-123.359369 129.30239432 -123.36347372 126.60526736 -123.36794281 123.90813828 C-123.38161709 115.47141608 -123.39128439 107.0347036 -123.3951447 98.59797108 C-123.39962703 88.85510276 -123.41718332 79.11237461 -123.4461453 69.36954892 C-123.46774977 61.84080725 -123.4778483 54.31210505 -123.47918582 46.78333271 C-123.48023463 42.28558584 -123.48615867 37.78797076 -123.50400543 33.2902565 C-123.52046506 29.05985234 -123.52265194 24.82967934 -123.51386642 20.59925461 C-123.51309495 19.04684074 -123.51745337 17.49441454 -123.52732468 15.94203186 C-123.54001469 13.8220099 -123.53418427 11.70281034 -123.52374268 9.58279419 C-123.52520924 8.3966559 -123.5266758 7.21051762 -123.5281868 5.98843575 C-123.1134569 2.49065028 -122.28689044 0.634595 -120.15625 -2.1484375 C-86.77778957 -19.95028307 -33.00801328 -17.5803549 0 0 Z " fill="#000001" transform="translate(381.15625,61.1484375)"/>
<path d="M0 0 C0.95795674 -0.00843994 1.91591348 -0.01687988 2.90289921 -0.02557558 C3.95755204 -0.01956553 5.01220487 -0.01355549 6.09881687 -0.00736332 C7.21745123 -0.01274886 8.33608559 -0.01813439 9.48861796 -0.02368313 C13.25662671 -0.03805047 17.02428849 -0.03083724 20.79231358 -0.023736 C23.48575049 -0.02943498 26.17916204 -0.03629616 28.87259007 -0.04453373 C35.44086888 -0.06175357 42.00905216 -0.06255516 48.57734769 -0.05732083 C53.91478092 -0.05328374 59.25218586 -0.05471717 64.58961773 -0.06006908 C65.72794916 -0.06119172 65.72794916 -0.06119172 66.88927718 -0.06233703 C68.43082766 -0.06386847 69.97237813 -0.06540681 71.5139286 -0.066952 C85.97920008 -0.0806886 100.44441751 -0.07523125 114.90968776 -0.06376678 C128.15029472 -0.0538335 141.39076195 -0.06677462 154.63134735 -0.09070098 C168.21874531 -0.11506951 181.80607814 -0.12470537 195.39349753 -0.11804825 C203.02502731 -0.11455098 210.65644961 -0.11682145 218.28796291 -0.13429928 C224.78467993 -0.14899327 231.28121378 -0.14969367 237.77792709 -0.13222837 C241.09393856 -0.12369251 244.40955359 -0.12378369 247.72556019 -0.13687992 C251.31733329 -0.14998569 254.90820642 -0.13863391 258.49993992 -0.12088871 C259.55236203 -0.13049372 260.60478413 -0.14009872 261.68909782 -0.14999479 C268.69746438 -0.07838883 268.69746438 -0.07838883 272.02467537 2.21526432 C273.98945972 5.39406979 273.62964588 7.60258137 273.29451084 11.29950619 C273.20431549 12.34445358 273.20431549 12.34445358 273.11229801 13.41051102 C272.23383917 22.87039628 270.82856101 32.27533413 269.45662022 41.67328548 C269.16846777 43.6786082 268.88083924 45.68400627 268.59370518 47.68947506 C267.99566696 51.85757129 267.39361677 56.02505885 266.78816319 60.19208431 C266.01279625 65.52858385 265.24420673 70.86603024 264.478158 76.20387459 C263.7438939 81.31897852 263.00679131 86.43367192 262.26912022 91.54828548 C262.12935261 92.51835222 261.989585 93.48841896 261.84558201 94.48788166 C261.4498902 97.22984043 261.05223566 99.97150669 260.65388584 102.71308041 C260.53749256 103.52088451 260.42109928 104.32868862 260.30117893 105.16097164 C259.75120241 108.93153711 259.11072778 112.64102889 258.36287022 116.38031673 C175.53287022 116.38031673 92.70287022 116.38031673 7.36287022 116.38031673 C4.98790817 102.13054449 2.62784487 87.90808087 0.56599522 73.61469173 C0.44830532 72.80217197 0.33061543 71.98965221 0.20935917 71.15251064 C-0.40953929 66.87908919 -1.02546403 62.60525301 -1.63859463 58.33100033 C-2.26525795 53.9665435 -2.90237342 49.60367652 -3.54171276 45.24106121 C-4.03984527 41.82896962 -4.5303684 38.4158144 -5.0188818 35.00233364 C-5.25049465 33.39301043 -5.48486039 31.78408054 -5.72223568 30.17559719 C-8.69784563 9.9682222 -8.69784563 9.9682222 -7.63712978 3.38031673 C-5.3438122 0.36672084 -3.71175403 0.00460759 0 0 Z " fill="#B3D1D6" transform="translate(27.63712978363037,301.61968326568604)"/>
<path d="M0 0 C1.02957825 -0.00409378 1.02957825 -0.00409378 2.07995605 -0.00827026 C18.11269268 -0.01775791 33.50641452 2.54847863 49.0625 6.4375 C49.0625 53.6275 49.0625 100.8175 49.0625 149.4375 C38.94792544 148.31365838 38.94792544 148.31365838 35.08984375 147.71875 C34.25259766 147.59113281 33.41535156 147.46351563 32.55273438 147.33203125 C31.71033203 147.20183594 30.86792969 147.07164062 30 146.9375 C26.68883443 146.42808991 23.37654767 145.92780503 20.0625 145.4375 C18.78503906 145.24671875 17.50757813 145.0559375 16.19140625 144.859375 C1.19805651 143.05814665 -14.31395242 143.73851047 -28.9375 147.4375 C-29.91517334 147.67823242 -29.91517334 147.67823242 -30.91259766 147.92382812 C-38.38278452 149.77189764 -45.6252864 152.00009547 -52.9375 154.4375 C-52.9375 107.9075 -52.9375 61.3775 -52.9375 13.4375 C-34.74925312 4.34337656 -20.04222586 0.00693774 0 0 Z " fill="#40A1F0" transform="translate(445.9375,64.5625)"/>
<path d="M0 0 C0.61560791 0.21132568 1.23121582 0.42265137 1.86547852 0.64038086 C5.05626656 2.0331316 8.03580017 3.87034563 11.05859375 5.59765625 C11.05859375 52.12765625 11.05859375 98.65765625 11.05859375 146.59765625 C1.05859375 143.59765625 1.05859375 143.59765625 -2.0234375 142.53515625 C-28.12422759 133.57351158 -57.30203297 134.70332634 -83.80297852 141.21728516 C-85.94140625 141.59765625 -85.94140625 141.59765625 -90.94140625 141.59765625 C-90.94140625 94.40765625 -90.94140625 47.21765625 -90.94140625 -1.40234375 C-59.11406406 -8.10283684 -31.0654919 -10.6799809 0 0 Z " fill="#61B1F0" transform="translate(365.94140625,72.40234375)"/>
<path d="M0 0 C17.43514462 -0.69740578 32.80526123 5.23254081 46.0859375 16.5390625 C56.70873715 26.61797481 65.60484744 41.48834141 66.0390625 56.40625 C66.04432862 58.30468734 66.03889244 60.20318076 66.0234375 62.1015625 C66.03503906 63.51501953 66.03503906 63.51501953 66.046875 64.95703125 C66.00543853 79.93631467 60.87628944 92.40136232 51.7734375 104.2265625 C51.0309375 105.2578125 50.2884375 106.2890625 49.5234375 107.3515625 C37.76529425 119.64416681 22.10728338 126.31164169 5.30078125 127.46484375 C-12.6785888 127.83656087 -28.15834152 121.69797156 -41.18432617 109.34765625 C-52.5136033 98.19596597 -60.21175005 83.50959277 -60.59936523 67.40258789 C-60.60607032 60.1901554 -60.30887806 53.17554698 -58.2265625 46.2265625 C-57.97003906 45.35 -57.71351562 44.4734375 -57.44921875 43.5703125 C-52.17379085 27.44969163 -41.06634863 15.32506681 -26.5 6.8828125 C-17.89149691 2.52719757 -9.53106409 0.66925147 0 0 Z " fill="#FED5BC" transform="translate(157.2265625,85.7734375)"/>
<path d="M0 0 C8.8427691 7.80787282 17.51409047 16.39954903 23.87890625 26.37109375 C23.87890625 27.03109375 23.87890625 27.69109375 23.87890625 28.37109375 C-44.76109375 28.37109375 -113.40109375 28.37109375 -184.12109375 28.37109375 C-175.95245913 15.53466792 -175.95245913 15.53466792 -171.43359375 10.80859375 C-170.92304443 10.26759033 -170.41249512 9.72658691 -169.88647461 9.16918945 C-125.08185823 -37.43392693 -49.33503512 -42.25847825 0 0 Z " fill="#FDD82C" transform="translate(240.12109375,257.62890625)"/>
<path d="M0 0 C94.38 0 188.76 0 286 0 C286 4.29 286 8.58 286 13 C191.62 13 97.24 13 0 13 C0 8.71 0 4.42 0 0 Z " fill="#96B3BC" transform="translate(17,434)"/>
<path d="M0 0 C0.95795674 -0.00843994 1.91591348 -0.01687988 2.90289921 -0.02557558 C3.95755204 -0.01956553 5.01220487 -0.01355549 6.09881687 -0.00736332 C7.21745123 -0.01274886 8.33608559 -0.01813439 9.48861796 -0.02368313 C13.25662671 -0.03805047 17.02428849 -0.03083724 20.79231358 -0.023736 C23.48575049 -0.02943498 26.17916204 -0.03629616 28.87259007 -0.04453373 C35.44086888 -0.06175357 42.00905216 -0.06255516 48.57734769 -0.05732083 C53.91478092 -0.05328374 59.25218586 -0.05471717 64.58961773 -0.06006908 C65.72794916 -0.06119172 65.72794916 -0.06119172 66.88927718 -0.06233703 C68.43082766 -0.06386847 69.97237813 -0.06540681 71.5139286 -0.066952 C85.97920008 -0.0806886 100.44441751 -0.07523125 114.90968776 -0.06376678 C128.15029472 -0.0538335 141.39076195 -0.06677462 154.63134735 -0.09070098 C168.21874531 -0.11506951 181.80607814 -0.12470537 195.39349753 -0.11804825 C203.02502731 -0.11455098 210.65644961 -0.11682145 218.28796291 -0.13429928 C224.78467993 -0.14899327 231.28121378 -0.14969367 237.77792709 -0.13222837 C241.09393856 -0.12369251 244.40955359 -0.12378369 247.72556019 -0.13687992 C251.31733329 -0.14998569 254.90820642 -0.13863391 258.49993992 -0.12088871 C259.55236203 -0.13049372 260.60478413 -0.14009872 261.68909782 -0.14999479 C268.72151736 -0.07814307 268.72151736 -0.07814307 272.0173893 2.27785301 C274.24120477 5.75281225 273.63241425 8.33715622 273.36287022 12.38031673 C273.03287022 11.39031673 272.70287022 10.40031673 272.36287022 9.38031673 C239.08768222 9.41630301 205.81260506 9.47322104 172.53750738 9.55823769 C168.60966646 9.56825522 164.68182512 9.57809934 160.7539835 9.58783627 C159.97201629 9.58977764 159.19004908 9.59171901 158.3843859 9.59371921 C145.72051821 9.6247459 133.05666864 9.64172173 120.3927701 9.65351096 C107.39980679 9.66591906 94.40693866 9.69341273 81.41403544 9.7349298 C73.39577219 9.76007502 65.37766675 9.77343327 57.35936351 9.77174631 C51.21237174 9.77171305 45.06561489 9.79266178 38.9186945 9.82148457 C36.39596396 9.83001732 33.87319978 9.83171076 31.35046101 9.82611942 C27.910263 9.81950913 24.4710312 9.83733048 21.03093052 9.8613348 C20.02897911 9.85357438 19.02702771 9.84581397 17.99471414 9.83781838 C12.26927304 9.90870611 8.87720473 10.50275841 4.36287022 14.38031673 C0.49815996 18.6518386 0.04847718 21.60966609 0.1446085 27.08270931 C0.64593065 34.65693557 1.88045083 42.15694125 2.98787022 49.66156673 C3.25756875 51.52568913 3.52660094 53.38990804 3.79499912 55.2542181 C4.49908508 60.13358058 5.21133907 65.01171412 5.92561436 69.88959408 C6.93439471 76.78940386 7.93188249 83.69085707 8.93074131 90.59210873 C9.46206448 94.26285999 9.99644958 97.93314539 10.53328037 101.60309505 C10.77596379 103.26906888 11.01863997 104.93504375 11.26130772 106.60101986 C11.42962101 107.74486141 11.42962101 107.74486141 11.60133457 108.91181087 C12.36287022 114.15429942 12.36287022 114.15429942 12.36287022 116.38031673 C10.71287022 116.38031673 9.06287022 116.38031673 7.36287022 116.38031673 C4.0075724 97.08126704 1.14312019 77.71941234 -1.63859463 58.33100033 C-2.26525795 53.9665435 -2.90237342 49.60367652 -3.54171276 45.24106121 C-4.03984527 41.82896962 -4.5303684 38.4158144 -5.0188818 35.00233364 C-5.25049465 33.39301043 -5.48486039 31.78408054 -5.72223568 30.17559719 C-8.69784563 9.9682222 -8.69784563 9.9682222 -7.63712978 3.38031673 C-5.3438122 0.36672084 -3.71175403 0.00460759 0 0 Z " fill="#9AB8C2" transform="translate(27.63712978363037,301.61968326568604)"/>
<path d="M0 0 C0.62648437 0.33902344 1.25296875 0.67804688 1.8984375 1.02734375 C7.68350815 4.57669933 11.48181228 10.51023753 13.640625 16.89453125 C15.07879857 25.32035247 14.91257751 33.34811179 10.546875 40.81640625 C6.35762925 46.73001325 1.20577809 52.15742661 -6 54 C-16.6101821 54.96356659 -25.57348184 54.68859741 -34.1875 47.9375 C-39.50503624 43.02819981 -43.57109798 35.68276629 -44.23828125 28.3984375 C-44.49476302 17.95018001 -41.91185398 11.35762271 -34.79296875 3.72265625 C-24.9506843 -5.73365626 -11.61355989 -6.79325994 0 0 Z " fill="#030303" transform="translate(175,334)"/>
<path d="M0 0 C1.77001315 3.70859897 1.40048162 5.83326615 0.3125 9.75 C-1 11.4375 -1 11.4375 -2.6875 12.75 C-9.14649725 13.3651426 -14.57063262 12.22816807 -20.79296875 10.50390625 C-26.44495236 9.03179716 -31.85996845 8.60064603 -37.68359375 8.6171875 C-38.81124901 8.61575241 -38.81124901 8.61575241 -39.96168518 8.61428833 C-41.54420048 8.61361095 -43.12671863 8.61543426 -44.70922852 8.61962891 C-47.11415944 8.6249759 -49.518903 8.61967275 -51.92382812 8.61328125 C-53.46875041 8.61394226 -55.01367257 8.61522388 -56.55859375 8.6171875 C-57.2692247 8.61516327 -57.97985565 8.61313904 -58.71202087 8.61105347 C-63.12316469 8.63147649 -67.33563869 9.0468461 -71.6875 9.75 C-74.76100325 10.084596 -77.628582 10.26966175 -80.6875 9.75 C-83.73924034 7.2192885 -84.50964839 5.60368774 -85.3125 1.75 C-84.59710918 -1.68387596 -83.40942803 -2.98225261 -80.68554688 -5.12646484 C-76.65280462 -7.39414322 -72.16062526 -7.61193164 -67.625 -8.0625 C-66.56369873 -8.17795166 -65.50239746 -8.29340332 -64.40893555 -8.41235352 C-46.09878327 -10.25578564 -15.1925471 -12.71934176 0 0 Z " fill="#020406" transform="translate(367.6875,90.25)"/>
<path d="M0 0 C0.86262451 0.10078857 1.72524902 0.20157715 2.61401367 0.30541992 C7.9623429 1.10243637 10.83636671 2.33125629 14.25 6.8125 C14.875 9.8125 14.875 9.8125 14.25 12.8125 C12.1953125 15.5078125 12.1953125 15.5078125 9.25 17.8125 C6.39617333 18.04930689 4.27894618 18.03486827 1.5 17.6875 C0.83484375 17.625625 0.1696875 17.56375 -0.515625 17.5 C-3.31605626 17.23072776 -6.10621849 16.89255194 -8.89794922 16.54541016 C-24.36902435 14.69080088 -39.09557414 15.22868374 -54.21142578 19.12158203 C-62.90481607 21.33419058 -62.90481607 21.33419058 -67.75 19.8125 C-70.1875 17.6875 -70.1875 17.6875 -71.75 14.8125 C-71.69216584 11.45811882 -71.60883985 9.0036991 -69.609375 6.23046875 C-53.43131819 -6.10699894 -18.5848684 -2.38495127 0 0 Z " fill="#010405" transform="translate(472.75,130.1875)"/>
<path d="M0 0 C1.875 1.6875 1.875 1.6875 3 4 C2.79195594 9.92925584 2.79195594 9.92925584 0.74609375 12.6953125 C-3.45396213 15.83360929 -10.31225923 14.24081179 -15.203125 13.54296875 C-16.86601562 13.27419922 -16.86601562 13.27419922 -18.5625 13 C-35.24347034 10.44772039 -52.42248176 11.66403979 -68.59765625 16.3828125 C-72.35411862 17.34788738 -75.13503244 17.54245159 -79 17 C-81.98202078 14.46528234 -82.83065071 12.81287661 -83.625 9 C-82.93760234 5.70049124 -82.00662934 4.15919628 -79.28125 2.16015625 C-73.88314212 -0.58511437 -67.87977113 -1.72408967 -62 -3 C-60.9790625 -3.22816406 -59.958125 -3.45632812 -58.90625 -3.69140625 C-41.88709971 -6.89369374 -15.85734388 -7.97521992 0 0 Z " fill="#010305" transform="translate(484,86)"/>
<path d="M0 0 C1.44149414 0.15118286 1.44149414 0.15118286 2.91210938 0.30541992 C8.93533698 1.10119332 12.32796148 2.31270722 16.5 6.8125 C17.1875 9.8125 17.1875 9.8125 16.5 12.8125 C14.5625 15.6875 14.5625 15.6875 11.5 17.8125 C6.18474555 18.40308383 1.50495071 17.66650741 -3.75 16.8125 C-20.703019 14.27866168 -41.50035756 13.9430883 -57.5 20.8125 C-61.94778953 21.36847369 -63.76538251 21.34392542 -67.4375 18.6875 C-69.5 15.8125 -69.5 15.8125 -70.125 12.8125 C-69.28141988 8.76331544 -67.63473276 7.46855059 -64.5 4.8125 C-44.51278718 -3.15830415 -20.97922778 -2.43448972 0 0 Z " fill="#010305" transform="translate(470.5,106.1875)"/>
<path d="M0 0 C1.05182968 0.00273422 1.05182968 0.00273422 2.12490845 0.00552368 C10.69070974 0.04299075 19.19815269 0.25222418 27.6875 1.5 C28.42742187 1.60078857 29.16734375 1.70157715 29.9296875 1.80541992 C34.84825196 2.67495185 37.40748817 4.43066134 40.5 8.3125 C41.125 11.3125 41.125 11.3125 40.5 14.3125 C38.4296875 17.0078125 38.4296875 17.0078125 35.5 19.3125 C31.90625 19.6171875 31.90625 19.6171875 28 19.1875 C26.7109375 19.06117188 25.421875 18.93484375 24.09375 18.8046875 C20.5 18.3125 20.5 18.3125 18.17211914 17.79663086 C12.66560582 16.79896837 7.01829035 17.03021097 1.4375 17 C0.76992676 16.99605225 0.10235352 16.99210449 -0.58544922 16.98803711 C-10.89548923 16.95959733 -20.56603452 17.95133531 -30.59375 20.4375 C-33.97052208 21.25510266 -37.00833077 21.652397 -40.5 21.3125 C-43.82274404 18.85655875 -45.27618008 17.3868356 -46.125 13.3125 C-45.28219122 9.26701785 -43.63918267 7.95265499 -40.5 5.3125 C-37.3359375 4.23828125 -37.3359375 4.23828125 -33.875 3.625 C-32.18503906 3.30982422 -32.18503906 3.30982422 -30.4609375 2.98828125 C-29.83993164 2.88555908 -29.21892578 2.78283691 -28.57910156 2.67700195 C-27.09067697 2.41605574 -25.60846258 2.11865954 -24.13183594 1.79760742 C-16.09365725 0.12012 -8.18813822 -0.04392713 0 0 Z " fill="#010305" transform="translate(446.5,152.6875)"/>
<path d="M0 0 C3.86909091 3.31636364 3.86909091 3.31636364 4.5625 6.9375 C3.79477021 11.11736219 2.42123173 12.52506641 -1 15 C-6.41930215 15.88478402 -11.43173318 14.27519563 -16.64453125 12.8515625 C-25.47786811 10.60980763 -33.61745386 9.67513211 -42.75 9.75 C-43.89581543 9.75386719 -45.04163086 9.75773437 -46.22216797 9.76171875 C-54.34356571 9.84467245 -61.9979466 10.63183282 -70 12 C-72.93117224 12.36639653 -75.0289118 12.38514106 -78 12 C-80.98202078 9.46528234 -81.83065071 7.81287661 -82.625 4 C-81.8959237 0.50043376 -80.59665145 -0.70223547 -77.83300781 -2.87646484 C-74.59960088 -4.8583693 -71.27881316 -5.32469243 -67.5625 -5.8125 C-66.74048096 -5.92867676 -65.91846191 -6.04485352 -65.0715332 -6.16455078 C-45.16400501 -8.69278638 -18.3579347 -9.49879199 0 0 Z " fill="#020405" transform="translate(365,112)"/>
<path d="M0 0 C1.34840218 3.46731989 0.88647815 5.70982646 -0.125 9.25 C-2.125 11.75 -2.125 11.75 -5.125 13.25 C-7.11425781 13.23266602 -7.11425781 13.23266602 -9.328125 12.94140625 C-10.52791992 12.78406006 -10.52791992 12.78406006 -11.75195312 12.62353516 C-14.4668356 12.19619254 -17.15334218 11.65673371 -19.84326172 11.09448242 C-28.88515018 9.28327982 -37.79097225 8.95212679 -47 8.9375 C-48.21139648 8.93226318 -49.42279297 8.92702637 -50.67089844 8.92163086 C-57.46939158 8.97414861 -63.92425285 9.51822348 -70.60595703 10.78686523 C-78.59606982 12.25587512 -78.59606982 12.25587512 -82.5 9.6875 C-84.67726285 6.42160572 -85.125 4.17016134 -85.125 0.25 C-83.875 -2.5625 -83.875 -2.5625 -81.125 -4.75 C-77.51105728 -5.92887971 -73.89681606 -6.35490112 -70.125 -6.75 C-69.07699219 -6.86085937 -68.02898437 -6.97171875 -66.94921875 -7.0859375 C-13.99332783 -11.52391703 -13.99332783 -11.52391703 0 0 Z " fill="#010304" transform="translate(368.125,184.75)"/>
<path d="M0 0 C1.80669051 2.71003576 1.63267459 4.51453381 1.125 7.6875 C-0.75 10.625 -0.75 10.625 -3.875 12.6875 C-8.4635055 13.14355836 -13.03890958 11.86101124 -17.5078125 10.93359375 C-27.28855597 8.99488752 -36.77287433 8.39083771 -46.75 8.375 C-47.96147705 8.36976318 -49.1729541 8.36452637 -50.42114258 8.35913086 C-57.22016931 8.41165633 -63.67882021 8.95545845 -70.36206055 10.21826172 C-73.68248073 10.83827994 -76.51787307 11.16708956 -79.875 10.6875 C-83.25621991 8.24151113 -84.64436783 6.79453441 -85.5 2.6875 C-84.85149721 -0.42531338 -84.00214998 -2.01037577 -81.6953125 -4.18896484 C-77.64545247 -6.68862362 -72.70154749 -6.70256122 -68.0625 -7.125 C-66.90975586 -7.24045166 -65.75701172 -7.35590332 -64.56933594 -7.47485352 C-16.95685905 -11.86980133 -16.95685905 -11.86980133 0 0 Z " fill="#010304" transform="translate(367.875,161.3125)"/>
<path d="M0 0 C1.8046875 1.90625 1.8046875 1.90625 3 4 C2.79024981 9.97788049 2.79024981 9.97788049 0.6953125 12.6875 C-2.74142316 15.34819857 -6.87594376 14.46752428 -11 14 C-13.03456175 13.55947868 -15.05051315 13.06012 -17.0715332 12.5612793 C-33.88990121 8.46319471 -52.31558257 8.32908165 -69.3359375 11.5625 C-72.30589559 12.05023505 -74.99576313 12.20747492 -78 12 C-81.32274404 9.54405875 -82.77618008 8.0743356 -83.625 4 C-82.77162228 -0.09621308 -81.23232839 -1.36923207 -78 -4 C-75.09966414 -4.87337966 -72.65101651 -5.42581987 -69.6875 -5.8125 C-68.86282227 -5.92867676 -68.03814453 -6.04485352 -67.18847656 -6.16455078 C-47.1779901 -8.68722444 -18.30851863 -10.06968525 0 0 Z " fill="#020304" transform="translate(366,136)"/>
<path d="M0 0 C1.17957275 0.00862061 2.35914551 0.01724121 3.57446289 0.02612305 C31.46796802 0.31222013 31.46796802 0.31222013 40.625 4.1875 C43.29128257 6.93924034 43.625 7.74879096 43.625 11.6875 C42.625 15.1875 42.625 15.1875 40.8125 17.6875 C35.28467238 20.28883065 29.62225689 18.75537408 23.72949219 17.91821289 C16.62096434 17.00696889 9.53327999 17.00369364 2.375 17 C1.14136719 16.98775391 -0.09226562 16.97550781 -1.36328125 16.96289062 C-10.84508837 16.94793509 -20.24941398 17.55453968 -29.375 20.3125 C-32.32027489 21.17153851 -34.34730474 21.67847761 -37.375 21.1875 C-40.5408926 18.98896347 -41.29296653 17.46949004 -42.375 13.75 C-42.375 10.1875 -42.375 10.1875 -41.1875 7.4375 C-36.76526778 3.89971423 -31.86957041 3.17663703 -26.375 2.1875 C-24.96976074 1.93045288 -24.96976074 1.93045288 -23.53613281 1.66821289 C-15.63233854 0.32208675 -8.00808693 -0.09392805 0 0 Z " fill="#010204" transform="translate(443.375,176.8125)"/>
<path d="M0 0 C13.62589023 4.12160111 26.08950231 14.39943644 33.02392578 26.83642578 C38.33098416 37.06359623 41.34445268 46.27306211 41.25 57.875 C41.26160156 59.28845703 41.26160156 59.28845703 41.2734375 60.73046875 C41.23200103 75.70975217 36.10285194 88.17479982 27 100 C26.2575 101.03125 25.515 102.0625 24.75 103.125 C18.57132459 109.5845243 11.10747838 114.32868904 3 118 C3 117.01 3 116.02 3 115 C4.43359375 113.59765625 4.43359375 113.59765625 6.4375 112.0625 C16.05565091 103.9253741 21.80271007 93.74434008 26 82 C26.3403125 81.07058594 26.680625 80.14117187 27.03125 79.18359375 C32.23858217 62.23565616 29.59224005 43.40722075 22.1875 27.625 C19.33708875 22.26334035 15.88628637 17.64435211 12 13 C11.360625 12.113125 10.72125 11.22625 10.0625 10.3125 C7.5441137 7.48885476 4.71247395 5.4781526 1.609375 3.33203125 C1.07828125 2.89246094 0.5471875 2.45289062 0 2 C0 1.34 0 0.68 0 0 Z " fill="#F5C3A7" transform="translate(182,90)"/>
<path d="M0 0 C27.18296375 6.27299163 53.02705672 26.96754651 68 50 C68 50.66 68 51.32 68 52 C63.18173833 52.6615921 58.79631051 52.91686378 54 52 C51.5386524 49.66893167 50.36112561 47.34794667 48.81640625 44.3359375 C38.6115765 25.59416416 18.8208541 11.09950985 0 2 C0 1.34 0 0.68 0 0 Z " fill="#F9C200" transform="translate(196,234)"/>
<path d="M0 0 C3.24394395 2.09054166 4.93384184 3.41646409 6.8125 6.8125 C7.64570267 11.89673669 7.37624336 15.68501328 5.0625 20.3125 C2.3710655 23.30298278 0.42531165 24.55966649 -3.5546875 25.18359375 C-7.96165201 25.30028907 -11.17067892 25.37582413 -14.6875 22.5 C-18.70757322 18.17842129 -19.64319195 15.80837007 -19.50390625 10.09765625 C-18.86542249 5.48638465 -16.37977375 2.77920844 -12.875 -0.0625 C-8.25878541 -1.9948689 -4.6470785 -1.73126454 0 0 Z " fill="#E0F2F9" transform="translate(166.1875,347.1875)"/>
<path d="M0 0 C0.82421875 2.15625 0.82421875 2.15625 1 4 C-0.39603943 3.58402437 -1.79181199 3.16715317 -3.1875 2.75 C-4.11304688 2.47671875 -5.03859375 2.2034375 -5.9921875 1.921875 C-7.9464417 1.32290878 -9.89049859 0.68918886 -11.8203125 0.015625 C-38.27686345 -8.96440535 -67.17804173 -7.73686044 -94.05078125 -1.39257812 C-96.39619864 -0.92020448 -98.6150086 -0.84612959 -101 -1 C-101 -2.32 -101 -3.64 -101 -5 C-70.6263826 -13.20047862 -28.27501547 -17.03433507 0 0 Z " fill="#40A0ED" transform="translate(376,215)"/>
<path d="M0 0 C0 1.32 0 2.64 0 4 C-6.38542929 3.32988431 -12.7179301 2.48056857 -19.0625 1.5 C-22.37366557 0.99058991 -25.68595233 0.49030503 -29 0 C-30.91619141 -0.28617188 -30.91619141 -0.28617188 -32.87109375 -0.578125 C-47.86444349 -2.37935335 -63.37645242 -1.69898953 -78 2 C-78.65178223 2.16048828 -79.30356445 2.32097656 -79.97509766 2.48632812 C-87.4257222 4.32955806 -94.75650238 6.45842189 -102 9 C-101.90234375 7.1875 -101.90234375 7.1875 -101 5 C-71.37000618 -11.85917145 -31.554925 -7.59256728 0 0 Z " fill="#2C8CEA" transform="translate(495,210)"/>
</svg>
